<svg width="115" height="64" viewBox="0 0 115 64" fill="none" xmlns="http://www.w3.org/2000/svg">
<g opacity="0.3">
<path d="M114.841 49.7545C114.841 49.7545 114.841 49.7741 114.841 49.7545C114.802 49.6762 114.723 49.5783 114.723 49.5C114.665 48.0904 114.175 46.7787 113.764 45.4474C113.47 44.5468 112.981 43.7637 112.55 42.9218C112.374 42.589 112.354 42.0604 111.826 42.1778C111.297 42.2953 111.708 42.8043 111.552 43.098C111.708 43.4896 111.63 43.8811 111.532 44.2727C111.61 44.7034 111.689 45.1341 111.787 45.5648C111.845 45.7215 111.904 45.8585 111.747 45.9955C111.552 46.0739 111.434 46.3088 111.18 46.2501C111.003 46.4067 110.749 46.2696 110.573 46.4263C109.809 46.7199 109.026 46.7395 108.223 46.6025C107.988 46.4458 107.675 46.6416 107.44 46.4458C107.264 46.2501 107.01 46.3871 106.814 46.2696C105.561 46.1326 104.68 45.4278 104.092 44.351C103.955 44.1748 104.151 43.842 103.838 43.7441C103.76 43.7049 103.72 43.6462 103.72 43.5679C103.486 43.3329 103.211 43.4113 102.957 43.5091C102.82 43.979 102.918 44.4293 103.114 44.8209C103.309 45.1929 103.211 45.4474 102.976 45.6823C102.252 46.4458 101.352 46.9744 100.333 46.9549C98.7477 46.9157 97.338 46.348 96.6528 44.7426C96.5549 44.5272 96.4766 44.3118 96.2808 44.1944C96.1046 44.0769 95.9089 44.0378 95.7327 44.1552C95.5369 44.2923 95.576 44.488 95.6739 44.6642C95.7914 44.8992 95.8697 45.1341 96.0067 45.3691C96.2025 45.7215 96.1046 45.9564 95.811 46.2109C94.4209 47.4247 92.3457 47.1898 91.308 45.6627C90.9361 45.1341 90.6424 44.5468 90.4466 43.9203C90.4858 43.6462 90.4858 43.3721 90.1334 43.3329C89.8005 43.2938 89.6831 43.5287 89.6831 43.8224C89.6831 44.3118 89.6831 44.7817 89.6635 45.2712C89.6635 45.5257 89.6831 45.7998 89.3111 45.8389C89.2524 45.6236 89.2132 45.3886 89.1545 45.1733C89.0957 44.9383 89.174 44.5664 88.7825 44.6055C88.4692 44.6251 88.4105 44.9383 88.3909 45.2124C88.3713 45.4082 88.3909 45.604 88.4301 45.7998C88.5867 47.0528 88.156 47.7184 87.0009 48.1883C85.7871 48.6777 84.5928 48.5407 83.379 48.1883C82.4197 47.8946 81.7148 47.3268 81.245 46.4654C81.382 45.604 81.01 44.8992 80.5402 44.2335C80.2269 43.8028 79.7962 43.842 79.5613 44.3118C79.3851 44.6838 79.2284 45.1145 79.5025 45.5061C79.757 45.8389 79.8745 46.2696 80.2661 46.4654C80.5597 46.994 80.4031 47.4247 79.992 47.8359C79.4634 48.3841 78.8565 48.7756 78.1125 48.9714C77.7993 48.9714 77.4664 48.9714 77.1532 48.9714C76.977 48.8148 76.7812 48.756 76.5463 48.7952C75.4499 48.2079 74.6472 47.366 74.2165 46.1913C74.099 45.8585 73.8641 45.6627 73.6096 45.4669C73.1593 45.1341 73.081 45.4865 73.0027 45.8193C72.3174 45.8781 71.6518 45.9564 70.9665 45.976C68.7347 46.0347 66.4832 46.0151 64.2513 46.1717C63.0375 46.2501 62.8809 46.3479 62.8809 47.6009C63.2333 48.11 63.292 48.7952 63.801 49.2259C64.1143 50.2048 64.917 50.8705 65.3673 51.7515C66.0721 52.0451 66.7964 52.2996 67.5796 52.4367C67.8928 52.4758 68.069 52.3975 68.1277 52.0843C68.1865 52.0256 68.2648 51.9472 68.3235 51.8885C68.5976 51.771 68.5976 51.5557 68.5389 51.3208C68.5389 51.2033 68.5389 51.0662 68.5389 50.9488C68.6172 50.6551 68.578 50.381 68.3823 50.1461C68.2452 49.9307 68.1277 49.6958 67.9515 49.5C67.1489 48.619 66.3657 48.5994 65.5826 49.5C65.1127 50.0482 64.9561 49.5979 64.682 49.363C64.4079 48.9322 64.1143 48.4819 63.8402 48.0512L63.8206 48.0317C63.7031 47.7576 63.1941 47.6988 63.3703 47.2681C63.5465 46.8374 63.9381 46.9157 64.2905 46.8766C64.3492 46.8766 64.4275 46.8766 64.4863 46.8766C67.1684 46.8374 69.8506 46.7395 72.5328 46.5242C73.1397 46.485 73.2572 46.7787 73.2963 47.2485C73.218 48.0708 73.8054 48.7365 73.9032 49.5196C73.9228 49.637 74.0599 49.7349 74.1969 49.7349C74.3927 49.7545 74.4906 49.6175 74.5689 49.4804C74.6864 49.2651 74.6276 49.0497 74.5493 48.8343C74.471 48.6386 74.334 48.4232 74.608 48.1883C75.1367 48.7756 75.6848 49.3825 76.5463 49.4608C76.7029 49.5196 76.8399 49.6175 76.9966 49.637C78.4258 49.7545 79.6004 49.2063 80.5402 48.1687C81.0296 47.6205 81.0296 47.6401 81.5778 48.0512C82.635 48.8931 83.8488 49.3042 85.1997 49.2063C86.4723 49.1084 87.7253 48.991 88.5476 47.7576C88.8412 47.3073 88.9783 47.3856 89.3307 47.8555C89.5656 48.1687 89.781 48.5015 90.0355 48.7756C90.1921 48.9518 90.4075 49.0693 90.6424 48.9322C90.8382 48.8148 90.8382 48.619 90.8186 48.4232C90.7794 48.1687 90.7599 47.9142 90.7207 47.6597C90.7599 47.4443 90.7794 47.2094 90.5641 47.0528V47.0332C90.6032 46.7982 90.29 46.3284 90.9165 46.485C90.9752 47.0332 91.4451 47.1506 91.8562 47.3268C91.9345 47.366 92.0128 47.4247 92.0912 47.4639C92.1107 47.4835 92.1303 47.503 92.1499 47.503C92.3652 47.6793 92.6198 47.6988 92.8743 47.6793C94.0881 47.738 95.2824 47.6988 96.2221 46.7395C96.5745 46.3871 96.9073 46.5633 97.2793 46.7982C99.5112 48.2079 101.821 47.9142 103.701 45.976C103.936 45.7215 104.073 45.7019 104.327 45.9172C106.148 47.3856 108.223 47.6988 110.475 47.3464C111.454 47.1898 112.374 46.9744 112.844 45.8977C113.216 46.5046 113.216 47.1115 113.431 47.6205C113.842 48.6386 113.999 49.6762 114.097 50.753C114.351 53.3569 113.529 55.5496 111.61 57.3312C111.16 57.7619 110.729 58.1926 110.279 58.6233C110.162 58.6625 110.005 58.6821 109.927 58.7604C108.302 60.1112 106.559 61.2663 104.778 62.4019C104.641 62.4802 104.504 62.5781 104.543 62.7738C105.502 62.5976 107.969 61.1685 109.907 59.6414C110.279 59.3281 110.651 59.0149 111.023 58.7212C112.531 57.5074 113.803 56.1173 114.527 54.3162C114.841 54.1204 114.547 53.768 114.743 53.5526C114.762 53.4939 114.782 53.4156 114.782 53.3569C114.939 53.1219 114.743 52.8087 114.939 52.5933V52.5737C114.997 51.5753 115.076 50.6551 114.841 49.7545ZM66.5419 50.0286C67.0118 49.872 67.188 50.3614 67.4229 50.6551C67.4621 50.7138 67.5013 50.753 67.5404 50.8117C67.697 51.0075 67.7558 51.2229 67.697 51.4578C67.697 51.497 67.697 51.5165 67.697 51.5557C67.2272 51.634 66.7377 51.4382 66.2678 51.4774C66.2874 51.3403 66.2874 51.2033 66.2678 51.0467C66.2483 50.6747 66.0721 50.1852 66.5419 50.0286Z" fill="#313131"/>
<path opacity="0.5" d="M108.752 1C111 18.5 108.752 23.5 92 29" stroke="#313131" stroke-width="0.5"/>
<path d="M40.053 39.1631C40.8557 38.8107 41.5997 38.3604 42.3045 37.8122C42.5002 37.6556 42.7156 37.3815 42.9897 37.5577C43.4791 37.9101 44.1448 37.9101 44.4972 38.5561C44.7321 38.9673 45.1433 39.4372 45.8089 39.3197C45.7698 39.0064 45.5544 38.889 45.3978 38.7324C45.1041 38.4387 45.1628 38.2037 45.5348 38.0667C47.1206 37.5577 48.6086 36.8333 50.0378 35.9914C50.3706 35.7957 50.6251 35.874 50.9383 36.0697C52.2501 36.9116 53.7184 37.3032 55.2455 37.5577C55.9111 37.6751 56.6159 37.5773 57.2033 37.127C57.3795 37.0095 57.4774 36.8333 57.3599 36.6179C57.2424 36.4026 57.0662 36.4026 56.8705 36.52C56.381 36.8137 55.8132 36.9508 55.2651 36.8137C54.0708 36.52 52.857 36.2655 51.7998 35.5411C51.3299 35.5216 51.0558 35.1887 50.7817 34.8559C50.6447 34.6797 50.5076 34.4839 50.351 34.3469C50.2335 34.2294 50.0573 34.2294 49.9007 34.3469C49.7637 34.4448 49.7832 34.6014 49.8615 34.6993C50.2531 35.1496 49.979 35.3845 49.5875 35.5803C49.098 35.8348 48.6673 36.1872 48.1191 36.3243C47.9429 36.2851 47.8059 36.3438 47.7471 36.5005C46.8857 37.0095 45.9655 37.3032 44.9279 37.1857C45.6131 36.7746 46.1613 36.2068 46.8465 35.8152C47.0032 35.7173 47.1206 35.6195 47.0619 35.4433C47.0227 35.3062 46.827 35.2083 46.7682 35.2866C46.2984 35.7565 45.4565 35.5216 45.1041 36.2655C44.83 36.8529 44.6342 36.7941 44.2623 36.2068C43.949 35.7173 43.6553 35.2083 43.3812 34.6993C43.2442 34.4448 43.068 34.2686 42.7743 34.3469C42.5002 34.4252 42.3632 34.6601 42.3436 34.9342C42.3436 35.13 42.4024 35.3062 42.4415 35.502C42.6569 35.6195 42.5198 35.8935 42.6569 36.011C43.1267 36.4222 42.8918 36.6962 42.5394 37.0291C41.678 37.8709 40.6208 38.3799 39.4852 38.7128C38.8587 38.889 38.1735 39.2022 37.4883 38.8302C37.4491 38.7324 37.41 38.7128 37.3317 38.7911C36.2745 38.6345 35.5109 37.9688 34.8453 37.2053C34.6299 36.9703 34.4537 36.6767 34.2579 36.4222C34.1796 36.3047 34.0426 36.246 33.9251 36.3243C33.8076 36.383 33.7097 36.5396 33.8076 36.6571C34.16 37.127 33.8272 37.3619 33.4944 37.5968C33.1616 37.8513 32.8483 38.145 32.4372 38.2821C32.3197 38.2625 32.2414 38.3016 32.2022 38.4191C31.4387 38.9673 30.6556 39.4176 29.6963 39.4567C29.1872 39.261 28.6586 39.1435 28.1105 39.261C27.2686 38.9477 26.8966 38.2233 26.5246 37.4794C26.5638 37.0878 26.4072 36.7158 26.2701 36.3634C26.231 36.2459 26.0939 36.1872 25.9569 36.1872C25.8003 36.1872 25.7024 36.2851 25.6632 36.4026C25.6045 36.5788 25.5849 36.7941 25.6045 36.9703C25.7024 37.8513 25.4283 38.6149 24.8018 39.2414C24.4885 39.4567 24.2144 39.7504 23.8229 39.8091C23.2355 40.1028 22.6678 40.1615 22.0804 39.8091C22.0021 39.6329 21.8847 39.535 21.6889 39.5938C21.219 39.4176 20.9449 39.0456 20.7491 38.654C20.4751 38.1059 20.0248 37.6556 19.829 37.0486C19.7702 36.892 19.6919 36.7354 19.4766 36.7941C19.32 36.8333 19.32 36.9899 19.32 37.1074C19.32 37.5381 19.1438 37.9884 19.2221 38.3604C19.4178 39.1631 18.9284 39.5155 18.3998 39.8287C17.0098 40.651 15.4435 41.0034 13.8577 41.1796C12.3502 41.5516 10.784 41.6103 9.27647 42.0019C8.94364 42.0998 8.57166 42.0214 8.21926 41.9236C8.1801 41.6103 8.37588 41.4341 8.57166 41.2775C9.31562 40.788 10.0596 40.2594 11.0189 40.2007C11.2147 40.1811 11.43 40.2007 11.4692 39.9462C11.5084 39.7308 11.3909 39.5742 11.2147 39.4763C11.1364 39.4372 11.0189 39.4372 10.9406 39.4176C10.4707 39.0848 10.0596 39.1043 9.72676 39.6134C9.23731 39.9853 8.64997 40.2007 8.21926 40.651C8.02348 40.8663 7.80812 40.6901 7.59277 40.6118C7.43614 39.4176 6.55513 38.5366 6.26146 37.4206C6.24189 37.3032 6.10484 37.2053 6.00695 37.127C5.90906 37.0486 5.77202 37.0095 5.63497 37.0682C5.45877 37.1465 5.40004 37.2836 5.41961 37.4598C5.43919 37.6164 5.49793 37.7926 5.57624 37.9101C6.00695 38.4974 6.20273 39.1826 6.45724 39.8483C7.04458 41.4145 7.49488 43.0395 8.19968 44.5862C8.27799 44.7428 8.25842 44.9973 8.57166 44.9581C8.66955 44.4883 8.47377 44.0771 8.37588 43.6464C8.19968 42.9416 8.29757 42.8829 8.96322 42.785C11.0581 42.5109 13.1529 42.2172 15.2086 41.669C16.4812 41.3362 17.7733 40.9838 18.9284 40.4161C19.1829 40.651 19.085 40.9055 19.1438 41.1013C19.2221 41.4145 19.0654 41.9627 19.5745 41.9236C20.0443 41.8844 20.0248 41.3754 20.0248 40.9838C20.0248 40.7489 19.9856 40.5335 19.9856 40.2986C19.9856 39.9853 20.0052 39.6721 20.0248 39.3393C20.3967 39.4763 20.4946 39.7896 20.71 39.9658C21.5323 40.7293 22.4916 41.0817 23.5684 40.651C24.2536 40.3769 24.9388 40.0441 25.3891 39.398C25.8003 39.3393 25.9177 38.7519 26.4072 38.8498C27.2294 39.9462 28.3062 40.5923 29.6767 40.2399C31.1646 39.8483 32.5742 39.261 33.7489 38.2233C34.1209 37.8905 34.3362 37.8905 34.7082 38.2429C36.4311 39.8874 38.0952 40.0245 40.053 39.1631Z" fill="#313131"/>
<path d="M67.2861 34.8753C67.7951 34.7579 68.265 34.6404 68.6565 34.288H68.6761C68.9306 34.1705 69.2439 34.1314 69.4397 33.8964H69.4592C69.8704 33.7398 70.3011 33.6223 70.6143 33.2895C70.8297 33.2112 71.0255 33.0742 71.2213 32.9175C71.3387 32.8392 71.4366 32.7609 71.5541 32.6826C71.789 32.6239 72.0044 32.4672 72.2393 32.7022C72.3959 33.0546 72.67 33.2699 72.9637 33.5049C73.2574 33.7985 73.5706 34.0335 73.9817 34.1118C74.2167 34.288 74.5299 34.0922 74.7453 34.288H74.7649C76.1549 34.4446 77.4079 34.0531 78.5826 33.3678C78.9741 33.1525 79.2482 33.1525 79.5027 33.5245C79.6006 33.6615 79.7181 33.7594 79.8551 33.8769C79.9922 33.9943 80.1684 34.1705 80.3642 33.9747C80.5404 33.8181 80.4816 33.5832 80.325 33.4461C79.8747 33.0742 79.8747 32.6043 80.0509 32.1148C79.8943 32.0953 79.8355 32.0561 79.7768 32.0757C79.6789 32.0953 79.581 32.1344 79.5223 32.2127C78.7979 32.9371 77.8778 33.2308 76.9184 33.4657C75.1956 33.8964 73.6098 33.2895 72.6113 31.782C72.2589 31.2534 72.2393 31.2534 71.7694 31.782C71.6324 31.9191 71.4758 32.017 71.3191 32.1344C70.5556 32.7022 69.6746 33.0546 68.8523 33.5245C68.1671 33.916 67.4427 34.1705 66.6596 34.3467C65.2696 34.66 64.0949 34.3076 63.0768 33.3287C62.8223 33.0937 62.5286 32.8588 62.2545 32.663C61.9609 32.4477 61.6868 32.5847 61.7064 32.898C61.7259 33.5245 61.3148 33.5636 60.9037 33.6419C59.5724 33.8964 58.2411 33.7594 56.9098 33.7594C56.5574 33.7594 56.2441 33.5832 56.0875 33.3091C55.4806 32.3302 54.5017 31.8995 53.4641 31.5667C52.4852 31.1947 51.4671 31.3709 50.4686 31.4688C50.312 31.4883 50.2141 31.645 50.1358 31.8016C50.0966 31.8603 50.0771 31.9191 50.0575 31.9778C49.8226 32.5064 49.9009 32.6043 50.4491 32.9763C51.0951 33.5245 51.8587 33.7007 52.6614 33.7398C52.7201 33.7985 52.7788 33.8573 52.8376 33.916C53.6011 34.0531 54.3646 34.1901 55.1478 34.3076C55.4414 34.3467 55.8134 34.4055 55.8721 34.7187C56.0288 35.4627 56.6553 35.7368 57.1251 36.1675C57.3405 35.9717 57.2818 35.7368 57.2818 35.5018C57.2818 34.7383 57.2622 34.7187 58.0257 34.6404C59.3179 34.5034 60.61 34.425 61.9021 34.1705C62.2546 34.1118 62.5286 34.2488 62.8419 34.3663C63.625 34.6991 64.369 35.1103 65.2108 35.2669C65.9352 35.5997 66.5813 35.1103 67.2861 34.8753ZM53.7969 33.1916C53.5032 33.2504 53.2291 33.1133 52.955 33.1329C52.818 33.1525 52.7005 33.1916 52.6026 33.2699C52.2894 32.6826 51.7804 32.3694 51.2322 32.154C52.3873 32.1736 53.5619 32.2323 54.5604 33.1133C54.2472 33.2699 54.0122 33.1525 53.7969 33.1916Z" fill="#313131"/>
<path d="M57.399 62.4803C56.6942 62.3237 56.3418 61.7559 55.9307 61.2665C55.0888 60.3267 54.4428 59.2499 53.8163 58.134C53.1115 56.8223 52.3871 55.5106 51.5061 54.2967C50.8208 53.3374 50.86 53.2395 51.8976 52.7305C52.1326 52.613 52.3479 52.4956 52.5633 52.3194C53.4051 51.6733 53.5813 50.5769 52.9157 49.7546C52.3675 49.0694 51.741 48.4625 50.8992 48.0905C49.5483 47.5032 48.1387 47.1508 46.7095 46.7984C46.0243 46.4264 45.2411 46.7005 44.5167 46.4655C44.2818 46.3872 44.1252 46.6418 44.1839 46.9158C44.2231 47.1116 44.3406 47.3466 44.4972 47.3857C45.0454 47.5423 45.3586 48.0709 45.9264 48.1884C46.5529 48.6387 47.1598 49.1477 48.1191 49.1869C47.6884 48.345 46.8269 48.3059 46.3179 47.8164C46.2005 47.4249 46.455 47.3857 46.7486 47.3661C46.8857 47.6011 47.101 47.6011 47.336 47.5619C47.5122 47.6794 47.6688 47.8164 47.8842 47.8164C48.1191 47.9926 48.4128 48.0122 48.6869 47.9731C48.8435 48.1688 49.0393 48.208 49.2742 48.1688C49.607 48.2863 49.9398 48.4038 50.2727 48.5212C51.0558 48.7953 51.7214 49.2652 52.2696 49.8721C52.8961 50.5769 52.857 51.1643 52.1522 51.7908C51.8781 52.0257 51.6235 52.2606 51.3299 52.476C50.8404 52.8284 50.6446 52.7892 50.3118 52.2606C50.0377 51.8299 49.8224 51.3405 49.7245 50.8314C49.6658 50.479 49.5679 50.1462 49.47 49.7938C49.3721 49.4414 49.1176 49.2456 48.7456 49.3239C48.3932 49.4022 48.4911 49.7155 48.4519 49.97C48.354 50.4399 48.6477 50.7727 48.8239 51.1447C49.2155 52.0257 49.2155 52.0453 48.4715 52.6522C48.2953 52.7892 48.0995 52.9263 47.9037 53.0242C46.3571 53.8464 44.7713 53.6898 43.1659 53.2787C42.4415 53.0829 41.7563 52.7501 41.4039 52.0061C41.3451 51.8691 41.1885 51.8886 41.0515 51.9278C40.7186 52.104 40.9144 52.4172 40.8557 52.6718C40.5228 53.0242 40.2096 53.3961 39.8768 53.7485C39.1915 54.5121 38.9762 54.4729 38.5455 53.494C38.4476 53.2787 38.3889 53.0633 38.291 52.8675C38.1148 52.5151 37.8798 52.2215 37.4491 52.1823C37.2925 52.9458 37.2729 52.9654 37.4883 53.3374C37.8994 54.0031 38.2127 54.747 38.937 55.1386C39.2307 55.2952 39.5635 55.256 39.8376 54.982C40.1704 54.6687 40.4445 54.2967 40.6795 53.9247C41.1689 53.2004 41.1689 53.2004 41.8737 53.6507C42.0304 53.7485 42.1674 53.9052 42.4023 53.8856C43.8511 54.4925 45.3194 54.3946 46.8269 54.1401C47.5905 54.0031 48.2366 53.7485 48.7847 53.1612C49.3525 52.5543 49.5287 52.5739 49.9594 53.2395C51.1733 55.119 52.4458 56.9593 53.4834 58.9563C54.3253 60.5617 55.4608 61.9321 56.8117 63.1264C56.9487 63.2634 57.1054 63.3809 57.2816 63.4788C57.4382 63.5767 57.6536 63.6746 57.8102 63.4788C57.9276 63.3417 57.8689 63.1655 57.7906 63.0285C57.7123 62.8131 57.6536 62.539 57.399 62.4803Z" fill="#313131"/>
<path d="M61.6279 50.3224C61.4321 49.8526 60.9622 49.7938 60.5902 49.5785C59.6701 48.8541 58.5737 48.7366 57.4578 48.7954C57.1837 48.8149 56.89 48.9128 56.6159 49.0499C56.381 49.1673 56.3027 49.4023 56.4789 49.6176C56.6942 49.8721 56.753 50.3224 57.2424 50.2833C57.3403 50.2637 57.4382 50.205 57.4186 50.0875C57.2816 49.4806 57.7319 49.5785 58.0647 49.5589C58.8086 49.5197 59.5722 49.461 60.0616 50.2245C60.1204 50.3029 60.2966 50.3224 60.414 50.3616C60.6098 50.5378 60.8252 50.7336 61.021 50.9098C61.2363 51.1643 61.4712 51.3601 60.9426 51.595C59.7092 52.1236 58.4562 52.339 57.1837 51.7908C56.9292 51.6733 56.5768 51.4775 56.4006 51.8104C56.2439 52.1236 56.5768 52.3194 56.8509 52.4564C57.0858 52.5739 57.3207 52.6914 57.5752 52.7305C58.8282 53.0046 60.0225 52.848 61.0993 52.1236C62.039 51.5167 62.0782 51.3992 61.6279 50.3224Z" fill="#313131"/>
<path d="M28.3259 56.5483C28.3454 56.2938 28.365 56.0197 28.1105 55.8435C28.0518 55.7652 28.0126 55.6869 27.9539 55.6086C27.9735 55.0604 27.6406 54.8059 27.1903 54.5905C26.74 54.1402 26.1919 53.8857 25.6045 53.6508C23.8425 52.9264 21.9826 52.6719 20.1031 52.6523C19.32 52.4957 18.5369 52.3391 17.7538 52.6719C16.7945 52.7306 15.8156 52.6131 14.8562 52.8285C14.6996 52.8677 14.5234 52.9068 14.4843 53.083C14.4255 53.3179 14.5821 53.4746 14.7583 53.5529C15.2674 53.7682 15.796 53.964 16.3442 54.0032C18.1062 54.1794 19.8878 54.3164 21.6498 54.473C21.7672 54.4926 22.0218 54.4926 22.0022 54.5122C21.7281 54.9821 22.2175 54.9233 22.3742 55.0604C22.6287 55.2757 22.9811 55.2757 23.2747 55.4128C23.6076 55.5694 24.0187 55.7065 24.0383 56.1959C23.7446 56.3721 23.4314 56.5287 23.079 56.5875C22.7266 56.5679 22.3937 56.5875 22.0805 56.7441C21.7085 56.7441 21.3365 56.7441 20.9646 56.7441C20.7884 56.607 20.573 56.5875 20.3576 56.6266C19.1438 56.47 18.0866 56.098 17.4014 55.0016C17.2839 54.8059 17.1273 54.6101 16.8532 54.7667C16.6182 54.9038 16.5987 55.1387 16.6966 55.3736C16.814 55.6869 16.9902 55.9414 17.1664 56.2155C17.7538 57.0965 17.6755 57.3314 16.7161 57.8013C16.5987 57.86 16.4812 57.9188 16.3637 57.9579C14.2493 58.5648 11.7433 57.4685 10.7449 55.4715C10.5882 55.1583 10.4904 54.6884 10.0205 54.9625C9.58977 55.217 9.92259 55.589 10.0792 55.9022C10.412 56.4896 10.412 56.5092 9.84428 56.8616C9.58977 57.0182 9.33525 57.1356 9.04158 57.1944C7.5145 57.5272 5.98742 57.8796 4.42119 57.5664C4.06879 57.488 3.71638 57.4097 3.36398 57.351C3.1682 57.3118 2.93326 57.3118 2.85495 57.5272C2.73748 57.8013 3.01158 57.8209 3.1682 57.8992C3.32482 57.9775 3.46187 58.0754 3.40314 58.2712C3.36398 58.4082 3.24651 58.4278 3.10947 58.4474C2.91369 58.4669 2.73748 58.5648 2.56128 58.6236C2.05226 57.8209 1.56281 57.0182 1.05378 56.2351C0.858002 55.9414 0.525177 55.6281 0.172774 55.9218C-0.218785 56.2155 0.153196 56.5679 0.329398 56.7637C1.15167 57.7034 1.69985 58.8193 2.44382 59.7982C2.69833 60.1311 3.03115 60.3073 3.36398 60.5031C3.54018 60.6009 3.73596 60.6401 3.91216 60.5226C4.1471 60.3464 4.08836 60.1311 4.01005 59.8961C3.91216 59.6025 3.81427 59.2892 3.71638 58.9956C3.65765 58.4082 3.99047 58.3886 4.46034 58.4278C6.47687 58.5844 8.41509 58.2907 10.275 57.4881C11.019 57.1748 10.9798 57.1552 11.5671 57.6447C13.1334 58.9564 14.8758 59.1913 16.7749 58.4865C17.186 58.3299 17.5188 58.0754 17.7538 57.7034C18.2628 56.9203 18.2824 56.8811 19.1438 57.1552C20.4555 57.5664 21.7673 57.5468 23.0985 57.2335C23.3922 57.2531 23.6859 57.2727 23.9208 57.0378C24.1949 56.9203 24.2536 56.607 24.4494 56.4113C24.6452 56.3525 24.6844 56.2155 24.6452 56.0197C24.4298 55.0604 23.8034 54.5318 22.8832 54.2773C21.3953 53.8661 19.9269 53.5137 18.3607 53.6312C18.1062 53.6508 17.7733 53.7682 17.6167 53.3767C18.1649 53.1809 18.6935 53.455 19.2025 53.2984C19.4571 53.3179 19.692 53.3179 19.9465 53.3375C20.8471 53.6508 21.8064 53.5137 22.7266 53.6704C23.1181 53.7291 23.4901 53.7682 23.8621 53.8466C25.5458 54.2185 27.0337 54.9038 27.7973 56.607C27.7777 56.9203 27.6798 57.4293 28.0322 57.4293C28.4629 57.4097 28.3259 56.8811 28.3259 56.5483Z" fill="#313131"/>
<path d="M56.4594 51.1448C56.6552 51.1252 56.8509 51.0665 56.8314 50.7532C56.7531 50.5966 56.616 50.5183 56.3811 50.5379C56.1657 50.577 55.9895 50.6749 56.0287 50.8903C56.0483 51.1644 56.2636 51.1644 56.4594 51.1448Z" fill="#313131"/>
<path d="M57.5557 61.9124C57.6144 61.8341 57.5948 61.7362 57.5165 61.6775C57.4186 61.6188 57.3403 61.6775 57.3403 61.7754C57.3403 61.8537 57.3795 61.932 57.3991 62.0103C57.4578 61.9516 57.5361 61.9516 57.5557 61.9124Z" fill="#313131"/>
<path d="M67.087 28.5478C67.3415 28.7044 67.6352 28.7631 67.6352 28.3324C67.6352 27.6668 68.1051 27.7059 68.5162 27.7255C68.8295 27.7451 69.1427 27.9017 69.456 27.9996C69.7888 28.1171 70.1216 28.2933 70.6894 28.0583C70.0825 27.6668 69.5539 27.4514 69.0057 27.2752C68.575 27.1186 68.1442 26.962 67.694 26.9424C67.2045 26.9228 66.8913 27.1969 66.7346 27.6276C66.5976 28.0192 66.7542 28.352 67.087 28.5478Z" fill="#313131"/>
</g>
</svg>
