<svg width="124" height="11" viewBox="0 0 124 11" fill="none" xmlns="http://www.w3.org/2000/svg">
<path d="M123.465 10.648C122.466 10.6456 121.467 10.6456 120.471 10.6433C120.233 10.6433 119.995 10.6361 119.758 10.6456C119.643 10.6504 119.584 10.6028 119.563 10.5054C119.541 10.4079 119.527 10.308 119.525 10.2105C119.515 9.71113 119.529 9.21177 119.501 8.71479C119.456 7.92532 119.032 7.46876 118.25 7.34273C118.022 7.30469 117.786 7.28566 117.556 7.28328C116.414 7.27853 115.273 7.28091 114.131 7.28091C114.079 7.28091 114.029 7.28091 113.963 7.28091C113.963 8.40328 113.963 9.51138 113.963 10.6338C112.709 10.6338 111.471 10.6338 110.222 10.6338C110.222 7.37127 110.222 4.1064 110.222 0.832015C110.282 0.832015 110.332 0.832015 110.384 0.832015C113.285 0.832015 116.184 0.829637 119.085 0.834393C119.934 0.834393 120.775 0.893841 121.584 1.17919C122.147 1.37893 122.642 1.67855 122.953 2.21358C123.631 3.37876 123.194 4.81977 121.974 5.42851C121.774 5.52839 121.56 5.6021 121.337 5.69246C121.463 5.73289 121.579 5.76618 121.693 5.80898C122.735 6.18707 123.275 6.95751 123.279 8.07988C123.282 8.67436 123.279 9.26884 123.294 9.86332C123.298 10.0369 123.343 10.2105 123.382 10.3817C123.393 10.4364 123.436 10.4863 123.465 10.5386C123.465 10.5719 123.465 10.61 123.465 10.648ZM113.963 4.90062C114.001 4.903 114.024 4.90775 114.048 4.90775C115.456 4.90775 116.861 4.91489 118.269 4.903C118.493 4.90062 118.723 4.8483 118.932 4.76983C119.246 4.65094 119.372 4.38461 119.37 4.05408C119.368 3.72831 119.234 3.47625 118.928 3.35498C118.749 3.28602 118.552 3.23846 118.362 3.23608C116.93 3.22419 115.501 3.22657 114.07 3.22657C114.034 3.22657 113.998 3.2337 113.963 3.23846C113.963 3.79489 113.963 4.34181 113.963 4.90062Z" fill="#313131"/>
<path d="M78.7233 0.660645C78.8065 0.670156 78.8897 0.684424 78.973 0.689179C79.9812 0.748627 80.9799 0.867523 81.9311 1.23134C82.5351 1.46438 83.0772 1.78777 83.4577 2.33231C83.7763 2.78887 83.8952 3.3025 83.8715 3.86369C83.8144 3.86607 83.7668 3.87082 83.7216 3.87082C82.4661 3.87082 81.2106 3.87082 79.955 3.8732C79.8504 3.8732 79.7957 3.85655 79.7743 3.73766C79.7339 3.51176 79.5888 3.34768 79.3986 3.22165C79.1109 3.02904 78.7851 2.94344 78.4474 2.90064C77.57 2.78887 76.6925 2.79125 75.8222 2.94819C75.6938 2.97197 75.5654 3.01953 75.4465 3.07422C75.261 3.15983 75.1564 3.3025 75.1493 3.52127C75.1421 3.75193 75.223 3.93503 75.4299 4.01825C75.6558 4.11099 75.8959 4.19422 76.1361 4.22038C76.6402 4.27507 77.1491 4.29171 77.6556 4.31787C78.6472 4.36781 79.6412 4.38921 80.6304 4.4653C81.3746 4.52237 82.107 4.68169 82.7895 5.00033C83.7454 5.44738 84.2115 6.20117 84.2163 7.25459C84.2186 7.69926 84.2044 8.13917 84.0498 8.56244C83.8001 9.25441 83.3031 9.7181 82.6659 10.0463C82.0381 10.3696 81.3628 10.5361 80.6708 10.6502C79.401 10.8571 78.1217 10.8262 76.8447 10.8238C76.0315 10.8215 75.2206 10.7715 74.4193 10.6217C73.6298 10.4743 72.8689 10.2436 72.1983 9.77993C71.309 9.16405 70.9332 8.29611 70.9642 7.22367C72.3315 7.22367 73.694 7.22367 75.0637 7.22367C75.0708 7.24032 75.0827 7.26172 75.0851 7.28312C75.1469 7.84669 75.4917 8.17246 75.9911 8.36745C76.3715 8.51488 76.771 8.56957 77.1776 8.58384C77.8577 8.61 78.5378 8.60762 79.206 8.45068C79.3796 8.41025 79.5508 8.34129 79.7077 8.25569C79.9788 8.11063 80.0597 7.86095 80.0335 7.56609C80.0097 7.29739 79.8575 7.11429 79.6102 7.04771C79.2488 6.95259 78.8802 6.8551 78.5116 6.8337C77.501 6.77187 76.4904 6.75998 75.4798 6.70767C74.5025 6.65773 73.5394 6.52933 72.6406 6.10606C71.9058 5.76126 71.347 5.2405 71.1805 4.41299C71.0141 3.58547 71.064 2.77936 71.6228 2.08501C72.0009 1.61419 72.5169 1.3431 73.0757 1.14574C73.7939 0.891302 74.5382 0.781918 75.2943 0.717714C75.5155 0.698691 75.7343 0.679668 75.9554 0.660645C76.878 0.660645 77.8007 0.660645 78.7233 0.660645Z" fill="#313131"/>
<path d="M46.8777 0.660825C47.0704 0.679848 47.2606 0.70125 47.4532 0.717895C48.5185 0.813011 49.5624 1.00562 50.5373 1.46218C51.353 1.84502 52.0354 2.38005 52.4611 3.19568C52.7203 3.69028 52.8368 4.21818 52.813 4.79839C52.7655 4.79839 52.7203 4.79839 52.6751 4.79839C51.4719 4.79839 50.2686 4.79839 49.0654 4.80077C48.9679 4.80077 48.918 4.77936 48.8823 4.67711C48.6826 4.10879 48.2355 3.80442 47.7029 3.59992C47.1583 3.39067 46.59 3.32408 46.0122 3.30506C45.3345 3.28366 44.6615 3.31219 44.01 3.51669C43.368 3.71882 42.8377 4.06361 42.5785 4.71992C42.0458 6.06581 42.6974 7.46878 44.0623 7.93485C44.8018 8.18691 45.5651 8.20118 46.3308 8.15124C46.8064 8.12033 47.2749 8.03472 47.7171 7.85162C48.3092 7.6067 48.7706 7.23099 48.9394 6.57231C50.2258 6.57231 51.5099 6.57231 52.8297 6.57231C52.8083 6.81961 52.8083 7.06691 52.7654 7.3047C52.5609 8.41281 51.8999 9.19276 50.9606 9.76346C50.2163 10.2153 49.3936 10.4578 48.5447 10.6195C47.3652 10.843 46.1715 10.8407 44.9778 10.8169C43.8982 10.7955 42.8377 10.6576 41.8128 10.3032C40.8117 9.95607 39.9414 9.42104 39.3207 8.53646C38.8713 7.89443 38.6335 7.17392 38.5741 6.39634C38.5194 5.70675 38.5194 5.01716 38.6716 4.33945C38.9617 3.04825 39.7321 2.13513 40.8949 1.5359C41.6606 1.14116 42.4786 0.924773 43.3251 0.805878C43.7341 0.748808 44.1479 0.722651 44.5593 0.682226C44.5807 0.679848 44.6021 0.667959 44.6235 0.658447C45.3749 0.660825 46.1263 0.660825 46.8777 0.660825Z" fill="#313131"/>
<path d="M0 10.6465C0 7.37217 0 4.11443 0 0.835293C0.052314 0.835293 0.10225 0.835293 0.152186 0.835293C3.19115 0.835293 6.23012 0.830537 9.26909 0.837671C10.0062 0.840049 10.741 0.904253 11.4401 1.17296C11.9347 1.36557 12.3746 1.6414 12.6148 2.13363C13.0833 3.09431 12.9549 4.54721 11.3735 5.07748C11.326 5.09413 11.2784 5.1084 11.2023 5.13218C11.3712 5.18687 11.5091 5.22967 11.6446 5.27961C12.2201 5.49124 12.7171 5.8075 13.0547 6.33778C13.3258 6.7658 13.409 7.24376 13.409 7.74074C13.4067 8.36376 13.2901 8.9511 12.8883 9.45046C12.5173 9.91415 12.0203 10.1805 11.4687 10.3564C10.7743 10.5776 10.0538 10.6418 9.33092 10.6418C6.26104 10.6489 3.19353 10.6465 0.126029 10.6465C0.0903606 10.6465 0.052314 10.6465 0 10.6465ZM3.74996 6.66117C3.74996 7.22236 3.74996 7.77641 3.74996 8.32809C3.77612 8.33047 3.79039 8.33522 3.80228 8.33522C5.31938 8.33522 6.83649 8.3376 8.3536 8.33522C8.61041 8.33522 8.86722 8.30193 9.09788 8.17352C9.42841 7.99042 9.49499 7.68367 9.46646 7.34363C9.4403 7.0345 9.26196 6.83476 8.97185 6.74916C8.81016 6.7016 8.63657 6.66593 8.46774 6.66355C6.90783 6.65642 5.34792 6.65642 3.78801 6.65642C3.7785 6.65404 3.77136 6.65642 3.74996 6.66117ZM3.74521 4.44258C3.78801 4.44496 3.81892 4.44972 3.85221 4.44972C5.28134 4.44972 6.71284 4.45447 8.14196 4.44496C8.3322 4.44258 8.53194 4.39978 8.71028 4.3332C8.9885 4.22857 9.08837 3.99554 9.0741 3.70305C9.06221 3.43435 8.93618 3.24174 8.68175 3.1704C8.47487 3.11095 8.25373 3.07528 8.03971 3.07528C6.6629 3.06815 5.28372 3.07053 3.90691 3.07053C3.85697 3.07053 3.80466 3.07528 3.74759 3.07766C3.74521 3.53422 3.74521 3.98127 3.74521 4.44258Z" fill="#313131"/>
<path d="M109.795 10.6433C109.398 10.6433 109.032 10.6433 108.666 10.6433C107.733 10.6433 106.801 10.641 105.869 10.6457C105.736 10.6457 105.672 10.6053 105.612 10.4864C104.466 8.12514 103.315 5.76625 102.164 3.40499C102.143 3.35981 102.117 3.31463 102.081 3.24567C101.311 4.87691 100.55 6.48438 99.777 8.12038C99.8579 8.12038 99.9125 8.12038 99.9672 8.12038C101.094 8.12038 102.221 8.12276 103.349 8.11801C103.453 8.11801 103.506 8.14892 103.553 8.24641C103.91 8.99545 104.276 9.74212 104.637 10.4912C104.656 10.5316 104.675 10.5744 104.702 10.6315C101.392 10.6315 98.1006 10.6315 94.7905 10.6315C94.8999 10.4079 95.0069 10.1868 95.1139 9.96802C96.3053 7.5592 97.499 5.15275 98.6903 2.74393C98.9875 2.1447 99.2848 1.54546 99.5773 0.941474C99.6201 0.855869 99.6676 0.829712 99.7627 0.829712C101.356 0.83209 102.949 0.83209 104.542 0.829712C104.635 0.829712 104.685 0.855869 104.728 0.941474C106.038 3.45492 107.353 5.966 108.666 8.47707C109.008 9.13337 109.353 9.78968 109.695 10.446C109.726 10.503 109.755 10.5625 109.795 10.6433Z" fill="#313131"/>
<path d="M39.373 10.6481C38.7785 10.6481 38.2078 10.6481 37.6371 10.6481C36.8952 10.6481 36.1533 10.6457 35.4114 10.6505C35.3067 10.6505 35.2544 10.6219 35.2069 10.5245C34.0512 8.14654 32.8908 5.77101 31.7327 3.3931C31.7137 3.35743 31.6947 3.32176 31.659 3.25756C30.8838 4.8888 30.1205 6.49865 29.3477 8.1299C29.4309 8.1299 29.4809 8.1299 29.5332 8.1299C30.6651 8.1299 31.7969 8.1299 32.9288 8.12752C33.0144 8.12752 33.0763 8.13703 33.1191 8.22977C33.4853 9.00734 33.8562 9.78254 34.2272 10.5577C34.2367 10.5791 34.2438 10.6005 34.2557 10.6338C30.9623 10.6338 27.6808 10.6338 24.3755 10.6338C24.4064 10.5673 24.4326 10.5054 24.4611 10.4436C25.5145 8.31537 26.5679 6.18952 27.6213 4.06129C28.1326 3.0269 28.6462 1.99251 29.1527 0.958119C29.1979 0.865381 29.2502 0.829712 29.3572 0.829712C30.9409 0.834468 32.5246 0.83209 34.1083 0.829712C34.2129 0.829712 34.2676 0.860625 34.3175 0.953363C35.9797 4.13976 37.6466 7.32378 39.3111 10.5102C39.3278 10.553 39.3444 10.5887 39.373 10.6481Z" fill="#313131"/>
<path d="M53.7144 0.844043C54.9604 0.844043 56.1993 0.844043 57.4524 0.844043C57.4524 2.12098 57.4524 3.39316 57.4524 4.69388C57.5071 4.65583 57.5428 4.63681 57.5737 4.61065C59.0932 3.39078 60.6127 2.17092 62.1298 0.946293C62.2273 0.867822 62.3248 0.832153 62.4508 0.832153C63.8775 0.836909 65.3043 0.834531 66.731 0.834531C66.781 0.834531 66.8333 0.834531 66.8832 0.834531C66.888 0.844043 66.8927 0.855932 66.8975 0.865444C65.0094 2.33975 63.1214 3.81405 61.2262 5.29311C63.188 7.07417 65.1378 8.84571 67.1186 10.6458C67.0307 10.6458 66.9807 10.6458 66.9308 10.6458C65.4137 10.6458 63.8966 10.6458 62.3795 10.6482C62.2701 10.6482 62.194 10.6149 62.1155 10.5435C60.6055 9.15246 59.0908 7.76614 57.5785 6.37744C57.5475 6.3489 57.5166 6.32513 57.4619 6.27757C57.4619 7.74712 57.4619 9.19051 57.4619 10.6387C56.2064 10.6387 54.9651 10.6387 53.7144 10.6387C53.7144 7.38092 53.7144 4.1208 53.7144 0.844043Z" fill="#313131"/>
<path d="M92.4214 10.636C91.1683 10.636 89.9342 10.636 88.6834 10.636C88.6834 8.26758 88.6834 5.90394 88.6834 3.52128C87.2685 3.52128 85.8703 3.52128 84.4602 3.52128C84.4602 2.62243 84.4602 1.73784 84.4602 0.84375C88.5145 0.84375 92.5713 0.84375 96.6375 0.84375C96.6375 1.72833 96.6375 2.61054 96.6375 3.50701C95.2393 3.50701 93.8387 3.50701 92.4191 3.50701C92.4214 5.88967 92.4214 8.26045 92.4214 10.636Z" fill="#313131"/>
<path d="M14.1919 10.6407C14.1919 7.37111 14.1919 4.11338 14.1919 0.84375C15.4403 0.84375 16.6792 0.84375 17.9371 0.84375C17.9371 3.16697 17.9371 5.48781 17.9371 7.82054C20.2603 7.82054 22.5645 7.82054 24.8901 7.82054C24.8711 7.87047 24.864 7.90376 24.8473 7.9323C24.3765 8.80499 23.9033 9.67768 23.4348 10.5528C23.3825 10.6479 23.3183 10.6431 23.2375 10.6431C20.5742 10.6431 17.9109 10.6431 15.2477 10.6431C14.9433 10.6431 14.6389 10.6431 14.3346 10.6431C14.2894 10.6479 14.2418 10.6431 14.1919 10.6407Z" fill="#313131"/>
</svg>
