<svg width="90" height="25" viewBox="0 0 90 25" fill="none" xmlns="http://www.w3.org/2000/svg">
<path d="M22.4467 0H0V22.431L22.4467 0Z" fill="#BEBBB7"/>
<path d="M2.00391 24.4817H24.4427V2.05469L2.00391 24.4817Z" fill="#BEBBB7"/>
<path d="M37.4836 0.0314324H29.543V24.478H34.4464V15.3469H37.5897C43.3182 15.3469 46.6029 12.5966 46.6029 7.80703V7.67345C46.599 2.81713 43.275 0.0314324 37.4836 0.0314324ZM41.8056 7.80703C41.8056 10.3452 40.3125 11.685 37.4836 11.685H34.4464V3.92906H37.4836C40.4265 3.92906 41.8056 5.10777 41.8056 7.66952V7.80703ZM58.5433 9.63404H54.5436V3.99978H65.1874V0.0314324H49.6755V24.478H58.453C64.0558 24.478 67.2698 21.767 67.2698 17.0403V16.8949C67.2698 12.2194 64.1737 9.63404 58.5433 9.63404ZM54.5318 13.2999H58.1504C61.1011 13.2999 62.5313 14.4786 62.5313 16.8714V17.005C62.5313 19.4017 61.1169 20.6158 58.3194 20.6158H54.5436L54.5318 13.2999ZM79.3791 11.7047L89.5082 0H84.1254L75.2457 10.5299V0.0314324H70.3423V24.478H75.2457V13.6574L84.1568 24.478H89.9994L79.3791 11.7047Z" fill="#BEBBB7"/>
</svg>
