<svg width="54" height="50" viewBox="0 0 54 50" fill="none" xmlns="http://www.w3.org/2000/svg">
<path d="M28.5624 38.3352C29.0796 38.6513 29.6543 38.8812 30.229 39.0249C30.8038 39.1398 31.4072 39.1973 32.0107 39.1111C32.6141 39.0249 33.1888 38.8525 33.7061 38.4502C33.821 38.364 33.8785 38.249 33.8785 38.1054C33.8497 37.8755 33.6773 37.7318 33.4474 37.7318H33.3612C32.9302 37.7605 32.413 37.7605 31.9532 37.7318C31.4934 37.7031 31.0049 37.6168 30.5451 37.5306C30.0854 37.4444 29.6256 37.3008 29.1946 37.1283C28.7635 36.9559 28.3038 36.7548 27.9015 36.5249L27.8153 36.4674C27.7003 36.4099 27.5566 36.4099 27.413 36.4674C27.2118 36.5824 27.1543 36.8122 27.2693 37.0134C27.6428 37.6168 28.0739 38.0191 28.5624 38.3352Z" fill="#03BFD7"/>
<path d="M41.4063 29.9454L41.3489 29.9741C40.4006 30.4626 39.4236 30.5488 38.5328 30.3189C37.642 30.1465 36.8086 29.658 36.1477 28.796L36.119 28.7672C35.9753 28.5948 35.7741 28.5086 35.5443 28.5661C35.2569 28.6235 35.0558 28.9396 35.142 29.227C35.3144 30.0029 35.7454 30.75 36.4063 31.2672C36.8948 31.6983 37.4983 31.9856 38.1592 32.1293C38.8201 32.273 39.481 32.2442 40.1132 32.0718C40.9178 31.8707 41.6362 31.3822 42.096 30.75C42.2971 30.5201 42.2397 30.1465 42.0098 29.9741C41.8374 29.8879 41.6075 29.8592 41.4063 29.9454Z" fill="#03BFD7"/>
<path d="M30.289 33.5034C30.4327 33.6183 30.6051 33.6183 30.7775 33.5321C31.0074 33.4172 31.266 33.3884 31.4671 33.4459C31.6683 33.4746 31.8982 33.6183 32.0706 33.8195C32.1281 33.9057 32.2143 33.9631 32.3292 33.9919C32.3867 33.9919 32.4729 34.0206 32.5304 33.9919C32.6453 33.9631 32.7602 33.9057 32.8177 33.7907C32.8752 33.6758 32.9039 33.5608 32.8752 33.4459C32.789 33.1298 32.6166 32.8425 32.3867 32.67C32.2143 32.5264 31.9844 32.4114 31.7258 32.3252C31.4671 32.2677 31.2085 32.2677 31.0074 32.3539C30.72 32.4402 30.4327 32.6126 30.2315 32.8712C30.1453 32.9574 30.1166 33.0723 30.1453 33.216C30.1166 33.3022 30.174 33.4172 30.289 33.5034Z" fill="#03BFD7"/>
<path d="M29.8572 28.1918C30.0584 27.9619 30.0009 27.5884 29.771 27.4159C29.5986 27.2723 29.3687 27.2723 29.1676 27.3585L29.1101 27.3872C28.1618 27.8757 27.1848 27.9619 26.294 27.732C25.4032 27.5596 24.5699 27.0711 23.9089 26.209L23.8802 26.1803C23.7365 26.0079 23.5354 25.9217 23.3055 25.9792C23.0181 26.0366 22.817 26.3527 22.9032 26.6401C23.0756 27.4159 23.5066 28.1631 24.1676 28.6803C24.6561 29.1113 25.2595 29.3987 25.9204 29.5424C26.5814 29.6861 27.2423 29.6573 27.8745 29.4849C28.6503 29.3125 29.3687 28.824 29.8572 28.1918Z" fill="#03BFD7"/>
<path d="M47.3837 32.5297C47.0963 32.4435 46.8952 32.2136 46.8664 31.9262C46.8377 31.6101 46.9814 31.3228 47.24 31.1791L50.2285 29.4837L48.217 28.6216C47.8434 28.4492 47.671 28.0182 47.8147 27.6446C47.9871 27.2711 48.4181 27.0986 48.7917 27.2423L52.2112 28.6791C52.4699 28.794 52.6423 29.0527 52.671 29.3113C52.6998 29.5699 52.5273 29.8573 52.2975 30.0009L49.625 31.4952L51.3204 31.8975C51.7227 31.9837 51.9526 32.386 51.8664 32.7883C51.7802 33.1906 51.3779 33.4205 50.9756 33.3343L47.4411 32.4722C47.4124 32.5584 47.4124 32.5297 47.3837 32.5297Z" fill="#03BFD7"/>
<path d="M53.0745 20.8055C52.9883 20.9779 52.8446 21.0929 52.6434 21.1791L47.9308 23.363C47.5572 23.5354 47.1262 23.4492 46.8388 23.1906C46.5515 22.9032 46.4365 22.4722 46.609 22.0986L48.5055 17.4147L45.3446 18.3055C44.8273 18.4492 44.2814 18.1331 44.109 17.6159C43.9653 17.0986 44.2814 16.5527 44.7986 16.3802L49.9135 14.9435C50.2871 14.8285 50.6607 14.9435 50.9193 15.2308C51.1779 15.5182 51.2354 15.9205 51.0917 16.2653L49.3963 20.4894L51.8388 19.3687C52.3273 19.1389 52.9308 19.3687 53.1607 19.8573C53.2756 20.1733 53.2469 20.5182 53.0745 20.8055Z" fill="#03BFD7"/>
<path d="M45.1149 38.592C44.8276 38.4483 44.4828 38.4483 44.1667 38.7644C40.1724 42.7299 35.3448 45.2874 28.908 44.7701C20.8908 44.1379 14.6839 38.8218 12.7874 29.2529C10.7759 29.0805 9.1954 27.0115 9.1954 24.454C9.1954 22.0402 10.6322 20.0575 12.4713 19.7126C13.1897 15.3448 17.2126 6.14943 27.8161 6.14943C32.4713 6.14943 34.8563 8.44828 35.2586 10.6322C35.7184 13.1609 33.9368 14.454 32.7299 14.454C31.9828 14.454 30.6035 14.2529 30.0287 12.5862C29.9138 12.2126 29.3678 12.3563 29.2529 13.046C28.9655 14.9713 30.3161 16.8678 33.1609 16.8678C36.2644 16.8678 39.6552 14.3391 39.0517 8.93678C38.7069 5.77586 35.1437 0 25.0287 0C11.2069 0 0 11.1782 0 25C0 38.8218 11.2069 50 25.0287 50C37.8161 50 44.4253 40.8908 45.2874 39.6839C45.6035 39.2529 45.431 38.7356 45.1149 38.592Z" fill="#03BFD7"/>
</svg>
