<svg width="20" height="20" viewBox="0 0 20 20" fill="none" xmlns="http://www.w3.org/2000/svg">
<path fill-rule="evenodd" clip-rule="evenodd" d="M10.0013 0.399902C7.39407 0.399902 7.06684 0.411302 6.04287 0.457877C5.02084 0.504677 4.32327 0.66645 3.71284 0.903898C3.08142 1.14907 2.54584 1.47704 2.01222 2.01089C1.47822 2.54444 1.15017 3.08008 0.904166 3.71128C0.666191 4.32185 0.50419 5.01964 0.458215 6.04128C0.41239 7.06525 0.400391 7.3927 0.400391 9.9999C0.400391 12.6071 0.412016 12.9333 0.458366 13.9573C0.505391 14.9793 0.667166 15.6769 0.904391 16.2873C1.14979 16.9187 1.47777 17.4543 2.01162 17.9879C2.54502 18.5219 3.08059 18.8507 3.71164 19.0959C4.32244 19.3333 5.02024 19.4951 6.04204 19.5419C7.06609 19.5885 7.39309 19.5999 10.0001 19.5999C12.6075 19.5999 12.9337 19.5885 13.9578 19.5419C14.9797 19.4951 15.6781 19.3333 16.289 19.0959C16.9202 18.8507 17.4549 18.5219 17.9883 17.9879C18.5223 17.4543 18.8504 16.9187 19.0964 16.2875C19.3324 15.6769 19.4944 14.9791 19.5424 13.9575C19.5884 12.9335 19.6004 12.6071 19.6004 9.9999C19.6004 7.3927 19.5884 7.06548 19.5424 6.04151C19.4944 5.01949 19.3324 4.32185 19.0964 3.7115C18.8504 3.08008 18.5223 2.54444 17.9883 2.01089C17.4543 1.47689 16.9203 1.14885 16.2884 0.903898C15.6763 0.66645 14.9784 0.504677 13.9563 0.457877C12.9323 0.411302 12.6063 0.399902 9.99829 0.399902H10.0013ZM9.68112 2.12976H9.68134L10.0013 2.12984C12.5645 2.12984 12.8683 2.13906 13.8805 2.18504C14.8165 2.22786 15.3246 2.38424 15.663 2.51564C16.1109 2.68963 16.4304 2.89768 16.7661 3.23368C17.1021 3.56968 17.3102 3.8897 17.4846 4.33767C17.616 4.67569 17.7726 5.18367 17.8152 6.11966C17.8611 7.1317 17.8712 7.43567 17.8712 9.99773C17.8712 12.5597 17.8611 12.8637 17.8152 13.8757C17.7723 14.8117 17.616 15.3197 17.4846 15.6577C17.3106 16.1057 17.1021 16.4247 16.7661 16.7605C16.4301 17.0965 16.1112 17.3045 15.663 17.4785C15.3249 17.6105 14.8165 17.7665 13.8805 17.8093C12.8685 17.8553 12.5645 17.8653 10.0013 17.8653C7.43787 17.8653 7.13404 17.8553 6.12207 17.8093C5.18607 17.7661 4.67802 17.6097 4.33947 17.4783C3.89142 17.3043 3.57139 17.0963 3.23539 16.7603C2.89939 16.4243 2.69142 16.1051 2.51704 15.6569C2.38564 15.3189 2.22904 14.8109 2.18644 13.8749C2.14039 12.8629 2.13124 12.5589 2.13124 9.99533C2.13124 7.4317 2.14039 7.1293 2.18644 6.11726C2.22919 5.18126 2.38564 4.67329 2.51704 4.3349C2.69104 3.88685 2.89939 3.5669 3.23539 3.23091C3.57139 2.89491 3.89142 2.68686 4.33947 2.51249C4.67787 2.38049 5.18607 2.22449 6.12207 2.18144C7.00767 2.14146 7.35087 2.12946 9.14007 2.12744V2.12984C9.30724 2.12961 9.48709 2.12969 9.68112 2.12976ZM13.9737 4.87549C13.9737 4.23927 14.4897 3.72388 15.1257 3.72388V3.7235C15.7617 3.7235 16.2777 4.2395 16.2777 4.87549C16.2777 5.51149 15.7617 6.02748 15.1257 6.02748C14.4897 6.02748 13.9737 5.51149 13.9737 4.87549ZM10.0011 5.06989C7.27857 5.06997 5.07124 7.27735 5.07124 9.9999C5.07124 12.7225 7.27864 14.9289 10.0013 14.9289C12.7239 14.9289 14.9305 12.7225 14.9305 9.9999C14.9305 7.27727 12.7237 5.06989 10.0011 5.06989ZM13.2013 9.9999C13.2013 8.23247 11.7685 6.7999 10.0013 6.7999C8.23384 6.7999 6.80127 8.23247 6.80127 9.9999C6.80127 11.7671 8.23384 13.1999 10.0013 13.1999C11.7685 13.1999 13.2013 11.7671 13.2013 9.9999Z" fill="white"/>
</svg>
