<svg width="40" height="40" viewBox="0 0 40 40" fill="none" xmlns="http://www.w3.org/2000/svg">
<path d="M0 20C0 8.95433 8.95433 0 20 0C31.0457 0 40 8.95433 40 20C40 31.0457 31.0457 40 20 40C8.95433 40 0 31.0457 0 20Z" fill="#03BFD7"/>
<path fill-rule="evenodd" clip-rule="evenodd" d="M20.0013 10.3999C17.3941 10.3999 17.0668 10.4113 16.0429 10.4579C15.0208 10.5047 14.3233 10.6665 13.7128 10.9039C13.0814 11.1491 12.5458 11.477 12.0122 12.0109C11.4782 12.5444 11.1502 13.0801 10.9042 13.7113C10.6662 14.3218 10.5042 15.0196 10.4582 16.0413C10.4124 17.0653 10.4004 17.3927 10.4004 19.9999C10.4004 22.6071 10.412 22.9333 10.4584 23.9573C10.5054 24.9793 10.6672 25.6769 10.9044 26.2873C11.1498 26.9187 11.4778 27.4543 12.0116 27.9879C12.545 28.5219 13.0806 28.8507 13.7116 29.0959C14.3224 29.3333 15.0202 29.4951 16.042 29.5419C17.0661 29.5885 17.3931 29.5999 20.0001 29.5999C22.6075 29.5999 22.9337 29.5885 23.9578 29.5419C24.9797 29.4951 25.6781 29.3333 26.289 29.0959C26.9202 28.8507 27.4549 28.5219 27.9883 27.9879C28.5223 27.4543 28.8504 26.9187 29.0964 26.2875C29.3324 25.6769 29.4944 24.9791 29.5424 23.9575C29.5884 22.9335 29.6004 22.6071 29.6004 19.9999C29.6004 17.3927 29.5884 17.0655 29.5424 16.0415C29.4944 15.0195 29.3324 14.3218 29.0964 13.7115C28.8504 13.0801 28.5223 12.5444 27.9883 12.0109C27.4543 11.4769 26.9203 11.1488 26.2884 10.9039C25.6763 10.6665 24.9784 10.5047 23.9563 10.4579C22.9323 10.4113 22.6063 10.3999 19.9983 10.3999H20.0013ZM19.6811 12.1298H19.6813L20.0013 12.1298C22.5645 12.1298 22.8683 12.1391 23.8805 12.185C24.8165 12.2279 25.3246 12.3842 25.663 12.5156C26.1109 12.6896 26.4304 12.8977 26.7661 13.2337C27.1021 13.5697 27.3102 13.8897 27.4846 14.3377C27.616 14.6757 27.7726 15.1837 27.8152 16.1197C27.8611 17.1317 27.8712 17.4357 27.8712 19.9977C27.8712 22.5597 27.8611 22.8637 27.8152 23.8757C27.7723 24.8117 27.616 25.3197 27.4846 25.6577C27.3106 26.1057 27.1021 26.4247 26.7661 26.7605C26.4301 27.0965 26.1112 27.3045 25.663 27.4785C25.3249 27.6105 24.8165 27.7665 23.8805 27.8093C22.8685 27.8553 22.5645 27.8653 20.0013 27.8653C17.4379 27.8653 17.134 27.8553 16.1221 27.8093C15.1861 27.7661 14.678 27.6097 14.3395 27.4783C13.8914 27.3043 13.5714 27.0963 13.2354 26.7603C12.8994 26.4243 12.6914 26.1051 12.517 25.6569C12.3856 25.3189 12.229 24.8109 12.1864 23.8749C12.1404 22.8629 12.1312 22.5589 12.1312 19.9953C12.1312 17.4317 12.1404 17.1293 12.1864 16.1173C12.2292 15.1813 12.3856 14.6733 12.517 14.3349C12.691 13.8868 12.8994 13.5669 13.2354 13.2309C13.5714 12.8949 13.8914 12.6869 14.3395 12.5125C14.6779 12.3805 15.1861 12.2245 16.1221 12.1814C17.0077 12.1415 17.3509 12.1295 19.1401 12.1274V12.1298C19.3072 12.1296 19.4871 12.1297 19.6811 12.1298ZM23.9737 14.8755C23.9737 14.2393 24.4897 13.7239 25.1257 13.7239V13.7235C25.7617 13.7235 26.2777 14.2395 26.2777 14.8755C26.2777 15.5115 25.7617 16.0275 25.1257 16.0275C24.4897 16.0275 23.9737 15.5115 23.9737 14.8755ZM20.0011 15.0699C17.2786 15.07 15.0712 17.2773 15.0712 19.9999C15.0712 22.7225 17.2786 24.9289 20.0013 24.9289C22.7239 24.9289 24.9305 22.7225 24.9305 19.9999C24.9305 17.2773 22.7237 15.0699 20.0011 15.0699ZM23.2013 19.9999C23.2013 18.2325 21.7685 16.7999 20.0013 16.7999C18.2338 16.7999 16.8013 18.2325 16.8013 19.9999C16.8013 21.7671 18.2338 23.1999 20.0013 23.1999C21.7685 23.1999 23.2013 21.7671 23.2013 19.9999Z" fill="white"/>
</svg>
