<svg width="26" height="22" viewBox="0 0 26 22" fill="none" xmlns="http://www.w3.org/2000/svg">
<path d="M25.2936 5.09867L25.2931 5.0967C25.1556 4.57901 24.9434 4.08186 24.6622 3.61988L24.6576 3.61247L24.6534 3.6049C24.3852 3.12773 24.0417 2.6923 23.6347 2.31437L23.6288 2.30888L23.6289 2.30883C23.0315 1.73588 22.3233 1.27924 21.5428 0.964935C19.9725 0.345146 18.2107 0.345022 16.6402 0.964563C15.9099 1.26238 15.239 1.67811 14.6564 2.19303L14.585 2.27544L14.5701 2.29255L14.5538 2.30825L13.3467 3.46994L13 3.80361L12.6533 3.46994L11.4462 2.30825L11.4299 2.29255L11.415 2.27544L11.3436 2.19303C10.761 1.67811 10.0901 1.26239 9.35982 0.964575C7.78935 0.345014 6.02751 0.345142 4.45712 0.964957C3.67671 1.27926 2.96846 1.7359 2.37113 2.30883L2.36698 2.31281L2.36696 2.31278C1.95708 2.69698 1.60609 3.13445 1.32408 3.61188C1.05381 4.08089 0.846332 4.58047 0.706373 5.09867L25.2936 5.09867ZM25.2936 5.09867C25.4389 5.6371 25.5081 6.19172 25.4993 6.74761L25.4992 6.74761L25.4992 6.75469C25.4983 7.27732 25.4294 7.79781 25.2938 8.30425C25.1527 8.81629 24.9403 9.30815 24.6619 9.76636L24.6618 9.76628L24.6557 9.77696C24.3816 10.2542 24.0367 10.6914 23.6315 11.0746L23.6315 11.0745L23.6283 11.0776L13 21.3061L2.37174 11.0776L2.37035 11.0763C1.96298 10.6872 1.61098 10.2487 1.32316 9.77236C1.05697 9.30771 0.849762 8.81439 0.705829 8.30303C0.570533 7.79698 0.501694 7.27691 0.500811 6.75469H0.500861M25.2936 5.09867L0.500861 6.75469M0.500861 6.75469L0.500749 6.74761M0.500861 6.75469L0.500749 6.74761M0.500749 6.74761C0.49193 6.19175 0.561046 5.63716 0.706352 5.09875L0.500749 6.74761Z" stroke="white"/>
</svg>
