<svg width="14" height="13" viewBox="0 0 14 13" fill="none" xmlns="http://www.w3.org/2000/svg">
<path d="M13.8804 2.78006C13.7997 2.46425 13.6752 2.16128 13.5104 1.88003C13.3522 1.58746 13.1498 1.32097 12.9104 1.08999C12.5634 0.744128 12.1525 0.469088 11.7004 0.280058C10.7906 -0.0933526 9.77027 -0.0933526 8.86042 0.280058C8.43319 0.460896 8.0407 0.714679 7.70045 1.03006L7.65046 1.08999L7.00044 1.74002L6.35041 1.08999L6.30043 1.03006C5.96018 0.714679 5.56769 0.460896 5.14045 0.280058C4.23061 -0.0933526 3.21027 -0.0933526 2.30042 0.280058C1.84841 0.469088 1.43749 0.744128 1.09046 1.08999C0.850942 1.32329 0.645563 1.58929 0.480448 1.88003C0.32301 2.16367 0.202036 2.46609 0.120432 2.78006C0.0356473 3.10648 -0.00471181 3.44285 0.000437123 3.78006C0.000953348 4.09718 0.0412635 4.41292 0.120432 4.72C0.204266 5.03004 0.325152 5.32888 0.480448 5.61001C0.648163 5.89902 0.853281 6.16468 1.09046 6.40005L7.00044 12.3101L12.9104 6.40005C13.1475 6.16709 13.3497 5.90095 13.5104 5.61001C13.6733 5.33138 13.7978 5.03199 13.8804 4.72C13.9596 4.41292 13.9999 4.09718 14.0004 3.78006C14.0056 3.44285 13.9652 3.10648 13.8804 2.78006ZM12.8804 4.41006C12.8216 4.63368 12.7342 4.8488 12.6204 5.05008C12.5016 5.25741 12.3572 5.44887 12.1904 5.62002L6.98042 10.82L1.77046 5.62002C1.60068 5.44904 1.45287 5.25762 1.33045 5.05008C1.21526 4.84476 1.12462 4.62656 1.06043 4.40005C1.0092 4.17357 0.982389 3.94219 0.980448 3.70999C0.981804 3.47115 1.00861 3.23318 1.06043 3.00003C1.12274 2.77287 1.21347 2.55445 1.33045 2.35C1.4504 2.1408 1.59845 1.94907 1.77046 1.78006C2.02735 1.5266 2.32911 1.32317 2.66041 1.18008C3.32802 0.913005 4.07281 0.913005 4.74043 1.18008C5.0696 1.31717 5.36861 1.5176 5.62043 1.77005L6.98042 3.14004L8.34046 1.77005C8.59229 1.5176 8.89124 1.31717 9.22041 1.18008C9.88802 0.913005 10.6328 0.913005 11.3004 1.18008C11.6317 1.32317 11.9335 1.5266 12.1904 1.78006C12.3647 1.94464 12.51 2.13726 12.6204 2.35C12.7342 2.55128 12.8216 2.7664 12.8804 2.99002C12.9405 3.2185 12.9707 3.45373 12.9704 3.68997C12.9841 3.93159 12.964 4.17404 12.9104 4.41006H12.8804Z" fill="#ffffff"/>
</svg>
