<svg width="26" height="22" viewBox="0 0 26 22" fill="none" xmlns="http://www.w3.org/2000/svg">
<path d="M25.7764 4.96839C25.6265 4.40399 25.3952 3.86254 25.0893 3.35991C24.7954 2.83704 24.4195 2.36077 23.975 1.94799C23.3305 1.32987 22.5675 0.838332 21.728 0.500506C20.0384 -0.166835 18.1436 -0.166835 16.454 0.500506C15.6607 0.823692 14.9318 1.27724 14.2999 1.84087L14.2071 1.94799L13 3.10968L11.7929 1.94799L11.7001 1.84087C11.0682 1.27724 10.3393 0.823692 9.54596 0.500506C7.85635 -0.166835 5.96156 -0.166835 4.27195 0.500506C3.43254 0.838332 2.66946 1.32987 2.02502 1.94799C1.58022 2.36492 1.19883 2.8403 0.892205 3.35991C0.599839 3.86681 0.375186 4.40728 0.223646 4.96839C0.0661979 5.55175 -0.00874996 6.15289 0.000811748 6.75554C0.00177039 7.32228 0.0766275 7.88656 0.223646 8.43536C0.379327 8.98945 0.603816 9.52351 0.892205 10.0259C1.20366 10.5424 1.58457 11.0172 2.02502 11.4379L13 22L23.975 11.4379C24.4153 11.0215 24.7907 10.5459 25.0893 10.0259C25.3917 9.52799 25.6229 8.99293 25.7764 8.43536C25.9234 7.88656 25.9982 7.32228 25.9992 6.75554C26.0087 6.15289 25.9338 5.55175 25.7764 4.96839Z" fill="white"/>
</svg>
