<svg width="38" height="38" viewBox="0 0 38 38" fill="none" xmlns="http://www.w3.org/2000/svg">
<g opacity="0.4">
<path d="M19.0178 15.7468C20.8321 15.7402 22.277 14.2828 22.2704 12.4646C22.2638 10.6456 20.8157 9.19833 19.0007 9.19678C17.1704 9.19484 15.7088 10.669 15.7228 12.5042C15.7364 14.3158 17.1977 15.7534 19.0178 15.7468Z" fill="#313131"/>
<path d="M19 0C8.50656 0 0 8.50695 0 19C0 29.4931 8.50656 38 19 38C29.4934 38 38 29.4931 38 19C38 8.50695 29.4934 0 19 0ZM19.0272 5.77794C22.7281 5.78805 25.6985 8.81522 25.6794 12.5569C25.6608 16.2123 22.6418 19.1749 18.9471 19.1625C15.2902 19.1501 12.291 16.1182 12.3128 12.4554C12.3334 8.75264 15.3341 5.76784 19.0272 5.77794ZM26.523 21.792C25.7047 22.6321 24.7196 23.2401 23.6257 23.6642C22.5916 24.065 21.4584 24.2667 20.3365 24.4012C20.5064 24.5855 20.5861 24.6761 20.6918 24.7818C22.2142 26.3123 23.7439 27.835 25.2612 29.3698C25.7782 29.8931 25.8859 30.5415 25.6013 31.1491C25.2907 31.8139 24.5937 32.2508 23.9099 32.2038C23.4768 32.1739 23.139 31.9589 22.8393 31.6568C21.6901 30.5007 20.5192 29.3652 19.3942 28.1873C19.0657 27.8444 18.9086 27.9097 18.619 28.2075C17.4633 29.3978 16.2885 30.5691 15.1071 31.7342C14.5765 32.2574 13.9451 32.3523 13.3293 32.053C12.6751 31.7365 12.2591 31.0683 12.291 30.3961C12.3136 29.9428 12.5367 29.5953 12.8485 29.2851C14.3556 27.781 15.8581 26.2723 17.361 24.7647C17.461 24.6648 17.5535 24.5587 17.6985 24.4032C15.6486 24.189 13.8001 23.6844 12.2175 22.447C12.0208 22.2931 11.8183 22.1446 11.6395 21.972C10.9463 21.3068 10.8767 20.5445 11.4245 19.76C11.8937 19.0882 12.6805 18.9086 13.4988 19.2947C13.6575 19.3689 13.8083 19.463 13.9529 19.5625C16.9019 21.5891 20.9535 21.6446 23.9141 19.6531C24.2073 19.4292 24.521 19.2449 24.8845 19.152C25.5904 18.9701 26.2497 19.2301 26.6284 19.8482C27.0618 20.5546 27.0568 21.2435 26.523 21.792Z" fill="#313131"/>
</g>
</svg>
