<svg width="17" height="9" viewBox="0 0 17 9" fill="none" xmlns="http://www.w3.org/2000/svg">
<path fill-rule="evenodd" clip-rule="evenodd" d="M9.88257 8.57913C9.7273 8.73228 9.42412 8.76322 9.42412 8.76322H8.41999C8.41999 8.76322 6.20468 8.88543 4.25319 7.02047C2.12504 4.98571 0.245803 0.948671 0.245803 0.948671C0.245803 0.948671 0.137391 0.68386 0.25486 0.556365C0.38716 0.412297 0.7479 0.403212 0.7479 0.403212L3.148 0.38891C3.148 0.38891 3.37402 0.422856 3.53585 0.532242C3.66979 0.622783 3.7446 0.791037 3.7446 0.791037C3.7446 0.791037 4.13245 1.69185 4.64596 2.5066C5.64924 4.09773 6.11596 4.44553 6.45616 4.27501C6.95248 4.02683 6.80371 2.02602 6.80371 2.02602C6.80371 2.02602 6.81277 1.30028 6.55394 0.9766C6.35346 0.726154 5.97546 0.652922 5.80864 0.632604C5.67306 0.615969 5.89494 0.327772 6.18251 0.198805C6.61471 0.00489271 7.37727 -0.00640242 8.27863 0.00188441C8.98121 0.00863665 9.18334 0.0486583 9.45778 0.109735C10.0947 0.250857 10.0749 0.703134 10.0319 1.67926C10.0191 1.9712 10.0042 2.30992 10.0042 2.70124C10.0042 2.78921 10.0014 2.88294 9.99853 2.97937C9.98364 3.47941 9.96657 4.05206 10.3255 4.26525C10.5096 4.37383 10.959 4.28108 12.0839 2.52771C12.6172 1.69633 13.0165 0.71934 13.0165 0.71934C13.0165 0.71934 13.1044 0.545071 13.24 0.470367C13.3789 0.39419 13.5662 0.417577 13.5662 0.417577L16.0921 0.403212C16.0921 0.403212 16.8514 0.319485 16.9738 0.634876C17.1028 0.964508 16.6903 1.73555 15.6582 2.99853C14.6792 4.19686 14.2029 4.63803 14.2466 5.02825C14.2785 5.31338 14.5882 5.57125 15.1825 6.07736C16.423 7.13495 16.7556 7.69133 16.8355 7.82503C16.8421 7.83607 16.847 7.84424 16.8505 7.84958C17.4068 8.6968 16.2334 8.76322 16.2334 8.76322L13.9894 8.79188C13.9894 8.79188 13.5079 8.87942 12.8736 8.47956C12.5412 8.27024 12.2165 7.92846 11.9073 7.60288C11.4349 7.10567 10.9987 6.64639 10.6262 6.75486C10.0009 6.93747 10.0198 8.174 10.0198 8.174C10.0198 8.174 10.0247 8.4388 9.88257 8.57913Z" fill="white"/>
</svg>
