<svg width="94" height="18" viewBox="0 0 94 18" fill="none" xmlns="http://www.w3.org/2000/svg">
<path d="M5.79186 6.6523C5.79186 3.9605 5.44293 2.96353 4.6952 2.96353C4.09702 2.96353 3.44899 3.36232 3.44899 8.89548C3.44899 14.2791 3.74808 14.8274 4.6952 14.8274C5.69217 14.8274 5.89156 13.332 5.94141 10.9393L8.43383 11.039C8.43383 13.8803 8.03504 17.3198 4.54566 17.3198C1.40521 17.3697 0.358398 14.2791 0.358398 8.89548C0.358398 2.66444 2.25263 0.421265 4.59551 0.421265C8.03504 0.421265 8.43383 3.56171 8.43383 6.55261L5.79186 6.6523Z" fill="#313131"/>
<path d="M11.4745 10.5904C11.4745 14.1297 11.8733 14.8276 12.5712 14.8276C13.2691 14.8276 13.6678 14.1297 13.6678 10.5904V7.15091C13.6678 3.61168 13.2691 2.9138 12.5712 2.9138C11.8733 2.9138 11.4745 3.61168 11.4745 7.15091V10.5904ZM12.5712 0.421387C15.2131 0.421387 16.908 2.46517 16.908 8.8956C16.908 15.326 15.2131 17.3698 12.5712 17.3698C9.92922 17.3698 8.23438 15.326 8.23438 8.8956C8.23438 2.46517 9.92922 0.421387 12.5712 0.421387Z" fill="#313131"/>
<path d="M19.3995 12.3351C19.3995 13.2324 19.3995 14.8774 20.6955 14.8774C21.6925 14.8774 22.0414 13.9801 22.0414 13.2823C22.0414 10.3911 16.6578 9.69317 16.6578 4.85789C16.608 2.41532 17.9539 0.421387 20.4463 0.421387C23.1381 0.421387 24.1351 2.46517 24.2348 5.40622H21.5928C21.5928 4.50895 21.5928 2.96365 20.3965 2.96365C19.6986 2.96365 19.2998 3.56183 19.2998 4.4591C19.2998 7.25061 24.6834 8.14788 24.6834 12.9333C24.6834 15.4257 23.2877 17.4197 20.5958 17.4197C17.4056 17.4197 16.7575 14.6282 16.7575 12.385H19.3995V12.3351Z" fill="#313131"/>
<path d="M31.0147 0.720459L29.6189 9.09498H29.5691L28.273 0.720459H24.2852V17.0707H26.4785V5.10711H26.5283L28.5223 17.0707H30.1673L32.211 5.10711H32.2609V17.0707H34.9028V0.720459H31.0147Z" fill="#313131"/>
<path d="M38.143 10.5904C38.143 14.1297 38.5418 14.8276 39.2396 14.8276C39.9375 14.8276 40.3363 14.1297 40.3363 10.5904V7.15091C40.3363 3.61168 39.9375 2.9138 39.2396 2.9138C38.5418 2.9138 38.143 3.61168 38.143 7.15091V10.5904ZM39.2396 0.421387C41.8816 0.421387 43.5764 2.46517 43.5764 8.8956C43.5764 15.326 41.8816 17.3698 39.2396 17.3698C36.5977 17.3698 34.9028 15.326 34.9028 8.8956C34.9028 2.46517 36.5977 0.421387 39.2396 0.421387Z" fill="#313131"/>
<path d="M46.568 8.14786H46.8173C48.0136 8.14786 48.7115 7.64937 48.7115 5.70529C48.7115 3.36242 47.8143 3.26272 46.8173 3.26272H46.568V8.14786ZM43.5771 0.720459H46.568C49.9079 0.720459 51.7024 2.06636 51.7024 5.60559C51.7024 8.54664 50.5559 10.4907 47.7644 10.4907H46.568V17.0209H43.5771V0.720459Z" fill="#313131"/>
<path d="M54.7433 10.5904C54.7433 14.1297 55.1421 14.8276 55.84 14.8276C56.5379 14.8276 56.9366 14.1297 56.9366 10.5904V7.15091C56.9366 3.61168 56.5379 2.9138 55.84 2.9138C55.1421 2.9138 54.7433 3.61168 54.7433 7.15091V10.5904ZM55.84 0.421387C58.482 0.421387 60.1768 2.46517 60.1768 8.8956C60.1768 15.326 58.482 17.3698 55.84 17.3698C53.198 17.3698 51.5032 15.326 51.5032 8.8956C51.5032 2.46517 53.198 0.421387 55.84 0.421387Z" fill="#313131"/>
<path d="M60.1765 0.720459V17.0707H66.9559V14.5284H63.1176V0.720459H60.1765Z" fill="#313131"/>
<path d="M70.0458 0.720459H67.0549V17.0209H70.0458V0.720459Z" fill="#313131"/>
<path d="M70.1956 0.720459V3.26272H72.7378V17.0707H75.7287V3.26272H78.271V0.720459H70.1956Z" fill="#313131"/>
<path d="M80.5637 3.26272L81.4609 11.0391H79.6166L80.5637 3.26272ZM78.7193 0.720459L76.4263 17.0209H78.9187L79.3175 13.3819H81.7102L82.1588 17.0209H85.0002L83.0062 0.720459H78.7193Z" fill="#313131"/>
<path d="M90.6837 0.720459V9.34422H90.6338L87.942 0.720459H85.001V17.0707H87.5432V7.20074H87.5931L90.7834 17.0707H93.0764V0.720459H90.6837Z" fill="#313131"/>
</svg>
