<svg width="49" height="26" viewBox="0 0 49 26" fill="none" xmlns="http://www.w3.org/2000/svg">
<path d="M26.1104 12.8741C26.1104 12.2056 26.1067 11.5473 26.007 10.9665H13.9351V16.7733H17.5184C17.5184 17.3537 15.8621 18.5469 13.3771 18.5469C10.6432 18.5469 7.54813 16.3976 7.48628 12.9396C7.42169 9.35693 10.5211 7.01385 13.3771 7.11587C15.6964 7.19872 16.5822 7.86381 17.8756 9.13691C17.8756 9.13691 25.4017 9.14262 25.5989 9.14262C25.3746 8.28011 24.8188 6.97688 23.868 5.62777C23.7885 5.51548 23.7075 5.40227 23.6219 5.28998C21.7205 2.75906 18.4168 0.189573 13.2835 0.184095C7.25211 0.175651 2.59699 4.20791 1.06187 9.1449C1.04361 9.20447 1.02604 9.26404 1.00801 9.32407C1.00801 9.3268 1.00686 9.33091 1.00572 9.33319C0.690528 10.4379 0.520264 11.6037 0.520264 12.8076C0.531676 13.9605 0.681399 15.064 0.953457 16.1052C1.92209 19.7072 4.4432 22.68 7.76244 24.2745C7.78915 24.287 7.81562 24.3 7.84301 24.3119C7.86013 24.321 7.8777 24.3277 7.89345 24.3357C9.56848 25.0975 11.4501 25.5218 13.4478 25.5375C17.6839 25.5033 21.4306 23.4305 23.739 20.2582C23.7863 20.1927 26.1104 16.8308 26.1104 12.8741Z" fill="#313131"/>
<path d="M45.1842 20.203C45.1842 20.203 47.5369 17.1985 47.5458 13.1979C47.5645 5.34133 42.061 0.270826 34.3833 0.259414C29.9355 0.252567 25.8347 2.61824 23.7347 5.45659C21.8668 7.9818 21.5589 10.0857 21.5589 11.616C21.4704 13.52 21.6575 14.4204 21.6575 14.4204C21.9287 16.4028 22.6983 18.3529 23.8799 20.0537C26.1159 23.2734 29.8287 25.6067 34.4274 25.6067C37.4794 25.6072 39.6383 24.1736 40.0283 23.9664L40.8372 24.903H48.6548L45.1842 20.203ZM40.4252 14.6899L39.7579 13.8699H31.8271L35.0514 18.4465C31.6963 19.104 28.5252 16.2531 28.5715 12.9875C28.6185 9.6509 31.3113 7.17271 34.5312 7.19439C38.0662 7.21675 41.5924 11.0491 40.4252 14.6899Z" fill="#313131"/>
<path opacity="0.5" d="M25.5986 9.14584C25.3742 8.28333 24.8185 6.97851 23.8676 5.63008C23.8279 5.57279 23.7848 5.51551 23.7439 5.45776C23.7405 5.46233 23.7366 5.46689 23.7332 5.47146C22.7301 6.82673 22.1778 8.05852 21.8806 9.14493C23.7134 9.14538 25.5036 9.14584 25.5986 9.14584Z" fill="#313131"/>
<path opacity="0.5" d="M26.1114 12.8742C26.1114 12.2057 26.1077 11.5474 26.008 10.9666H21.5804C21.5658 10.9666 21.5589 11.4157 21.5589 11.6266C21.4704 13.5308 21.6575 14.425 21.6575 14.425C21.9276 16.4061 22.6965 18.3528 23.876 20.052C24.3804 19.26 26.1114 16.2888 26.1114 12.8742Z" fill="#313131"/>
</svg>
