<svg width="60" height="22" viewBox="0 0 60 22" fill="none" xmlns="http://www.w3.org/2000/svg">
<path d="M6.50375 2.66892C6.67536 2.01346 5.87517 2.18508 4.53531 2.18508H3.96462L4.13624 1.44278C4.76482 1.47173 5.42028 1.47173 6.04679 1.47173C7.50244 1.47173 9.75415 1.18639 10.8955 1.01477C10.4965 2.2988 10.3538 2.95426 10.1532 3.69656L6.24528 19.3862H8.05244L8.20132 20.0148H0.205566L0.377185 19.3862H2.33942L6.50375 2.66892Z" fill="#313131"/>
<path d="M13.1877 10.1259C13.746 9.59865 14.3353 9.22646 15.0486 8.91631C16.6925 8.20296 18.1502 8.17194 18.6464 8.17194C20.0111 8.17194 21.1897 8.54413 22.0271 9.16443C22.9886 9.87779 23.795 11.0874 23.795 13.0724C23.795 14.406 23.3297 16.0188 22.5544 17.3215C21.748 18.7172 20.4763 19.9578 18.8325 20.7952C17.3438 21.5395 15.5759 21.9117 13.7129 21.9117C12.6894 21.9117 11.4488 21.7877 10.3943 21.0433C9.46382 20.392 8.8125 19.3064 8.8125 17.9418C8.8125 17.1664 9.06062 16.329 9.55687 15.6466C10.1462 14.8402 11.0766 14.282 12.1622 14.282C13.7129 14.282 14.4263 15.3675 14.4263 16.453C14.4263 18.2519 12.9065 18.8412 12.3482 19.0893C11.5108 19.4615 11.3868 19.8957 11.3868 20.1128C11.3868 20.2989 11.4798 21.2294 13.775 21.2294C14.6434 21.2294 15.3257 20.9503 15.7599 20.7021C17.2177 19.8647 17.8069 18.345 18.2722 16.5771L18.8925 14.1889C19.1096 13.3825 19.2647 12.328 19.2647 11.6457C19.2647 9.75372 17.9 9.25748 16.9075 9.25748C16.1321 9.25748 15.2327 9.53662 14.3332 10.0639C13.806 10.374 13.4028 10.6842 13.0306 11.1184L12.2552 10.9013L15.0797 0.974319C16.8786 1.7497 18.4603 1.90478 20.1682 1.90478C22.5254 1.90478 24.3243 1.59463 26.0322 0.726196H26.7766C26.0322 1.84275 24.7916 3.02133 23.675 3.7657C21.6901 5.09936 19.9222 5.34748 17.9351 5.34748C16.9737 5.34748 15.9502 5.25443 14.6475 5.16139L13.1877 10.1259Z" fill="#313131"/>
<path d="M23.7625 5.4469V9.81386C23.9589 10.0537 24.1284 10.3142 24.269 10.5954C24.6247 11.3005 24.8046 12.1338 24.8046 13.0725C24.8046 14.2966 24.4117 15.7605 23.7625 16.9929V19.9517H59.9635V5.4469H23.7625Z" fill="#313131"/>
<path d="M50.5597 10.5788V14.4661C50.5597 14.9251 50.8264 15.1505 51.0931 15.1505C51.3495 15.1505 51.6266 14.9272 51.6266 14.4661V10.5788C51.6266 10.1405 51.3516 9.94819 51.0931 9.94819C50.8243 9.94819 50.5597 10.1405 50.5597 10.5788ZM54.2691 10.3452V14.7287C54.2691 16.6765 53.2931 17.8054 51.0642 17.8054C48.8642 17.8054 47.8613 16.6765 47.8613 14.7287V10.3307C47.8613 8.79235 48.8373 7.58069 51.0786 7.58069C53.32 7.58276 54.2691 8.8213 54.2691 10.3452Z" fill="white"/>
<path d="M29.5808 7.72131V11.2364H28.578V7.72131H25.9148V17.6793H28.58V13.9533H29.5601V17.6793H32.2088V7.72131H29.5808Z" fill="white"/>
<path d="M32.8513 7.71289V17.6709H37.6835V15.0615H35.4587V13.7733H37.485V11.3086H35.4587V10.1093H37.6835V7.71289H32.8513Z" fill="white"/>
<path d="M38.179 7.71289V17.6874H42.4343V15.078H40.8607V7.71289H38.179Z" fill="white"/>
<path d="M43.1118 7.71289V17.6874H47.3671V15.078H45.7936V7.71289H43.1118Z" fill="white"/>
<path d="M57.737 7.69641H55.0903V14.373H57.737V7.69641Z" fill="white"/>
<path d="M57.8107 16.4221C57.8107 17.1912 57.1862 17.8157 56.4171 17.8157C55.6458 17.8157 55.0234 17.1912 55.0234 16.4221C55.0234 15.6508 55.6479 15.0284 56.4171 15.0284C57.1862 15.0284 57.8107 15.6529 57.8107 16.4221Z" fill="white"/>
<path d="M28.3954 3.26743C28.3747 3.36047 28.3581 3.40183 28.3581 3.44732C28.3581 3.49281 28.3747 3.53002 28.4264 3.53002C28.4925 3.53002 28.5856 3.45765 28.751 3.22607C28.8234 3.12269 28.9061 2.98829 28.9619 2.8849L29.0343 2.92212C28.9164 3.12889 28.8234 3.26743 28.7345 3.38115C28.6579 3.47833 28.5752 3.57758 28.4657 3.64995C28.3726 3.71198 28.2754 3.75747 28.1514 3.75747C28.0273 3.75747 27.9198 3.72232 27.8474 3.65408C27.7709 3.58172 27.7192 3.46386 27.7192 3.32325C27.7192 3.25709 27.7296 3.17438 27.7668 3.03998L28.1431 1.53057H27.8805C27.7833 1.53057 27.7006 1.53677 27.6014 1.64843C27.5249 1.74147 27.5083 1.79316 27.4566 1.94204L27.0844 3.02758C26.9604 3.38942 26.8777 3.5445 26.7846 3.63134C26.6812 3.72852 26.5634 3.7554 26.4497 3.7554C26.1664 3.7554 26.032 3.57551 26.032 3.37908C26.032 3.21367 26.125 3.02758 26.3628 3.02758C26.5903 3.02758 26.6771 3.18679 26.6771 3.30671C26.6771 3.39976 26.6254 3.46179 26.5944 3.50314C26.5675 3.53829 26.553 3.55897 26.553 3.57551C26.553 3.60239 26.5799 3.63341 26.6151 3.63341C26.6771 3.63341 26.7495 3.57138 26.7846 3.51969C26.857 3.4163 26.9604 3.1475 27.0162 2.98209L27.1858 2.48584C27.3243 2.07851 27.376 1.92343 27.376 1.79937C27.376 1.53057 27.1175 1.53057 27.0658 1.53057H26.9935L27.0183 1.44373H28.8482L28.3954 3.26743Z" fill="#313131"/>
<path d="M31.4332 2.87442C31.2161 3.18871 31.1086 3.3748 30.8853 3.54642C30.6889 3.69529 30.5028 3.75732 30.2857 3.75732C30.0169 3.75732 29.806 3.66428 29.6343 3.49886C29.4483 3.31897 29.3511 3.07498 29.3511 2.8372C29.3511 2.54772 29.4958 2.24377 29.6654 2.02046C29.7998 1.84471 29.9755 1.6855 30.1451 1.57591C30.3932 1.42083 30.631 1.36914 30.8377 1.36914C30.9763 1.36914 31.152 1.39395 31.2968 1.50768C31.3939 1.58418 31.4932 1.71444 31.4932 1.92121C31.4932 2.14866 31.3857 2.30787 31.2037 2.42159C31.0486 2.51878 30.8626 2.56633 30.6558 2.60148C30.4242 2.64284 30.2278 2.66351 30.0872 2.67385L30.021 2.92611C29.9693 3.11634 29.959 3.20525 29.959 3.25694C29.959 3.49886 30.1244 3.66014 30.356 3.66014C30.5048 3.66014 30.6909 3.60431 30.9039 3.41202C31.0631 3.26728 31.1934 3.09153 31.3629 2.83306L31.4332 2.87442ZM30.112 2.59528C30.2464 2.59114 30.447 2.56426 30.5359 2.53325C30.6703 2.48156 30.7364 2.39471 30.7778 2.3058C30.8026 2.25411 30.8543 2.11971 30.8708 2.05355L30.906 1.90467C30.9225 1.83851 30.9432 1.73926 30.9432 1.68343C30.9432 1.55523 30.8605 1.46632 30.7364 1.46632C30.633 1.46632 30.5503 1.50768 30.478 1.58418C30.3601 1.70204 30.3022 1.86332 30.236 2.12178L30.112 2.59528Z" fill="#313131"/>
<path d="M32.9954 2.07849C33.0822 1.95443 33.1711 1.85104 33.2786 1.74352C33.4234 1.59465 33.6715 1.37134 34.0023 1.37134C34.1574 1.37134 34.2959 1.42303 34.3848 1.5719C34.4469 1.67529 34.4572 1.78281 34.4572 1.87172C34.4572 1.92341 34.451 1.97924 34.4427 2.03093L34.4469 2.04127C34.5192 1.94409 34.5916 1.85518 34.6991 1.74766C34.8542 1.59258 35.0961 1.37134 35.4228 1.37134C35.582 1.37134 35.7226 1.42303 35.8095 1.5719C35.8715 1.67529 35.8818 1.78901 35.8818 1.86552C35.8818 2.01025 35.8446 2.11364 35.8095 2.25217L35.5572 3.26534C35.5365 3.35839 35.52 3.39354 35.52 3.44109C35.52 3.49279 35.5365 3.52794 35.5882 3.52794C35.6192 3.52794 35.6916 3.51346 35.8198 3.34805C35.8818 3.26534 36.01 3.09579 36.1238 2.88282L36.1961 2.92004C36.0783 3.1206 36.0204 3.23019 35.8963 3.37906C35.8301 3.45557 35.7206 3.57963 35.6275 3.64786C35.52 3.72644 35.4104 3.75538 35.3029 3.75538C35.1892 3.75538 35.0816 3.72023 35.0093 3.652C34.9018 3.55482 34.8852 3.41421 34.8852 3.30669C34.8852 3.19917 34.9018 3.13714 34.9266 3.0379L35.1644 2.07642C35.1954 1.94822 35.2512 1.77247 35.2512 1.66909C35.2512 1.57604 35.1933 1.54089 35.1333 1.54089C35.0051 1.54089 34.8439 1.71664 34.7405 1.82416C34.5813 1.99371 34.4675 2.11777 34.3476 2.36176L34.0064 3.68508H33.3407L33.7749 2.07849C33.8514 1.79935 33.8576 1.73318 33.8576 1.69597C33.8576 1.59258 33.7914 1.54089 33.7128 1.54089C33.5888 1.54089 33.4399 1.68976 33.32 1.82003C33.1546 1.99578 33.0408 2.11984 32.923 2.36176L32.5818 3.68508H31.916L32.495 1.53055H31.978L32.0029 1.44371H33.1608L32.9954 2.07849Z" fill="#313131"/>
<path d="M38.2153 1.44568H39.3195C39.8653 1.44568 40.0039 1.78685 40.0039 2.01636C40.0039 2.33685 39.8261 2.43197 39.733 2.47952C40.008 2.58084 40.0742 2.79795 40.0742 3.01505C40.0742 3.20528 40.0039 3.68292 39.1768 3.68292H38.2153V1.44568ZM38.6806 2.32238H39.2264C39.4105 2.32238 39.5573 2.25208 39.5573 2.07219C39.5573 1.89023 39.427 1.83234 39.2161 1.83234H38.6826V2.32238H38.6806ZM38.6806 3.29833H39.2471C39.4746 3.29833 39.6069 3.19701 39.6069 2.9675C39.6069 2.77313 39.4415 2.69663 39.2719 2.69663H38.6806V3.29833Z" fill="#313131"/>
<path d="M43.2343 3.68292H42.769V1.44568H43.7925C44.2247 1.44568 44.4832 1.72068 44.4832 2.1611C44.4832 2.36166 44.3715 2.87652 43.7719 2.87652H43.2343V3.68292ZM43.2343 2.49193H43.6685C43.9766 2.49193 44.0159 2.28309 44.0159 2.14456C44.0159 1.92538 43.8959 1.83234 43.6065 1.83234H43.2343V2.49193Z" fill="#313131"/>
<path d="M46.6325 1.38794C46.9281 1.38794 47.7056 1.5182 47.7056 2.56445C47.7056 3.61277 46.9281 3.74097 46.6325 3.74097C46.3368 3.74097 45.5593 3.6107 45.5593 2.56445C45.5593 1.51614 46.3368 1.38794 46.6325 1.38794ZM46.6325 3.34811C46.8847 3.34811 47.2404 3.19096 47.2404 2.56445C47.2404 1.93794 46.8868 1.7808 46.6325 1.7808C46.3781 1.7808 46.0246 1.93794 46.0246 2.56445C46.0246 3.19096 46.3802 3.34811 46.6325 3.34811Z" fill="#313131"/>
<path d="M50.3118 2.17986C50.2746 2.0434 50.2002 1.78287 49.8156 1.78287C49.5902 1.78287 49.2511 1.94415 49.2511 2.57479C49.2511 2.97592 49.4207 3.34811 49.8156 3.34811C50.0741 3.34811 50.256 3.19096 50.3118 2.91596H50.7771C50.684 3.40394 50.3677 3.74304 49.8053 3.74304C49.2098 3.74304 48.7859 3.33984 48.7859 2.56859C48.7859 1.78494 49.2366 1.38794 49.8115 1.38794C50.4793 1.38794 50.7523 1.8511 50.7771 2.17986H50.3118Z" fill="#313131"/>
<path d="M53.3612 2.17986C53.3239 2.0434 53.2495 1.78287 52.8649 1.78287C52.6395 1.78287 52.3004 1.94415 52.3004 2.57479C52.3004 2.97592 52.47 3.34811 52.8649 3.34811C53.1234 3.34811 53.3053 3.19096 53.3612 2.91596H53.8264C53.7333 3.40394 53.417 3.74304 52.8546 3.74304C52.2591 3.74304 51.8352 3.33984 51.8352 2.56859C51.8352 1.78494 52.286 1.38794 52.8608 1.38794C53.5286 1.38794 53.8016 1.8511 53.8264 2.17986H53.3612Z" fill="#313131"/>
<path d="M55.4306 3.00472H55.4326L56.3238 1.44568H56.8469V3.68292H56.3817V2.0908H56.3755L55.4636 3.68499H54.9653V1.44568H55.4306V3.00472Z" fill="#313131"/>
<path d="M58.5448 3.00472H58.5469L59.4381 1.44568H59.9612V3.68292H59.496V2.0908H59.4898L58.5779 3.68499H58.0796V1.44568H58.5448V3.00472Z" fill="#313131"/>
</svg>
