<svg width="96" height="23" viewBox="0 0 96 23" fill="none" xmlns="http://www.w3.org/2000/svg">
<path d="M19.3705 0.879028C15.4843 0.879028 12.6691 5.9983 12.6691 11.9226C12.67 17.98 15.6715 22.912 19.3705 22.912C23.0695 22.912 26.0982 17.98 26.0982 11.9226C26.0719 5.81102 23.0695 0.879028 19.3705 0.879028ZM21.6492 21.679C21.0594 22.5366 20.212 22.7476 19.3705 22.7476C18.5494 22.7476 17.7087 22.5366 17.1189 21.679C16.1274 20.2316 15.6986 17.8995 15.6986 11.9226C15.6986 6.66861 16.1274 3.61366 17.1189 2.16626C17.7087 1.28155 18.5426 1.10105 19.3705 1.10105C20.2179 1.10105 21.0594 1.25528 21.6492 2.16626C22.6407 3.61366 23.0695 6.66946 23.0695 11.9226C23.0695 17.8995 22.6407 20.2316 21.6492 21.679ZM36.1774 1.46883V7.58044C36.1774 7.63382 36.0969 7.63382 36.0969 7.58044C36.0969 4.81954 34.7029 1.55358 32.1301 1.58069H30.0929C30.0124 1.58069 29.9591 1.60781 29.9591 1.68832V11.5328H30.3073C31.9691 11.5328 33.1488 9.59137 33.1488 7.55417C33.1488 7.50078 33.2293 7.50078 33.2293 7.55417V15.6759C33.2293 15.7292 33.1488 15.7292 33.1488 15.6759C33.1488 13.6658 31.9691 11.6972 30.3073 11.6972H29.9591V22.1052C29.9591 22.1857 30.0124 22.2129 30.0929 22.2129H31.9158C31.9166 22.2129 31.9166 22.2154 31.9166 22.2154C31.9573 22.2188 31.9903 22.2586 31.9903 22.3095C31.9903 22.3612 31.9573 22.401 31.9158 22.4044V22.4052H31.9149C31.9141 22.4052 31.9132 22.4061 31.9124 22.4061C31.9115 22.4061 31.9107 22.4052 31.9098 22.4052H25.2787C25.2779 22.4052 25.2771 22.4061 25.2762 22.4061C25.2754 22.4061 25.2745 22.4052 25.2737 22.4052H25.2677C25.2669 22.4052 25.2669 22.4018 25.266 22.401C25.2287 22.3942 25.1982 22.3578 25.1982 22.3095C25.1982 22.2612 25.2279 22.2264 25.2652 22.2188C25.266 22.2179 25.2669 22.2129 25.2677 22.2129H27.0905C27.1982 22.2129 27.2244 22.1857 27.2244 22.1052V1.68747C27.2244 1.60696 27.171 1.57985 27.0905 1.57985H25.2787C25.2779 1.57985 25.2771 1.58069 25.2762 1.58069C25.2754 1.58069 25.2745 1.57985 25.2737 1.57985H25.2677C25.2211 1.57985 25.1991 1.53409 25.1982 1.48663C25.1982 1.48578 25.1974 1.48493 25.1974 1.48409C25.1974 1.43578 25.2211 1.38748 25.2669 1.38748H36.1223C36.1503 1.38833 36.1774 1.44172 36.1774 1.46883ZM9.93618 8.43803C10.2582 8.30413 10.5523 8.11601 10.7404 7.90161C11.3565 7.28553 11.7056 6.56184 11.7056 5.89153C11.7056 5.22122 11.4107 4.57802 10.7946 4.04245C10.4726 3.77467 10.1785 3.26537 10.1785 2.62217C10.1768 1.68323 10.7938 0.879028 11.5709 0.879028C12.5361 0.879028 13.0183 1.71035 13.0454 3.07724C13.0454 4.73903 11.5709 7.95584 9.96245 8.57192C9.90906 8.59819 9.90906 8.4643 9.93618 8.43803ZM11.7048 15.3267V22.2959C11.7048 22.3764 11.6776 22.4035 11.6514 22.4035H0.307779C0.306932 22.4035 0.306084 22.4044 0.305237 22.4044C0.304389 22.4044 0.303542 22.4035 0.302695 22.4035H0.296763C0.288288 22.4035 0.284899 22.3951 0.278119 22.3908C0.250154 22.3764 0.227274 22.3484 0.227274 22.3086C0.227274 22.2612 0.256934 22.2256 0.29422 22.2179C0.29761 22.2171 0.299305 22.212 0.303542 22.212H2.05601C2.13651 22.212 2.1899 22.1849 2.1899 22.1044V1.68747C2.1899 1.60696 2.13651 1.57985 2.05601 1.57985H0.246765C0.245917 1.57985 0.24507 1.58069 0.244223 1.58069C0.243375 1.58069 0.243375 1.57985 0.24168 1.57985H0.232359C0.227274 1.57985 0.224732 1.57222 0.220495 1.56883C0.190835 1.55612 0.16626 1.52646 0.16626 1.48493C0.16626 1.44426 0.18914 1.41629 0.217952 1.40189C0.223037 1.39765 0.226427 1.38833 0.233206 1.38833H6.88038C6.99902 1.38833 6.99902 1.57985 6.88038 1.57985H5.05758C4.97707 1.57985 4.92368 1.60696 4.92368 1.68747V22.1044C4.92368 22.1849 4.97707 22.212 5.05758 22.212H7.12189C10.2582 22.212 11.6251 18.3562 11.6251 15.3276C11.6242 15.2725 11.7048 15.2725 11.7048 15.3267ZM65.072 15.0581V22.8577C65.072 22.8849 65.0186 22.8849 65.0186 22.8577C64.9652 22.5095 64.6432 21.973 64.0805 21.973C63.1424 21.973 61.6145 22.9111 60.462 22.9111C56.5486 22.9111 53.6538 17.7919 53.6538 11.9218C53.653 5.9983 56.4681 0.879028 60.3815 0.879028C61.373 0.879028 62.6602 1.68323 63.5983 1.68323C64.161 1.68323 64.5635 1.28155 64.6169 0.959533C64.6169 0.906146 64.6974 0.906146 64.6974 0.959533V7.90161C64.6974 7.955 64.6169 7.955 64.6169 7.90161C64.6169 4.95343 62.3924 1.09851 60.3552 1.09851C59.4171 1.09851 58.6663 1.28071 58.0765 2.16541C57.085 3.61281 56.6825 6.66861 56.6825 11.9218C56.6825 17.1487 57.0842 20.2307 58.0765 21.6781C58.6663 22.5357 59.5239 22.7467 60.462 22.7467C62.9814 22.7467 65.0186 18.9444 65.0186 15.0572C65.0186 15.0047 65.072 15.0047 65.072 15.0581ZM47.3278 1.46883V7.58044C47.3278 7.63382 47.2473 7.63382 47.2473 7.58044C47.2473 4.81954 45.8533 1.55358 43.2534 1.58069H41.2162C41.1357 1.58069 41.0823 1.60781 41.0823 1.68832V11.5277H41.4306C43.0924 11.5277 44.272 9.59137 44.272 7.55417C44.272 7.50078 44.3525 7.50078 44.3525 7.55417V15.6759C44.3525 15.7292 44.272 15.7292 44.272 15.6759C44.272 13.6658 43.0924 11.7023 41.4306 11.7023H41.0823V22.1052C41.0823 22.1857 41.1357 22.2129 41.2162 22.2129H43.039C43.0424 22.2129 43.0432 22.2188 43.0466 22.2205C43.0822 22.2298 43.1102 22.2629 43.1102 22.3095C43.1102 22.3569 43.0805 22.3917 43.0441 22.4001C43.0424 22.401 43.0415 22.4052 43.039 22.4052H43.0348C43.0339 22.4052 43.0331 22.4061 43.0322 22.4061C43.0314 22.4061 43.0305 22.4052 43.0297 22.4052H36.402C36.4011 22.4052 36.4003 22.4061 36.3995 22.4061C36.3986 22.4061 36.3978 22.4052 36.3969 22.4052H36.3918C36.3893 22.4052 36.3884 22.401 36.3867 22.4001C36.3503 22.3917 36.3215 22.3569 36.3215 22.3103C36.3215 22.2646 36.3495 22.2315 36.3842 22.2222C36.3876 22.2205 36.3884 22.2146 36.3918 22.2146H38.2146C38.3223 22.2146 38.3485 22.1874 38.3485 22.1069V1.68747C38.3485 1.60696 38.2951 1.57985 38.2146 1.57985H36.4054C36.4045 1.57985 36.4037 1.58069 36.4028 1.58069C36.402 1.58069 36.4011 1.57985 36.4003 1.57985H36.391C36.3867 1.57985 36.3851 1.57222 36.3817 1.57052C36.3495 1.55866 36.324 1.52815 36.324 1.48493C36.324 1.44256 36.3486 1.41375 36.3791 1.40019C36.3834 1.3968 36.3859 1.38833 36.391 1.38833H47.2736C47.3007 1.38833 47.3278 1.44172 47.3278 1.46883ZM95.9766 15.353V22.3222C95.9766 22.3756 95.9766 22.4027 95.9232 22.4027H84.5186C84.5177 22.4027 84.5169 22.4035 84.516 22.4035C84.5152 22.4035 84.5143 22.4027 84.5135 22.4027H84.505C84.5008 22.4027 84.4991 22.3959 84.4957 22.3934C84.4635 22.3815 84.4381 22.351 84.4381 22.3069C84.4381 22.2646 84.4627 22.2349 84.4932 22.2222C84.4974 22.2188 84.4999 22.2103 84.505 22.2103H86.3278C86.4083 22.2103 86.4617 22.1832 86.4617 22.1027V1.68747C86.4617 1.60696 86.4083 1.57985 86.3278 1.57985H84.511C84.5101 1.57985 84.5093 1.58069 84.5084 1.58069C84.5076 1.58069 84.5067 1.57985 84.5059 1.57985H84.505L84.5042 1.579C84.4635 1.57561 84.4305 1.53578 84.4305 1.48493C84.4305 1.43494 84.4627 1.3968 84.5016 1.39172C84.5033 1.39172 84.5033 1.38833 84.505 1.38833H91.1522C91.1556 1.38833 91.1564 1.39765 91.159 1.40189C91.1878 1.41629 91.2107 1.44426 91.2107 1.48493C91.2107 1.52561 91.1869 1.55442 91.1581 1.56798C91.1556 1.57137 91.1547 1.57985 91.1522 1.57985H91.1353C91.1344 1.57985 91.1336 1.58069 91.1327 1.58069C91.1319 1.58069 91.131 1.57985 91.1302 1.57985H89.3294C89.2489 1.57985 89.1955 1.60696 89.1955 1.68747V22.1044C89.1955 22.1849 89.2489 22.212 89.3294 22.212H91.3929C94.5292 22.212 95.8961 18.3834 95.8961 15.3538C95.8969 15.2996 95.9766 15.2996 95.9766 15.353ZM84.2635 15.6216V22.323C84.2635 22.3764 84.2364 22.4035 84.2101 22.4035H84.1652H72.242C72.2411 22.4035 72.2403 22.4044 72.2395 22.4044C72.2386 22.4044 72.2378 22.4035 72.2369 22.4035H72.2276C72.2234 22.4035 72.2217 22.3959 72.2183 22.3942C72.1861 22.3815 72.1606 22.3518 72.1606 22.3086C72.1606 22.2671 72.1852 22.2374 72.2157 22.2239C72.22 22.2205 72.2225 22.212 72.2276 22.212H74.0504C74.1309 22.212 74.1843 22.1849 74.1843 22.1044V1.68747C74.1843 1.60696 74.1572 1.57985 74.0504 1.57985H72.242C72.2411 1.57985 72.2403 1.58069 72.2395 1.58069C72.2386 1.58069 72.2378 1.57985 72.2369 1.57985H72.2276C72.2234 1.57985 72.2217 1.57222 72.2174 1.56968C72.1861 1.55697 72.1615 1.52731 72.1615 1.48409C72.1615 1.44256 72.1852 1.41375 72.2149 1.40019C72.2191 1.3968 72.2217 1.38748 72.2276 1.38748H83.1102C83.1636 1.38748 83.1636 1.44087 83.1636 1.46799V7.60586C83.1636 7.65925 83.0831 7.65925 83.0831 7.60586C83.0831 4.84496 81.7162 1.579 79.1425 1.579H77.1053C77.0248 1.579 76.9715 1.60612 76.9715 1.68662V11.526H77.5079C79.1697 11.526 80.3755 9.58967 80.3755 7.55247C80.3755 7.49908 80.4289 7.49908 80.4289 7.55247V15.6742C80.4289 15.7275 80.3755 15.7275 80.3755 15.6742C80.3755 13.6641 79.1697 11.7006 77.5079 11.7006H76.9715V22.1035C76.9715 22.184 76.9986 22.2112 77.1053 22.2112H79.1959C82.6 22.2112 84.1813 18.6774 84.1813 15.6216C84.183 15.5674 84.2635 15.5674 84.2635 15.6216ZM54.2767 22.3078C54.2767 22.3501 54.2521 22.379 54.2216 22.3925C54.2199 22.3951 54.219 22.4035 54.2165 22.4035H54.2012C54.2004 22.4035 54.1995 22.4044 54.1987 22.4044C54.1978 22.4044 54.197 22.4035 54.1962 22.4035H47.5829C47.582 22.4035 47.5812 22.4044 47.5803 22.4044C47.5795 22.4044 47.5786 22.4035 47.5778 22.4035H47.5693C47.5651 22.4035 47.5634 22.3968 47.56 22.3942C47.5278 22.3823 47.5024 22.3518 47.5024 22.3086C47.5024 22.2663 47.5269 22.2374 47.5575 22.2239C47.5617 22.2205 47.5642 22.212 47.5693 22.212H49.3921C49.4726 22.212 49.526 22.1849 49.526 22.1044V1.68747C49.526 1.60696 49.4726 1.57985 49.3921 1.57985H47.5795C47.5786 1.57985 47.5778 1.58069 47.5769 1.58069C47.5761 1.58069 47.5753 1.57985 47.5744 1.57985H47.5693C47.5668 1.57985 47.5659 1.57476 47.5634 1.57391C47.5278 1.56544 47.4981 1.5307 47.4981 1.48409C47.4981 1.43833 47.5261 1.40612 47.5608 1.39596C47.5642 1.39426 47.5651 1.38748 47.5693 1.38748H54.2165C54.2199 1.38748 54.2216 1.3968 54.2233 1.40189C54.2512 1.41629 54.2733 1.44426 54.2733 1.48409C54.2733 1.52392 54.2504 1.55188 54.2224 1.56629C54.2199 1.56968 54.219 1.579 54.2165 1.579H54.1978C54.197 1.579 54.1962 1.57985 54.1953 1.57985C54.1945 1.57985 54.1936 1.579 54.1928 1.579H52.3937C52.3132 1.579 52.2598 1.60612 52.2598 1.68662V22.1035C52.2598 22.184 52.3132 22.2112 52.3937 22.2112H54.2165C54.219 22.2112 54.2207 22.2196 54.2224 22.2239C54.2521 22.2366 54.2767 22.2663 54.2767 22.3078ZM71.9496 22.3078C71.9496 22.3535 71.9217 22.3857 71.8869 22.3959C71.8844 22.3968 71.8827 22.4027 71.8801 22.4027H71.8734C71.8725 22.4027 71.8717 22.4035 71.8708 22.4035C71.87 22.4035 71.8691 22.4027 71.8683 22.4027H65.2584C65.2575 22.4027 65.2567 22.4035 65.2559 22.4035C65.255 22.4035 65.2542 22.4027 65.2533 22.4027H65.2321C65.2287 22.4027 65.227 22.3934 65.2245 22.3883C65.1982 22.373 65.177 22.3459 65.177 22.3078C65.177 22.2696 65.1974 22.2434 65.2236 22.2273C65.2262 22.2213 65.2279 22.2112 65.2321 22.2112H67.0549C67.1354 22.2112 67.1888 22.184 67.1888 22.1035V1.68747C67.1888 1.60696 67.1354 1.57985 67.0549 1.57985H65.2542C65.2533 1.57985 65.2525 1.58069 65.2516 1.58069C65.2508 1.58069 65.2499 1.57985 65.2491 1.57985H65.2321C65.2296 1.57985 65.2287 1.57137 65.2262 1.56883C65.1965 1.55527 65.1728 1.52646 65.1728 1.48493C65.1728 1.44426 65.1965 1.41545 65.2253 1.40189C65.2279 1.39765 65.2287 1.38918 65.2321 1.38918H71.8793C71.8861 1.38918 71.8895 1.3985 71.8937 1.40358C71.9217 1.41884 71.9437 1.44595 71.9437 1.48578C71.9437 1.52646 71.9208 1.55442 71.8912 1.56883C71.8869 1.57222 71.8844 1.58069 71.8793 1.58069H71.8674C71.8666 1.58069 71.8657 1.58154 71.8649 1.58154C71.864 1.58154 71.8632 1.58069 71.8624 1.58069H70.0556C69.9751 1.58069 69.9218 1.60781 69.9218 1.68832V22.1052C69.9218 22.1857 69.9751 22.2129 70.0556 22.2129H71.8784C71.8827 22.2129 71.8844 22.2205 71.8878 22.2222C71.9225 22.2315 71.9496 22.2629 71.9496 22.3078Z" fill="#313131"/>
</svg>
