<svg width="69" height="14" viewBox="0 0 69 14" fill="none" xmlns="http://www.w3.org/2000/svg">
<path d="M52.8151 2.85657H50.1108V13.6747H52.8151V2.85657Z" fill="#313131"/>
<path fill-rule="evenodd" clip-rule="evenodd" d="M47.9484 2.85657H36.0481V5.18253H40.646V13.6747H43.3504V5.18253H47.9484V2.85657Z" fill="#313131"/>
<path fill-rule="evenodd" clip-rule="evenodd" d="M65.5874 2.85657V10.7104L58.997 2.85657H55.2495V13.6747H57.9539V5.82063L64.5445 13.6747H68.2916V2.85657H65.5874Z" fill="#313131"/>
<path d="M11.1654 2.85657H3.05189C1.70793 2.85657 0.617432 3.9476 0.617432 5.29103V11.2401C0.617432 12.5853 1.70793 13.6747 3.05189 13.6747H11.1654C12.5105 13.6747 13.5992 12.5851 13.5992 11.2401V5.29103C13.5992 3.9476 12.5105 2.85657 11.1654 2.85657ZM10.8948 9.99641C10.8948 10.7438 10.2897 11.349 9.54277 11.349H4.67438C3.92793 11.349 3.32206 10.7438 3.32206 9.99641V6.53498C3.32206 5.78879 3.92793 5.1828 4.67438 5.1828H9.53892C9.54025 5.1828 9.54144 5.18267 9.54263 5.18267C9.54383 5.18267 9.54502 5.1828 9.54635 5.1828C10.2917 5.18479 10.8948 5.78986 10.8948 6.53485V9.99641Z" fill="#313131"/>
<path d="M34.1546 6.10194V5.29063C34.1546 3.94747 33.066 2.85657 31.7208 2.85657H23.6073C22.2634 2.85657 21.1729 3.94747 21.1729 5.29063V6.91312C21.1729 8.25814 22.2634 9.34731 23.6073 9.34731H26.7651L30.368 9.34758C30.9652 9.34758 31.45 9.83155 31.45 10.4295C31.45 11.0263 30.9652 11.5109 30.368 11.5109C29.8687 11.5109 24.9591 11.5112 24.9591 11.5112C24.3615 11.5112 23.8774 11.0263 23.8774 10.4295H21.1729V11.2406C21.1729 12.5838 22.2615 13.6747 23.6065 13.6747H31.7201C33.0641 13.6747 34.1546 12.5838 34.1546 11.2406V9.61814C34.1546 8.27312 33.0641 7.18395 31.7201 7.18395L24.9594 7.18382C24.3621 7.18382 23.8775 6.69971 23.8775 6.10194C23.8775 5.50496 24.3621 5.02019 24.9594 5.02019C25.4586 5.02019 30.3684 5.02006 30.3684 5.02006C30.966 5.02006 31.4501 5.50496 31.4501 6.10181H34.1546V6.10194Z" fill="#313131"/>
<path fill-rule="evenodd" clip-rule="evenodd" d="M17.3861 0.963501C18.4318 0.963501 19.2791 1.81182 19.2791 2.85669C19.2791 3.90263 18.4318 4.74988 17.3861 4.74988C16.3407 4.74988 15.4927 3.90263 15.4927 2.85669C15.4927 1.81182 16.3407 0.963501 17.3861 0.963501Z" fill="#313131"/>
</svg>
