<svg width="84" height="22" viewBox="0 0 84 22" fill="none" xmlns="http://www.w3.org/2000/svg">
<path d="M24.6733 0.818163C19.8462 0.852675 15.8977 6.21767 15.8977 10.8972C15.8977 15.8216 18.7921 21.8286 24.6733 21.8091C30.5545 21.7896 33.607 15.3225 33.607 10.8972C33.607 6.00902 29.5004 0.783652 24.6733 0.818163ZM24.6733 1.00171C28.7134 1.00171 29.8034 5.46372 29.8034 10.8972C29.8034 18.0665 28.4886 21.6035 24.6733 21.5968C20.858 21.59 19.6168 18.6952 19.6168 10.8972C19.6168 6.01237 20.6332 1.00171 24.6733 1.00171Z" fill="#313131"/>
<path d="M35.2008 11.0296C35.1791 5.70506 39.4406 0.988532 43.0481 0.754523C44.3511 0.662207 46.0261 1.25892 47.0039 1.68399C47.714 1.99266 49.1635 1.54588 49.4209 0.726196H49.5613V7.97925H49.4209C49.4209 7.67005 48.0777 0.936877 43.0481 0.936877C39.333 0.936877 38.9741 7.46929 38.9741 11.0296C38.9741 14.5899 39.0824 21.6382 43.4176 21.6382C45.5178 21.6382 47.0723 20.7193 47.4753 18.8605V13.2085H45.7125V12.9678H52.5454V13.2085H50.8601V21.4717H50.7229C50.7229 21.4717 50.4489 20.2794 49.0586 20.2834C47.2816 20.2885 45.6058 21.8323 43.563 21.8135C38.1606 21.7638 35.2224 16.3542 35.2008 11.0296Z" fill="#313131"/>
<path d="M2.64465 1.53164H0.51709V1.29248H7.97005V1.53164H6.10028L11.4256 15.9936C13.0909 10.8668 14.3809 7.07704 16.117 1.53164H14.2675V1.29248H18.2027V1.53164H16.4107L9.93829 21.7088L2.64465 1.53164Z" fill="#313131"/>
<path d="M53.5881 16.7698L53.5544 1.50935H51.5293V1.28076H58.9903V1.50935H56.9663L57.0113 18.2417C57.4593 20.1577 58.2559 21.6115 60.9774 21.6331C63.699 21.6548 65.5491 20.0232 66.2367 17.7934V1.50935H63.9201L63.9201 1.2875H82.8815L82.9209 8.61315H82.7387C82.387 3.88325 80.5619 2.09568 77.3701 1.57419C76.2718 1.39474 75.1196 1.52777 73.6629 1.51645V10.8659C74.9314 10.9639 76.2825 10.8837 77.193 10.1017C78.021 9.39054 78.255 7.74748 78.3159 7.07998H78.4762V15.2205H78.3027C78.2526 15.2205 78.186 13.1776 77.193 12.2084C76.1935 11.2329 74.9207 10.9931 73.6629 11.2255V21.2127C75.4396 21.2127 76.8558 21.3632 78.0857 21.0261C81.8242 20.0011 83.1404 16.8471 83.1303 13.6837H83.3382V21.4492H68.4653V21.2127H70.147V1.50935H66.5136V17.7934C66.1018 19.3515 64.5967 21.9291 60.7393 21.9115C57.1529 21.8951 53.5958 20.2783 53.5881 16.7698Z" fill="#313131"/>
</svg>
