<svg width="116" height="110" viewBox="0 0 116 110" fill="none" xmlns="http://www.w3.org/2000/svg">
<path d="M53.8185 42.7273C53.6367 42.7273 53.273 42.7273 53.0912 42.9091C52.1821 43.4546 52.1821 44.7273 52.9094 45.8182C53.4549 46.5455 54.1821 47.0909 54.9094 47.0909C55.0912 47.0909 55.4549 47.0909 55.6367 46.9091C56.5458 46.3637 56.5457 45.0909 55.8185 44C55.273 43.2728 54.5458 42.7273 53.8185 42.7273Z" fill="#00BED9"/>
<path d="M48.7265 57.2729C49.0902 57.2729 49.272 57.0911 49.4538 56.7275C49.6356 56.3638 49.9992 56.0002 50.1811 55.8184C50.3629 55.6366 50.7265 55.6365 50.9083 55.6365C51.0901 55.6365 51.272 55.6365 51.272 55.6365H51.4538C51.6356 55.6365 51.6356 55.6365 51.8174 55.6365C51.9992 55.6365 51.9992 55.4547 51.9992 55.4547C52.1811 55.2729 52.181 55.0911 52.181 54.9093C52.181 54.7275 51.9992 54.5456 51.8174 54.3638C51.4538 54.0002 50.9083 53.8184 50.3629 53.8184C49.9992 53.8184 49.6356 54.0002 49.0901 54.182C48.7265 54.3638 48.3629 54.7275 48.1811 55.0911C47.8174 55.4547 47.6356 56.0002 47.8174 56.5456C47.8174 56.7275 47.8174 56.9093 47.9992 57.0911C48.3629 57.2729 48.5447 57.2729 48.7265 57.2729Z" fill="#00BED9"/>
<path d="M35.2717 53.6365C34.9081 53.6365 34.7263 53.6365 34.5445 53.8183C33.6354 54.3637 33.6354 55.8183 34.1808 56.9092C34.7263 57.8183 35.4536 58.1819 36.1808 58.1819C36.5445 58.1819 36.7263 58.1819 36.9081 58.0001C37.8172 57.4547 37.8172 56.0001 37.2717 54.9092C36.9081 54.0001 36.1808 53.6365 35.2717 53.6365Z" fill="#00BED9"/>
<path d="M112 65.0909H108C108.727 61.6364 109.091 58.1818 109.091 54.5455C109.091 24.3636 84.7273 0 54.5455 0C24.3636 0 0 24.3636 0 54.5455C0 72.3636 8.54545 88.1818 21.8182 98.1818C30.9091 105.455 42.3636 110 54.7273 110C56.5455 110 111.818 110 111.818 110C113.818 110 115.818 108 115.818 105.818V68.9091C115.818 66.9091 114.182 65.0909 112 65.0909ZM21.4546 70.9091C20.5455 71.6364 19.2727 72 18.1818 72C15.8182 72 13.4545 70.9091 11.6364 68.7273C9.0909 65.6364 8.72726 61.4545 10.7273 59.0909C6.90908 52.7273 2.18182 36.3636 16 24.9091C19.4546 22 22.7273 20.9091 25.4545 20.9091C27.6364 20.9091 29.2727 21.6364 30.5455 22.5455C33.8182 25.2727 32.9091 28.9091 31.4546 30.1818C30.9091 30.7273 29.8182 31.4546 28.3636 31.4546C27.6364 31.4546 26.7273 31.2727 25.8182 30.7273C25.6364 30.7273 25.6364 30.7273 25.4545 30.7273C25.0909 30.7273 24.7273 31.4546 25.2727 32.1818C26.1818 33.8182 27.8182 34.7273 29.8182 34.7273C31.2727 34.7273 32.9091 34.1818 34.5455 32.9091C38.5455 29.4545 40.1818 22.5455 33.6364 16.1818H33.8182C36.1818 15.2727 38.7273 14.7273 40.9091 14.7273C53.6364 14.7273 63.6364 27.6364 63.6364 27.6364C63.6364 27.6364 64 27.4545 64.7273 27.4545C66.1818 27.4545 68.7273 28.1818 71.0909 32.1818C74 37.2727 70.9091 40.9091 70.9091 40.9091C72.7273 46.9091 72.1818 51.8182 72.1818 52.3636C70.9091 60.7273 67.2727 68.1818 59.2727 73.8182C54.1818 77.4545 48.5454 79.2727 42.5454 79.2727C35.6364 79.0909 28.3636 76.3636 21.4546 70.9091ZM59.4545 106C59.4545 106.727 58.9091 107.091 58.3636 107.091H50C49.2727 107.091 48.9091 106.545 48.9091 106V93.8182C48.9091 93.0909 49.4545 92.7273 50 92.7273H58.3636C59.0909 92.7273 59.4545 93.2727 59.4545 93.8182V106ZM72.9091 106C72.9091 106.182 72.9091 106.364 72.7273 106.545C72.7273 106.727 72.5455 106.909 72.3636 106.909C72.1818 107.091 72 107.091 71.8182 107.091C71.8182 107.091 71.8182 107.091 71.6364 107.091H69.2727H63.2727C62.5455 107.091 62.1818 106.545 62.1818 106V87.6364C62.1818 86.9091 62.7273 86.5455 63.2727 86.5455H71.6364C72.3636 86.5455 72.7273 87.0909 72.7273 87.6364V106H72.9091ZM86.5455 98.7273V99.0909V105.818C86.5455 106.545 86 106.909 85.4546 106.909H77.0909C76.3636 106.909 76 106.364 76 105.818V105.455V104.727V81.0909C76 80.3636 76.5454 80 77.0909 80H85.4546C86.1818 80 86.5455 80.5455 86.5455 81.0909V98.7273ZM98.7273 107.091H90.3636C89.6364 107.091 89.2727 106.545 89.2727 106V97.0909V96.9091V75.0909C89.2727 74.3636 89.8182 74 90.3636 74H98.7273C99.2727 74 99.8182 74.3636 99.8182 74.9091V84.3636V85.0909V106V106.182C99.8182 106.727 99.2727 107.091 98.7273 107.091ZM98.9091 59.4546C98.9091 60 98.1818 60.3636 97.6364 60L94.7273 58C94.3636 57.8182 93.8182 57.8182 93.6364 58.1818C90.9091 61.8182 76.5455 80 50.5455 85.6364C49.6364 85.8182 49.0909 84.5455 50 84C58.9091 80.1818 72.9091 71.8182 85.4546 53.6364C85.6364 53.2727 85.6364 52.7273 85.2727 52.5455L82.7273 50.9091C82.1818 50.5455 82.1818 49.8182 82.7273 49.4546L99.4545 40.1818C100 39.8182 100.727 40.3636 100.727 40.9091L98.9091 59.4546ZM113.273 106C113.273 106.727 112.727 107.091 112.182 107.091H103.818C103.273 107.091 102.727 106.727 102.727 106.182V106V80.7273V79.4546V74.7273V68.9091C102.727 68.1818 103.273 67.8182 103.818 67.8182H106.727H107.636H112.182C112.909 67.8182 113.273 68.3636 113.273 68.9091V106Z" fill="#00BED9"/>
<path d="M52.1812 60.909C51.4539 61.2726 50.7267 61.6362 49.9994 61.8181C49.2721 61.9999 48.5448 62.1817 47.9994 62.3635C47.2721 62.5453 46.5448 62.5453 45.8176 62.5453C45.0903 62.5453 44.363 62.5453 43.6358 62.5453H43.4539C43.2721 62.5453 43.0903 62.5453 42.9085 62.7272C42.7267 62.909 42.7267 63.4544 43.0903 63.6362C43.8176 64.1817 44.7267 64.5453 45.6358 64.7272C46.5449 64.909 47.454 64.909 48.363 64.7272C49.2721 64.5453 50.1812 64.1817 50.9085 63.8181C51.6358 63.2726 52.363 62.7272 52.9085 61.8181C53.0903 61.6362 53.0903 61.4544 52.9085 61.2726C52.9085 60.909 52.5448 60.7272 52.1812 60.909Z" fill="#00BED9"/>
<path d="M72.1815 52.1817C72.1815 51.6363 72.7269 46.7272 70.9087 40.7272C70.9087 40.7272 73.9996 37.0908 71.0906 31.9999C68.7269 27.9999 66.1815 27.2726 64.7269 27.2726C63.9997 27.2726 63.636 27.4544 63.636 27.4544C63.636 27.4544 53.636 14.3635 40.9087 14.3635C38.5451 14.3635 36.1815 14.7272 33.8178 15.8181H33.636C40.1815 22.1817 38.5451 29.0908 34.5451 32.5453C32.9087 33.8181 31.2724 34.3635 29.8178 34.3635C27.8178 34.3635 26.1814 33.2726 25.2724 31.8181C24.7269 30.909 25.0906 30.3635 25.4542 30.3635C25.4542 30.3635 25.636 30.3635 25.8178 30.3635C26.7269 30.909 27.4542 31.0908 28.3633 31.0908C29.8178 31.0908 30.7269 30.3635 31.4542 29.8181C33.0906 28.5453 33.9996 24.909 30.5451 22.1817C29.2724 21.0908 27.4542 20.5453 25.4542 20.5453C22.7269 20.5453 19.4542 21.6363 15.9996 24.5453C2.18146 35.9999 6.90872 52.3635 10.7269 58.7272C8.7269 61.2726 8.90872 65.2726 11.636 68.3635C13.4542 70.5453 15.9996 71.6363 18.1815 71.6363C19.4542 71.6363 20.5451 71.2726 21.4542 70.5453C28.3633 76.1817 35.636 78.7272 42.5451 78.7272C48.3633 78.7272 54.1815 76.7272 59.2724 73.2726C67.2724 67.8181 70.9087 60.3635 72.1815 52.1817ZM37.0905 57.9999C36.9087 58.1817 36.5451 58.1817 36.3633 58.1817C35.636 58.1817 34.7269 57.6363 34.3633 56.909C33.636 55.8181 33.8178 54.3635 34.7269 53.8181C34.9087 53.6362 35.2724 53.6362 35.4542 53.6362C36.1815 53.6362 37.0906 54.1817 37.4542 54.909C38.1815 55.9999 37.9996 57.4544 37.0905 57.9999ZM48.5451 55.0908C48.7269 54.7272 49.0905 54.5453 49.4542 54.1817C49.8178 53.9999 50.1814 53.8181 50.7269 53.8181C51.2724 53.8181 51.8178 53.9999 52.1815 54.3635C52.3633 54.5453 52.3633 54.7272 52.5451 54.909C52.7269 55.0908 52.5451 55.2726 52.3633 55.4544C52.3633 55.6362 52.1815 55.6362 52.1815 55.6362C51.9996 55.6362 51.9996 55.6362 51.8178 55.6362H51.636C51.4542 55.6362 51.2724 55.6362 51.2724 55.6362C50.9087 55.6362 50.7269 55.6363 50.5451 55.8181C50.1815 55.9999 49.8178 56.3635 49.8178 56.7272C49.636 57.0908 49.4542 57.2726 49.0905 57.2726C48.9087 57.2726 48.7269 57.2726 48.5451 57.0908C48.3633 56.909 48.3633 56.7272 48.3633 56.5453C47.9997 55.9999 48.1815 55.4544 48.5451 55.0908ZM53.0905 61.8181C52.5451 62.7272 51.8178 63.2726 51.0906 63.8181C50.3633 64.3635 49.4542 64.5453 48.5451 64.7272C47.636 64.909 46.7269 64.909 45.8178 64.7272C44.9087 64.5453 43.9996 64.1817 43.2724 63.6362C43.0906 63.4544 42.9087 63.0908 43.0905 62.7272C43.2724 62.5453 43.4542 62.5453 43.636 62.5453H43.8178C44.5451 62.5453 45.2724 62.5453 45.9996 62.5453C46.7269 62.5453 47.4542 62.3635 48.1815 62.3635C48.9087 62.1817 49.636 61.9999 50.1815 61.8181C50.9087 61.6362 51.636 61.2726 52.1815 60.909H52.3633C52.7269 60.7272 53.0906 60.909 53.2724 61.0908C53.0906 61.4544 53.0905 61.6362 53.0905 61.8181ZM55.636 46.909C55.4542 47.0908 55.0905 47.0908 54.9087 47.0908C54.1815 47.0908 53.4542 46.5453 52.9087 45.8181C52.1815 44.7272 52.3633 43.4544 53.0905 42.909C53.2724 42.7272 53.636 42.7272 53.8178 42.7272C54.5451 42.7272 55.2724 43.2726 55.8178 43.9999C56.5451 45.0908 56.3633 46.3635 55.636 46.909Z" fill="white"/>
<path d="M58.3628 92.5452H49.9991C49.2719 92.5452 48.9082 93.0906 48.9082 93.6361V105.818C48.9082 106.545 49.4537 106.909 49.9991 106.909H58.3628C59.09 106.909 59.4537 106.363 59.4537 105.818V93.6361C59.4537 93.0906 58.9082 92.5452 58.3628 92.5452Z" fill="white"/>
<path d="M71.8178 86.3635H63.4542C62.7269 86.3635 62.3633 86.909 62.3633 87.4544V105.818C62.3633 106.545 62.9087 106.909 63.4542 106.909H69.4542H71.8178C71.8178 106.909 71.8178 106.909 71.9997 106.909C72.1815 106.909 72.3633 106.909 72.5451 106.727C72.7269 106.545 72.7269 106.545 72.9087 106.364C72.9087 106.182 73.0905 106 73.0905 105.818V87.4544C72.9087 86.909 72.3633 86.3635 71.8178 86.3635Z" fill="white"/>
<path d="M85.4545 80.1814H77.0909C76.3636 80.1814 76 80.7269 76 81.2723V104.909V105.636V106C76 106.727 76.5454 107.09 77.0909 107.09H85.4545C86.1818 107.09 86.5455 106.545 86.5455 106V99.2723V98.9087V81.4541C86.5455 80.7269 86 80.1814 85.4545 80.1814Z" fill="white"/>
<path d="M99.8189 84.9088V84.1815V74.727C99.6371 74.1815 99.2734 73.8179 98.728 73.8179H90.3643C89.6371 73.8179 89.2734 74.3633 89.2734 74.9088V96.5451V96.727V105.636C89.2734 106.363 89.8189 106.727 90.3643 106.727H98.728C99.2734 106.727 99.8189 106.363 99.8189 105.818V105.636V84.9088Z" fill="white"/>
<path d="M111.999 67.8179H107.454H106.545H103.636C102.909 67.8179 102.545 68.3633 102.545 68.9088V74.5451V79.2724V80.5451V105.818V106C102.727 106.545 103.09 106.909 103.636 106.909H111.999C112.727 106.909 113.09 106.363 113.09 105.818V68.9088C113.272 68.3633 112.727 67.8179 111.999 67.8179Z" fill="white"/>
<path d="M99.2725 40.3634L82.5452 49.6361C81.9998 49.9998 81.9998 50.727 82.5452 51.0907L85.0907 52.727C85.4544 52.9089 85.6362 53.4543 85.2725 53.8179C72.7271 71.9998 58.7271 80.3634 49.818 84.1816C48.9089 84.5452 49.2725 85.9998 50.3634 85.818C76.5453 80.3634 90.9089 61.9998 93.4543 58.3634C93.6362 57.9998 94.1816 57.9998 94.5453 58.1816L97.4544 60.1816C97.9998 60.5452 98.7271 60.1816 98.7271 59.6361L100.363 41.4543C100.545 40.5452 99.9998 39.9998 99.2725 40.3634Z" fill="white"/>
</svg>
