<svg width="110" height="110" viewBox="0 0 110 110" fill="none" xmlns="http://www.w3.org/2000/svg">
<path d="M66.2566 66.8057C62.5961 64.2433 58.5695 62.413 54.3598 61.1318C53.9937 61.1318 53.8107 61.3148 53.8107 61.6809C53.8107 62.2299 54.3598 62.596 54.7259 62.779C55.275 63.1451 56.0071 63.3281 56.5562 63.8772C60.0337 65.7075 63.3282 68.0868 66.4397 70.8323C68.453 77.6043 64.4264 86.9388 62.5961 90.7824C62.413 90.5993 62.047 90.5993 61.6809 90.5993C60.7658 90.5993 60.0337 91.1484 59.8507 92.0635C50.6992 85.8406 49.052 84.0103 34.9588 74.3098C34.7758 74.1268 34.4097 73.9437 34.2267 73.7607C32.9455 74.4928 31.8473 75.225 30.7492 75.9571C30.5661 76.1401 30.3831 76.3231 30.3831 76.3231C30.5661 76.5061 30.9322 76.5062 31.4813 76.6892C34.2267 77.4213 36.7891 78.1534 38.8024 79.2516C39.7175 79.6176 40.4497 80.1667 41.1818 80.8988C41.7309 81.4479 41.9139 81.997 41.9139 82.7291C41.9139 83.4612 41.7309 84.1933 41.1818 84.9255C40.8157 85.6576 39.9006 86.2066 38.9854 86.2066C38.8024 86.2066 38.6194 86.2066 38.4363 86.2066C38.0703 86.2066 37.8873 86.0236 37.5212 86.0236C37.3382 86.0236 37.1551 86.0236 36.9721 85.8406C36.057 85.6576 34.9588 85.4745 33.6776 85.4745C33.3116 85.4745 32.9455 85.4745 32.5794 85.4745C31.8473 85.4745 31.1152 85.4745 30.3831 85.4745C29.651 85.4745 28.7359 85.4745 28.0037 85.4745C27.2716 85.4745 26.5395 85.4745 25.9904 85.4745C22.6959 85.2915 19.0354 84.5594 15.7409 83.2782C14.8257 82.9121 14.0936 82.7291 13.3615 82.7291C12.6294 82.7291 11.3482 82.7291 10.9821 85.4745C10.9821 85.8406 10.7991 86.3897 10.7991 86.7557C10.433 86.2067 10.067 85.6576 9.70091 85.1085C9.33486 84.5594 9.15183 84.1933 8.78577 83.6442C8.9688 83.2782 9.15182 82.9121 9.15182 82.5461C9.33485 82.18 9.51788 81.997 9.70091 81.814L9.88395 81.6309C10.7991 80.7158 11.8973 80.1667 13.3615 80.1667C14.2766 80.1667 15.3748 80.3497 16.656 80.8988C18.4863 81.6309 20.3165 82.18 22.3299 82.3631C22.5129 82.3631 22.6959 82.3631 22.6959 82.3631C22.879 82.3631 23.245 82.3631 23.428 82.5461C24.3432 82.7291 25.0753 82.7291 25.9904 82.9121C26.5395 82.9121 27.2716 82.9121 27.8207 82.9121C28.5528 82.9121 29.2849 82.9121 30.2001 82.9121C30.9322 82.9121 31.6643 82.9121 32.5794 82.9121C32.7625 82.9121 32.7625 82.9121 32.9455 82.9121C33.3116 82.9121 33.4946 82.9121 33.8606 82.9121C35.1418 82.9121 36.423 83.0952 37.7042 83.4612C37.8873 83.4612 38.2533 83.6442 38.6194 83.6442C38.9854 83.4612 39.1685 83.2782 39.1685 82.9121C39.1685 82.5461 38.9854 82.363 38.8024 81.997C38.8024 81.997 38.8024 81.814 38.6194 81.814C38.4364 81.6309 38.2533 81.6309 38.0703 81.4479C38.0703 81.4479 37.8873 81.4479 37.8873 81.2649C37.3382 81.0819 36.7891 80.7158 36.24 80.5328C35.6909 80.3497 35.1419 80.1667 34.5928 79.9837C34.2267 79.8007 33.6776 79.6176 33.3115 79.6176C33.1285 79.6176 32.9455 79.4346 32.5794 79.4346C32.0304 79.2516 31.4813 79.0685 30.9322 79.0685C30.0171 78.8855 29.2849 78.5195 28.7358 77.9704C28.5528 77.7873 28.3698 77.6043 28.3698 77.6043C28.3698 77.4213 28.1868 77.4213 28.1868 77.2383V77.0552C28.1868 76.8722 28.1868 76.8722 28.0037 76.6892V76.5061V76.3231C28.0037 75.591 28.5528 74.6759 29.468 73.9438C30.2001 73.2116 31.1152 72.6626 32.0304 72.1135C33.1285 71.3814 34.4097 70.8323 35.6909 70.2832C35.874 70.2832 36.057 70.1002 36.24 70.1002C36.423 70.1002 36.6061 69.9171 36.7891 69.9171C36.9721 69.9171 37.5212 69.7341 38.0703 69.5511C38.2533 69.5511 38.2533 69.5511 38.4363 69.5511C38.6194 69.5511 38.8024 69.5511 39.1685 69.368C39.3515 69.368 39.3515 69.368 39.5345 69.368C40.0836 69.185 40.8157 69.185 41.5478 69.002C41.7309 69.002 41.9139 69.002 42.0969 68.819C42.2799 68.819 42.646 68.6359 42.829 68.6359C43.0121 68.6359 43.0121 68.6359 43.1951 68.6359C43.3781 68.6359 43.3781 68.6359 43.5611 68.6359C45.0254 68.4529 46.3066 68.0868 47.4047 67.9038L47.5878 67.7208C47.7708 67.5378 47.9538 67.3547 47.9538 67.1717C47.9538 66.9887 47.9538 66.9887 47.9538 66.8057C47.9538 66.8057 47.9538 66.8057 47.9538 66.6226C47.9538 66.4396 47.7708 66.2566 47.7708 66.2566C47.5877 66.2566 47.5878 66.0735 47.4047 66.0735C47.2217 66.0735 47.2217 66.0735 47.0387 65.8905C47.0387 65.8905 47.0387 65.8905 46.8556 65.8905C46.6726 65.8905 46.6726 65.8905 46.4896 65.8905C46.1236 65.8905 45.5744 65.8905 45.2084 65.8905C44.4763 65.8905 43.5611 65.8905 43.0121 66.0735C42.829 66.0735 42.829 66.0735 42.646 66.0735C42.2799 66.0735 41.9139 66.0735 41.7309 66.0735C41.5478 66.0735 41.3648 66.0735 41.1818 66.0735C39.3515 66.0735 37.5212 66.2566 35.6909 66.2566H35.5079H35.3249C35.1418 66.2566 34.9588 66.2566 34.9588 66.2566C34.9588 66.2566 34.9588 66.2566 34.7758 66.2566C34.4097 66.0735 34.2267 65.8905 34.4097 65.7075C34.4097 65.7075 34.4097 65.7075 34.4097 65.5244C34.5928 65.3414 34.7758 65.3414 34.9588 65.1584C35.6909 64.7923 36.423 64.9754 37.1552 64.7923C37.5212 64.7923 38.0703 64.6093 38.4363 64.6093C38.8024 64.6093 39.3515 64.4263 39.7175 64.4263C40.4496 64.2432 41.3648 64.2433 42.0969 64.0602C44.6593 63.6942 47.5878 63.6942 49.9671 62.9621C50.1502 62.9621 50.3332 62.779 50.5162 62.779L50.6992 62.596C50.6992 62.596 50.6992 62.596 50.6992 62.413C50.6992 62.2299 50.6992 62.413 50.6992 62.2299C50.6992 62.0469 50.6992 62.0469 50.5162 61.8639L50.3332 61.6809C50.3332 61.6809 50.3332 61.6809 50.1502 61.6809C50.1502 61.6809 49.9671 61.6809 49.9671 61.4978C48.869 60.9487 46.8557 60.9487 46.3066 60.7657C45.0254 60.5827 43.7442 60.5827 42.463 60.5827C42.2799 60.5827 42.0969 60.5827 41.9139 60.5827C41.7309 60.5827 41.5478 60.5827 41.3648 60.5827H41.1818C39.7175 60.5827 38.2533 60.7657 36.7891 60.7657C36.423 60.7657 34.2267 61.1318 33.1285 61.1318C32.7625 61.1318 32.3964 61.1318 32.2134 60.9487C32.2134 60.9487 32.2134 60.9487 32.2134 60.7657C32.2134 60.2166 32.5795 60.0336 33.1285 60.0336H33.3115C33.4946 60.0336 33.6776 60.0336 33.8606 60.0336H34.0437C34.0437 60.0336 34.0437 60.0336 34.2267 60.0336C34.4097 60.0336 34.4097 60.0336 34.5928 60.0336H34.7758C36.057 59.8506 37.3382 59.4845 38.6194 59.3015C40.0836 58.9354 41.9139 59.1185 43.3781 58.3864C43.5611 58.2033 43.7442 58.2033 43.7442 58.0203C43.9272 57.4712 40.6327 56.9221 40.2666 56.7391C38.9854 56.5561 37.8873 56.5561 36.6061 56.5561C36.24 56.5561 35.6909 56.5561 35.3249 56.5561C35.3249 56.5561 35.1418 56.5561 34.7758 56.5561C34.5928 56.5561 34.4097 56.5561 34.2267 56.5561H34.0437H33.8606H33.6776C31.6643 56.7391 28.3698 57.1051 27.4546 57.2882H27.2716C27.0886 57.2882 26.9056 57.2882 26.7225 57.2882C26.5395 57.2882 26.5395 57.1051 26.5395 57.1051C26.5395 56.9221 26.5395 56.9221 26.7225 56.9221C26.9056 56.9221 26.9056 56.7391 27.0886 56.7391C27.0886 56.7391 27.0886 56.7391 27.2716 56.7391C29.834 56.19 32.2134 55.4579 34.9588 54.7258C35.5079 54.1767 34.2267 53.8106 33.6776 53.4446H33.4946C33.3116 53.4446 33.1285 53.4446 32.7625 53.4446C32.5795 53.4446 32.5794 53.4446 32.3964 53.4446C32.2134 53.4446 32.0304 53.4446 31.6643 53.4446C31.4813 53.4446 31.4813 53.4446 31.2983 53.4446C30.3831 53.4446 29.2849 53.4446 28.1868 53.6276C28.0038 53.6276 27.8207 53.6276 27.4546 53.8106C26.9056 53.8106 26.5395 53.9937 25.9904 54.1767C25.8074 54.1767 25.4413 54.3597 25.2583 54.3597H25.0753C24.5262 54.5427 23.9771 54.7258 23.428 54.9088C23.062 55.0918 22.8789 55.0918 22.5129 55.2749C21.5977 55.6409 20.6826 56.007 19.7675 56.373C19.5844 56.5561 19.4014 56.5561 19.0354 56.7391C18.6693 56.9221 18.1202 57.1052 17.7541 57.4712C16.2899 58.2033 14.8257 59.3015 13.3615 60.2166C12.9954 60.5827 12.6294 60.7657 12.2633 61.1318C12.0803 61.3148 11.8973 61.4978 11.7142 61.6809C11.3482 62.0469 10.9821 62.2299 10.6161 62.596C10.433 62.779 10.25 62.9621 10.067 63.1451C9.88393 63.3281 9.7009 63.5111 9.51787 63.6942C9.33484 63.8772 9.15182 64.0602 9.15182 64.0602C7.87062 65.3414 6.95549 66.6226 6.04035 68.0868C4.94218 69.9171 4.21007 71.7474 3.47796 73.3947C3.47796 73.3947 3.47796 73.3947 3.47796 73.5777C3.47796 73.5777 3.47795 73.5777 3.29492 73.5777C4.39309 76.6892 5.85732 79.6176 7.50458 82.3631C7.87063 82.9121 8.05366 83.2782 8.41972 83.8273C12.4463 90.2333 17.7542 95.7241 23.7941 99.9338C35.1418 93.7108 53.9937 92.9787 59.8507 92.9787C60.2167 93.7108 60.9488 94.2599 61.6809 94.2599C61.864 98.6526 57.6543 105.608 54.9089 109.634C60.3998 109.634 65.5246 108.902 70.4663 107.438C68.453 102.313 63.6943 96.2732 62.23 94.2599C62.9622 94.0769 63.5112 93.5278 63.6943 92.7957C71.5645 94.0769 76.1402 92.0635 78.5196 90.2333C79.8008 94.4429 80.5328 98.8356 80.7159 103.228C82.7292 102.13 84.7425 101.032 86.5728 99.5677C85.2916 86.9388 78.1535 74.8589 66.2566 66.8057Z" fill="white"/>
<path d="M38.6195 34.5927C39.9007 48.3198 47.954 56.9222 59.4848 58.9355C67.721 60.5827 74.6761 58.3864 80.533 54.3598C80.8991 53.9937 84.3766 51.6143 86.939 47.0386C86.939 47.0386 90.9656 46.8556 92.4299 42.0969C94.2601 36.423 90.7826 34.9588 90.7826 34.9588C90.7826 34.9588 93.711 16.1068 80.1669 10.2499H79.9839C79.9839 17.9371 74.6761 21.0486 70.1004 20.4995C65.8907 20.1335 64.2435 17.205 64.9756 14.4596C65.1586 13.5445 66.0737 13.3614 66.0737 13.9105C66.6228 16.2899 68.6361 16.839 69.7343 17.022C71.5646 17.205 74.3101 15.7408 74.127 12.0802C73.944 8.96874 70.8325 5.30818 64.0605 4.57607C48.6861 2.92881 41.3649 15.1917 39.5347 21.2316C36.7892 21.4147 34.4099 23.9771 34.0438 27.4546C33.8608 30.7491 35.6911 34.0436 38.6195 34.5927ZM72.8458 39.1684C73.0288 38.0702 73.944 37.5212 74.8591 37.7042C75.5912 37.8872 76.1403 38.9854 75.7743 39.9005C75.5912 40.9987 74.6761 41.5478 73.7609 41.3648C73.0288 41.1817 72.6628 40.0836 72.8458 39.1684ZM63.3283 42.4629C63.6944 42.0969 64.0604 41.9138 64.6095 41.9138C64.9756 41.9138 65.3417 41.9138 65.7077 41.9138C66.0738 42.0969 66.4398 42.2799 66.6229 42.4629C66.9889 42.829 67.1719 43.195 67.1719 43.5611C67.1719 43.7441 67.1719 43.9272 66.9889 44.1102C66.8059 44.2932 66.8059 44.2932 66.6229 44.2932C66.4398 44.2932 66.4398 44.2932 66.2568 44.2932C66.0737 44.2932 66.0738 44.1102 65.8908 44.1102C65.7077 43.7441 65.3416 43.5611 65.1586 43.5611C64.7925 43.3781 64.4265 43.3781 64.0605 43.5611C63.8774 43.5611 63.5113 43.5611 63.3283 43.3781C63.1453 43.195 63.1453 43.012 63.1453 43.012C63.1453 42.646 63.1453 42.4629 63.3283 42.4629ZM59.1187 46.1235C59.3017 46.1235 59.4848 46.1235 59.4848 46.1235C59.8508 46.4895 60.2168 46.6726 60.5829 47.0386C60.9489 47.2217 61.4981 47.5877 61.8641 47.7707C62.2302 47.9538 62.7793 48.1368 63.1453 48.3198C63.6944 48.5029 64.0604 48.5029 64.6095 48.6859C64.7926 48.6859 64.9756 48.8689 64.9756 49.235C64.9756 49.418 64.7926 49.418 64.7926 49.601C64.2435 49.7841 63.5114 49.9671 62.9623 49.784C62.4132 49.784 61.6811 49.601 61.132 49.235C60.5829 49.0519 60.0338 48.6859 59.6677 48.1368C59.3017 47.7707 58.9356 47.2217 58.7526 46.4896C58.9356 46.4896 58.9357 46.3065 59.1187 46.1235ZM54.9091 34.2266C55.2751 33.1285 56.1902 32.3964 56.9223 32.5794C57.8375 32.7624 58.2035 33.8606 58.0205 34.9588C57.6544 36.0569 56.7393 36.789 56.0072 36.606C55.092 36.423 54.726 35.3248 54.9091 34.2266Z" fill="white"/>
<path d="M12.4473 43.7441C12.9964 44.8423 13.7285 45.7574 14.2776 46.8556C15.5588 48.6859 17.5721 49.7841 19.7685 49.9671C21.2327 50.1501 22.5139 49.418 23.7951 48.5029C25.0763 47.5877 26.5405 47.0386 27.6387 46.1235C29.1029 45.0253 29.835 43.3781 30.2011 41.7308C30.2011 41.5478 30.2011 41.5478 30.3841 41.3648V41.1817V40.9987C30.3841 40.8157 30.5671 40.4496 30.5671 40.2666C30.7501 38.6193 30.7502 37.1551 30.9332 35.5079C30.9332 34.7758 30.9332 33.8606 30.2011 33.3115C29.469 32.7624 28.9199 33.6776 28.5538 34.2267C28.1878 34.9588 28.0047 35.5079 27.6387 36.24C27.4557 36.423 27.2726 36.7891 27.0896 36.9721C26.9066 37.1551 26.7235 37.5212 26.3575 37.3381C25.8084 36.9721 25.9914 34.9588 25.8084 34.4097C25.8084 33.6776 25.6254 32.9455 25.4424 32.2133C25.2593 31.4812 25.2593 30.9322 24.8933 30.2C24.7102 29.651 23.6121 28.3698 22.8799 29.2849C22.5139 29.651 22.5139 30.2 22.5139 30.7491C22.3309 31.6643 22.3308 32.5794 22.3308 33.4945C22.3308 34.0436 22.3308 34.5927 22.3308 34.9588C22.3308 35.3248 22.1478 35.6909 21.7818 35.6909C21.0497 35.6909 20.1345 33.3115 19.7685 32.7624C19.4024 32.2134 19.0363 31.6643 18.6703 31.2982C18.3042 30.7491 17.9382 30.3831 17.5721 30.017C17.2061 29.834 16.474 29.834 16.1079 30.2C15.5588 30.7491 15.9249 31.4812 16.1079 32.2133C16.474 32.9455 16.84 33.6776 17.2061 34.4097C17.5721 34.9588 17.7552 35.5079 17.9382 36.24C17.9382 36.423 18.1212 36.9721 17.7551 36.606C17.5721 36.423 17.3891 36.0569 17.3891 35.8739C17.023 35.3248 16.657 34.5927 16.2909 34.0436C15.9249 33.4945 15.5588 32.9455 15.1928 32.3964C14.8267 31.8473 13.9115 30.9321 13.1794 31.6643C12.8134 32.0303 12.8134 32.5794 12.8134 32.9455C12.8134 33.6776 12.9964 34.2267 13.1794 34.7757C13.3625 35.5079 13.7285 36.24 14.0946 36.9721C14.4606 37.5212 14.6437 38.2533 15.0097 38.9854C15.1927 39.3514 15.3758 40.2666 15.0097 40.4496C14.4606 40.6327 12.9964 38.9854 12.4473 38.6193C11.8982 38.2533 11.5322 37.8872 10.9831 37.5212C10.617 37.3381 10.068 37.1551 9.88495 37.5212C9.15283 38.2533 10.251 39.9005 10.617 40.6326C11.3492 41.5478 11.8982 42.646 12.4473 43.7441ZM16.2909 43.012C17.3891 39.7175 22.8799 36.7891 23.063 36.7891C23.7951 36.7891 23.246 37.1551 23.246 37.1551C20.3175 38.4363 17.2061 42.829 16.84 43.195C16.2909 43.5611 16.2909 43.012 16.2909 43.012Z" fill="white"/>
<path d="M100.666 63.6941C99.9337 63.8771 99.3846 64.0601 98.6525 64.2432C97.9204 64.4262 97.3713 64.7923 96.6392 64.9753C96.4562 64.9753 96.0901 65.1583 95.9071 65.1583C95.358 65.1583 95.9071 64.7922 96.0901 64.6092C96.6392 64.2432 97.3713 64.0601 97.9204 63.6941C98.6525 63.328 99.5676 63.145 100.3 62.5959C100.849 62.2299 101.581 61.8638 101.581 61.1317C101.581 60.5826 101.032 60.2165 100.666 60.0335C100.117 59.8505 99.5676 60.0335 99.0185 60.2166C98.4694 60.3996 97.7373 60.3996 97.1882 60.5826C96.4561 60.7656 94.2598 61.8638 93.7107 61.4977C93.3447 61.3147 93.5277 60.7656 93.7107 60.5826C93.8937 60.0335 94.2598 59.8505 94.6259 59.3014C95.1749 58.5693 95.724 57.8372 96.2731 57.1051C96.4561 56.739 96.8222 56.1899 96.8222 55.8239C96.8222 54.7257 95.358 55.0918 94.6259 55.2748C94.0768 55.6408 93.5277 56.0069 92.9786 56.3729C92.4295 56.739 91.8805 57.2881 91.3314 57.8372C90.9653 58.2032 89.6841 59.8505 89.135 59.6675C88.769 59.6675 88.769 59.3014 88.769 58.9353C88.769 58.5693 88.7689 58.3863 88.952 58.0202C89.135 57.2881 89.5011 56.739 89.6841 56.0069C89.8672 55.4578 90.0501 54.3596 89.135 54.1766C88.2199 53.9936 87.6708 54.7257 87.1217 55.2748C86.0235 56.556 85.1084 57.8372 84.1933 59.1184C84.0102 59.3014 83.8272 59.4844 83.8272 59.8505C83.6442 60.0335 83.6441 60.2165 83.4611 60.5826C82.729 62.2299 81.9969 63.8771 82.363 65.5244C82.7291 66.9886 83.2781 68.2698 83.6442 69.734C84.0102 71.0152 84.3763 72.4794 85.6575 73.3946C87.4878 74.4928 89.8671 75.0418 91.8804 74.3097C92.9786 73.9437 94.2598 73.5776 95.358 73.2116C96.4561 72.8455 97.7374 72.2964 98.8355 71.7473C99.5677 71.3813 101.581 70.8322 101.581 69.734C101.581 69.368 101.032 69.1849 100.666 69.0019C100.117 68.8189 99.3846 69.0019 98.8355 69.0019C98.2865 69.0019 95.9071 69.1849 95.724 68.8189C95.358 68.4528 96.2731 67.9037 96.6392 67.7207C97.1883 67.3547 97.9204 66.9886 98.6525 66.8056C99.3846 66.4395 100.117 66.0735 100.849 65.7074C101.398 65.3413 101.947 64.9753 102.496 64.6092C102.862 64.2432 103.045 63.8771 103.045 63.5111C102.496 63.328 101.215 63.5111 100.666 63.6941ZM92.6125 71.0152C92.6125 71.0152 92.2465 71.3813 92.2465 70.8322C92.2465 70.2831 92.7956 64.9753 91.3314 62.2299C91.3314 62.2299 91.3313 61.4978 91.6974 62.0468C91.8804 62.0468 94.0768 67.7207 92.6125 71.0152Z" fill="white"/>
<path d="M58.1385 35.0528C58.4456 33.9841 57.9858 32.9141 57.1114 32.6628C56.237 32.4116 55.2792 33.0742 54.9721 34.1429C54.665 35.2115 55.1248 36.2816 55.9992 36.5328C56.8736 36.7841 57.8313 36.1215 58.1385 35.0528Z" fill="#00BED9"/>
<path d="M63.6947 92.9782C63.5116 93.7103 62.9626 94.2594 62.2305 94.4424C63.8777 96.4557 68.4534 102.496 70.4667 107.62C74.1273 106.522 77.4218 105.058 80.7163 103.411C80.5333 99.0181 79.8012 94.6254 78.52 90.4158C76.1406 92.2461 71.5649 94.0763 63.6947 92.9782Z" fill="#00BED9"/>
<path d="M54.9085 0C24.5258 0 0 24.5258 0 54.9085C0 61.4975 1.09818 67.9035 3.29451 73.9434C3.29451 73.9434 3.29453 73.9434 3.47755 73.9434C3.47755 73.9434 3.47755 73.9434 3.47755 73.7604C4.20967 71.9301 4.94177 70.0998 6.03994 68.4526C6.77205 66.9884 7.87022 65.7072 9.15141 64.426C9.33444 64.2429 9.51747 64.0599 9.51747 64.0599C9.70049 63.8769 9.88353 63.6938 10.0666 63.5108C10.2496 63.3278 10.4326 63.1448 10.6156 62.9617C10.9817 62.5957 11.3478 62.2296 11.7138 62.0466C11.8969 61.8636 12.0799 61.6805 12.2629 61.4975C12.6289 61.1314 12.995 60.9484 13.3611 60.5824C14.8253 59.4842 16.2895 58.569 17.7537 57.8369C18.1198 57.6539 18.6689 57.2878 19.035 57.1048C19.218 56.9218 19.401 56.9218 19.7671 56.7388C20.1331 56.5557 20.6822 56.3727 21.0483 56.1897C21.4143 56.0067 21.9634 55.8236 22.3294 55.6406C22.6955 55.4576 22.8785 55.4576 23.2446 55.2745C23.7937 55.0915 24.3428 54.9085 24.8919 54.7255H25.0749C25.2579 54.7255 25.624 54.5424 25.807 54.5424C26.3561 54.3594 26.7221 54.3594 27.2712 54.1764C27.4543 54.1764 27.6373 54.1764 28.0033 53.9933C29.1015 53.8103 30.0166 53.8103 31.1148 53.8103C31.2978 53.8103 31.2978 53.8103 31.4809 53.8103C31.6639 53.8103 31.8469 53.8103 32.213 53.8103C32.396 53.8103 32.396 53.8103 32.579 53.8103C32.7621 53.8103 32.9451 53.8103 33.3111 53.8103H33.4942C34.0433 53.9934 35.3245 54.5424 34.7754 55.0915C32.03 55.8236 29.6506 56.3727 27.0882 57.1048C27.0882 57.1048 27.0882 57.1048 26.9052 57.1048C26.7221 57.1048 26.7221 57.2878 26.5391 57.2878L26.3561 57.4709C26.3561 57.6539 26.3561 57.6539 26.5391 57.6539C26.7221 57.6539 26.9052 57.6539 27.0882 57.6539H27.2712C28.1864 57.4709 31.4809 57.1048 33.4942 56.9218H33.6772H33.8602C34.0433 56.9218 34.0433 56.9218 34.0433 56.9218C34.2263 56.9218 34.4093 56.9218 34.5924 56.9218C34.7754 56.9218 34.7754 56.9218 34.9584 56.9218H35.1414C35.5075 56.9218 36.0566 56.9218 36.4226 56.9218C37.7038 56.9218 38.802 56.9218 40.0832 57.1048C40.4493 57.1048 43.7438 57.6539 43.5607 58.386C43.5607 58.5691 43.3777 58.569 43.1947 58.7521C41.7305 59.3012 40.0832 59.3012 38.4359 59.6672C37.1547 59.8503 35.8736 60.2163 34.5924 60.3993H34.4093C34.2263 60.3993 34.2263 60.3993 34.0433 60.3993C34.0433 60.3993 34.0433 60.3993 33.8602 60.3993H33.6772C33.4942 60.3993 33.3112 60.3993 33.1281 60.3993H32.9451C32.7621 60.3993 32.7621 60.3993 32.579 60.5824C32.213 60.7654 32.03 60.9484 32.03 61.3145V61.4975C32.213 61.6805 32.579 61.6805 32.9451 61.6805C34.2263 61.6805 36.2396 61.3145 36.6057 61.3145C38.0699 61.3145 39.5341 61.1315 40.9984 61.1315H41.1814C41.3644 61.1315 41.5474 61.1315 41.7305 61.1315C41.9135 61.1315 42.0965 61.1315 42.2795 61.1315C43.5607 61.1315 44.8419 61.1315 46.1231 61.3145C46.6722 61.3145 48.6855 61.4975 49.7837 62.0466C49.7837 62.0466 49.9667 62.0466 49.9667 62.2296C49.9667 62.2296 49.9667 62.2296 50.1498 62.2296C50.1498 62.2296 50.3328 62.2296 50.3328 62.4126C50.3328 62.4126 50.5158 62.5957 50.5158 62.7787V62.9617C50.5158 62.9617 50.5158 62.9617 50.5158 63.1448L50.3328 63.3278C50.1498 63.5108 49.9667 63.5108 49.7837 63.5108C47.2213 64.2429 44.4759 64.2429 41.9135 64.609C41.1814 64.792 40.2662 64.792 39.5341 64.975C39.1681 64.975 38.619 65.1581 38.2529 65.1581C37.8869 65.1581 37.3378 65.3411 36.9717 65.3411C36.2396 65.5241 35.3245 65.3411 34.7754 65.7072C34.5923 65.8902 34.4093 65.8902 34.2263 66.0732C34.2263 66.0732 34.2263 66.0732 34.2263 66.2562C34.0433 66.4393 34.2263 66.6223 34.5924 66.8053C34.5924 66.8053 34.5923 66.8053 34.7754 66.8053C34.9584 66.8053 35.1414 66.8053 35.1414 66.8053H35.3245H35.5075C37.3378 66.6223 39.1681 66.6223 40.9984 66.6223C41.1814 66.6223 41.3644 66.6223 41.5474 66.6223C41.7304 66.6223 42.0965 66.6223 42.4626 66.6223C42.6456 66.6223 42.6456 66.6223 42.8286 66.6223C43.5607 66.6223 44.2928 66.4393 45.0249 66.4393C45.391 66.4393 45.9401 66.4393 46.3062 66.4393C46.4892 66.4393 46.4892 66.4393 46.6722 66.4393C46.6722 66.4393 46.6722 66.4393 46.8552 66.4393C47.0383 66.4393 47.0383 66.4393 47.2213 66.6223C47.4043 66.6223 47.4044 66.6223 47.5874 66.8053C47.7704 66.9884 47.7704 66.9883 47.7704 67.1714C47.7704 67.1714 47.7704 67.1714 47.7704 67.3544C47.7704 67.5374 47.7704 67.5374 47.7704 67.7205C47.7704 67.9035 47.5874 68.0865 47.4043 68.2695L47.2213 68.4526C46.3062 68.6356 45.208 68.8186 43.9268 69.1847C43.7438 69.1847 43.7438 69.1847 43.5607 69.1847H43.3777C43.1947 69.1847 43.1947 69.1847 43.0117 69.1847C42.8286 69.1847 42.8286 69.1847 42.6456 69.1847C42.4626 69.1847 42.0965 69.3677 41.9135 69.3677C41.7305 69.3677 41.5474 69.3677 41.3644 69.5508C40.6323 69.7338 39.9002 69.7338 39.3511 69.9168C39.1681 69.9168 39.1681 69.9168 38.985 69.9168C38.802 69.9168 38.619 69.9168 38.2529 70.0998C38.0699 70.0998 38.0699 70.0998 37.8869 70.0998H37.7038C37.1548 70.2829 36.7887 70.2829 36.6057 70.2829C36.4226 70.2829 36.2396 70.4659 36.0566 70.4659C35.8735 70.4659 35.6905 70.6489 35.5075 70.6489C35.3245 70.6489 35.1414 70.8319 34.9584 70.8319C33.8602 71.381 32.7621 71.9301 31.6639 72.4792C30.7488 73.0283 29.8336 73.5774 29.1015 74.3095C28.0033 75.2246 27.6373 76.1398 27.6373 76.8719V77.0549C27.6373 77.2379 27.6373 77.2379 27.8203 77.421V77.604C27.8203 77.787 28.0033 77.787 28.0033 77.97C28.1864 78.1531 28.3694 78.3361 28.3694 78.3361C28.5524 78.5191 28.7354 78.5191 28.7354 78.7022C29.2845 79.0682 29.8336 79.2513 30.5657 79.4343C31.1148 79.6173 31.6639 79.6173 32.213 79.8003C32.396 79.8003 32.579 79.9834 32.9451 79.9834C33.3111 80.1664 33.8602 80.3494 34.2263 80.3494C35.3245 80.7155 36.4226 81.2646 37.5208 81.6306C37.5208 81.6306 37.7038 81.6306 37.7038 81.8136C37.8869 81.9967 38.0699 81.9967 38.2529 82.1797C38.2529 82.1797 38.2529 82.3627 38.4359 82.3627C38.619 82.5458 38.802 82.9118 38.802 83.2779C38.802 83.6439 38.619 83.827 38.2529 84.01C37.8869 84.01 37.5208 83.827 37.3378 83.827C36.0566 83.4609 34.7754 83.4609 33.4942 83.2779C33.1281 83.2779 32.9451 83.2779 32.579 83.2779C32.396 83.2779 32.396 83.2779 32.213 83.2779C31.4809 83.2779 30.7488 83.2779 29.8336 83.2779C29.1015 83.2779 28.3694 83.2779 27.4542 83.2779C26.9052 83.2779 26.173 83.2779 25.624 83.2779C24.7088 83.2779 23.9767 83.0948 23.0616 82.9118C22.8785 82.9118 22.5125 82.9118 22.3294 82.7288C22.1464 82.7288 21.9634 82.7288 21.9634 82.7288C20.1331 82.3627 18.1198 81.8137 16.2895 81.2646C15.1914 80.8985 14.0932 80.5324 12.995 80.5324C11.5308 80.5324 10.2496 81.0815 9.33445 82.1797C9.15143 82.3627 8.96839 82.7288 8.78536 82.9118C8.60233 83.2779 8.41931 83.6439 8.41931 84.01C8.78537 84.5591 8.9684 84.9251 9.33445 85.4742C9.70051 86.0233 10.0666 86.5724 10.4326 87.1215C10.4326 86.7554 10.4326 86.2063 10.6156 85.8403C10.9817 83.0948 12.4459 83.0948 12.995 83.0948C13.7271 83.0948 14.4593 83.2779 15.3744 83.6439C18.6689 84.9251 22.1464 85.6572 25.624 85.8403C26.3561 85.8403 26.9052 85.8403 27.6373 85.8403C28.3694 85.8403 29.2845 85.8403 30.0167 85.8403C30.7488 85.8403 31.4809 85.8403 32.213 85.8403C32.579 85.8403 32.9451 85.8403 33.3111 85.8403C34.5923 85.8403 35.6905 86.0233 36.6057 86.2063C36.7887 86.2063 36.9717 86.2063 37.1548 86.3894C37.3378 86.3894 37.7038 86.5724 38.0699 86.5724C38.2529 86.5724 38.436 86.5724 38.619 86.5724C39.5341 86.5724 40.4493 86.0233 40.8153 85.2912C41.1814 84.5591 41.3644 83.827 41.5474 83.0948C41.5474 82.3627 41.3644 81.8137 40.8153 81.2646C40.0832 80.5324 39.3511 79.9834 38.4359 79.6173C36.2396 78.5191 33.8602 77.787 31.1148 77.0549C30.5657 76.8719 30.1997 76.6889 30.0167 76.6889C30.0167 76.5058 30.1997 76.5058 30.3827 76.3228C31.4809 75.4077 32.579 74.6755 33.8602 74.1265C34.0433 74.3095 34.4093 74.4925 34.5924 74.6755C48.8686 84.376 50.3328 86.0233 59.4842 92.4293C59.6673 91.6972 60.5824 90.9651 61.3145 90.9651C61.6806 90.9651 61.8636 90.965 62.2296 91.1481C64.0599 87.3045 68.0865 78.1531 66.0732 71.198C62.9617 68.4526 59.6672 66.0732 56.1897 64.2429C55.6406 63.8769 54.9085 63.5108 54.3594 63.1448C53.9933 62.9617 53.4443 62.5957 53.4443 62.0466C53.4443 61.6805 53.6273 61.4975 53.9934 61.4975C58.02 62.7787 62.0466 64.609 65.8902 67.1714C77.9701 75.2246 84.9251 87.3045 86.2063 100.116C100.299 90.2329 109.451 73.7604 109.451 55.2745C109.817 24.5258 85.2912 0 54.9085 0ZM10.0666 37.3378C10.4326 36.9717 10.9817 37.1547 11.1647 37.3378C11.7138 37.7038 12.0799 38.0699 12.629 38.4359C12.995 38.802 14.6423 40.4493 15.1914 40.2662C15.7404 40.0832 15.3744 39.168 15.1914 38.802C15.0083 38.0699 14.6423 37.5208 14.2762 36.7887C13.9102 36.0566 13.5441 35.3245 13.3611 34.5924C13.178 34.0433 12.995 33.3112 12.995 32.7621C12.995 32.396 12.995 31.8469 13.3611 31.4809C14.0932 30.7487 14.8253 31.6639 15.3744 32.213C15.7404 32.7621 16.1065 33.3111 16.4725 33.8602C16.8386 34.4093 17.2047 35.1414 17.5707 35.6905C17.7538 35.8735 17.7537 36.2396 17.9368 36.4226C18.3028 36.6057 18.3028 36.2396 18.1198 36.0566C17.9368 35.5075 17.5707 34.7754 17.3877 34.2263C17.0216 33.4942 16.6556 32.7621 16.2895 32.03C16.1065 31.4809 15.7404 30.5657 16.2895 30.0166C16.6556 29.6506 17.2047 29.6506 17.7537 29.8336C18.3028 30.1997 18.6689 30.5657 18.8519 31.1148C19.218 31.6639 19.584 32.213 19.9501 32.579C20.3162 33.1281 21.2313 35.5075 21.9634 35.5075C22.3295 35.5075 22.5125 35.1414 22.5125 34.7754C22.6955 34.2263 22.5125 33.6772 22.5125 33.3111C22.5125 32.396 22.5125 31.4809 22.6955 30.5657C22.6955 30.1997 22.8785 29.4676 23.0616 29.1015C23.7937 28.1864 24.7088 29.4676 25.0749 30.0166C25.2579 30.5657 25.4409 31.2978 25.624 32.03C25.807 32.7621 25.807 33.4942 25.99 34.2263C25.99 34.7754 25.99 36.7887 26.5391 37.1547C26.9052 37.3378 27.0882 36.9717 27.2712 36.7887C27.4543 36.6057 27.6373 36.2396 27.8203 36.0566C28.1864 35.5075 28.3694 34.7754 28.7354 34.0433C29.1015 33.4942 29.6506 32.579 30.3827 33.1281C31.1148 33.6772 31.1148 34.5923 31.1148 35.3245C31.1148 36.9717 31.1148 38.4359 30.7488 40.0832C30.7488 40.2662 30.7487 40.6323 30.5657 40.8153V40.9983V41.1814C30.5657 41.3644 30.5657 41.3644 30.3827 41.5474C30.0167 43.1947 29.2845 44.8419 27.8203 45.9401C26.5391 46.8552 25.2579 47.4043 23.9767 48.3195C22.8785 49.0516 21.4143 49.9667 19.9501 49.7837C17.7538 49.4176 15.7404 48.3195 14.4593 46.6722C13.7271 45.7571 13.1781 44.6589 12.629 43.5607C12.0799 42.4626 11.5308 41.3644 10.9817 40.2662C10.4326 39.7171 9.33444 38.0699 10.0666 37.3378ZM59.4842 58.9351C47.9534 56.7388 39.9002 48.3195 38.619 34.5924C35.6905 34.0433 33.8602 30.9318 34.2263 27.2712C34.5923 23.7937 36.9717 21.2313 39.7171 21.0483C41.5474 15.0083 48.8685 2.74542 64.2429 4.39267C71.015 5.12479 74.1264 8.78536 74.3095 11.8968C74.4925 15.5574 71.7471 17.0216 69.9168 16.8386C68.8186 16.6556 66.8053 16.2895 66.2562 13.7271C66.0732 13.178 65.3411 13.3611 65.1581 14.2762C64.4259 16.8386 66.0732 19.7671 70.2829 20.3161C74.8586 20.8652 80.1664 17.7537 80.1664 10.0666H80.3494C93.8935 16.1065 90.9651 34.7754 90.9651 34.7754C90.9651 34.7754 94.2596 36.2396 92.6123 41.9135C91.1481 46.6722 87.1215 46.8552 87.1215 46.8552C84.5591 51.4309 81.0815 53.9933 80.7155 54.1764C74.6755 58.386 67.7205 60.5824 59.4842 58.9351ZM100.3 66.6223C99.5674 66.9884 98.8353 67.3544 98.1031 67.7205C97.371 67.9035 96.822 68.2696 96.0899 68.6356C95.7238 68.8186 94.8087 69.3677 95.1747 69.7338C95.3578 70.0998 97.7371 69.9168 98.2862 69.9168C98.8353 69.9168 99.5674 69.9168 100.116 69.9168C100.483 69.9168 101.032 70.0998 101.032 70.6489C101.032 71.7471 99.0183 72.2962 98.2862 72.6622C97.188 73.2113 95.9068 73.5774 94.8087 74.1265C93.7105 74.4925 92.4293 75.0416 91.3311 75.2246C89.3178 75.7737 86.9385 75.4077 85.1082 74.3095C83.827 73.5774 83.4609 72.1131 83.0949 70.6489C82.7288 69.1847 81.9967 67.9035 81.8136 66.4393C81.4476 64.609 81.9967 62.9617 82.9118 61.4975C83.0948 61.3145 83.0949 60.9484 83.2779 60.7654C83.4609 60.5824 83.6439 60.2163 83.6439 60.0333C84.5591 58.7521 85.4742 57.4709 86.5724 56.1897C87.1215 55.6406 87.6706 54.9085 88.5857 55.0915C89.5009 55.2745 89.3178 56.1897 89.1348 56.9218C88.9517 57.6539 88.5857 58.203 88.4027 58.9351C88.4027 59.3012 88.2196 59.4842 88.2196 59.8502C88.2196 60.0333 88.2197 60.3993 88.5857 60.5824C89.1348 60.5824 90.416 59.1181 90.782 58.7521C91.3311 58.203 91.8802 57.6539 92.4293 57.2878C92.9784 56.9218 93.5275 56.3727 94.0766 56.1897C94.6256 55.8236 96.2729 55.4576 96.2729 56.7388C96.2729 57.2879 95.9068 57.6539 95.7238 58.02C95.1747 58.7521 94.6256 59.4842 94.0766 60.2163C93.7105 60.5824 93.3444 60.9484 93.1614 61.4975C92.9784 61.8636 92.7954 62.2296 93.1614 62.4126C93.7105 62.9617 95.9068 61.6805 96.6389 61.4975C97.188 61.3145 97.9201 61.3145 98.4692 61.1315C99.0183 60.9484 99.5674 60.7654 100.116 60.9484C100.666 61.1314 101.032 61.4975 101.032 62.0466C101.032 62.7787 100.3 63.1448 99.7505 63.5108C99.0183 63.8769 98.2862 64.2429 97.371 64.609C96.822 64.792 96.0899 65.1581 95.5408 65.5241C95.3577 65.7071 94.9917 65.8902 95.3577 66.0732C95.5407 66.0732 95.9069 65.8902 96.0899 65.8902C96.822 65.7072 97.371 65.3411 98.1031 65.1581C98.8353 64.975 99.3844 64.792 100.116 64.609C100.849 64.4259 102.13 64.2429 102.13 65.3411C102.13 65.7072 101.764 66.2562 101.581 66.4393C101.581 65.8902 101.032 66.2562 100.3 66.6223Z" fill="#00BED9"/>
<path d="M59.8495 93.3445C53.9926 93.3445 35.1407 93.8936 23.793 100.3C32.5783 106.339 43.377 110 54.9078 110C57.6532 105.973 61.8628 99.2014 61.6798 94.6257C60.9477 94.4426 60.2156 93.8936 59.8495 93.3445Z" fill="#00BED9"/>
<path d="M74.8584 37.5209C74.1262 37.3379 73.2111 38.07 72.845 38.9851C72.479 39.9003 73.0281 40.9984 73.7602 41.1815C74.4923 41.3645 75.4074 40.6324 75.7735 39.7172C76.1396 38.8021 75.7735 37.887 74.8584 37.5209Z" fill="#00BED9"/>
<path d="M66.6221 42.4625C66.439 42.2794 66.073 42.0964 65.7069 41.9134C65.3409 41.7304 64.9748 41.7304 64.6087 41.9134C64.2427 41.9134 63.6936 42.0964 63.3275 42.4625C63.1445 42.6455 63.1445 42.8285 63.1445 42.8285C63.1445 43.0116 63.1445 43.1946 63.3275 43.1946C63.5105 43.3776 63.6936 43.3776 64.0597 43.3776C64.4257 43.1946 64.7917 43.1946 65.1578 43.3776C65.5239 43.3776 65.7069 43.7437 65.89 43.9267C65.89 44.1097 66.073 44.1097 66.256 44.1097C66.439 44.1097 66.439 44.1097 66.6221 44.1097C66.8051 44.1097 66.9881 43.9267 66.9881 43.9267C67.1711 43.7437 67.1711 43.5606 67.1711 43.3776C66.9881 43.1946 66.8051 42.8285 66.6221 42.4625Z" fill="#00BED9"/>
<path d="M64.9761 48.8686C64.427 48.8686 63.8779 48.6856 63.5118 48.5025C62.9627 48.3195 62.5967 48.1365 62.2306 47.9535C61.8646 47.7704 61.3155 47.5874 60.9494 47.2213C60.5834 47.0383 60.2173 46.6723 59.8512 46.3062C59.6682 46.3062 59.6682 46.1232 59.4852 46.3062C59.3022 46.3062 59.1191 46.6723 59.1191 46.8553C59.3022 47.5874 59.6682 47.9535 60.0343 48.5025C60.4003 48.8686 60.9494 49.2347 61.4985 49.6007C62.0476 49.7837 62.5967 49.9668 63.3288 50.1498C63.8779 50.1498 64.61 50.1498 65.1591 49.9668C65.3421 49.9668 65.3421 49.7837 65.3421 49.6007C65.3421 49.0516 65.1591 48.8686 64.9761 48.8686Z" fill="#00BED9"/>
<path d="M16.6565 43.1946C17.0226 42.8285 20.134 38.4358 23.0625 37.1546C23.0625 37.1546 23.6116 36.6055 22.8795 36.7886C22.6964 36.7886 17.3886 39.717 16.1074 43.0115C16.2905 43.0115 16.2905 43.5606 16.6565 43.1946Z" fill="#00BED9"/>
<path d="M91.3301 62.2295C92.7943 64.9749 92.2452 70.2828 92.2452 70.8318C92.2452 71.3809 92.6112 71.0149 92.6112 71.0149C93.8924 67.7204 91.6961 62.2295 91.6961 62.0465C91.33 61.4974 91.3301 62.2295 91.3301 62.2295Z" fill="#00BED9"/>
</svg>
