<svg width="110" height="30" viewBox="0 0 110 30" fill="none" xmlns="http://www.w3.org/2000/svg">
<path fill-rule="evenodd" clip-rule="evenodd" d="M0 0V27.5088L27.5088 0H0Z" fill="#92CFAE"/>
<path fill-rule="evenodd" clip-rule="evenodd" d="M1.96533 29.4736H29.4741V1.96484L1.96533 29.4736Z" fill="#2A8288"/>
<path fill-rule="evenodd" clip-rule="evenodd" d="M44.9261 14.0979C48.1246 14.0979 49.825 12.5316 49.825 9.60504V9.43969C49.825 6.30702 48.0435 5.07045 44.9261 5.07045H41.6061V14.0979H44.9261ZM35.0881 0H45.088C52.1325 0 56.1408 3.17389 56.1408 9.39894V9.56335C56.1408 15.7879 51.8899 18.7562 45.2902 18.7562H41.6061V29.4737H35.0881V0Z" fill="black"/>
<path fill-rule="evenodd" clip-rule="evenodd" d="M69.1163 24.4032C72.2544 24.4032 73.8435 23.0018 73.8435 20.3221V20.1577C73.8435 17.5191 72.2544 16.0765 68.9574 16.0765H65.3028V24.4032H69.1163ZM69.3547 29.4737H58.9474V0H77.458V5.1941H65.3429L65.3028 11.377H69.5531C76.1074 11.377 80 14.304 80 20.1984V20.3637C80 26.1344 76.3854 29.4737 69.3547 29.4737Z" fill="black"/>
<path fill-rule="evenodd" clip-rule="evenodd" d="M84.7368 0.0411617H91.5808V12.7199L102.142 0H109.409L97.4528 13.9548L110 29.4737H102.015L91.5808 16.2598V29.4737H84.7368V0.0411617Z" fill="black"/>
</svg>
