<svg width="20" height="20" viewBox="0 0 20 20" fill="none" xmlns="http://www.w3.org/2000/svg">
<g clip-path="url(#clip0)">
<path d="M19.3972 16.4807C19.0982 16.1818 13.5262 10.6098 13.2216 10.3051C14.625 7.65263 14.2123 4.28339 11.9823 2.05333C9.24492 -0.68408 4.79072 -0.684153 2.05324 2.05333C-0.684089 4.79073 -0.684089 9.24486 2.05324 11.9823C4.27599 14.205 7.64238 14.6305 10.3051 13.2216C10.881 13.7976 15.9077 18.8242 16.4807 19.3972C17.2848 20.2014 18.5932 20.2012 19.3972 19.3972C20.2012 18.5931 20.2012 17.2848 19.3972 16.4807ZM2.82948 11.206C0.520086 8.89662 0.520086 5.13904 2.82948 2.82964C5.13866 0.520388 8.89647 0.520168 11.2058 2.82964C13.5342 5.15807 13.4932 8.91851 11.2058 11.206C8.90181 13.51 5.14335 13.5198 2.82948 11.206ZM11.2529 12.6168C11.7707 12.2253 12.2395 11.7519 12.6168 11.2529L13.7637 12.3999L12.3998 13.7638L11.2529 12.6168ZM13.1761 14.5401L14.54 13.1762C14.7423 13.3785 14.6331 13.2694 15.0467 13.683L13.6829 15.0468L13.1761 14.5401ZM18.6208 18.6209C18.2448 18.9969 17.6329 18.9969 17.2569 18.6209L14.4591 15.8231L15.823 14.4593L18.6207 17.2571C18.9969 17.633 18.9969 18.245 18.6208 18.6209Z" fill="#03BFD7"/>
<path d="M10.6417 3.39353C8.6433 1.39519 5.39189 1.39519 3.39347 3.39353C1.39044 5.39649 1.39022 8.63853 3.39347 10.6417C5.39665 12.6447 8.63832 12.6449 10.6417 10.6417C12.64 8.64336 12.64 5.39188 10.6417 3.39353ZM9.86533 9.8654C8.29507 11.4357 5.74005 11.4357 4.16978 9.8654C2.59564 8.29133 2.59564 5.74399 4.16978 4.16977C5.74005 2.59951 8.29507 2.59944 9.86533 4.16977C11.4356 5.74004 11.4356 8.29513 9.86533 9.8654Z" fill="#03BFD7"/>
<path d="M4.81627 4.8102C4.18904 5.30628 3.83781 6.09715 3.91905 6.92375C3.94693 7.20721 4.18568 7.41894 4.46467 7.41894C4.79043 7.41894 5.04323 7.13848 5.01161 6.81623C4.96814 6.37403 5.15316 5.94353 5.49729 5.67134C5.73508 5.48332 5.77541 5.13809 5.58731 4.9003C5.39936 4.66258 5.05413 4.62226 4.81627 4.8102Z" fill="#03BFD7"/>
</g>
<defs>
<clipPath id="clip0">
<rect width="20" height="20" fill="white"/>
</clipPath>
</defs>
</svg>
