<svg width="110" height="110" viewBox="0 0 110 110" fill="none" xmlns="http://www.w3.org/2000/svg">
<g clip-path="url(#clip0)">
<path d="M34.9715 77.617L34.9264 77.5869C33.873 76.8496 33.2109 75.9016 32.925 74.8332C32.594 73.7798 32.6391 72.6212 33.1357 71.4324L33.1658 71.3722C33.2561 71.1465 33.226 70.8605 33.0454 70.6649C32.91 70.5144 32.7294 70.4392 32.5488 70.4392C32.3833 70.4392 32.2328 70.4994 32.0974 70.6198C31.3901 71.2518 30.8484 72.1246 30.6679 73.1177C30.5023 73.8852 30.5475 74.6978 30.7581 75.4652C30.9989 76.2176 31.3901 76.9248 31.9469 77.4967C32.6241 78.234 33.557 78.6855 34.49 78.8359C34.5351 78.8359 34.5652 78.851 34.6104 78.851C34.9264 78.851 35.2123 78.6253 35.2725 78.2942C35.2875 78.0083 35.1822 77.7525 34.9715 77.617Z" fill="#03BFD7"/>
<path d="M26.4098 67.9865C26.154 67.7157 25.8079 67.5351 25.4317 67.4599C25.4016 67.4599 25.3715 67.4448 25.3414 67.4448C25.236 67.4448 25.1157 67.4749 25.0254 67.5502C24.905 67.6404 24.8297 67.7608 24.7996 67.8963C24.7696 68.1069 24.8598 68.3176 25.0404 68.438C25.2962 68.6185 25.4618 68.8593 25.537 69.1302C25.6273 69.3709 25.5972 69.6719 25.4768 69.9728C25.4317 70.0932 25.4166 70.2136 25.4618 70.334C25.4919 70.4092 25.522 70.4844 25.5821 70.5446C25.6724 70.65 25.8079 70.7102 25.9583 70.7252C25.9734 70.7252 25.9734 70.7252 25.9884 70.7252C26.1239 70.7252 26.2443 70.6801 26.3496 70.5898C26.6355 70.334 26.8311 69.9879 26.8913 69.6267C26.9515 69.3408 26.9365 69.0399 26.8612 68.7239C26.7709 68.453 26.6054 68.1972 26.4098 67.9865Z" fill="#03BFD7"/>
<path d="M30.9094 63.8482C30.9545 63.5774 30.8342 63.3216 30.6385 63.1861L30.5934 63.156C29.54 62.4187 28.8779 61.4707 28.592 60.4023C28.261 59.3489 28.3061 58.1902 28.8027 57.0015L28.8328 56.9413C28.9231 56.7155 28.893 56.4296 28.7124 56.234C28.577 56.0835 28.3964 56.0083 28.2158 56.0083C28.0503 56.0083 27.8998 56.0685 27.7644 56.1889C27.0571 56.8209 26.5154 57.6937 26.3348 58.6868C26.1693 59.4543 26.2145 60.2669 26.4251 61.0343C26.6659 61.7867 27.0571 62.4939 27.6139 63.0658C28.2911 63.8031 29.224 64.2545 30.157 64.405C30.2021 64.405 30.2322 64.4201 30.2774 64.4201C30.5633 64.405 30.8492 64.1793 30.9094 63.8482Z" fill="#03BFD7"/>
<path d="M22.196 73.7196L22.1358 73.6293C21.8499 73.1779 21.564 72.6361 21.3232 72.1245C21.0975 71.5978 20.8868 71.0862 20.7364 70.5295C20.5708 69.9877 20.4655 69.431 20.3752 68.8742C20.3 68.3325 20.2548 67.7155 20.2548 67.1738V67.0684C20.2548 66.9029 20.1796 66.7524 20.0291 66.6622C19.9539 66.617 19.8636 66.5869 19.7733 66.5869C19.6078 66.5869 19.4573 66.6622 19.367 66.8126C19.1563 67.1587 19.0058 67.5048 18.9005 67.866C18.7952 68.2121 18.75 68.5582 18.7199 68.9193C18.6748 69.5814 18.75 70.2586 18.9156 70.8906C18.9306 70.9508 18.9457 70.9959 18.9607 71.0561C19.1714 71.7483 19.4723 72.4104 19.9087 72.9973C20.1796 73.3735 20.4956 73.7045 20.8718 73.9754C21.0825 74.1409 21.3232 74.2914 21.5941 74.4118C21.6543 74.4419 21.7295 74.4569 21.8047 74.4569C21.895 74.4569 21.9853 74.4268 22.0606 74.3817C22.2712 74.2463 22.3465 73.9604 22.211 73.7346C22.196 73.7346 22.196 73.7346 22.196 73.7196Z" fill="#03BFD7"/>
<path d="M106.946 72.9822C106.705 72.9521 106.464 72.8468 106.254 72.7114C105.155 73.8399 103.966 74.9083 102.717 75.9015C96.8186 80.5663 89.7461 83.2298 82.4177 83.6963C82.5682 83.3352 82.6435 82.959 82.7638 82.5978C82.809 82.4323 82.8692 82.2668 82.9143 82.0862C82.9745 81.8605 83.0347 81.6498 83.0949 81.4241C83.1551 81.1532 83.2604 80.7469 83.0949 80.4761C82.8391 80.0547 82.6435 80.7469 82.5983 80.9125C82.2974 81.9056 81.5149 82.7031 80.7023 83.3502C80.627 83.4104 80.5368 83.4856 80.4314 83.5458C80.2358 83.6813 80.0251 83.8016 79.8445 83.8769C79.664 83.907 79.4834 83.9521 79.3028 83.9822C79.2426 83.9973 79.1824 84.0123 79.1072 84.0123C78.7762 84.0725 78.4451 84.1176 78.099 84.1628C77.5723 84.238 77.0306 84.2832 76.5039 84.3283C75.601 84.4036 74.6982 84.4336 73.7953 84.4637C73.389 84.4788 72.9827 84.5089 72.5764 84.4938C72.2454 84.4788 71.5983 84.3885 71.4328 84.0274C71.3124 83.7565 71.6284 83.4405 71.824 83.29C72.1852 83.0342 72.6065 82.8837 72.9978 82.6881C73.5997 82.357 74.1865 82.041 74.8035 81.7401C74.8487 81.71 74.8938 81.6949 74.9239 81.6498C74.9239 81.6046 74.9239 81.5595 74.9088 81.5144C74.8637 81.409 74.7584 81.3187 74.653 81.2586C74.4424 81.1382 74.2016 81.1081 73.9608 81.093C73.4492 81.0629 72.9376 81.0629 72.4109 81.093C71.8391 81.1231 71.2823 81.093 70.7105 81.0479C70.244 81.0178 69.7775 80.9576 69.3411 80.777C69.0402 80.6566 68.7392 80.5062 68.5887 80.2052C68.4683 79.9644 68.5285 79.6785 68.7392 79.513C68.995 79.3174 69.3411 79.212 69.6421 79.1669C70.1236 79.0917 70.6051 79.0014 71.0867 78.9261C71.5983 78.8509 72.0949 78.8057 72.6065 78.7606C72.7269 78.7456 72.8473 78.7305 72.9677 78.7155C73.0881 78.7004 73.2686 78.7155 73.2987 78.5499C73.3288 78.3844 73.0881 78.4145 72.9827 78.3995C72.5012 78.3393 72.0196 78.3543 71.5381 78.3844C70.9362 78.4296 70.3192 78.4747 69.7173 78.4296C69.311 78.3995 68.8145 78.3694 68.5135 78.0684C68.1674 77.7223 68.3179 77.1956 68.679 76.9398C69.0101 76.684 69.4314 76.6088 69.8377 76.5335C70.2891 76.4432 70.7406 76.3078 71.2071 76.2326C71.9294 76.1122 72.6667 76.067 73.4041 75.9466C73.5696 75.9166 73.69 75.8564 73.7502 75.6908C73.7803 75.6156 73.7803 75.5253 73.7351 75.4501C73.6599 75.2996 73.5244 75.1792 73.389 75.0739C73.073 74.8331 72.7269 74.7278 72.3658 74.5773C71.7638 74.3365 71.1619 74.0356 70.6202 73.6744C70.3794 73.5089 70.1086 73.3434 69.8979 73.1176C69.7926 72.9973 69.7023 72.8769 69.6872 72.7114C69.6872 72.5308 69.7775 72.3803 69.928 72.275C70.2139 72.0643 70.6352 71.9891 70.9813 72.0041C71.4779 72.0191 71.9444 72.1696 72.4259 72.2599C72.9677 72.3653 73.4793 72.5609 73.9909 72.7264C74.5778 72.907 75.1647 73.0875 75.7515 73.2681C75.8117 73.2832 75.887 73.3133 75.9472 73.3133C76.0224 73.3133 76.0826 73.2832 76.1277 73.238C76.2331 73.1026 76.1127 72.8769 76.0525 72.7565C75.9622 72.5609 75.8268 72.3953 75.6913 72.2298C75.4054 71.8687 75.0443 71.5677 74.7283 71.2216C74.6831 71.1765 74.653 71.1313 74.6079 71.0862C74.4273 70.8605 74.1715 70.5144 74.1564 70.2134C74.1564 70.0479 74.2166 69.8824 74.4123 69.762C74.9088 69.446 75.5108 69.6265 76.0073 69.8523C76.0374 69.8673 76.0675 69.8824 76.0976 69.8974C76.3083 70.0027 76.534 70.093 76.7447 70.1984C76.9253 70.2886 77.1209 70.3789 77.3015 70.4542C77.5573 70.5746 77.8131 70.6949 78.0689 70.8304C78.1893 70.8906 78.3097 70.9508 78.43 71.026C78.5504 71.0862 78.6708 71.1614 78.7761 71.2367C78.7912 71.2517 78.8062 71.2517 78.8213 71.2668C79.7693 71.8988 80.627 72.6512 81.1537 73.6142C81.2891 73.855 81.4697 74.3516 81.7556 74.4569C81.9663 74.5321 82.1168 74.4419 82.177 74.2763C82.192 74.2161 82.2071 74.1559 82.2071 74.0807C82.192 73.4637 81.861 72.5157 81.4547 71.6881C82.4027 72.1395 83.4861 72.3803 84.6599 72.3803C85.8938 72.3803 87.1578 72.0944 88.3316 71.5527C90.0621 70.7551 91.4615 69.461 92.3042 67.9111C92.9362 66.7223 93.2071 65.4733 93.1017 64.2544C95.1332 62.6594 96.8938 60.8988 98.3384 59.0328C99.9786 56.896 101.213 54.5937 102.01 52.171C103.575 47.461 103.425 42.3447 101.604 37.3639C100.37 34.0082 98.534 31.104 96.1564 28.7114C94.0046 26.5595 91.4314 24.814 88.3015 23.4145L88.2714 23.3995L88.2413 23.3844C87.6544 23.1436 84.5395 21.9699 80.296 21.9248C79.2878 20.9918 77.5723 19.9986 75.27 19.9986C74.5326 19.9986 73.7652 20.104 72.9978 20.2996C71.3726 20.7209 69.2358 21.5937 67.9718 23.3995C67.8363 22.6019 67.6106 21.7743 67.3247 21.3078C67.2946 21.2476 67.2495 21.2025 67.2043 21.1724C67.0689 21.0821 66.9034 21.0821 66.783 21.2627C66.6175 21.4884 66.7228 21.985 66.7529 22.2408C66.8432 23.2791 66.5573 24.3324 66.1359 25.3406C66.0757 25.4761 66.0155 25.6115 65.9554 25.762C65.9403 25.762 65.9403 25.777 65.9253 25.777C65.8801 25.8673 65.835 25.9425 65.7898 26.0328C65.7296 26.1382 65.6694 26.2285 65.6243 26.3338C65.3986 26.725 65.1578 27.1163 64.9321 27.4925C64.8719 27.5978 64.8117 27.6881 64.7515 27.7934C64.7365 27.8235 64.7064 27.8687 64.6913 27.8988C64.4355 28.3051 64.0744 28.7415 63.5627 28.7866C63.5477 28.7866 63.5176 28.7866 63.5026 28.7866C63.3521 28.7866 63.2467 28.7565 63.1565 28.6813C62.9157 28.4706 62.9307 27.974 62.9608 27.658C62.9608 27.643 62.9608 27.643 62.9608 27.6279C62.9608 27.6129 62.9608 27.6129 62.9608 27.5978C63.021 27.1313 63.1564 26.6799 63.2016 26.1984V26.1833C63.2166 25.9877 63.2166 25.7921 63.2016 25.5964C63.1865 25.461 63.1565 25.2353 63.006 25.1751C62.9458 25.1601 62.8705 25.1751 62.8254 25.2052C62.7652 25.2353 62.7351 25.2955 62.69 25.3406C62.6448 25.4008 62.5846 25.4761 62.5395 25.5363C62.2837 25.8523 62.0279 26.1532 61.772 26.4692C61.7119 26.5445 61.6517 26.6047 61.6065 26.6799C61.2905 27.0862 60.9896 27.5075 60.6284 27.8687C60.2974 28.1997 60.0114 28.5609 59.6352 28.8317C59.3644 29.0274 59.0032 29.1929 58.6722 29.1778C58.5067 29.1778 58.3411 29.1026 58.2508 28.9521C58.1756 28.8167 58.1756 28.6662 58.2057 28.5157C58.2508 28.2449 58.3712 27.959 58.4766 27.7031C58.7173 27.1313 59.0183 26.5896 59.3644 26.078C59.5751 25.777 59.7857 25.5062 59.9061 25.1601C59.9513 25.0246 59.9964 24.8591 59.9813 24.7237C59.9813 24.7086 59.9813 24.7086 59.9813 24.6936C59.9663 24.6183 59.9362 24.5431 59.861 24.4979C59.8158 24.4679 59.7556 24.4528 59.7105 24.4378C59.6352 24.4227 59.545 24.4528 59.4547 24.4829C58.8227 24.7688 58.2207 25.13 57.5887 25.4159C57.1824 25.5964 56.7611 25.7168 56.3548 25.8974C55.9937 26.0479 55.6476 26.2134 55.2413 26.1833C54.8199 26.1532 54.4287 25.8222 54.519 25.3858C54.5942 24.9945 54.9704 24.7086 55.2714 24.4679C55.7228 24.1067 56.2194 23.8358 56.716 23.5499C57.1072 23.3242 57.4984 23.0684 57.8445 22.7825C57.8746 22.7524 57.9348 22.7073 57.995 22.6621C58.0402 22.617 58.0703 22.5568 58.0251 22.4966C57.9649 22.4364 57.8897 22.4364 57.8295 22.4665C57.7844 22.4815 57.7392 22.5116 57.6941 22.5417C57.5887 22.5869 57.4834 22.6471 57.3931 22.6922C56.9718 22.9179 56.5504 23.1436 56.114 23.3543C55.7077 23.565 55.2864 23.7305 54.8651 23.9261C54.5942 24.0465 54.2782 24.1518 53.9622 24.1368C53.7064 24.1217 53.5258 23.9261 53.4807 23.6703C53.4355 23.3543 53.586 23.0684 53.7666 22.8276C54.0224 22.4665 54.3534 22.1655 54.6995 21.8947C55.1209 21.5636 55.5422 21.2476 56.0087 20.9767C56.1291 20.9166 56.2344 20.8413 56.3398 20.7661C56.6407 20.5705 56.9266 20.3748 57.2125 20.1642C57.2577 20.1341 57.2878 20.104 57.3329 20.0739C57.4683 19.9685 57.5887 19.8331 57.664 19.6826C57.7091 19.5923 57.7543 19.4569 57.7242 19.3516C57.7091 19.3064 57.6941 19.2763 57.664 19.2462C57.6188 19.2312 57.5737 19.2312 57.5285 19.2462C57.2426 19.2914 56.9567 19.3215 56.6859 19.3516C56.3398 19.3967 55.9786 19.4268 55.6175 19.4569C55.482 19.472 55.3466 19.487 55.2112 19.5171C54.9403 19.5622 54.6544 19.6074 54.3835 19.5923C54.1578 19.5773 53.7365 19.487 53.6913 19.2161C53.6311 18.9152 53.9471 18.5691 54.203 18.3584C54.2481 18.3133 54.2932 18.2832 54.3384 18.2531C54.6394 18.0274 54.9855 17.8468 55.3015 17.6361C56.0238 17.1847 56.7461 16.7483 57.4834 16.327C58.2057 15.9207 58.928 15.5445 59.6804 15.1984C59.876 15.1081 60.0867 15.0178 60.2974 14.9275C60.3124 14.9275 60.3124 14.9275 60.3274 14.9124C60.5983 14.8523 60.9745 14.8523 61.2755 14.8824C61.6667 14.9124 62.058 14.9726 62.4492 15.0629C63.0361 15.1984 63.5778 15.4241 64.0443 15.8003C64.1647 15.9056 64.6763 16.327 64.6612 15.8755C64.6462 15.5896 64.3603 15.3187 64.1647 15.1382C64.0142 14.9877 63.8487 14.8523 63.6681 14.7018C63.5928 14.6416 63.5326 14.5814 63.4574 14.5363C68.5586 11.933 74.1865 10.5636 79.9649 10.5636C81.4095 10.5636 82.8541 10.6539 84.2987 10.8194C85.7283 10.985 87.1428 11.2408 88.5272 11.5718C88.5573 11.5116 88.5874 11.4665 88.6175 11.4213C87.9704 10.9248 87.3083 10.4282 86.6311 9.9617C85.8787 9.41997 85.0963 8.90835 84.3138 8.41177C75.8418 3.09986 65.7748 0 55.0005 0C31.7967 0 11.9485 14.3707 3.8678 34.7004C3.49161 35.6334 3.1455 36.5814 2.8295 37.5445C2.58873 38.2668 2.36301 39.0041 2.15234 39.7415C2.25768 39.7866 2.34797 39.8317 2.4533 39.8919C3.70228 38.3119 5.07163 36.8372 6.59147 35.4528C12.1441 30.3967 19.021 27.2367 26.3042 26.2586C26.1838 26.6197 26.1236 26.9959 26.0484 27.3721C26.0032 27.5376 25.9731 27.7182 25.928 27.8837C25.8829 28.1094 25.8377 28.3352 25.7926 28.5609C25.7474 28.8468 25.6872 29.2531 25.8528 29.5089C26.1236 29.9001 26.2741 29.2079 26.3192 29.0424C26.545 28.0342 27.2823 27.1915 28.0347 26.4692C28.1099 26.394 28.2002 26.3187 28.2905 26.2586C28.4711 26.1081 28.6818 25.9726 28.8623 25.8824C29.0429 25.8372 29.2235 25.7921 29.389 25.7469C29.4492 25.7319 29.5094 25.7168 29.5696 25.7018C29.9006 25.6265 30.2317 25.5513 30.5627 25.4761C31.0894 25.3707 31.6161 25.2804 32.1428 25.2052C33.0306 25.0698 33.9335 24.9644 34.8363 24.8741C35.2426 24.829 35.6489 24.7688 36.0402 24.7538C36.3712 24.7387 37.0333 24.7989 37.2139 25.145C37.3493 25.4008 37.0634 25.7469 36.8829 25.9124C36.5518 26.1984 36.1305 26.3639 35.7543 26.6047C35.1824 26.9658 34.6106 27.342 34.0238 27.673C33.9786 27.7031 33.9485 27.7332 33.9184 27.7633C33.9184 27.8085 33.9335 27.8536 33.9485 27.8988C33.9937 28.0041 34.114 28.0944 34.2194 28.1395C34.43 28.2449 34.6859 28.2599 34.9116 28.2449C35.4232 28.2449 35.9348 28.1997 36.4465 28.1395C37.0032 28.0643 37.5751 28.0492 38.1318 28.0643C38.5983 28.0643 39.0648 28.0944 39.5162 28.2298C39.8172 28.3201 40.1332 28.4706 40.2987 28.7565C40.4341 28.9822 40.4041 29.2832 40.2084 29.4487C39.9677 29.6594 39.6366 29.7798 39.3206 29.855C38.8391 29.9754 38.3726 30.0958 37.8911 30.186C37.3945 30.2914 36.8979 30.3666 36.3863 30.472C36.2659 30.487 36.1455 30.5171 36.0251 30.5472C35.9047 30.5773 35.7242 30.5622 35.7091 30.7278C35.6941 30.8933 35.9348 30.8482 36.0402 30.8632C36.5217 30.8783 37.0032 30.8331 37.4848 30.7729C38.0867 30.6826 38.6886 30.5923 39.2905 30.5923C39.6968 30.5923 40.1934 30.5923 40.5244 30.8782C40.8856 31.1943 40.7802 31.736 40.4492 32.0219C40.1332 32.3078 39.7269 32.3981 39.3357 32.5034C38.8842 32.6238 38.4478 32.7893 37.9964 32.8947C37.2741 33.0752 36.5518 33.1505 35.8295 33.3311C35.679 33.3762 35.5586 33.4514 35.4984 33.6019C35.4683 33.6772 35.4834 33.7674 35.5285 33.8427C35.6038 33.9932 35.7543 34.0985 35.8897 34.1888C36.2207 34.3995 36.5819 34.4897 36.943 34.6101C37.56 34.8057 38.177 35.0766 38.7488 35.3926C39.0046 35.5431 39.2905 35.6936 39.5012 35.8892C39.6216 35.9945 39.7269 36.1149 39.7419 36.2804C39.757 36.461 39.6818 36.6265 39.5463 36.7319C39.2755 36.9576 38.8692 37.0629 38.508 37.078C38.0114 37.093 37.5299 36.9877 37.0484 36.9275C36.5067 36.8673 35.98 36.7018 35.4533 36.5663C34.8514 36.4309 34.2645 36.2955 33.6626 36.1601C33.6024 36.145 33.5272 36.13 33.4519 36.13C33.3767 36.13 33.3165 36.1601 33.2714 36.2202C33.1811 36.3557 33.3015 36.5814 33.3767 36.7018C33.482 36.8824 33.6175 37.0479 33.7679 37.2134C34.0839 37.5595 34.4601 37.8304 34.8062 38.1614C34.8514 38.2066 34.8965 38.2367 34.9266 38.2818C35.1222 38.4925 35.4082 38.8085 35.4383 39.1245C35.4533 39.29 35.4082 39.4555 35.2125 39.591C34.731 39.9371 34.1291 39.8016 33.6175 39.606C33.5874 39.591 33.5573 39.5759 33.5121 39.5759C33.2864 39.4856 33.0757 39.4104 32.85 39.3201C32.6544 39.2449 32.4588 39.1696 32.2782 39.0944C32.0073 38.9891 31.7515 38.8837 31.4807 38.7784C31.3603 38.7182 31.2248 38.673 31.1045 38.6129C30.9841 38.5527 30.8637 38.4925 30.7433 38.4323C30.7283 38.4172 30.7132 38.4172 30.6982 38.4022C29.705 37.8304 28.8021 37.1532 28.2002 36.2202C28.0497 35.9945 27.824 35.4979 27.5381 35.4227C27.3274 35.3625 27.177 35.4678 27.1318 35.6183C27.1168 35.6785 27.1017 35.7387 27.1168 35.814C27.177 36.4309 27.5833 37.3488 28.0347 38.1464C27.2071 37.8153 26.3042 37.6498 25.3562 37.6498C23.9417 37.6498 22.4971 38.026 21.1879 38.7483C19.5176 39.6662 18.2084 41.0506 17.4861 42.6607C16.9294 43.8796 16.7488 45.1587 16.9444 46.3625C15.0183 48.093 13.3931 49.974 12.099 51.9453C10.6093 54.1874 9.54085 56.58 8.90884 59.0479C7.68996 63.8632 8.18654 68.9494 10.3534 73.7948C11.8131 77.0602 13.8445 79.829 16.3876 82.041C18.69 84.0424 21.3835 85.5923 24.6038 86.7661L24.6339 86.7811L24.664 86.7962C25.1455 86.9466 27.7187 87.7291 31.2549 87.7291C31.7365 87.7291 32.218 87.7141 32.6845 87.684C33.5422 88.3762 35.0771 89.264 37.259 89.264C38.177 89.264 39.125 89.0985 40.073 88.7825C41.6681 88.2558 43.7296 87.2326 44.8733 85.3365C45.0539 86.1341 45.3398 86.9316 45.6558 87.383C45.7009 87.4432 45.7461 87.4733 45.7912 87.5034C45.9266 87.5937 46.0922 87.5636 46.2125 87.383C46.363 87.1423 46.2125 86.6607 46.1824 86.4049C46.0169 85.3666 46.2276 84.2982 46.5737 83.2599C46.6188 83.1245 46.679 82.974 46.7242 82.8386C46.7392 82.8386 46.7392 82.8235 46.7543 82.8235C46.7994 82.7332 46.8295 82.643 46.8746 82.5677C46.9198 82.4624 46.98 82.357 47.0251 82.2517C47.2207 81.8454 47.4314 81.4391 47.6421 81.0479C47.7023 80.9425 47.7474 80.8372 47.8076 80.7319C47.8227 80.7018 47.8377 80.6566 47.8678 80.6265C48.0935 80.1901 48.4246 79.7387 48.9362 79.6635C48.9513 79.6635 48.9813 79.6635 48.9964 79.6484C49.1469 79.6334 49.2522 79.6635 49.3425 79.7387C49.5983 79.9343 49.6134 80.4309 49.6134 80.7469C49.6134 80.762 49.6134 80.777 49.6134 80.777C49.6134 80.7921 49.6134 80.7921 49.6134 80.8071C49.5833 81.2736 49.4779 81.7401 49.4779 82.2216V82.2367C49.4779 82.4323 49.4779 82.6279 49.5231 82.8235C49.5532 82.959 49.5983 83.1847 49.7488 83.2298C49.809 83.2449 49.8842 83.2298 49.9294 83.1847C49.9745 83.1395 50.0196 83.0944 50.0497 83.0342C50.0949 82.959 50.14 82.8988 50.2002 82.8235C50.4259 82.4925 50.6667 82.1614 50.8924 81.8304C50.9376 81.7551 50.9978 81.6799 51.0429 81.6047C51.3288 81.1833 51.5997 80.7319 51.9458 80.3406C52.2467 79.9945 52.5176 79.6183 52.8787 79.3174C53.1346 79.1067 53.4807 78.9111 53.8117 78.9111C53.9772 78.9111 54.1428 78.9562 54.2481 79.1067C54.3384 79.2271 54.3384 79.3776 54.3233 79.528C54.3083 79.8139 54.203 80.0848 54.1127 80.3557C53.9171 80.9425 53.6462 81.5144 53.3302 82.041C53.1496 82.357 52.954 82.643 52.8487 83.0041C52.8035 83.1395 52.7734 83.3051 52.8035 83.4555C52.8035 83.4706 52.8035 83.4706 52.8035 83.4856C52.8186 83.5609 52.8637 83.6211 52.9389 83.6662C52.9991 83.6963 53.0443 83.7113 53.1045 83.7113C53.1797 83.7113 53.27 83.6963 53.3452 83.6512C53.9622 83.3201 54.519 82.9289 55.1359 82.5978C55.5272 82.3871 55.9335 82.2367 56.3247 82.026C56.6708 81.8454 57.0169 81.6648 57.4082 81.6648C57.8295 81.6648 58.2358 81.9658 58.1907 82.4172C58.1455 82.8235 57.7844 83.1245 57.5135 83.3803C57.0922 83.7715 56.6106 84.0725 56.1291 84.4036C55.7529 84.6594 55.3917 84.9302 55.0607 85.2462C55.0306 85.2763 54.9704 85.3215 54.9253 85.3666C54.8801 85.4268 54.85 85.487 54.9102 85.5322C54.9704 85.5923 55.0456 85.5773 55.1209 85.5472C55.166 85.5171 55.2112 85.487 55.2563 85.472C55.3616 85.4118 55.4519 85.3516 55.5573 85.3064C55.9636 85.0506 56.3699 84.7948 56.7912 84.554C57.1824 84.3283 57.6038 84.1176 57.995 83.8919C58.2508 83.7565 58.5668 83.6361 58.8678 83.6211C59.1236 83.6211 59.3192 83.8016 59.3794 84.0424C59.4396 84.3434 59.3042 84.6443 59.1537 84.9001C58.928 85.2763 58.612 85.5923 58.2809 85.8933C57.8897 86.2544 57.4834 86.6005 57.047 86.9015C56.9417 86.9767 56.8363 87.052 56.731 87.1272C56.4451 87.3379 56.1742 87.5486 55.9034 87.7893C55.8733 87.8194 55.8281 87.8495 55.798 87.8947C55.6777 88.015 55.5573 88.1505 55.482 88.316C55.4369 88.4213 55.4068 88.5417 55.4519 88.6471C55.467 88.6922 55.482 88.7223 55.5121 88.7524C55.5573 88.7524 55.6024 88.7524 55.6476 88.7524C55.9335 88.6922 56.2043 88.6471 56.4902 88.5869C56.8363 88.5267 57.1975 88.4665 57.5436 88.4063C57.679 88.3912 57.8145 88.3612 57.9348 88.316C58.2057 88.2558 58.4766 88.1806 58.7625 88.1806C58.9882 88.1806 59.4095 88.2257 59.4848 88.5116C59.56 88.8126 59.2741 89.1737 59.0333 89.3995C58.9882 89.4446 58.943 89.4897 58.8979 89.5198C58.612 89.7606 58.2809 89.9713 57.98 90.197C57.3028 90.6936 56.5956 91.1901 55.8883 91.6566C55.1961 92.1081 54.5039 92.5445 53.7816 92.9357C53.5709 93.041 53.3753 93.1464 53.1647 93.2517C52.8938 93.327 52.5176 93.357 52.2166 93.357C51.8254 93.342 51.4191 93.327 51.0279 93.2517C50.441 93.1614 49.8692 92.9658 49.3876 92.6347C49.2673 92.5445 48.7105 92.1532 48.7707 92.6047C48.8008 92.8906 49.1168 93.1313 49.3124 93.3119C49.4779 93.4473 49.6585 93.5828 49.824 93.7031C49.8993 93.7483 49.9745 93.8085 50.0497 93.8536C44.4068 97.2544 37.9663 99.0602 31.27 99.0602C30.6831 99.0602 30.1113 99.0451 29.5244 99.015C26.7406 98.8796 24.0169 98.4432 21.3835 97.7209C21.3083 97.9015 21.203 98.067 21.0675 98.2025C21.0525 98.2175 21.0374 98.2326 21.0224 98.2476C21.4287 98.5636 21.85 98.8947 22.2714 99.1956C23.0839 99.7975 23.8965 100.369 24.7392 100.926C24.7994 100.941 24.8445 100.941 24.9047 100.956C42.6311 112.543 66.2563 113.295 85.1113 100.971C94.5012 94.8317 101.393 86.3146 105.516 76.7442C105.546 76.7141 105.576 76.699 105.591 76.684C105.953 75.8263 106.299 74.9685 106.63 74.0958C106.765 73.7346 106.886 73.3885 107.006 73.0274C106.976 72.9822 106.961 72.9822 106.946 72.9822ZM58.8979 44.0903C58.9731 43.9549 59.0634 43.8194 59.1688 43.699C59.229 43.6238 59.3042 43.5636 59.3794 43.5034C59.5901 43.3228 59.8309 43.1874 60.0867 43.1122C60.2823 43.052 60.493 43.0219 60.6886 43.0219C61.0196 43.0219 61.3507 43.0971 61.6517 43.2627C61.757 43.3228 61.8623 43.3981 61.9526 43.4733C62.2837 43.7442 62.5244 44.1053 62.6448 44.5116C62.6599 44.5568 62.6749 44.6019 62.6749 44.6471C62.7351 44.9631 62.7351 45.2791 62.6448 45.5951C62.5997 45.7456 62.5545 45.896 62.4642 46.0315C62.389 46.1669 62.3138 46.2873 62.2084 46.3926C62.1934 46.4077 62.1633 46.4378 62.1482 46.4528C61.8774 46.7387 61.5463 46.9343 61.1852 47.0397C61.0196 47.0848 60.8391 47.1149 60.6585 47.1149C60.3726 47.1149 60.0716 47.0547 59.8008 46.9193C59.7707 46.9042 59.7255 46.8892 59.6954 46.8741C59.4095 46.7086 59.1688 46.4979 58.9882 46.2421C58.943 46.1819 58.8979 46.1217 58.8678 46.0465C58.8076 45.9261 58.7474 45.8057 58.7173 45.6854C58.6421 45.4446 58.612 45.1888 58.627 44.9179C58.627 44.8427 58.6421 44.7524 58.6571 44.6772C58.7324 44.4665 58.7926 44.2709 58.8979 44.0903ZM56.0538 52.9083C55.8131 52.7428 55.5874 52.5472 55.3616 52.3215C55.2864 52.2462 55.2262 52.171 55.151 52.0807C54.9855 51.87 54.8199 51.6443 54.6845 51.3885L55.0005 51.1026L55.482 50.6662L57.5436 48.7551L58.0703 48.2736C58.2809 48.4391 58.5067 48.5896 58.7474 48.725C58.7775 48.7401 58.8076 48.7551 58.8377 48.7702C59.3343 49.026 59.876 49.1765 60.4177 49.2066L59.6052 53.9466C58.943 53.9316 57.9649 53.8263 57.0169 53.435C56.6708 53.2845 56.3548 53.119 56.0538 52.9083ZM62.6749 41.3967C62.2837 41.186 61.8774 41.0506 61.441 40.9603L62.2235 36.3557C64.7064 36.1601 66.3316 38.026 67.0538 39.0643L63.7132 42.1792C63.4123 41.8933 63.0662 41.6224 62.6749 41.3967ZM63.8637 29.4487C65.3986 28.3502 66.8281 27.5677 67.7761 27.0862C68.5285 26.71 68.98 26.5144 68.98 26.5144C68.98 26.5144 68.9499 26.1532 69.1004 25.6115C69.4013 24.6183 70.3644 23.0534 73.5094 22.2408C74.1564 22.0752 74.7584 22 75.3001 22C78.1441 22 79.4683 23.9261 79.4683 23.9261C79.679 23.9261 79.8897 23.9111 80.1004 23.9111C84.1783 23.9111 87.1879 25.0848 87.534 25.2202C92.9663 27.658 97.4205 31.5554 99.798 38.0561C103.139 47.145 100.445 56.565 90.9649 63.4569C91.7926 65.7291 90.3179 68.513 87.5491 69.7921C86.601 70.2285 85.6229 70.4391 84.69 70.4391C83.8473 70.4391 83.0347 70.2586 82.3425 69.9275C81.9061 69.7168 81.5149 69.446 81.1838 69.13C81.0183 68.9644 80.8528 68.7839 80.7173 68.5882C79.8145 68.829 78.7009 69.0397 77.4369 69.1601C76.7748 69.2202 76.0826 69.2503 75.3603 69.2503C69.612 69.2503 62.1181 67.0985 58.2207 58.6416C57.7392 57.6033 57.4232 56.6101 57.2276 55.6922C58.1154 55.933 58.9882 56.0233 59.7255 56.0233C60.0415 56.0233 60.3425 56.0082 60.5983 55.9781C61.0648 55.9179 61.441 55.5718 61.5162 55.1053L62.6147 48.6949C63.006 48.4843 63.3822 48.2134 63.6831 47.8824C64.2098 48.2134 64.6161 48.6498 64.8117 49.1012C65.1879 49.9138 65.6544 51.5239 64.1195 52.9836C63.8487 53.2394 64.0744 53.6457 64.6161 53.6457C64.7214 53.6457 64.8569 53.6306 64.9923 53.5855C67.2344 52.9535 68.6339 50.5157 67.1893 47.3858C66.6777 46.2722 65.8651 45.2791 64.7967 44.5417C64.7816 44.3762 64.7515 44.2107 64.7064 44.0602L69.0853 39.9822C69.4314 39.6662 69.5217 39.1546 69.311 38.7332C68.3329 36.7921 65.3685 33.3912 61.0648 34.3543C60.6435 34.4446 60.3274 34.7907 60.2522 35.212L59.244 41.0958C58.311 41.4419 57.5135 42.119 57.0169 43.0219C56.7912 43.4432 56.6407 43.9097 56.5655 44.3611C56.2344 44.5267 55.8883 44.7072 55.5573 44.9179C55.5422 44.9179 55.5422 44.933 55.5272 44.933L55.5422 44.8126C54.6845 37.5445 59.7105 32.3981 63.8637 29.4487ZM48.5901 79.0465C47.1305 80.2503 45.7761 81.1382 44.8582 81.6799C44.1359 82.1163 43.6845 82.342 43.6845 82.342C43.6845 82.342 43.7447 82.7031 43.6243 83.2449C43.3986 84.2531 42.5409 85.8933 39.456 86.9165C38.6435 87.1874 37.9061 87.2927 37.259 87.2927C34.7009 87.2927 33.3917 85.6525 33.3917 85.6525C32.6393 85.7278 31.9321 85.7579 31.2549 85.7579C27.9595 85.7579 25.5819 85.0205 25.2659 84.9152C19.6681 82.8687 14.9581 79.2873 12.1291 72.9822C8.17149 64.1491 10.1879 54.5636 19.1564 47.0246C18.1783 44.8126 19.4424 41.9384 22.1209 40.4637C23.1742 39.8769 24.3028 39.606 25.3562 39.606C26.0484 39.606 26.7105 39.7264 27.3124 39.9672C27.7638 40.1477 28.1701 40.3885 28.5313 40.6895C28.7119 40.8399 28.8774 41.0055 29.0279 41.186C29.9157 40.87 31.0142 40.5841 32.2631 40.3885C33.3917 40.2079 34.6257 40.0876 35.9348 40.0876C41.4273 40.0876 48.1086 42.104 52.1715 49.5226C52.337 49.8386 52.5025 50.1395 52.638 50.4405C52.3822 50.7264 52.3069 51.1327 52.4424 51.5089C52.7433 52.3064 53.1496 52.9836 53.6462 53.5404C54.1578 56.5048 53.2098 58.777 51.7652 59.9508C50.8322 60.7031 49.8993 61.0041 49.0716 61.0041C47.7625 61.0041 46.7091 60.2818 46.2727 59.4843C45.8363 58.6867 45.2645 57.1218 46.6941 55.5568C46.9348 55.2859 46.7091 54.9248 46.2276 54.9248C46.0922 54.9248 45.9417 54.9549 45.7761 55.015C43.5792 55.8126 42.3603 58.3406 44.0155 61.3502C45.1291 63.3967 47.3562 64.9767 50.1551 64.9767C51.8555 64.9767 53.7666 64.3899 55.783 62.9904C55.798 62.9904 55.798 62.9754 55.8131 62.9754V63.0958C57.1824 70.3338 52.5326 75.8263 48.5901 79.0465Z" fill="#03BFD7"/>
<path d="M79.213 32.97L79.2582 33.0152C80.2664 33.8278 80.8533 34.8209 81.0639 35.9044C81.3197 36.9728 81.1994 38.1314 80.6125 39.2751L80.5824 39.3353C80.477 39.561 80.4921 39.8469 80.6576 40.0576C80.7931 40.2231 80.9887 40.3134 81.1843 40.3134C81.3348 40.3134 81.4702 40.2682 81.6057 40.1629C82.343 39.576 82.96 38.7484 83.2008 37.7703C83.4114 37.0179 83.4265 36.2053 83.276 35.4228C83.0954 34.6554 82.7493 33.918 82.2377 33.3161C81.6057 32.5336 80.7178 32.022 79.7999 31.7963C79.7397 31.7813 79.6945 31.7812 79.6344 31.7812C79.3334 31.7812 79.0625 31.9919 78.9873 32.2929C78.9121 32.5487 79.0174 32.8196 79.213 32.97Z" fill="#03BFD7"/>
<path d="M87.0676 43.1722C87.2933 43.4582 87.6394 43.6688 88.0156 43.7591C88.0608 43.7742 88.1059 43.7742 88.1511 43.7742C88.2564 43.7742 88.3467 43.7441 88.437 43.6989C88.5573 43.6237 88.6476 43.5033 88.6777 43.3679C88.7229 43.1722 88.6476 42.9465 88.4821 42.8111C88.2413 42.6155 88.0909 42.3597 88.0307 42.0888C87.9554 41.833 88.0006 41.5471 88.1511 41.2461C88.2112 41.1408 88.2263 41.0054 88.1962 40.885C88.1811 40.8097 88.1511 40.7345 88.0909 40.6743C88.0006 40.5539 87.8802 40.4937 87.7297 40.4636C87.7147 40.4636 87.6846 40.4636 87.6695 40.4636C87.5491 40.4636 87.4288 40.5088 87.3385 40.584C87.0375 40.8248 86.8118 41.1558 86.7215 41.5019C86.6463 41.7728 86.6312 42.0888 86.6914 42.4048C86.7516 42.6757 86.8871 42.9616 87.0676 43.1722Z" fill="#03BFD7"/>
<path d="M93.1171 44.4515C93.4632 44.6772 93.8243 44.7976 94.1554 44.7976C94.2457 44.7976 94.3209 44.7826 94.3962 44.7675C94.5617 44.7374 94.7122 44.6622 94.8476 44.5569C95.4345 44.0753 95.3592 42.9768 94.652 42.1342C94.336 41.7429 93.9297 41.4721 93.5384 41.3366C93.3579 41.2764 93.1773 41.2463 93.0118 41.2463C92.7559 41.2463 92.5152 41.3216 92.3196 41.4721C91.7327 41.9536 91.8079 43.0521 92.5152 43.8948C92.6807 44.1205 92.8914 44.301 93.1171 44.4515Z" fill="#03BFD7"/>
<path d="M82.9438 46.4829C82.6429 46.4829 82.372 46.6936 82.2968 46.9945C82.2366 47.2504 82.3269 47.5212 82.5225 47.6717L82.5676 47.7168C83.5758 48.5294 84.1627 49.5226 84.3734 50.606C84.6292 51.6744 84.5088 52.8331 83.9219 53.9768L83.8918 54.0369C83.7865 54.2627 83.8015 54.5486 83.9671 54.7592C84.1025 54.9248 84.2981 55.0151 84.4937 55.0151C84.6442 55.0151 84.7797 54.9699 84.9151 54.8646C85.6524 54.2777 86.2694 53.4501 86.5102 52.472C86.7208 51.7196 86.7359 50.907 86.5854 50.1245C86.4048 49.3571 86.0587 48.6197 85.5471 48.0178C84.9151 47.2353 84.0273 46.7237 83.1093 46.498C83.0491 46.4829 83.004 46.4829 82.9438 46.4829Z" fill="#03BFD7"/>
<path d="M32.2479 40.3738C30.9989 40.5845 29.9004 40.8704 29.0126 41.1713C28.8621 40.9908 28.6966 40.8252 28.516 40.6748C28.1548 40.3738 27.7485 40.133 27.2971 39.9525C26.6952 39.7267 26.0331 39.5913 25.3409 39.5913C24.2875 39.5913 23.1589 39.8622 22.1056 40.449C19.4271 41.9237 18.148 44.7979 19.1412 47.0099C10.1726 54.5489 8.15621 64.1344 12.1138 72.9675C14.9579 79.2876 19.6528 82.854 25.2506 84.9005C25.5666 85.0058 27.9442 85.7432 31.2397 85.7432C31.9168 85.7432 32.6391 85.7131 33.3765 85.6378C33.3765 85.6378 34.6856 87.278 37.2438 87.278C37.8908 87.278 38.6282 87.1727 39.4407 86.9018C42.5256 85.8786 43.3833 84.2384 43.609 83.2302C43.7294 82.6884 43.6692 82.3273 43.6692 82.3273C43.6692 82.3273 44.1206 82.1016 44.8429 81.6652C45.7609 81.1235 47.1152 80.2356 48.5748 79.0318C52.5023 75.7965 57.1671 70.304 55.7677 63.051V62.9306C55.7526 62.9306 55.7526 62.9456 55.7376 62.9456C53.7212 64.3601 51.8101 64.9319 50.1097 64.9319C47.2957 64.9319 45.0837 63.3519 43.9702 61.3054C42.3149 58.2958 43.5338 55.7678 45.7308 54.9702C45.8963 54.91 46.0468 54.88 46.1822 54.88C46.6788 54.88 46.9045 55.2411 46.6487 55.512C45.2191 57.0769 45.791 58.6419 46.2273 59.4395C46.6637 60.237 47.7171 60.9593 49.0262 60.9593C49.8539 60.9593 50.7868 60.6583 51.7198 59.9059C53.1644 58.7172 54.1124 56.4449 53.6008 53.4956C53.1193 52.9388 52.6979 52.2767 52.397 51.4641C52.2615 51.1029 52.3368 50.6816 52.5926 50.3957C52.4572 50.0947 52.2916 49.7787 52.1261 49.4778C48.0632 42.0592 41.3819 40.0427 35.8894 40.0427C34.6104 40.0879 33.3765 40.1932 32.2479 40.3738ZM30.6377 63.1864C30.8484 63.3369 30.9537 63.5927 30.9086 63.8485C30.8484 64.1795 30.5625 64.4053 30.2465 64.4053C30.2164 64.4053 30.1713 64.4053 30.1261 64.3902C29.1931 64.2397 28.2602 63.7883 27.583 63.051C27.0262 62.4942 26.635 61.7869 26.3942 61.0195C26.1836 60.252 26.1384 59.4395 26.304 58.672C26.4845 57.6789 27.0262 56.8061 27.7335 56.1741C27.8689 56.0537 28.0194 55.9935 28.1849 55.9935C28.3655 55.9935 28.5461 56.0687 28.6815 56.2192C28.8621 56.4148 28.9072 56.7007 28.8019 56.9265L28.7718 56.9867C28.2752 58.1754 28.2301 59.3341 28.5611 60.3875C28.847 61.4559 29.5091 62.4039 30.5625 63.1412L30.6377 63.1864ZM25.5516 69.1453C25.4763 68.8745 25.3108 68.6337 25.055 68.4531C24.8744 68.3177 24.7841 68.107 24.8142 67.9114C24.8443 67.7609 24.9195 67.6406 25.0399 67.5653C25.1302 67.5051 25.2356 67.46 25.3559 67.46C25.386 67.46 25.4161 67.46 25.4462 67.475C25.8224 67.5352 26.1836 67.7308 26.4243 68.0017C26.62 68.1973 26.7704 68.4682 26.8607 68.7691C26.951 69.0852 26.951 69.3861 26.8908 69.672C26.8306 70.0181 26.635 70.3642 26.3491 70.6351C26.2438 70.7254 26.1234 70.7705 25.9879 70.7705C25.9729 70.7705 25.9729 70.7705 25.9578 70.7705C25.8074 70.7705 25.687 70.6953 25.5817 70.5899C25.5215 70.5298 25.4914 70.4545 25.4613 70.3793C25.4312 70.2589 25.4312 70.1385 25.4763 70.0181C25.6117 69.6871 25.6268 69.4012 25.5516 69.1453ZM19.9086 72.9976C19.4722 72.4107 19.1713 71.7486 18.9606 71.0564C18.9455 70.9962 18.9305 70.9511 18.9154 70.8909C18.7499 70.2438 18.6747 69.5817 18.7198 68.9196C18.7499 68.5585 18.7951 68.2124 18.9004 67.8663C19.0057 67.5051 19.1562 67.159 19.3669 66.8129C19.4572 66.6624 19.6076 66.5872 19.7732 66.5872C19.8635 66.5872 19.9537 66.6173 20.029 66.6624C20.1795 66.7527 20.2547 66.9183 20.2547 67.0687V67.1741C20.2547 67.7158 20.2998 68.3328 20.3751 68.8745C20.4654 69.4313 20.5707 69.988 20.7362 70.5298C20.8867 71.0715 21.0974 71.5981 21.3231 72.1248C21.5639 72.6214 21.8498 73.1782 22.1357 73.6296L22.1959 73.7199C22.1959 73.7199 22.1959 73.735 22.2109 73.735C22.3464 73.9607 22.2711 74.2466 22.0604 74.382C21.9852 74.4272 21.8949 74.4572 21.8046 74.4572C21.7294 74.4572 21.6542 74.4422 21.594 74.4121C21.3231 74.2917 21.0974 74.1412 20.8717 73.9757C20.4955 73.7049 20.1795 73.3738 19.9086 72.9976ZM32.5338 70.4395C32.7143 70.4395 32.8949 70.5147 33.0304 70.6652C33.2109 70.8608 33.2561 71.1467 33.1507 71.3724L33.1206 71.4326C32.6241 72.6214 32.5789 73.7801 32.91 74.8334C33.1959 75.9018 33.858 76.8499 34.9113 77.5872L34.9565 77.6173C35.1672 77.7678 35.2725 78.0236 35.2273 78.2794C35.1672 78.6105 34.8812 78.8362 34.5652 78.8362C34.5351 78.8362 34.49 78.8362 34.4449 78.8211C33.5119 78.6707 32.5789 78.2192 31.9018 77.4819C31.345 76.9251 30.9537 76.2178 30.713 75.4504C30.5023 74.683 30.4572 73.8704 30.6227 73.1029C30.8033 72.1098 31.345 71.237 32.0522 70.605C32.2027 70.4997 32.3682 70.4395 32.5338 70.4395Z" fill="white"/>
<path d="M58.7167 88.1657C58.4307 88.1808 58.1599 88.2409 57.889 88.3011C57.7536 88.3312 57.6332 88.3613 57.4978 88.3914C57.1517 88.4516 56.7905 88.5118 56.4444 88.572C56.1585 88.6171 55.8876 88.6773 55.6017 88.7375C55.5566 88.7526 55.5115 88.7526 55.4663 88.7375C55.4362 88.7074 55.4212 88.6623 55.4061 88.6322C55.376 88.5269 55.4061 88.3914 55.4362 88.3011C55.4964 88.1356 55.6168 88.0002 55.7522 87.8798C55.7823 87.8497 55.8275 87.8196 55.8576 87.7745C56.1284 87.5337 56.3993 87.323 56.6852 87.1124C56.7905 87.0371 56.8959 86.9619 57.0012 86.8866C57.4376 86.5857 57.8439 86.2396 58.2351 85.8784C58.5662 85.5775 58.8671 85.2615 59.1079 84.8853C59.2584 84.6295 59.3938 84.3285 59.3336 84.0275C59.2885 83.7868 59.0778 83.5912 58.822 83.6062C58.521 83.6062 58.205 83.7266 57.9492 83.8771C57.5429 84.1028 57.1366 84.2984 56.7454 84.5392C56.324 84.7799 55.9328 85.0357 55.5115 85.2916C55.4061 85.3518 55.3158 85.412 55.2105 85.4571C55.1653 85.4721 55.1202 85.5173 55.0751 85.5323C55.0149 85.5624 54.9396 85.5775 54.8644 85.5173C54.8042 85.4571 54.8343 85.3969 54.8794 85.3518C54.9246 85.3066 54.9848 85.2615 55.0149 85.2314C55.3459 84.9154 55.7071 84.6445 56.0833 84.3887C56.5498 84.0727 57.0463 83.7567 57.4677 83.3654C57.7536 83.1096 58.0997 82.7936 58.1448 82.4024C58.205 81.9509 57.7837 81.65 57.3623 81.65C56.9561 81.65 56.625 81.8306 56.2789 82.0111C55.8876 82.2067 55.4814 82.3723 55.0901 82.5829C54.4731 82.914 53.9164 83.3052 53.2994 83.6363C53.2242 83.6814 53.1339 83.7115 53.0586 83.6965C53.0135 83.6965 52.9533 83.6814 52.8931 83.6513C52.8179 83.6062 52.7878 83.546 52.7577 83.4708C52.7577 83.4557 52.7577 83.4557 52.7577 83.4407C52.7276 83.2902 52.7577 83.1397 52.8028 82.9892C52.8931 82.6281 53.1038 82.3422 53.2844 82.0262C53.6004 81.4995 53.8562 80.9277 54.0669 80.3408C54.1571 80.07 54.2625 79.7991 54.2775 79.5132C54.2926 79.3627 54.2926 79.2122 54.2023 79.0918C54.097 78.9564 53.9465 78.8962 53.7659 78.8962C53.4348 78.9113 53.0887 79.0918 52.8329 79.3025C52.4718 79.6035 52.216 79.9797 51.9 80.3258C51.5539 80.717 51.298 81.1684 50.9971 81.5898C50.9519 81.665 50.8918 81.7403 50.8466 81.8155C50.6209 82.1466 50.3801 82.4776 50.1544 82.8087C50.1093 82.8839 50.0641 82.9441 50.0039 83.0193C49.9738 83.0795 49.9287 83.1247 49.8835 83.1698C49.8384 83.215 49.7632 83.23 49.703 83.215C49.5525 83.1698 49.5073 82.9441 49.4772 82.8087C49.4321 82.613 49.4321 82.4174 49.4321 82.2218V82.2067C49.4321 81.7252 49.5525 81.2738 49.5675 80.7923C49.5675 80.7772 49.5675 80.7772 49.5675 80.7622C49.5675 80.7471 49.5675 80.7321 49.5675 80.7321C49.5826 80.416 49.5675 79.9195 49.2967 79.7238C49.2064 79.6637 49.1011 79.6185 48.9506 79.6336C48.9355 79.6336 48.9054 79.6336 48.8904 79.6486C48.3788 79.7238 48.0627 80.1753 47.822 80.6117C47.8069 80.6418 47.7768 80.6869 47.7618 80.717C47.7016 80.8223 47.6565 80.9277 47.5963 81.033C47.3856 81.4393 47.1749 81.8306 46.9793 82.2368C46.9342 82.3422 46.874 82.4475 46.8288 82.5528C46.7837 82.6431 46.7536 82.7334 46.7084 82.8087C46.6934 82.8087 46.6934 82.8237 46.6783 82.8237C46.6182 82.9591 46.573 83.1096 46.5279 83.2451C46.1818 84.2834 45.9711 85.3518 46.1366 86.3901C46.1818 86.6459 46.3322 87.1274 46.1667 87.3682C46.0614 87.5487 45.8959 87.5638 45.7454 87.4886C45.7002 87.4585 45.6551 87.4133 45.6099 87.3682C45.2939 86.9318 45.008 86.1192 44.8275 85.3217C43.6838 87.2177 41.6223 88.241 40.0272 88.7676C39.0792 89.0836 38.1311 89.2492 37.2132 89.2492C35.0313 89.2492 33.4964 88.3613 32.6387 87.6691C32.1571 87.6992 31.6907 87.7143 31.2091 87.7143C27.6729 87.7143 25.0997 86.9318 24.6182 86.7813L24.5881 86.7663L24.558 86.7512C21.3377 85.5624 18.6441 84.0275 16.3418 82.0262C13.7987 79.8141 11.7673 77.0453 10.3076 73.7799C8.14073 68.9496 7.6291 63.8483 8.86302 59.033C9.49503 56.5802 10.5634 54.1876 12.0532 51.9304C13.3623 49.9591 14.9875 48.0932 16.8986 46.3477C16.703 45.1438 16.8986 43.8798 17.4403 42.6459C18.1626 41.0358 19.4868 39.6513 21.1421 38.7334C22.4513 38.0111 23.8959 37.6349 25.3104 37.6349C26.2584 37.6349 27.1763 37.8155 27.9889 38.1315C27.5374 37.334 27.1462 36.4161 27.071 35.7991C27.0559 35.7239 27.071 35.6637 27.086 35.6035C27.1311 35.4379 27.2816 35.3326 27.4923 35.4078C27.7933 35.4981 28.019 35.9797 28.1544 36.2054C28.7413 37.1233 29.6592 37.8155 30.6524 38.3873C30.6674 38.4024 30.6824 38.4024 30.6975 38.4174C30.8179 38.4776 30.9383 38.5378 31.0586 38.598C31.179 38.6582 31.3145 38.7184 31.4348 38.7635C31.6907 38.8689 31.9615 38.9742 32.2324 39.0795C32.428 39.1548 32.6236 39.23 32.8042 39.3052C33.0299 39.3955 33.2406 39.4708 33.4663 39.5611C33.4964 39.5761 33.5265 39.5912 33.5716 39.5912C34.0833 39.7717 34.7002 39.9222 35.1667 39.5761C35.3473 39.4407 35.4075 39.2751 35.3924 39.1096C35.3623 38.8087 35.0764 38.4776 34.8808 38.2669C34.8357 38.2218 34.7905 38.1917 34.7604 38.1466C34.4294 37.8306 34.0381 37.5446 33.7221 37.1985C33.5716 37.0481 33.4362 36.8825 33.3309 36.6869C33.2556 36.5665 33.1353 36.3559 33.2255 36.2054C33.2707 36.1452 33.3309 36.1151 33.4061 36.1151C33.4814 36.1151 33.5415 36.1301 33.6168 36.1452C34.2187 36.2806 34.8056 36.4161 35.4075 36.5515C35.9342 36.6719 36.4608 36.8524 37.0026 36.9126C37.4841 36.9728 37.9656 37.0782 38.4622 37.0631C38.8083 37.0481 39.2146 36.9578 39.5005 36.717C39.6359 36.5966 39.7262 36.4461 39.6961 36.2656C39.6811 36.1 39.5757 35.9797 39.4554 35.8743C39.2447 35.6637 38.9588 35.5132 38.703 35.3778C38.1312 35.0617 37.5142 34.7909 36.8972 34.5953C36.521 34.4749 36.1749 34.3996 35.8439 34.1739C35.7084 34.0836 35.558 33.9783 35.4827 33.8278C35.4376 33.7526 35.4225 33.6773 35.4526 33.5871C35.5128 33.4366 35.6332 33.3463 35.7837 33.3162C36.506 33.1507 37.2283 33.0604 37.9506 32.8798C38.402 32.7745 38.8384 32.6089 39.2898 32.4886C39.6811 32.3832 40.0874 32.2779 40.4034 32.007C40.7344 31.7211 40.8548 31.1794 40.4786 30.8634C40.1476 30.5775 39.651 30.5925 39.2447 30.5775C38.6428 30.5775 38.0258 30.6678 37.4389 30.758C36.9574 30.8182 36.4759 30.8634 35.9944 30.8483C35.889 30.8483 35.6482 30.8935 35.6633 30.7129C35.6783 30.5474 35.8589 30.5624 35.9793 30.5323C36.0997 30.5022 36.2201 30.4872 36.3405 30.4571C36.837 30.3668 37.3487 30.2765 37.8452 30.1712C38.3268 30.0658 38.7933 29.9455 39.2748 29.8401C39.5908 29.7649 39.9218 29.6445 40.1626 29.4338C40.3582 29.2533 40.4034 28.9674 40.2529 28.7416C40.0874 28.4557 39.7714 28.3203 39.4704 28.215C39.019 28.0795 38.5525 28.0494 38.086 28.0494C37.5142 28.0494 36.9574 28.0645 36.4006 28.1247C35.889 28.1849 35.3774 28.23 34.8658 28.23C34.625 28.23 34.3842 28.215 34.1736 28.1247C34.0682 28.0795 33.9478 27.9892 33.9027 27.8839C33.8876 27.8388 33.8726 27.7936 33.8726 27.7485C33.9027 27.7184 33.9328 27.6883 33.9779 27.6582C34.5648 27.3121 35.1366 26.9509 35.7084 26.5898C36.0846 26.349 36.4909 26.1835 36.837 25.8976C37.0176 25.7321 37.3186 25.401 37.1681 25.1301C36.9875 24.784 36.3254 24.7238 35.9944 24.7389C35.5881 24.7539 35.1818 24.8141 34.7905 24.8593C33.8876 24.9496 32.9998 25.0549 32.097 25.1903C31.5703 25.2656 31.0436 25.3559 30.5169 25.4612C30.1859 25.5214 29.8548 25.5966 29.5238 25.6869C29.4636 25.702 29.4034 25.717 29.3432 25.7321C29.1626 25.7772 28.982 25.8223 28.8165 25.8675C28.6359 25.9578 28.4253 26.0932 28.2447 26.2437C28.1544 26.3189 28.0641 26.3942 27.9889 26.4544C27.2365 27.1616 26.4991 28.0193 26.2734 29.0275C26.2433 29.1931 26.0928 29.8853 25.8069 29.494C25.6264 29.2382 25.7016 28.8319 25.7467 28.546C25.7768 28.3203 25.822 28.0946 25.8822 27.8689C25.9273 27.7033 25.9574 27.5228 26.0026 27.3572C26.0928 26.981 26.138 26.6048 26.2584 26.2437C18.9752 27.2218 12.0983 30.3819 6.54565 35.4379C5.04086 36.8223 3.65646 38.297 2.40748 39.8771C2.3172 39.8169 2.21186 39.7717 2.10653 39.7266C2.03129 40.0125 1.941 40.2834 1.86576 40.5693C1.74538 40.9906 1.64004 41.427 1.53471 41.8483C1.51966 41.9236 1.50461 41.9838 1.48956 42.059C1.45947 42.1944 1.42937 42.3148 1.39928 42.4503C1.36918 42.5857 1.33908 42.7211 1.30899 42.8415C1.29394 42.9167 1.27889 42.9769 1.26384 43.0522C1.2187 43.2327 1.1886 43.3983 1.14346 43.5788C1.14346 43.6089 1.12841 43.639 1.12841 43.6691C1.08327 43.8648 1.03813 44.0754 1.00803 44.271V44.2861C0.752216 45.5652 0.541546 46.8743 0.376019 48.1835C0.376019 48.1835 0.376019 48.1835 0.376019 48.1985C0.345924 48.4092 0.330876 48.6199 0.30078 48.8306C0.30078 48.8456 0.30078 48.8757 0.30078 48.8907C0.285732 49.0864 0.255636 49.282 0.240588 49.4776C0.240588 49.5378 0.225541 49.5829 0.225541 49.6431C0.210493 49.8087 0.195445 49.9742 0.180397 50.1397C0.165349 50.2451 0.165349 50.3504 0.150301 50.4708C0.135253 50.5761 0.135253 50.6965 0.120205 50.8018C0.044966 51.7197 -0.000177678 52.6377 -0.0152256 53.5706C-0.0152256 53.6007 -0.0152256 53.6158 -0.0152256 53.6459C-0.0152256 53.8415 -0.0302734 54.0522 -0.0302734 54.2478C-0.0302734 54.308 -0.0302734 54.3832 -0.0302734 54.4434C-0.0302734 54.5939 -0.0302734 54.7594 -0.0302734 54.9099C-0.0302734 54.94 -0.0302734 54.9701 -0.0302734 55.0002C-0.0302734 55.0754 -0.0302734 55.1657 -0.0302734 55.2409C-0.0302734 55.3463 -0.0302734 55.4366 -0.0302734 55.5419C-0.0302734 55.7074 -0.0302734 55.873 -0.0302734 56.0535C-0.0302734 56.0836 -0.0302734 56.1137 -0.0302734 56.1589C0.315828 72.6664 7.91501 87.3832 19.7276 97.2396C20.1339 97.5857 20.5402 97.9167 20.9615 98.2327C20.9766 98.2177 20.9916 98.2026 21.0067 98.1876C21.1421 98.0522 21.2474 97.8866 21.3227 97.7061C23.941 98.4284 26.6797 98.8798 29.4636 99.0002C30.0504 99.0303 30.6223 99.0453 31.2091 99.0453C37.9054 99.0453 44.3459 97.2396 49.9889 93.8388C49.9136 93.7936 49.8384 93.7334 49.7632 93.6883C49.5826 93.5679 49.4171 93.4325 49.2515 93.297C49.0409 93.1315 48.7399 92.8757 48.7098 92.5898C48.6496 92.1384 49.2064 92.5296 49.3268 92.6199C49.8083 92.9509 50.3801 93.1466 50.967 93.2368C51.3582 93.297 51.7645 93.3271 52.1558 93.3422C52.4567 93.3422 52.8329 93.3271 53.1038 93.2368C53.3145 93.1315 53.5251 93.0262 53.7208 92.9208C54.4431 92.5296 55.1503 92.1083 55.8275 91.6418C56.5347 91.1753 57.2269 90.6787 57.9191 90.1821C58.2201 89.9564 58.5511 89.7457 58.837 89.505C58.8822 89.4749 58.9273 89.4297 58.9725 89.3846C59.2132 89.1589 59.4991 88.7977 59.4239 88.4968C59.3788 88.2259 58.9574 88.1657 58.7167 88.1657Z" fill="white"/>
<path d="M77.4511 69.1752C78.7151 69.0548 79.8287 68.8441 80.7315 68.6034C80.867 68.799 81.0174 68.9796 81.198 69.1451C81.5291 69.4762 81.9203 69.732 82.3567 69.9426C83.0489 70.2737 83.8615 70.4543 84.7042 70.4543C85.6371 70.4543 86.6152 70.2436 87.5633 69.8072C90.3471 68.5281 91.8068 65.7593 90.9791 63.472C100.444 56.5801 103.138 47.1601 99.8122 38.0712C97.4196 31.5705 92.9805 27.6731 87.5482 25.2354C87.1871 25.0849 84.1925 23.9262 80.1146 23.9262C79.9039 23.9262 79.7083 23.9262 79.4826 23.9413C79.4826 23.9413 78.1583 22.0151 75.3143 22.0151C74.7726 22.0151 74.1706 22.0904 73.5236 22.2559C70.3786 23.0534 69.4005 24.6335 69.1146 25.6266C68.9641 26.1533 68.9942 26.5295 68.9942 26.5295C68.9942 26.5295 68.5277 26.7251 67.7903 27.1013C66.8423 27.5829 65.4128 28.3804 63.8779 29.4638C59.7247 32.4132 54.6987 37.5596 55.5715 44.8879L55.5564 45.0083C55.5715 45.0083 55.5715 44.9932 55.5865 44.9932C55.9326 44.7826 56.2637 44.602 56.5947 44.4365C56.67 43.97 56.8204 43.5186 57.0462 43.0972C57.5427 42.1943 58.3403 41.5172 59.2732 41.1711L60.2815 35.2874C60.3567 34.866 60.6727 34.535 61.094 34.4296C65.3977 33.4666 68.3772 36.8674 69.3403 38.8086C69.5509 39.2299 69.4607 39.7265 69.1146 40.0575L64.7356 44.1355C64.7657 44.301 64.7958 44.4515 64.8259 44.6171C65.8943 45.3544 66.7069 46.3476 67.2185 47.4611C68.6481 50.5911 67.2637 53.0138 65.0215 53.6608C64.8861 53.706 64.7657 53.721 64.6453 53.721C64.1036 53.721 63.8628 53.3147 64.1488 53.0589C65.6836 51.5993 65.2172 49.9891 64.841 49.1766C64.6303 48.7251 64.239 48.2887 63.7124 47.9577C63.3964 48.2887 63.0352 48.5596 62.644 48.7703L61.5455 55.1807C61.4702 55.6471 61.094 55.9932 60.6276 56.0534C60.3717 56.0835 60.0708 56.0986 59.7548 56.0986C59.0174 56.0986 58.1447 56.0083 57.2568 55.7675C57.4525 56.6855 57.7685 57.6786 58.25 58.7169C62.1323 67.1738 69.6412 69.3257 75.3895 69.3257C76.0968 69.2655 76.789 69.2354 77.4511 69.1752ZM94.6508 42.1342C95.3581 42.9919 95.4483 44.0753 94.8464 44.5569C94.711 44.6622 94.5605 44.7374 94.395 44.7675C94.3198 44.7826 94.2295 44.7976 94.1542 44.7976C93.8232 44.7976 93.462 44.6772 93.1159 44.4515C92.9053 44.3161 92.6946 44.1205 92.499 43.8948C91.7917 43.037 91.7014 41.9536 92.3033 41.472C92.499 41.3216 92.7397 41.2463 92.9955 41.2463C93.1611 41.2463 93.3416 41.2764 93.5222 41.3366C93.9285 41.472 94.3198 41.7429 94.6508 42.1342ZM79.2117 32.97C79.0161 32.8045 78.9107 32.5487 78.986 32.2928C79.0612 31.9919 79.3321 31.7812 79.633 31.7812C79.6782 31.7812 79.7384 31.7812 79.7986 31.7963C80.7165 32.022 81.6193 32.5336 82.2363 33.3161C82.7479 33.918 83.094 34.6554 83.2746 35.4228C83.4251 36.2053 83.4251 37.0179 83.1994 37.7703C82.9436 38.7484 82.3416 39.576 81.6043 40.1629C81.4839 40.2532 81.3334 40.3134 81.183 40.3134C80.9873 40.3134 80.7917 40.2231 80.6563 40.0575C80.4908 39.8469 80.4757 39.561 80.581 39.3352L80.6111 39.2751C81.183 38.1314 81.3184 36.9727 81.0626 35.9043C80.8519 34.8209 80.265 33.8277 79.2568 33.0151L79.2117 32.97ZM84.3731 50.5911C84.1624 49.5076 83.5756 48.5145 82.5674 47.7019L82.5222 47.6567C82.3266 47.4912 82.2213 47.2354 82.2965 46.9796C82.3717 46.6786 82.6426 46.4679 82.9436 46.4679C82.9887 46.4679 83.0489 46.4679 83.1091 46.483C84.027 46.7087 84.9299 47.2203 85.5468 48.0028C86.0585 48.6047 86.4046 49.3421 86.5852 50.1095C86.7356 50.892 86.7356 51.7046 86.5099 52.457C86.2541 53.4351 85.6522 54.2627 84.9148 54.8496C84.7944 54.9399 84.644 55.0001 84.4935 55.0001C84.2979 55.0001 84.1022 54.9098 83.9668 54.7443C83.8013 54.5336 83.7862 54.2477 83.8916 54.022L83.9217 53.9618C84.5085 52.8181 84.6289 51.6745 84.3731 50.5911ZM88.0147 42.074C88.0749 42.3448 88.2254 42.6006 88.4661 42.7963C88.6467 42.9317 88.722 43.1574 88.6618 43.353C88.6317 43.4885 88.5414 43.6088 88.421 43.6841C88.3307 43.7292 88.2404 43.7593 88.1351 43.7593C88.0899 43.7593 88.0448 43.7593 87.9996 43.7443C87.6235 43.654 87.2924 43.4433 87.0516 43.1574C86.8711 42.9467 86.7356 42.6759 86.6604 42.3749C86.6002 42.0589 86.6002 41.758 86.6905 41.472C86.7808 41.1259 86.9914 40.7949 87.3074 40.5541C87.3977 40.4789 87.5181 40.4337 87.6385 40.4337C87.6536 40.4337 87.6836 40.4337 87.6987 40.4337C87.8492 40.4488 87.9696 40.524 88.0598 40.6444C88.105 40.7046 88.1501 40.7798 88.1652 40.8551C88.1953 40.9755 88.1802 41.0958 88.12 41.2162C87.9846 41.5322 87.9545 41.8332 88.0147 42.074Z" fill="white"/>
<path d="M57.528 48.7402L55.4665 50.6513L54.985 51.0877L54.6689 51.3736C54.8044 51.6294 54.9699 51.8551 55.1354 52.0658C55.2107 52.1411 55.2709 52.2313 55.3461 52.3066C55.5568 52.5323 55.7975 52.7279 56.0383 52.8934C56.3393 53.1041 56.6703 53.2696 56.9863 53.4051C57.9494 53.7963 58.9275 53.9017 59.5746 53.9167L60.3871 49.1766C59.8304 49.1315 59.2886 48.981 58.8071 48.7402C58.777 48.7252 58.7469 48.7101 58.7168 48.6951C58.4761 48.5597 58.2503 48.4092 58.0397 48.2437L57.528 48.7402Z" fill="white"/>
<path d="M63.698 42.1944L67.0386 39.0795C66.3314 38.0412 64.6912 36.1753 62.2083 36.3709L61.4258 40.9756C61.8471 41.0508 62.2685 41.2013 62.6597 41.4119C63.066 41.6226 63.4121 41.8935 63.698 42.1944Z" fill="white"/>
<path d="M60.0857 43.1122C59.8299 43.1874 59.5891 43.3228 59.3784 43.5034C59.3032 43.5636 59.243 43.6238 59.1677 43.699C59.0624 43.8194 58.9721 43.9398 58.8969 44.0903C58.7915 44.2709 58.7313 44.4665 58.6862 44.6621C58.6712 44.7373 58.6561 44.8276 58.6561 44.9029C58.6411 45.1587 58.6712 45.4145 58.7464 45.6703C58.7915 45.7907 58.8367 45.9111 58.8969 46.0315C58.927 46.0917 58.9721 46.1669 59.0173 46.2271C59.1978 46.4829 59.4386 46.7086 59.7245 46.8591C59.7546 46.8741 59.7998 46.8892 59.8299 46.9042C60.1007 47.0397 60.4017 47.0999 60.6876 47.0999C60.8682 47.0999 61.0337 47.0698 61.2143 47.0246C61.5754 46.9343 61.9215 46.7237 62.1774 46.4378C62.1924 46.4227 62.2225 46.3926 62.2376 46.3776C62.3278 46.2722 62.4181 46.1518 62.4934 46.0164C62.5686 45.881 62.6288 45.7305 62.6739 45.58C62.7642 45.264 62.7642 44.933 62.704 44.632C62.689 44.5869 62.689 44.5417 62.6739 44.4966C62.5536 44.0903 62.3278 43.7291 61.9817 43.4583C61.8914 43.383 61.7861 43.3078 61.6808 43.2476C61.3648 43.0821 61.0337 43.0068 60.7177 43.0068C60.492 43.0068 60.2813 43.0369 60.0857 43.1122Z" fill="white"/>
<path d="M110 54.8797C109.97 37.364 101.739 21.7744 88.9483 11.7224C88.8429 11.6321 88.7376 11.5569 88.6172 11.4666C88.5871 11.5118 88.557 11.5719 88.5269 11.6171C87.1425 11.286 85.728 11.0453 84.2985 10.8647C82.8539 10.6992 81.3942 10.6089 79.9647 10.6089C74.1863 10.6089 68.5735 11.9632 63.4572 14.5815C63.5324 14.6417 63.5926 14.7019 63.6678 14.7471C63.8334 14.8825 63.9989 15.033 64.1644 15.1834C64.36 15.364 64.646 15.6349 64.661 15.9208C64.6911 16.3722 64.1644 15.9358 64.044 15.8455C63.5926 15.4693 63.0358 15.2587 62.449 15.1082C62.0577 15.0179 61.6665 14.9577 61.2752 14.9276C60.9743 14.8975 60.5981 14.8975 60.3272 14.9577C60.3122 14.9577 60.3122 14.9577 60.2971 14.9728C60.0864 15.0631 59.8908 15.1533 59.6802 15.2436C58.9278 15.5747 58.2055 15.9659 57.4832 16.3722C56.7458 16.7936 56.0085 17.2299 55.3012 17.6814C54.9852 17.8921 54.6391 18.0726 54.3382 18.2983C54.293 18.3284 54.2479 18.3736 54.2027 18.4037C53.9469 18.6144 53.646 18.9605 53.6911 19.2614C53.7362 19.5323 54.1576 19.6226 54.3833 19.6376C54.6692 19.6527 54.9401 19.6075 55.2109 19.5624C55.3464 19.5473 55.4818 19.5172 55.6172 19.5022C55.9784 19.4721 56.3245 19.442 56.6856 19.3968C56.9715 19.3667 57.2574 19.3366 57.5283 19.2915C57.5734 19.2915 57.6186 19.2915 57.6637 19.2915C57.6938 19.3216 57.7089 19.3667 57.7239 19.3968C57.754 19.5022 57.7089 19.6376 57.6637 19.7279C57.5885 19.8784 57.4681 20.0138 57.3327 20.1191C57.2875 20.1492 57.2574 20.1793 57.2123 20.2094C56.9264 20.4201 56.6405 20.6308 56.3395 20.8113C56.2342 20.8866 56.1138 20.9468 56.0085 21.022C55.542 21.2929 55.1206 21.6089 54.6993 21.9399C54.3532 22.2108 54.0221 22.5118 53.7663 22.8729C53.6008 23.1137 53.4503 23.3996 53.4804 23.7156C53.5105 23.9714 53.7061 24.167 53.962 24.1821C54.2629 24.1971 54.5789 24.1068 54.8648 23.9714C55.2862 23.7758 55.7075 23.6102 56.1138 23.3996C56.5502 23.1889 56.9565 22.9632 57.3929 22.7375C57.4982 22.6923 57.6035 22.6321 57.6938 22.587C57.739 22.5719 57.7841 22.5418 57.8293 22.5118C57.9045 22.4817 57.9647 22.4666 58.0249 22.5418C58.0851 22.602 58.055 22.6622 57.9948 22.7074C57.9496 22.7525 57.8895 22.7977 57.8443 22.8278C57.4982 23.1287 57.107 23.3695 56.7157 23.5952C56.2191 23.8811 55.7226 24.152 55.2711 24.5131C54.9702 24.7539 54.594 25.0398 54.5187 25.431C54.4284 25.8825 54.8197 26.2135 55.241 26.2286C55.6473 26.2587 55.9934 26.0931 56.3546 25.9427C56.7609 25.7771 57.1822 25.6417 57.5885 25.4611C58.2205 25.1752 58.8224 24.8141 59.4544 24.5282C59.5447 24.483 59.62 24.468 59.7102 24.483C59.7554 24.483 59.8156 24.5131 59.8607 24.5432C59.9209 24.5884 59.9661 24.6485 59.9811 24.7388C59.9811 24.7539 59.9811 24.7539 59.9811 24.7689C59.9962 24.9194 59.951 25.0699 59.9059 25.2053C59.7855 25.5514 59.5598 25.8223 59.3641 26.1232C59.018 26.6349 58.7171 27.1766 58.4763 27.7484C58.371 28.0042 58.2506 28.2751 58.2055 28.561C58.1904 28.7115 58.1754 28.8619 58.2506 28.9974C58.3409 29.1479 58.4914 29.208 58.6719 29.2231C59.003 29.2381 59.3641 29.0726 59.635 28.877C60.0112 28.6061 60.3122 28.245 60.6282 27.9139C60.9893 27.5528 61.2903 27.1164 61.6063 26.7252C61.6665 26.6499 61.7267 26.5897 61.7718 26.5145C62.0276 26.1985 62.2834 25.8825 62.5393 25.5815C62.5844 25.5213 62.6446 25.4461 62.6897 25.3859C62.7349 25.3407 62.765 25.2806 62.8252 25.2505C62.8854 25.2204 62.9455 25.1903 63.0057 25.2204C63.1562 25.2655 63.1863 25.5063 63.2014 25.6417C63.2315 25.8373 63.2164 26.033 63.2014 26.2286V26.2436C63.1562 26.7101 63.0208 27.1766 62.9606 27.6431C62.9606 27.6581 62.9606 27.6581 62.9606 27.6732C62.9606 27.6882 62.9606 27.6882 62.9606 27.7033C62.9305 28.0193 62.9004 28.5158 63.1562 28.7265C63.2315 28.8018 63.3518 28.8469 63.5023 28.8319C63.5174 28.8319 63.5475 28.8319 63.5625 28.8319C64.0741 28.7867 64.4353 28.3503 64.6911 27.944C64.7061 27.9139 64.7362 27.8688 64.7513 27.8387C64.8115 27.7334 64.8717 27.6431 64.9319 27.5377C65.1726 27.1465 65.3983 26.7703 65.6241 26.3791C65.6843 26.2737 65.7445 26.1834 65.7896 26.0781C65.8347 25.9878 65.8799 25.9126 65.925 25.8223C65.9401 25.8223 65.9401 25.8072 65.9551 25.8072C66.0153 25.6718 66.0755 25.5364 66.1357 25.3859C66.557 24.3777 66.8429 23.3243 66.7527 22.286C66.7376 22.0302 66.6172 21.5336 66.7828 21.3079C66.9031 21.1424 67.0687 21.1273 67.2041 21.2176C67.2492 21.2477 67.2944 21.2929 67.3245 21.3531C67.6104 21.8195 67.8361 22.6472 67.9715 23.4447C69.2356 21.6239 71.3724 20.7511 72.9975 20.3449C73.765 20.1492 74.5324 20.0439 75.2698 20.0439C77.5721 20.0439 79.2875 21.0371 80.2957 21.97C84.5392 22.0152 87.6542 23.1889 88.241 23.4297L88.2711 23.4447L88.3012 23.4598C91.4312 24.8592 94.0044 26.5897 96.1562 28.7566C98.5338 31.1342 100.37 34.0535 101.604 37.4091C103.424 42.39 103.575 47.5063 102.01 52.2162C101.212 54.6239 99.9784 56.9262 98.3382 59.0781C96.9086 60.944 95.148 62.7046 93.1015 64.2997C93.2068 65.5035 92.936 66.7675 92.304 67.9563C91.4613 69.5062 90.0618 70.8004 88.3313 71.5979C87.1576 72.1396 85.8936 72.4255 84.6596 72.4255C83.4859 72.4255 82.4025 72.1848 81.4544 71.7333C81.8457 72.561 82.1767 73.4939 82.2068 74.1259C82.2068 74.2012 82.1918 74.2614 82.1767 74.3216C82.1165 74.4871 81.9661 74.5774 81.7554 74.5021C81.4695 74.3968 81.2739 73.9002 81.1535 73.6595C80.6268 72.6964 79.7691 71.944 78.8211 71.312C78.806 71.2969 78.791 71.2969 78.7759 71.2819C78.6555 71.2066 78.5502 71.1465 78.4298 71.0712C78.3094 71.011 78.189 70.9358 78.0687 70.8756C77.8128 70.7402 77.557 70.6198 77.3012 70.4994C77.1206 70.4091 76.925 70.3188 76.7444 70.2436C76.5338 70.1382 76.3081 70.048 76.0974 69.9426C76.0673 69.9276 76.0372 69.9125 76.0071 69.8975C75.5105 69.6718 74.9086 69.4912 74.412 69.8072C74.2164 69.9276 74.1562 70.0931 74.1562 70.2586C74.1713 70.5596 74.4271 70.9057 74.6076 71.1314C74.6377 71.1766 74.6829 71.2217 74.728 71.2668C75.044 71.6129 75.4052 71.9139 75.6911 72.275C75.8265 72.4406 75.9469 72.6211 76.0522 72.8017C76.1124 72.9372 76.2328 73.1478 76.1275 73.2833C76.0823 73.3434 76.0071 73.3585 75.9469 73.3585C75.8717 73.3585 75.8115 73.3434 75.7513 73.3134C75.1644 73.1328 74.5776 72.9522 73.9907 72.7716C73.464 72.6061 72.9524 72.4105 72.4257 72.3051C71.9442 72.2149 71.4777 72.0644 70.9811 72.0493C70.635 72.0343 70.2137 72.1095 69.9278 72.3202C69.7773 72.4255 69.687 72.576 69.687 72.7566C69.687 72.9221 69.7923 73.0425 69.8977 73.1629C70.0933 73.3886 70.3641 73.5541 70.62 73.7196C71.1617 74.0808 71.7636 74.3817 72.3655 74.6225C72.7267 74.773 73.0728 74.8783 73.3888 75.1191C73.5242 75.2244 73.6596 75.3298 73.7349 75.4953C73.765 75.5705 73.78 75.6458 73.7499 75.7361C73.6897 75.8865 73.5543 75.9618 73.4038 75.9919C72.6815 76.1123 71.9442 76.1423 71.2068 76.2778C70.7403 76.353 70.304 76.4884 69.8375 76.5787C69.4312 76.654 69.0249 76.7292 68.6788 76.985C68.3327 77.2559 68.1672 77.7826 68.5133 78.1136C68.8142 78.4146 69.3108 78.4447 69.7171 78.4748C70.319 78.5199 70.936 78.4748 71.5379 78.4296C72.0194 78.3995 72.5009 78.3845 72.9825 78.4447C73.0878 78.4597 73.3286 78.4296 73.2985 78.5952C73.2684 78.7607 73.0878 78.7306 72.9674 78.7607C72.847 78.7757 72.7267 78.7908 72.6063 78.8058C72.0947 78.866 71.5981 78.9112 71.0864 78.9713C70.6049 79.0315 70.1234 79.1218 69.6418 79.2121C69.3258 79.2573 68.9948 79.3626 68.739 79.5582C68.5283 79.7237 68.4681 80.0097 68.5885 80.2504C68.739 80.5514 69.0399 80.7019 69.3409 80.8222C69.7773 80.9878 70.2438 81.048 70.7102 81.0931C71.2821 81.1382 71.8388 81.1683 72.4107 81.1382C72.9223 81.1081 73.4339 81.1081 73.9606 81.1382C74.1863 81.1533 74.4421 81.1834 74.6528 81.3038C74.7581 81.364 74.8635 81.4542 74.9086 81.5596C74.9237 81.6047 74.9237 81.6499 74.9237 81.695C74.8936 81.7251 74.8484 81.7552 74.8033 81.7853C74.1863 82.0863 73.5994 82.4023 72.9975 82.7333C72.6063 82.944 72.1849 83.0794 71.8238 83.3352C71.6282 83.4857 71.3122 83.8017 71.4325 84.0726C71.5981 84.4337 72.2451 84.524 72.5762 84.5391C72.9825 84.5541 73.3888 84.524 73.7951 84.509C74.6979 84.4789 75.6008 84.4337 76.5037 84.3735C77.0304 84.3284 77.5721 84.2832 78.0988 84.208C78.4298 84.1629 78.7759 84.1177 79.107 84.0575C79.1672 84.0425 79.2274 84.0425 79.3026 84.0274C79.4832 83.9973 79.6637 83.9672 79.8443 83.9221C80.0399 83.8469 80.2506 83.7265 80.4312 83.591C80.5215 83.5309 80.6118 83.4556 80.702 83.3954C81.5146 82.7333 82.2971 81.9508 82.5981 80.9577C82.6432 80.8072 82.8388 80.115 83.0947 80.5213C83.2602 80.7921 83.1548 81.1984 83.0947 81.4693C83.0495 81.695 82.9893 81.9207 82.9141 82.1314C82.8689 82.2969 82.8087 82.4625 82.7636 82.643C82.6583 83.0042 82.568 83.3804 82.4175 83.7415C89.7458 83.275 96.8334 80.6116 102.717 75.9467C103.981 74.9536 105.155 73.8852 106.253 72.7566C106.449 72.9071 106.69 72.9973 106.946 73.0274C106.961 73.0274 106.976 73.0274 106.991 73.0274C107.186 72.4707 107.367 71.9289 107.532 71.3722C109.127 66.2258 109.985 60.7634 110 55.0904C110 55.0753 110 55.0603 110 55.0452C110 54.955 110 54.9249 110 54.8797Z" fill="white"/>
</g>
<defs>
<clipPath id="clip0">
<rect width="110" height="110" fill="white"/>
</clipPath>
</defs>
</svg>
