<svg width="109" height="114" viewBox="0 0 109 114" fill="none" xmlns="http://www.w3.org/2000/svg">
<path d="M105.573 30.985L102.805 29.9181L102.6 29.6258C102.556 29.5673 98.2792 23.4289 91.4685 17.4219C87.4993 13.9142 83.4422 11.1373 79.4437 9.17886C74.4931 6.75271 69.5865 5.55425 64.8703 5.62732H64.841H64.8117C64.6945 5.62732 61.8677 5.46656 60.4324 2.80655C60.242 2.44117 60.0809 2.35348 60.0516 2.35348C59.9637 2.33886 59.744 2.55809 59.7293 2.70425C59.7293 2.8504 59.7733 2.99655 59.8319 3.20117C60.1101 4.28271 60.2127 5.39348 58.543 7.27886C58.5137 7.30809 58.4844 7.33732 58.4551 7.38117C58.3819 7.45425 58.3086 7.54194 58.2354 7.62963C57.0197 8.97425 54.1783 12.1166 51.6151 16.3696C51.4687 16.6035 51.3368 16.8373 51.205 17.0712C51.5858 17.2466 51.9081 17.5096 52.1717 17.8312C53.0358 18.0796 53.6656 18.7373 53.8853 19.6727C54.1929 20.9881 53.402 21.8942 53.0944 22.2304C52.8308 22.5227 52.5964 22.8296 52.3767 23.1366C51.9959 23.6773 51.6737 24.2766 51.3368 24.9196C51.5419 24.9196 51.7323 24.9342 51.9081 24.9635C53.153 25.1681 54.0904 26.2058 54.1343 27.4335C54.149 27.945 54.0318 28.7342 53.3141 29.5235C52.9333 29.9473 52.5086 30.2542 52.1717 30.5027C52.0399 30.605 51.9081 30.6927 51.8055 30.7804C51.3954 31.1166 51 31.4819 50.6338 31.8619C50.4727 32.0227 50.3262 32.1981 50.1651 32.3881C50.1065 33.265 50.1065 34.1419 50.1505 35.0189C50.2969 37.3427 50.8535 39.6812 51.8055 41.8442C53.2995 43.7589 55.2328 45.995 57.5616 48.1873C58.0889 48.6696 58.6015 49.1519 59.1435 49.605C59.2899 49.5904 59.4364 49.5758 59.5829 49.5612C59.8172 49.5319 60.0369 49.4881 60.2713 49.4442C58.9091 48.0119 57.7667 46.375 56.8586 44.5919C55.9505 42.765 55.3207 40.8504 54.9838 38.8773C54.0465 38.7896 53.197 38.2489 52.7136 37.4304C52.1863 36.5243 52.157 35.3989 52.6697 34.4781C53.3581 33.2358 54.6763 30.8242 55.9212 28.5881C56.5364 26.8927 57.3566 25.2996 58.3819 23.8381C60.3152 21.0758 62.9369 18.825 65.9688 17.305C68.8249 15.8727 71.9007 15.1419 75.079 15.1419C78.7992 15.1419 82.4609 16.165 85.6538 18.0942C88.9347 20.0819 91.5857 22.9466 93.314 26.3812C95.7453 31.2335 96.1408 36.7435 94.4271 41.9027C92.7135 47.0619 89.0811 51.2273 84.2184 53.6681C83.5886 53.975 82.9588 54.2527 82.3144 54.5012C83.1639 55.9919 83.7644 57.6727 84.2477 59.4412C84.4382 59.4412 84.6286 59.4412 84.819 59.4266C84.9654 59.4266 85.1265 59.3973 85.3023 59.3681C85.5366 59.3243 85.8296 59.2658 86.1811 59.2658C86.4301 59.2658 86.7084 59.295 87.0159 59.3681C87.4114 59.4704 87.8508 59.7335 88.7296 60.2743C89.2422 60.5958 90.2529 61.2243 90.9412 61.5312C90.9266 61.3266 90.8973 61.1219 90.8827 60.9904C90.8387 60.5666 90.7948 60.2304 90.8241 59.9381C90.9705 58.155 91.571 56.6642 92.5231 55.5827C92.6695 55.4219 92.8453 55.2319 93.065 54.9835C94.5297 53.405 97.5761 50.1019 100.11 46.2435C101.487 44.1389 102.512 42.1804 103.171 40.3973C103.962 38.2489 104.226 36.3342 103.962 34.6827L103.947 34.5658V34.4489C103.977 33.6889 104.577 32.1835 106.555 31.8766C106.642 31.8619 106.686 31.8473 106.716 31.8327C106.628 31.6719 106.349 31.2919 105.573 30.985Z" fill="white"/>
<path d="M35.5621 54.9102C38.052 56.1233 40.3222 57.0148 42.3728 57.6725C42.3142 57.1318 42.2409 56.5764 42.2263 56.0356C42.1824 54.6179 42.5192 53.2148 43.2809 51.9871C44.8041 49.5317 47.6602 48.3771 50.4723 48.3771C50.6628 48.3771 50.8678 48.3771 51.0582 48.3917C52.1128 48.4502 53.1234 48.6694 54.1486 48.9179C52.9623 47.6464 51.937 46.2433 51.0875 44.7379C50.2819 43.3348 49.6375 41.8294 49.1542 40.2802C48.8173 39.2133 48.5683 38.1171 48.4072 37.0064C48.3193 36.3779 48.2461 35.7494 48.2021 35.121C48.1289 33.9371 48.1582 32.7679 48.2607 31.6279C48.5536 31.2479 48.8759 30.8971 49.1834 30.5464C49.6082 30.0933 50.0622 29.684 50.5309 29.2894C50.9703 28.9387 51.4537 28.6464 51.8345 28.2371C52.0249 28.0325 52.186 27.7694 52.1714 27.4917C52.1567 27.141 51.8784 26.8779 51.5415 26.8194C51.439 26.8048 51.3218 26.7902 51.2193 26.7902C51.0289 26.7902 50.8385 26.8048 50.6628 26.8048C50.5309 26.8048 50.3845 26.7902 50.2526 26.761C49.8425 26.6733 49.4324 26.4687 49.2274 26.0887C49.0223 25.7087 49.0809 25.1971 49.1981 24.7879C49.1981 24.7733 49.1981 24.7587 49.2127 24.744C49.7107 23.8087 50.1648 22.8587 50.7946 21.9817C51.0582 21.6164 51.3365 21.2656 51.6294 20.9294C51.8491 20.681 52.0688 20.4033 51.9956 20.0525C51.9077 19.7017 51.6734 19.5848 51.3658 19.5848C51.234 19.5848 51.0729 19.614 50.9264 19.6433C50.5456 19.8479 49.9158 20.2133 49.2713 20.7102C48.6415 21.2071 48.0117 21.821 47.6309 22.5517C47.5723 22.6687 47.4258 22.7125 47.3087 22.654C47.2794 22.6394 47.2647 22.6248 47.2354 22.5956C47.2208 22.581 47.2062 22.5517 47.1915 22.5371C47.1622 22.4787 47.1622 22.4056 47.2061 22.3325C47.3087 22.1425 47.4258 21.9525 47.5577 21.7771C48.0117 21.134 48.6708 20.5202 49.535 19.9356C49.5789 19.9064 49.6375 19.8625 49.6814 19.8333C50.1062 19.5556 50.5016 19.3364 50.7506 19.2048C50.692 18.9856 50.5309 18.7956 50.2526 18.7079C50.2234 18.6933 50.1794 18.6933 50.1355 18.6787C50.0622 18.664 49.9744 18.664 49.9011 18.664C49.6228 18.664 49.3592 18.7371 49.1102 18.781C49.037 18.8248 48.9491 18.8687 48.8319 18.9271C48.3486 19.1902 47.6016 19.6433 46.9279 20.2425C46.4445 20.6664 45.9905 21.1779 45.6975 21.7333C45.639 21.8502 45.4925 21.894 45.3753 21.8356C45.3167 21.8064 45.2874 21.7625 45.2581 21.7187C45.2289 21.6602 45.2289 21.5871 45.2728 21.514C45.6829 20.7394 46.3859 19.994 47.3526 19.2779C47.4258 19.2194 47.5137 19.161 47.6016 19.1025C47.9971 18.8248 48.3632 18.6202 48.6415 18.474C48.5536 18.3133 48.4365 18.1525 48.3193 18.094C48.2168 18.0356 48.0996 18.0064 47.9824 17.9917C47.9385 17.9917 47.8799 17.9771 47.836 17.9771C47.7041 17.9771 47.5723 17.9917 47.4551 18.021C47.0597 18.211 44.7602 19.3656 43.8814 21.061C43.8228 21.1779 43.6763 21.2217 43.5591 21.1633C43.5006 21.134 43.4713 21.0902 43.442 21.0464C43.4127 20.9879 43.4127 20.9148 43.4566 20.8417C43.896 19.994 44.6723 19.1902 45.7854 18.4302C46.1223 18.1964 46.4299 18.021 46.6935 17.8748C46.5763 17.8017 46.4592 17.7287 46.3859 17.714C46.2834 17.6994 46.1955 17.6848 46.093 17.6848C44.7309 17.6848 43.4127 19.2194 42.5192 20.0379C41.2743 21.1779 40.1465 22.4787 39.1944 23.8671C32.7792 33.2356 30.7726 44.6356 35.5621 54.8664C35.5474 54.9102 35.5621 54.9102 35.5621 54.9102Z" fill="white"/>
<path d="M39.0921 97.6895C38.9456 97.6164 38.7699 97.5287 38.5795 97.441C37.1295 96.7687 34.9618 95.7602 34.5224 93.5679C34.4638 93.2902 34.4784 93.0271 34.5077 92.7933C34.2734 92.3402 34.0683 91.7264 34.1562 91.0248C34.1855 90.8348 34.2294 90.6302 34.3027 90.4548C34.2001 90.2356 34.1123 89.9725 34.0683 89.6802C33.9511 89.0079 34.0683 88.3502 34.4052 87.7948C34.3905 87.6048 34.3905 87.4148 34.4198 87.2395C34.5224 86.5525 34.9032 85.9533 35.5037 85.5441C35.9284 85.2664 36.4264 85.1056 36.939 85.1056C37.481 85.1056 37.935 85.2664 38.1694 85.3687C38.5355 85.5002 38.9017 85.6171 39.2679 85.7195C39.9123 85.8948 40.586 85.9679 41.3037 86.0556C41.2451 85.8948 41.1866 85.7048 41.1426 85.5002C40.8936 84.2725 41.5234 83.0302 42.6659 82.5479C43.0027 82.4018 43.3543 82.3287 43.7204 82.3287C44.1159 82.3287 44.4967 82.4018 44.9214 82.5625C45.4487 82.7671 45.8881 83.0448 46.2396 83.2787C46.3861 83.3664 46.5179 83.4541 46.6351 83.5271C47.0891 83.7902 47.5725 84.0241 48.0705 84.2287C48.2902 84.3164 48.4952 84.4041 48.7296 84.4771C49.5644 84.2141 50.3993 83.9071 51.1902 83.5564C53.7533 82.4018 56.1114 80.6625 58.0155 78.5287C59.1433 77.2571 60.1246 75.8248 60.9155 74.3195C61.0766 74.0125 61.2231 73.7202 61.3549 73.4133C61.4867 73.1064 61.6186 72.7995 61.7504 72.4925C61.9261 72.0541 62.0873 71.6302 62.2191 71.1918C62.9075 69.0141 62.9807 66.7487 63.0686 64.3518C63.1418 62.2033 63.215 59.9818 63.7716 57.8187C63.9181 57.2779 64.0792 56.7518 64.2842 56.2402C64.4014 55.9187 64.5479 55.6118 64.6944 55.3195C64.7236 55.2756 64.7383 55.2171 64.7676 55.1733C64.8848 54.9395 65.0166 54.7056 65.1484 54.4864C65.207 54.3695 65.2802 54.2671 65.3535 54.1502C65.456 53.9895 65.5585 53.8287 65.6757 53.6679C65.705 53.6387 65.7196 53.5948 65.7489 53.5656C65.3095 53.3464 64.8848 53.1125 64.46 52.8495C63.6837 52.3818 62.9368 51.8556 62.2337 51.3002C61.9847 51.3879 61.7357 51.461 61.4867 51.5341C61.3256 51.5779 61.1645 51.6218 61.0034 51.651C60.6665 51.7241 60.3297 51.7971 59.9781 51.841C59.9342 51.841 59.8756 51.8556 59.8317 51.8702C59.6999 51.8848 59.568 51.8995 59.4362 51.9141C59.114 51.9433 58.7918 51.9579 58.4549 51.9579C58.3817 51.9579 58.3231 51.9579 58.2499 51.9579C58.0302 51.9579 57.8251 51.9433 57.62 51.9287C56.3311 51.841 55.1301 51.5633 53.973 51.2856C52.9185 51.0371 51.9079 50.7887 50.9412 50.7448C50.7947 50.7302 50.6336 50.7302 50.4872 50.7302C48.2023 50.7302 46.2543 51.6656 45.2876 53.2295C44.7896 54.0333 44.5553 54.9833 44.5846 55.9625C44.5992 56.4302 44.6578 56.9564 44.7164 57.4241L45.1265 61.0048L41.6845 59.9233C40.3224 59.4995 38.9017 58.9733 37.4517 58.3595C36.9537 58.1402 36.4411 57.921 35.9284 57.6871C35.4744 57.4825 35.0203 57.2633 34.5516 57.0441C34.5224 57.0295 34.4931 57.0148 34.4638 57.0002C31.388 55.5241 28.0046 54.7641 24.4308 54.7641C20.447 54.7641 16.1409 55.6848 11.6444 57.4971C8.61252 58.7248 5.55138 60.3325 2.51953 62.2764C2.69529 67.8595 3.77914 73.3256 5.74178 78.5287C7.77766 83.9364 10.707 88.9495 14.4419 93.3925C18.1621 97.821 22.5561 101.548 27.5213 104.5C31.886 107.102 36.5875 109.016 41.4941 110.215C41.5674 109.806 41.6553 109.411 41.7431 109.016C42.3876 106.196 43.3689 103.579 44.4088 100.919C44.5699 100.525 44.731 100.13 44.8921 99.7356C44.6871 99.6918 44.4967 99.6479 44.2916 99.6041C42.5047 99.151 40.7618 98.5225 39.0921 97.6895ZM23.2591 69.4087C23.2591 69.4087 22.2339 61.3848 24.9874 59.061C26.9647 57.3948 28.9566 57.921 30.2895 59.5141C31.0951 60.4641 31.344 61.7064 31.0658 62.8318C32.2228 62.7441 33.4092 63.1971 34.2148 64.1618C35.5623 65.7548 35.3572 68.1225 33.7607 69.4671C31.139 71.6741 23.2591 69.4087 23.2591 69.4087Z" fill="white"/>
<path d="M73.7751 45.732C73.863 45.6736 73.9362 45.6005 74.0388 45.542C74.8004 45.162 75.3277 44.4605 75.7231 43.7297C76.0307 43.1451 76.1479 42.2974 76.5287 41.7859C77.1292 40.9528 78.6378 41.7128 79.458 41.6251C81.3914 41.4351 83.1197 37.3428 80.4393 34.8874C79.6777 34.1859 78.6964 33.8351 77.6858 34.2151C76.6312 34.6097 76.06 36.2028 74.859 36.0274C74.1706 35.9251 73.5261 35.589 72.8963 35.3405C71.915 34.9605 70.9776 34.4636 70.0988 33.8936C68.3412 32.7536 66.8033 31.292 65.4998 29.6551C64.2548 28.1059 63.1856 26.4105 62.2921 24.642C62.2336 24.5397 61.926 23.9697 61.6477 23.429C61.1497 23.9843 60.681 24.569 60.2563 25.1682C59.3042 26.5274 58.5572 27.989 58.0153 29.5382C56.7557 31.8036 55.3936 34.2736 54.6759 35.589C54.4415 36.0128 54.7491 36.539 55.2325 36.539C55.2325 36.539 55.2325 36.539 55.2471 36.539L57.034 36.5097C57.1658 38.8774 57.781 41.2743 58.9088 43.5251C59.9047 45.4982 61.1936 47.2082 62.7315 48.6259C63.0538 48.9182 63.376 49.2105 63.7129 49.4736C64.0644 49.7513 64.4159 50.0143 64.7967 50.2774C65.6169 50.8328 66.4664 51.3297 67.3599 51.7536C67.4624 51.6659 67.5503 51.5636 67.6528 51.4759L68.3851 50.8182L68.517 50.7013L68.6781 50.6136C69.8791 49.8828 71.9003 49.1082 73.9362 49.1082C74.2877 49.1082 74.6393 49.1374 74.9615 49.1813C75.108 49.1959 75.2544 49.2251 75.4009 49.2543C75.2837 49.1666 75.1519 49.079 75.0347 48.9766C74.6539 48.699 74.2877 48.392 73.9362 48.0851C73.863 48.0266 73.7898 47.9536 73.7165 47.8951C73.3064 47.5297 73.116 47.1936 73.1014 46.8866C73.0428 46.4774 73.3064 46.112 73.7751 45.732ZM61.4866 42.1366C61.1204 42.3266 60.6664 42.1659 60.476 41.8005C60.2856 41.4351 60.4467 40.982 60.8128 40.792C61.179 40.602 61.633 40.7628 61.8235 41.1282C61.9992 41.5082 61.8527 41.9466 61.4866 42.1366ZM62.2043 34.5805L61.6184 35.472C61.5159 35.6182 61.3255 35.662 61.179 35.5597C61.0325 35.4574 60.9886 35.2674 61.0911 35.1213L61.7063 34.1859C61.6623 34.142 61.6184 34.0982 61.5745 34.0543C61.3548 33.8351 61.1644 33.5866 61.0179 33.309L60.1244 33.8205C59.978 33.9082 59.7729 33.8497 59.685 33.7036C59.5972 33.5574 59.6557 33.3528 59.8022 33.2651L60.7542 32.7243C60.681 32.5051 60.6224 32.2713 60.5931 32.0374C60.5492 31.7451 60.7542 31.482 61.0472 31.4528C61.2522 31.4236 61.4573 31.5259 61.5598 31.6866L61.5891 31.7305C62.131 32.5782 62.8634 33.119 63.6836 33.3528C64.4891 33.6451 65.3972 33.6305 66.3346 33.2797L66.3786 33.2651C66.569 33.192 66.774 33.2359 66.9351 33.382C67.1402 33.5866 67.1548 33.9082 66.9498 34.1274C66.9205 34.1566 66.9058 34.1713 66.8765 34.2005L67.6968 34.9313C67.8286 35.0482 67.8432 35.2528 67.7261 35.3843C67.6089 35.5159 67.4038 35.5305 67.272 35.4136L66.3786 34.6243C66.1589 34.7705 65.9099 34.902 65.6609 35.0043L66.0417 36.0128C66.1003 36.1736 66.027 36.3636 65.8513 36.422C65.6902 36.4805 65.4998 36.4074 65.4412 36.232L65.0457 35.1797C65.0164 35.1797 65.0018 35.1943 64.9725 35.1943C64.5917 35.2674 64.1962 35.2674 63.8007 35.209L63.6689 36.1882C63.6396 36.3636 63.4785 36.4805 63.3028 36.4659C63.127 36.4366 63.0098 36.2759 63.0245 36.1005L63.1563 35.0628C63.1417 35.0628 63.1416 35.0628 63.127 35.0482C62.8048 34.9166 62.4972 34.7705 62.2043 34.5805Z" fill="white"/>
<path d="M82.7982 61.7501C82.7103 61.3555 82.6224 60.9755 82.5199 60.5809C82.4174 60.1863 82.3149 59.7917 82.1977 59.397C81.7583 57.8917 81.1871 56.4009 80.3962 55.1001C80.1765 54.7494 79.9421 54.3986 79.6931 54.077C79.4148 53.7263 79.1073 53.3901 78.785 53.0832C78.5653 52.8786 78.331 52.674 78.082 52.4986C77.6279 52.1624 77.1153 51.8701 76.5734 51.6363C76.2805 51.5193 75.9729 51.4024 75.6507 51.3147C75.5921 51.2855 75.5335 51.2709 75.4602 51.2417C75.0941 51.1101 74.6986 51.037 74.3032 51.0224C74.186 51.0078 74.0542 51.0078 73.937 51.0078C72.4137 51.0078 70.7587 51.5778 69.6602 52.2355C69.543 52.3378 69.4258 52.4401 69.3233 52.5424C69.1915 52.6594 69.0597 52.7763 68.9425 52.8932C68.7375 53.0686 68.5471 53.2586 68.3713 53.4486C68.0784 53.7555 67.8001 54.077 67.5511 54.384C67.5218 54.4278 67.4778 54.4717 67.4486 54.5155C67.3021 54.7055 67.1703 54.9101 67.0385 55.1147C66.9945 55.1878 66.9506 55.2463 66.9066 55.3194C66.7455 55.5824 66.5991 55.8601 66.4526 56.1378V56.1524C66.2768 56.5032 66.1304 56.854 65.9985 57.2193C64.3728 61.6917 65.6324 66.8801 64.0798 71.7909C63.992 72.0686 63.9041 72.3317 63.8016 72.5947C63.6844 72.9163 63.5672 73.2232 63.4354 73.5447C63.3036 73.8663 63.1717 74.1732 63.0253 74.4947C62.6152 75.3717 62.1465 76.2193 61.6192 77.0232C59.9495 79.6247 57.7672 81.8609 55.1894 83.5709C54.1934 84.2432 53.1388 84.8278 52.0257 85.3247C50.9418 85.807 49.8433 86.2017 48.7448 86.5086C48.2908 86.3624 47.8368 86.2016 47.412 86.0263C46.8408 85.7924 46.2842 85.5147 45.7569 85.2224C45.2736 84.9447 44.8342 84.5793 44.3069 84.3894C44.1458 84.3309 43.9701 84.287 43.7943 84.287C43.6918 84.287 43.5892 84.3017 43.4867 84.3455C43.1645 84.477 43.018 84.8424 43.0766 85.1786C43.1645 85.6024 43.4281 85.9678 43.5014 86.4063C43.56 86.8155 43.516 87.2686 43.2231 87.6047C42.9448 87.9409 42.4468 88.0578 42.0221 88.1017C42.0074 88.1017 41.9928 88.1017 41.9781 88.1017C40.9236 87.9701 39.869 87.897 38.8291 87.6193C38.4043 87.5024 37.9649 87.3709 37.5548 87.2101C37.3644 87.137 37.174 87.0786 36.9836 87.0786C36.8518 87.0786 36.7346 87.1078 36.6028 87.1955C36.1634 87.4878 36.3099 87.9263 36.6028 88.3355C37.2326 88.8909 38.873 90.1917 40.4988 90.3817C40.6306 90.3963 40.7185 90.5132 40.7039 90.6447C40.7039 90.7032 40.6746 90.747 40.6306 90.7909C40.5867 90.8347 40.5135 90.864 40.4402 90.8493C39.5028 90.747 38.4629 90.294 37.3644 89.534C36.8811 89.1978 36.4856 88.8616 36.2513 88.657C36.0316 88.8178 35.9144 89.0663 35.973 89.417C36.0316 89.7678 36.2659 90.0455 36.4271 90.3378C36.969 90.8347 38.6973 92.267 40.4109 92.457C40.5427 92.4716 40.6306 92.5886 40.616 92.7201C40.616 92.7786 40.5867 92.8224 40.5427 92.8663C40.4988 92.9101 40.4256 92.9393 40.3523 92.9247C39.415 92.8224 38.3751 92.3693 37.2766 91.6093C36.8811 91.3316 36.5589 91.0686 36.3099 90.864C36.1927 90.9955 36.0902 91.1709 36.0755 91.2878C36.0462 91.5801 36.1634 91.8724 36.3245 92.1209C36.6468 92.4278 38.5508 94.1524 40.4402 94.3717C40.572 94.3863 40.6599 94.5032 40.6453 94.6347C40.6453 94.6932 40.616 94.737 40.572 94.7809C40.5281 94.8247 40.4549 94.854 40.3816 94.8393C39.4443 94.737 38.4043 94.284 37.3059 93.524C36.969 93.2901 36.6907 93.0709 36.4563 92.8809C36.4271 93.0124 36.3978 93.144 36.4124 93.217C36.7053 94.664 38.7998 95.424 39.9715 95.994C41.4948 96.754 43.0913 97.3386 44.7463 97.7332C45.0539 97.8063 45.3761 97.8793 45.6837 97.9524C46.0792 98.0401 46.4746 98.1132 46.8701 98.1863C47.2655 98.2593 47.6756 98.3324 48.0711 98.3909C49.9019 98.6686 51.7328 98.8001 53.5489 98.8001C62.4394 98.8001 70.8612 95.4386 76.8077 88.1163C82.4906 81.1155 84.9219 71.7032 83.0618 62.8463C82.9739 62.4809 82.8861 62.1155 82.7982 61.7501Z" fill="white"/>
<path d="M106.408 28.8063L104.313 28.0025C103.361 26.6725 99.2893 21.2063 93.0498 15.711C88.9195 12.0571 84.6866 9.16326 80.483 7.10249C75.1956 4.50095 69.9521 3.22941 64.8551 3.30249C64.6208 3.27326 63.2001 3.08326 62.4531 1.70941C61.3839 -0.263664 59.8167 -0.0152021 59.3627 0.101721C58.1763 0.42326 57.2828 1.60711 57.3414 2.79095C57.3561 3.18557 57.444 3.52172 57.5172 3.7848C57.649 4.32557 57.7369 4.61788 56.7409 5.72865C56.653 5.81634 56.5505 5.93326 56.448 6.0648C56.1843 6.35711 55.8475 6.73711 55.4374 7.19018C31.827 6.31326 9.63744 21.2648 2.37273 44.8833C-6.29806 73.091 9.57886 102.965 37.8468 111.632C66.1147 120.284 96.0524 104.441 104.723 76.2333C108.136 65.1256 107.74 53.7694 104.298 43.5387C105.763 40.5279 106.657 37.4002 106.246 34.5063C106.305 34.3748 106.451 34.2287 106.847 34.1702C108.033 33.9948 108.868 33.1763 108.985 32.0802C109.103 31.0133 108.487 29.5956 106.408 28.8063ZM106.495 31.861C104.518 32.1679 103.918 33.6733 103.888 34.4333V34.5502L103.903 34.6671C104.167 36.3187 103.903 38.2333 103.112 40.3817C102.453 42.1648 101.428 44.1233 100.051 46.2279C97.517 50.101 94.4706 53.3894 93.0059 54.9679C92.7862 55.2164 92.5958 55.4064 92.464 55.5671C91.4973 56.634 90.9114 58.1394 90.765 59.9225C90.7357 60.2148 90.7796 60.551 90.8235 60.9748C90.8382 61.121 90.8675 61.3256 90.8821 61.5156C90.1937 61.2087 89.1685 60.5802 88.6705 60.2587C87.7917 59.7179 87.3523 59.4402 86.9568 59.3525C86.6493 59.2794 86.371 59.2502 86.122 59.2502C85.7705 59.2502 85.4775 59.3087 85.2432 59.3525C85.0674 59.3817 84.921 59.411 84.7599 59.411C84.5695 59.411 84.379 59.411 84.1886 59.4256C83.7053 57.6717 83.0901 55.9763 82.2553 54.4856C82.8997 54.2371 83.5295 53.9594 84.1593 53.6525C89.022 51.2264 92.6544 47.0464 94.368 41.8871C96.0817 36.7279 95.6862 31.2179 93.2549 26.3656C91.5266 22.931 88.8756 20.0663 85.5947 18.0786C82.4018 16.1494 78.7401 15.1263 75.0199 15.1263C71.8416 15.1263 68.7804 15.8571 65.9097 17.2894C62.8778 18.8094 60.2561 21.0602 58.3227 23.8225C57.2975 25.284 56.4773 26.8771 55.8621 28.5725C54.6172 30.8233 53.299 33.2202 52.6106 34.4625C52.0979 35.3833 52.1272 36.5087 52.6545 37.4148C53.1378 38.2333 53.9874 38.774 54.9247 38.8617C55.2616 40.8348 55.8914 42.7494 56.7995 44.5764C57.6929 46.374 58.85 47.9964 60.2122 49.4287C59.9925 49.4725 59.7581 49.5163 59.5238 49.5456C59.3773 49.5602 59.2308 49.5748 59.0844 49.5894C58.5571 49.1363 58.0298 48.654 57.5025 48.1717C55.1591 45.9648 53.2404 43.7433 51.7464 41.8287C50.809 39.6656 50.2378 37.3271 50.0914 35.0033C50.0328 34.141 50.0474 33.2494 50.106 32.3725C50.2525 32.1971 50.4136 32.0217 50.5747 31.8463C50.9409 31.4517 51.3363 31.0863 51.7464 30.7648C51.8489 30.6771 51.9808 30.5894 52.1126 30.4871C52.4495 30.2387 52.8742 29.9317 53.255 29.5079C53.9727 28.704 54.1045 27.9294 54.0752 27.4179C54.0166 26.1902 53.0793 25.1525 51.8489 24.9479C51.6732 24.9186 51.4828 24.904 51.2777 24.904C51.6146 24.261 51.9368 23.6617 52.3176 23.121C52.5373 22.814 52.7863 22.5071 53.0353 22.2148C53.3283 21.8786 54.1192 20.9725 53.8262 19.6571C53.6065 18.7363 52.9767 18.064 52.1126 17.8156C51.8636 17.4794 51.5267 17.231 51.1459 17.0556C51.2777 16.8217 51.4095 16.5879 51.556 16.354C54.1485 12.0863 56.9753 8.94403 58.1909 7.59942C58.2788 7.51172 58.352 7.42403 58.4106 7.35095C58.4399 7.32172 58.4692 7.27788 58.4985 7.24865C60.1829 5.36326 60.0657 4.23788 59.7874 3.17095C59.7288 2.96634 59.6995 2.82018 59.6849 2.67403C59.6995 2.54249 59.9192 2.32326 60.0071 2.32326C60.0364 2.32326 60.1975 2.42557 60.3879 2.77634C61.8233 5.43634 64.6501 5.59711 64.7673 5.59711H64.7965H64.8258C69.542 5.52403 74.4486 6.72249 79.3992 9.14865C83.4124 11.1217 87.4548 13.884 91.4241 17.3917C98.2347 23.3986 102.512 29.5371 102.555 29.5956L102.761 29.8879L105.529 30.9548C106.32 31.2617 106.583 31.6271 106.613 31.7733C106.627 31.8171 106.583 31.8463 106.495 31.861ZM83.0462 62.8456C84.9063 71.6879 82.475 81.1148 76.7921 88.1156C70.8456 95.4379 62.4238 98.7994 53.5333 98.7994C51.7171 98.7994 49.8863 98.6533 48.0555 98.3902C47.66 98.3317 47.2499 98.2587 46.8545 98.1856C46.459 98.1125 46.0635 98.0394 45.6681 97.9518C45.3605 97.8787 45.0383 97.8202 44.7307 97.7325C43.0756 97.3379 41.4792 96.7533 39.9559 95.9933C38.7988 95.4087 36.6897 94.6633 36.3968 93.2164C36.3821 93.1433 36.4114 93.0117 36.4407 92.8802C36.6604 93.0702 36.9534 93.2894 37.2902 93.5233C38.3887 94.2833 39.4286 94.7364 40.366 94.8387C40.4392 94.8533 40.5125 94.8241 40.5564 94.7802C40.6004 94.7364 40.6297 94.6925 40.6297 94.6341C40.6443 94.5025 40.5564 94.3856 40.4246 94.371C38.5352 94.1517 36.6311 92.4271 36.3089 92.1202C36.1478 91.8571 36.0306 91.5794 36.0599 91.2871C36.0746 91.1556 36.1771 90.9948 36.2943 90.8633C36.5286 91.0679 36.8655 91.331 37.2609 91.6087C38.3594 92.3687 39.3993 92.8217 40.3367 92.924C40.41 92.9387 40.4832 92.9094 40.5271 92.8656C40.5711 92.8217 40.6004 92.7779 40.6004 92.7194C40.615 92.5879 40.5271 92.471 40.3953 92.4564C38.6817 92.2664 36.9534 90.8194 36.4114 90.3371C36.2357 90.0448 36.016 89.7671 35.9574 89.4164C35.8988 89.0656 36.0306 88.8171 36.2357 88.6564C36.47 88.861 36.8655 89.1971 37.3488 89.5333C38.4473 90.2933 39.4872 90.7464 40.4246 90.8487C40.4978 90.8633 40.5711 90.8341 40.615 90.7902C40.6589 90.7464 40.6882 90.7025 40.6882 90.6441C40.7029 90.5125 40.615 90.3956 40.4832 90.381C38.8574 90.191 37.217 88.8902 36.5872 88.3348C36.2943 87.9402 36.1478 87.4871 36.5872 87.1948C36.7044 87.1071 36.8362 87.0779 36.968 87.0779C37.1584 87.0779 37.3488 87.151 37.5392 87.2094C37.964 87.3702 38.3887 87.5017 38.8135 87.6187C39.8534 87.8964 40.8933 87.9694 41.9625 88.101C41.9771 88.101 41.9918 88.101 42.0064 88.101C42.4165 88.0571 42.9292 87.9402 43.2075 87.6041C43.4857 87.2825 43.5297 86.8294 43.4857 86.4056C43.4272 85.9671 43.1489 85.6017 43.061 85.1779C42.9878 84.8417 43.1489 84.491 43.4711 84.3448C43.5736 84.301 43.6761 84.2864 43.7787 84.2864C43.9544 84.2864 44.1302 84.3302 44.2913 84.3887C44.8186 84.5933 45.258 84.944 45.7413 85.2217C46.2686 85.5287 46.8252 85.7917 47.3964 86.0256C47.8211 86.201 48.2752 86.3617 48.7292 86.5079C49.8424 86.201 50.9409 85.8064 52.0101 85.3241C53.1086 84.8271 54.1631 84.2425 55.1737 83.5702C57.7515 81.8456 59.9339 79.6094 61.6036 77.0225C62.1309 76.2187 62.5849 75.371 63.0097 74.494C63.1561 74.1871 63.2879 73.8656 63.4198 73.5441C63.5516 73.2371 63.6688 72.9156 63.7859 72.594C63.8885 72.331 63.9763 72.0533 64.0642 71.7902C65.6314 66.8794 64.3571 61.691 65.9829 57.2187C66.1147 56.8533 66.2612 56.5025 66.437 56.1517V56.1371C66.5688 55.8594 66.7152 55.5817 66.891 55.3187C66.9349 55.2456 66.9789 55.1871 67.0228 55.114C67.1546 54.9094 67.2865 54.7194 67.4329 54.5148C67.4622 54.471 67.5062 54.4271 67.5355 54.3833C67.7844 54.0617 68.0481 53.7548 68.3557 53.4479C68.5314 53.2579 68.7218 53.0825 68.9269 52.8925C69.0587 52.7756 69.1905 52.6587 69.3077 52.5417C69.4249 52.4394 69.542 52.3371 69.6446 52.2348C70.7431 51.5771 72.4128 51.0071 73.9214 51.0071C74.0532 51.0071 74.1704 51.0071 74.2875 51.0217C74.6976 51.051 75.0931 51.124 75.4446 51.241C75.5032 51.2556 75.5618 51.2848 75.635 51.314C75.9573 51.4017 76.2648 51.504 76.5578 51.6356C77.1143 51.8694 77.6123 52.1617 78.0664 52.4979C78.3154 52.6733 78.5497 52.8779 78.7694 53.0825C79.0916 53.3894 79.3992 53.7256 79.6775 54.0764C79.9265 54.3979 80.1608 54.7487 80.3805 55.0994C81.1714 56.4002 81.7427 57.891 82.1821 59.3964C82.2992 59.791 82.4018 60.1856 82.5043 60.5802C82.6068 60.9748 82.6947 61.3694 82.7826 61.7494C82.8851 62.1148 82.973 62.4802 83.0462 62.8456ZM41.7281 109.001C41.6403 109.396 41.5524 109.79 41.4792 110.199C36.5579 109.001 31.871 107.086 27.5063 104.485C22.5557 101.533 18.1471 97.8056 14.4269 93.3771C10.692 88.9194 7.76268 83.921 5.7268 78.4987C3.76416 73.2956 2.69496 67.8294 2.50455 62.2464C5.5364 60.3025 8.59754 58.6948 11.6294 57.4671C16.1259 55.6548 20.4173 54.734 24.4159 54.734C28.0043 54.734 31.373 55.494 34.4488 56.9702C34.4781 56.9848 34.5074 56.9994 34.5367 57.014C34.9907 57.2333 35.4594 57.4525 35.9134 57.6571C36.4261 57.891 36.9387 58.1102 37.4367 58.3294C38.8867 58.9433 40.3074 59.4694 41.6696 59.8933L45.1115 60.9748L44.7014 57.394C44.6428 56.9264 44.5842 56.4148 44.5696 55.9325C44.5403 54.9387 44.7746 54.0033 45.2726 53.1994C46.2393 51.6356 48.1873 50.7002 50.4722 50.7002C50.6186 50.7002 50.7797 50.7002 50.9262 50.7148C51.8929 50.7733 52.9035 51.0071 53.9581 51.2556C55.1151 51.5333 56.3162 51.811 57.6051 51.8987C57.8101 51.9133 58.0298 51.9279 58.2349 51.9279C58.3081 51.9279 58.3667 51.9279 58.4399 51.9279C58.7621 51.9279 59.099 51.9133 59.4212 51.884C59.5531 51.8694 59.6849 51.8548 59.8167 51.8402C59.8606 51.8402 59.9192 51.8256 59.9632 51.811C60.3147 51.7671 60.6516 51.694 60.9884 51.621C61.1495 51.5771 61.3107 51.5479 61.4718 51.504C61.7208 51.431 61.9844 51.3579 62.2187 51.2702C62.9218 51.8402 63.6688 52.3517 64.445 52.8194C64.8698 53.0679 65.2945 53.3163 65.7339 53.5356C65.7046 53.5648 65.69 53.6087 65.6607 53.6379C65.5435 53.7987 65.441 53.9594 65.3385 54.1202C65.2652 54.2225 65.2066 54.3394 65.1334 54.4564C65.0016 54.6756 64.8698 54.9094 64.7526 55.1433C64.7233 55.1871 64.7087 55.2456 64.6794 55.2894C64.5329 55.5964 64.4011 55.9033 64.2693 56.2102C64.0642 56.7217 63.9031 57.2333 63.7566 57.7887C63.2001 59.9371 63.1268 62.1733 63.0536 64.3217C62.9804 66.7187 62.8925 68.984 62.2041 71.1617C62.0576 71.6002 61.9112 72.0387 61.7354 72.4625C61.6182 72.7694 61.4864 73.0764 61.3399 73.3833C61.1935 73.6902 61.047 73.9971 60.9005 74.2894C60.1096 75.8094 59.143 77.2271 58.0005 78.4987C56.1111 80.6325 53.753 82.3717 51.1752 83.5264C50.3843 83.8917 49.5494 84.1987 48.7146 84.4471C48.4949 84.374 48.2752 84.2864 48.0555 84.1987C47.5575 83.994 47.0742 83.7602 46.6201 83.4971C46.5029 83.424 46.3711 83.3364 46.2247 83.2487C45.8731 83.0148 45.4337 82.7371 44.9065 82.5325C44.4964 82.3717 44.1009 82.2987 43.7054 82.2987C43.3393 82.2987 42.9731 82.3717 42.6509 82.5179C41.5231 83.0002 40.8786 84.2425 41.1276 85.4702C41.1716 85.6748 41.2302 85.8648 41.2887 86.0256C40.5711 85.9379 39.8827 85.8502 39.2529 85.6894C38.8867 85.5871 38.5205 85.4702 38.1544 85.3387C37.9054 85.251 37.466 85.0756 36.9241 85.0756C36.4114 85.0756 35.9134 85.2217 35.4887 85.514C34.8882 85.9233 34.4927 86.5225 34.4048 87.2094C34.3756 87.3994 34.3756 87.5894 34.3902 87.7648C34.0533 88.3202 33.9362 88.9779 34.0533 89.6502C34.1119 89.9425 34.1998 90.2056 34.2877 90.4248C34.2144 90.6148 34.1705 90.8048 34.1412 90.9948C34.0533 91.6964 34.2584 92.2956 34.4927 92.7633C34.4634 92.9971 34.4488 93.2456 34.5074 93.5379C34.9321 95.7302 37.1145 96.7387 38.5645 97.411C38.7549 97.4987 38.9306 97.5864 39.0771 97.6594C40.7322 98.4925 42.4751 99.121 44.262 99.5448C44.4671 99.5887 44.6575 99.6325 44.8625 99.6764C44.7014 100.071 44.5403 100.466 44.3792 100.86C43.3686 103.549 42.3872 106.166 41.7281 109.001ZM43.4272 21.0748C43.4418 21.1186 43.4857 21.1625 43.5443 21.1917C43.6615 21.2502 43.808 21.2063 43.8666 21.0894C44.7453 19.394 47.0449 18.2394 47.4403 18.0494C47.5721 18.0202 47.704 18.0056 47.8211 18.0056C47.8651 18.0056 47.9237 18.0056 47.9676 18.0202C48.0848 18.0348 48.2019 18.064 48.3045 18.1225C48.4216 18.181 48.5388 18.3417 48.6267 18.5025C48.3484 18.6486 47.9822 18.8679 47.5868 19.131C47.4989 19.1894 47.4257 19.2479 47.3378 19.3063C46.3565 20.0079 45.6534 20.7533 45.258 21.5425C45.2287 21.601 45.2287 21.6887 45.2433 21.7471C45.258 21.791 45.3019 21.8348 45.3605 21.864C45.4777 21.9225 45.6241 21.8786 45.6827 21.7617C45.9757 21.1917 46.4297 20.6948 46.913 20.271C47.5868 19.6717 48.3484 19.2186 48.8171 18.9556C48.9196 18.8971 49.0222 18.8533 49.0954 18.8094C49.359 18.7656 49.6227 18.6925 49.8863 18.6925C49.9595 18.6925 50.0474 18.6925 50.1207 18.7071C50.1646 18.7217 50.1939 18.7217 50.2378 18.7363C50.5161 18.824 50.6772 19.014 50.7358 19.2333C50.4868 19.3648 50.106 19.5694 49.6666 19.8617C49.6227 19.891 49.5641 19.9348 49.5201 19.964C48.656 20.5487 47.9969 21.1625 47.5428 21.8056C47.411 21.9956 47.2939 22.1856 47.1913 22.361C47.162 22.4194 47.162 22.5071 47.1767 22.5656C47.1913 22.5948 47.206 22.6094 47.2206 22.624C47.2353 22.6533 47.2646 22.6679 47.2939 22.6825C47.411 22.741 47.5575 22.6971 47.6161 22.5802C47.9969 21.864 48.6267 21.2356 49.2565 20.7386C49.9009 20.2417 50.5454 19.8763 50.9116 19.6717C51.058 19.6279 51.2045 19.6133 51.351 19.6133C51.6439 19.6133 51.8929 19.7302 51.9808 20.081C52.0686 20.4317 51.8343 20.7094 51.6146 20.9579C51.3217 21.294 51.0434 21.6448 50.7797 22.0102C50.1499 22.8871 49.7105 23.8225 49.1979 24.7725C49.1979 24.7871 49.1833 24.8017 49.1833 24.8163C49.0807 25.2256 49.0075 25.7225 49.2126 26.1171C49.4176 26.4971 49.8277 26.7017 50.2378 26.7894C50.3696 26.8187 50.5161 26.8333 50.6479 26.8333C50.8383 26.8333 51.0287 26.8187 51.2045 26.8187C51.307 26.8187 51.4242 26.8186 51.5267 26.8479C51.8636 26.9063 52.1419 27.1694 52.1565 27.5202C52.1712 27.8125 51.9954 28.061 51.8197 28.2656C51.4388 28.6894 50.9555 28.9671 50.5161 29.3179C50.0328 29.7125 49.5934 30.1217 49.1686 30.5748C48.8464 30.911 48.5388 31.2763 48.2459 31.6563C48.1434 32.7963 48.1141 33.9656 48.1873 35.1494C48.2312 35.7779 48.2898 36.421 48.3923 37.0348C48.5535 38.1456 48.8025 39.2417 49.1393 40.3087C49.6227 41.8579 50.2671 43.3487 51.0727 44.7663C51.9222 46.2717 52.9474 47.6748 54.1338 48.9464C53.1232 48.7125 52.0979 48.4933 51.0434 48.4202C50.853 48.4056 50.6479 48.4056 50.4575 48.4056C47.6454 48.4056 44.7746 49.5602 43.266 52.0156C42.5191 53.2287 42.1675 54.6317 42.2115 56.064C42.2261 56.6194 42.2994 57.1602 42.358 57.701C40.3074 57.0579 38.0372 56.1664 35.5473 54.9387C35.5326 54.9387 35.5326 54.924 35.518 54.924C30.7285 44.6787 32.7351 33.2787 39.1503 23.9248C40.1024 22.5217 41.2302 21.2356 42.4751 20.0956C43.3686 19.2771 44.6868 17.7425 46.0489 17.7425C46.1514 17.7425 46.2393 17.7571 46.3418 17.7717C46.4151 17.7863 46.5322 17.8594 46.6494 17.9325C46.4004 18.0786 46.0782 18.254 45.7413 18.4879C44.6282 19.2479 43.8519 20.0517 43.4125 20.8994C43.3979 20.9286 43.3979 21.0017 43.4272 21.0748ZM58.894 43.524C57.7662 41.2587 57.151 38.8763 57.0192 36.5087L55.2323 36.5379C55.2323 36.5379 55.2323 36.5379 55.2177 36.5379C54.7343 36.5379 54.4268 36.0117 54.6611 35.5879C55.3934 34.2725 56.7409 31.8025 58.0005 29.5371C58.5424 27.9879 59.2894 26.5117 60.2414 25.1671C60.6662 24.5679 61.1202 23.9833 61.6329 23.4279C61.9112 23.9687 62.2187 24.5387 62.2773 24.641C63.1708 26.4094 64.24 28.1048 65.4849 29.654C66.7885 31.291 68.3264 32.7525 70.084 33.8925C70.9628 34.4625 71.9001 34.9594 72.8815 35.3394C73.5259 35.5879 74.1557 35.924 74.8441 36.0263C76.0451 36.2017 76.6163 34.6233 77.6709 34.214C78.6669 33.834 79.6482 34.1994 80.4245 34.8863C83.1048 37.3271 81.3911 41.434 79.4431 41.624C78.6229 41.6971 77.1143 40.9517 76.5138 41.7848C76.1477 42.2963 76.0305 43.144 75.7083 43.7287C75.3128 44.4594 74.7855 45.161 74.0239 45.541C73.936 45.5994 73.8481 45.6725 73.7603 45.731C73.2916 46.111 73.0426 46.4763 73.0719 46.8856C73.1012 47.1925 73.2916 47.5287 73.687 47.894C73.7603 47.9525 73.8335 48.0256 73.9067 48.084C74.2582 48.391 74.6244 48.6833 75.0052 48.9756C75.1224 49.0633 75.2542 49.151 75.3714 49.2533C75.2249 49.224 75.0785 49.1948 74.932 49.1802C74.5951 49.1364 74.2582 49.1071 73.9067 49.1071C71.8562 49.1071 69.8496 49.8817 68.6486 50.6125L68.4875 50.7002L68.3557 50.8171L67.6233 51.4748C67.5208 51.5625 67.4183 51.6648 67.3304 51.7525C66.437 51.3287 65.5875 50.8464 64.7673 50.2764C64.4011 50.0279 64.0349 49.7648 63.6834 49.4725C63.3465 49.1948 63.0243 48.9171 62.7021 48.6248C61.1935 47.2071 59.8899 45.4971 58.894 43.524Z" fill="#03BFD7"/>
<path d="M64.9429 35.1501C64.9722 35.1501 64.9869 35.1355 65.0162 35.1355L65.4116 36.1878C65.4702 36.3486 65.6606 36.4362 65.8217 36.3778C65.9828 36.3193 66.0707 36.1293 66.0121 35.9686L65.6313 34.9601C65.8949 34.8578 66.1293 34.7262 66.349 34.5801L67.2424 35.3693C67.3742 35.4862 67.5793 35.4716 67.6965 35.3401C67.8136 35.2086 67.799 35.0039 67.6672 34.887L66.847 34.1562C66.8763 34.127 66.8909 34.1124 66.9202 34.0832C67.1252 33.8785 67.1106 33.5424 66.9055 33.3378C66.7591 33.1916 66.5394 33.1478 66.349 33.2209L66.305 33.2355C65.3677 33.5862 64.4596 33.6009 63.654 33.3085C62.8338 33.0601 62.1015 32.5193 61.5596 31.6862L61.5303 31.6424C61.4278 31.4816 61.2227 31.3793 61.0177 31.4085C60.7247 31.4524 60.5343 31.7155 60.5636 31.9932C60.5929 32.227 60.6515 32.4609 60.7247 32.6801L59.7727 33.2209C59.6263 33.3085 59.5677 33.4985 59.6555 33.6593C59.7434 33.8055 59.9338 33.8639 60.0949 33.7762L60.9884 33.2647C61.1348 33.5278 61.3252 33.7909 61.5449 34.0101C61.5889 34.0539 61.6328 34.0978 61.6768 34.1416L61.0616 35.077C60.9591 35.2232 61.003 35.4278 61.1495 35.5155C61.296 35.6178 61.501 35.5739 61.5889 35.4278L62.1747 34.5362C62.453 34.7262 62.7606 34.8724 63.0828 34.9747C63.0975 34.9747 63.0975 34.9747 63.1121 34.9893L62.9803 36.027C62.951 36.2024 63.0828 36.3632 63.2586 36.3924C63.4343 36.4216 63.5954 36.2901 63.6247 36.1147L63.7566 35.1355C64.1667 35.2232 64.5621 35.2232 64.9429 35.1501Z" fill="#03BFD7"/>
<path d="M60.8124 40.8064C60.4462 40.9964 60.2997 41.4349 60.4755 41.8149C60.6659 42.1803 61.1053 42.3264 61.4861 42.151C61.8522 41.961 61.9987 41.5226 61.8229 41.1426C61.6325 40.7626 61.1785 40.6164 60.8124 40.8064Z" fill="#03BFD7"/>
<path d="M34.2294 64.1621C33.4238 63.2121 32.2374 62.759 31.0803 62.8321C31.3586 61.7067 31.1096 60.4644 30.3041 59.5144C28.9566 57.9214 26.9793 57.3952 25.002 59.0614C22.2484 61.3852 23.2737 69.409 23.2737 69.409C23.2737 69.409 31.1536 71.6744 33.79 69.4675C35.3718 68.1229 35.5622 65.7552 34.2294 64.1621Z" fill="#03BFD7"/>
</svg>
