<svg width="110" height="110" viewBox="0 0 110 110" fill="none" xmlns="http://www.w3.org/2000/svg">
<path d="M97.4344 28.1082C113.453 52.5816 106.576 85.3818 82.0538 101.369C57.532 117.357 24.6669 110.492 8.64791 86.019C-7.37109 61.5455 -0.493371 28.7454 24.0285 12.758C48.5503 -3.22935 81.4154 3.64928 97.4344 28.1082Z" fill="#03BFD7"/>
<path d="M43.0807 91.7826C39.9756 91.7826 36.8704 91.3772 33.8379 90.5662C28.0484 89.0167 22.7087 86.0336 18.3702 81.9353C17.7028 82.2829 16.9773 82.4567 16.1792 82.4567C13.4949 82.4567 10.5349 80.4293 8.63406 77.3013C7.42974 75.3174 6.7913 73.1452 6.84934 71.1613C6.89287 69.2352 7.57484 67.6857 8.79367 66.7155C6.71875 60.2568 6.5011 53.4072 8.19877 46.8327C12.2035 31.2218 26.2637 20.3174 42.3842 20.3174C45.4894 20.3174 48.5945 20.7229 51.6271 21.5338C60.8554 23.9956 68.6037 29.904 73.4501 38.1584C78.2964 46.4127 79.6603 56.0428 77.2807 65.2674C73.2614 80.8782 59.2013 91.7826 43.0807 91.7826Z" fill="white"/>
<path d="M42.3836 21.4757C45.3292 21.4757 48.3327 21.8522 51.3363 22.6632C69.793 27.5868 80.9076 46.5428 76.1628 64.9775C72.1871 80.4291 58.3301 90.6239 43.0801 90.6239C40.1346 90.6239 37.131 90.2474 34.1275 89.4365C28.0043 87.8001 22.6936 84.6142 18.4857 80.4291C18.3406 80.5594 18.1665 80.6898 17.9924 80.7911C17.441 81.1242 16.8171 81.2835 16.1641 81.2835C13.9586 81.2835 11.3468 79.5312 9.60562 76.6784C7.35657 72.9712 7.45814 68.8006 9.83778 67.3525C9.93935 67.2945 10.0409 67.2366 10.157 67.1932C7.96599 60.9228 7.53069 53.9862 9.30091 47.1076C13.2912 31.6705 27.1337 21.4757 42.3836 21.4757ZM42.3836 19.1587C38.3644 19.1587 34.3886 19.8248 30.587 21.1137C26.8435 22.388 23.3466 24.2561 20.1979 26.66C17.0202 29.0929 14.2778 31.9891 12.0723 35.3053C9.77974 38.7229 8.08207 42.5026 7.05186 46.5428C5.36871 53.0884 5.51381 59.9091 7.45814 66.3677C6.36989 67.5407 5.73146 69.2061 5.68793 71.1321C5.62989 73.3332 6.32636 75.7371 7.64677 77.8949C8.64796 79.5457 9.95386 80.9649 11.4049 81.9641C12.9574 83.0357 14.6116 83.6005 16.1786 83.6005C16.8606 83.6005 17.5136 83.4991 18.1375 83.2819C22.5195 87.2498 27.8011 90.146 33.5471 91.6811C36.6812 92.521 39.8879 92.9409 43.0946 92.9409C47.1139 92.9409 51.0751 92.2748 54.8912 90.986C58.6348 89.7116 62.1317 87.8435 65.2804 85.4396C68.4581 83.0068 71.2004 80.1105 73.406 76.7943C75.6985 73.3767 77.3962 69.5971 78.4264 65.5568C79.6598 60.749 79.9209 55.8254 79.1954 50.9307C78.499 46.2098 76.9029 41.7206 74.4797 37.5644C72.0565 33.4228 68.8934 29.8314 65.1208 26.9062C61.2031 23.8796 56.7775 21.6784 51.9602 20.4041C48.797 19.5786 45.5903 19.1587 42.3836 19.1587Z" fill="#03BFD7"/>
<path d="M49.7106 76.4325C49.0576 77.2435 48.2596 77.8951 47.389 78.431C46.5039 78.9378 45.5462 79.3433 44.516 79.5315C43.4858 79.7198 42.4701 79.7343 41.3818 79.3867C41.1642 79.3143 40.9755 79.1405 40.9175 78.9088C40.8159 78.5468 41.0481 78.1703 41.4108 78.0689L41.5559 78.0255C42.296 77.8372 43.123 77.5476 43.863 77.2435C44.603 76.9249 45.3286 76.5773 46.025 76.1429C46.7215 75.7374 47.3745 75.2595 48.0129 74.7672C48.6223 74.2603 49.2753 73.6666 49.7831 73.1018L49.8847 72.986C50.0443 72.8122 50.2765 72.7253 50.5231 72.7833C50.9004 72.8557 51.1325 73.2177 51.06 73.5797C50.8424 74.7237 50.3635 75.6216 49.7106 76.4325Z" fill="#03BFD7"/>
<path d="M24.3034 69.7856L24.3905 69.8001C26.2042 70.0463 27.8148 69.6987 29.1497 68.8588C30.5136 68.0913 31.5874 66.8314 32.2258 65.1081L32.2548 65.0213C32.3854 64.6882 32.6901 64.4275 33.0674 64.3986C33.5897 64.3551 34.0541 64.7461 34.1121 65.2674C34.2282 66.5997 33.9525 68.0479 33.1835 69.2498C32.6031 70.2056 31.776 71.0166 30.8183 71.6103C29.8462 72.1751 28.7434 72.5226 27.6117 72.5805C26.1897 72.6819 24.7822 72.262 23.6504 71.5234C23.2006 71.2338 23.0846 70.64 23.3748 70.2056C23.5779 69.9015 23.9406 69.7422 24.3034 69.7856Z" fill="#03BFD7"/>
<path d="M44.3127 69.4961C44.1531 69.7423 43.8484 69.8726 43.5292 69.8292C43.0939 69.7713 42.6731 69.8581 42.3393 70.0609C42.0201 70.2346 41.7444 70.5677 41.5848 71.0021C41.5268 71.1759 41.4107 71.3062 41.2511 71.3931C41.1495 71.4511 41.0479 71.4945 40.9319 71.4945C40.7287 71.509 40.5256 71.4511 40.366 71.3207C40.2064 71.1904 40.1048 71.0021 40.0903 70.7994C40.0467 70.2491 40.1773 69.6988 40.4385 69.2789C40.6562 68.9313 40.9609 68.6128 41.3527 68.3811C41.7299 68.1638 42.1507 68.0335 42.557 68.019C43.0794 67.9756 43.6162 68.1204 44.0806 68.4245C44.2547 68.5404 44.3708 68.7141 44.4143 68.9169C44.4578 69.1196 44.4288 69.3223 44.3127 69.4961Z" fill="#03BFD7"/>
<path d="M42.1504 60.6769C41.7006 60.3873 41.5846 59.7936 41.8748 59.3591C42.0779 59.0405 42.4552 58.8812 42.8034 58.9392L42.8905 58.9536C44.7042 59.1998 46.3148 58.8523 47.6497 58.0124C49.0137 57.2449 50.0874 55.985 50.7258 54.2617L50.7549 54.1748C50.8854 53.8418 51.1902 53.5811 51.5674 53.5521C52.0898 53.5087 52.5541 53.8997 52.6121 54.421C52.7282 55.7533 52.4525 57.2014 51.6835 58.4034C51.1031 59.3591 50.276 60.1701 49.3184 60.7638C48.3462 61.3286 47.2434 61.6761 46.1117 61.734C44.6897 61.8499 43.2822 61.4155 42.1504 60.6769Z" fill="#03BFD7"/>
<path d="M48.2303 94.5197C35.6067 94.5197 26.4944 88.5534 23.9987 86.7288C23.8971 86.6564 23.8681 86.5985 23.8536 86.555C23.8971 86.526 23.9261 86.526 23.9406 86.526C23.9697 86.526 24.0277 86.5405 24.1293 86.584C29.8027 89.3933 35.1423 90.7546 40.482 90.7546C44.7044 90.7546 48.9703 89.8568 53.1202 88.1045C59.7367 85.3096 64.9168 80.719 68.1235 74.8396C71.3737 68.8733 72.5781 61.8065 71.7075 53.8273C74.8851 51.9157 76.2491 47.3976 74.7981 43.0821C73.4632 39.0998 70.0678 36.3194 66.5419 36.3194C66.5129 36.3194 66.4839 36.3194 66.4403 36.3194C63.0595 30.4255 54.5277 21.2588 42.0491 21.2588C39.1326 21.2588 36.1435 21.7656 33.1545 22.7648C25.0869 25.4584 22.0979 31.0047 22.7073 35.3057C23.2877 39.4328 26.3203 41.3009 28.9031 41.3009C29.4399 41.3009 29.9623 41.2285 30.4266 41.0692C32.4 40.4176 33.7204 39.1432 34.2717 37.4344C34.4459 38.2454 34.3878 39.0708 34.0686 39.8528C33.4882 41.272 32.1678 42.3581 30.238 42.9952C29.3384 43.2993 28.3952 43.4442 27.4376 43.4442C25.6528 43.4442 19.7037 42.778 17.8465 34.1761C17.3386 31.8446 17.6723 27.9636 20.081 24.0537C22.954 19.4197 28.1195 15.7559 35.0263 13.4389C39.3502 12.0197 43.8048 11.2957 48.2884 11.2957C56.9508 11.2957 65.2941 13.9457 72.3894 18.9563C79.6299 24.0826 84.9551 31.2509 87.7845 39.679C91.3104 50.2214 90.5124 61.5023 85.5355 71.451C80.5585 81.3997 71.9977 88.8141 61.4344 92.333C57.0959 93.7812 52.6559 94.5197 48.2303 94.5197Z" fill="#03BFD7"/>
<path d="M48.2888 12.454C52.4822 12.454 56.632 13.1056 60.6368 14.38C64.598 15.6543 68.3271 17.5079 71.7079 19.8974C78.7452 24.8789 83.9253 31.8444 86.6676 40.0409C88.3943 45.2252 89.0618 50.5832 88.641 55.9848C88.2347 61.198 86.8273 66.2231 84.4766 70.9295C82.126 75.6359 78.9338 79.7631 75.0016 83.2241C70.9389 86.801 66.2376 89.4945 61.0431 91.2323C56.8062 92.637 52.4967 93.361 48.2017 93.361C43.9939 93.361 40.1922 92.6804 36.913 91.7102C38.1028 91.8405 39.2781 91.8984 40.4534 91.8984C44.8354 91.8984 49.2465 90.9716 53.5559 89.147C56.9513 87.6988 59.9983 85.8163 62.6101 83.5137C65.2509 81.1822 67.442 78.4453 69.1251 75.3608C70.8228 72.2328 71.9981 68.7573 72.6075 65.0211C73.1589 61.6759 73.2604 58.099 72.9122 54.3773C74.3052 53.3492 75.3644 51.8721 75.9738 50.0619C76.7428 47.7739 76.7138 45.1528 75.8867 42.6909C75.1613 40.5332 73.8989 38.6651 72.2448 37.3039C70.7212 36.044 68.9075 35.291 67.1082 35.1607C63.3792 29.0351 54.6587 20.0856 42.035 20.0856C39.0024 20.0856 35.8828 20.6069 32.7777 21.6496C24.0862 24.5459 20.865 30.6715 21.547 35.4503C22.1128 39.4761 24.7246 41.6628 27.3509 42.271C26.0741 42.2565 24.2313 41.9379 22.4901 40.4608C20.7779 39.0127 19.5881 36.8115 18.9642 33.9153C18.5144 31.801 18.8191 28.2676 21.0536 24.6472C22.3015 22.6343 24.0136 20.7952 26.1466 19.2023C28.6713 17.3052 31.7765 15.7412 35.3895 14.5393C39.5973 13.1636 43.9358 12.454 48.2888 12.454ZM48.2888 10.137C43.7762 10.137 39.1911 10.8465 34.6785 12.3526C18.2387 17.8265 15.5688 29.122 16.7151 34.4221C18.2822 41.6917 23.0125 44.6025 27.438 44.6025C28.5262 44.6025 29.6 44.4287 30.6157 44.0956C35.2589 42.5461 36.4342 38.7375 34.9106 35.7834C34.6204 35.2186 34.2141 34.9869 33.9094 34.9869C33.6337 34.9869 33.4306 35.1751 33.4306 35.4792C33.4161 38.4914 31.2976 39.5775 30.0788 39.9829C29.7306 40.0988 29.3388 40.1567 28.918 40.1567C26.9301 40.1567 24.3909 38.752 23.8831 35.1607C23.3607 31.4245 26.0015 26.385 33.5467 23.8797C36.5648 22.866 39.4087 22.4316 42.0785 22.4316C54.5426 22.4316 62.9003 32.0327 65.8168 37.5356C66.0635 37.5066 66.3247 37.4777 66.5714 37.4777C69.5314 37.4777 72.5204 39.8526 73.7248 43.444C75.1032 47.5711 73.6522 51.7997 70.489 53.1609C72.564 69.6841 65.396 81.6456 52.6998 87.0327C48.4919 88.8139 44.4292 89.5959 40.5115 89.5959C34.9832 89.5959 29.7161 88.0464 24.6666 85.5556C24.4199 85.4253 24.1733 85.3818 23.9556 85.3818C23.5783 85.3818 23.2591 85.5411 23.0125 85.7873C22.5481 86.2362 22.5772 87.1341 23.3317 87.6843C24.9278 88.8428 34.4898 95.6925 48.2453 95.6925C52.4241 95.6925 56.9803 95.0553 61.8266 93.4479C84.2735 85.9611 96.4038 61.7339 88.9022 39.3313C82.8951 21.4179 66.2086 10.137 48.2888 10.137Z" fill="#03BFD7"/>
<path d="M74.3059 100.645C72.173 100.645 70.0545 100.457 68.0086 100.08C65.5129 99.6313 63.0317 98.8783 60.6666 97.8646C60.4199 97.7633 60.1442 97.6474 59.854 97.5316C57.8952 96.7496 55.2108 95.6779 54.6014 93.332C54.4998 92.9555 54.5724 92.5934 54.6449 92.2459C54.2822 91.739 53.8614 91.0294 53.9194 90.1895C53.9485 89.842 54.0935 89.4655 54.3112 89.1324C54.0645 88.7848 53.7743 88.3504 53.6292 87.7711C53.4696 87.105 53.5857 86.4389 53.963 85.9175C54.021 85.8451 54.079 85.7583 54.1516 85.6858C54.021 85.3528 53.963 85.0197 53.992 84.7011C54.021 84.3101 54.1951 83.7598 54.8045 83.2964C55.1818 83.0068 55.6171 82.862 56.1104 82.862C56.5167 82.862 56.894 82.9634 57.2277 83.0647C57.8226 83.253 58.4175 83.3978 59.0124 83.5281C60.1587 83.7598 61.305 83.8322 62.5093 83.9046C62.785 83.9191 63.0607 83.9336 63.3364 83.9626C64.0039 83.8467 64.1925 83.644 64.2215 83.6005C64.3521 83.4412 64.3666 83.1371 64.2941 82.7606C64.2505 82.5724 64.149 82.3696 64.0184 82.109C63.8733 81.8193 63.6992 81.4718 63.5976 81.0663C63.3219 80.0381 63.8007 78.952 64.7294 78.5031C65.0486 78.3438 65.3968 78.2714 65.7741 78.2714C66.0933 78.2714 66.4415 78.3293 66.8043 78.4452C67.4427 78.6479 67.9651 78.952 68.4874 79.2417C68.7196 79.372 68.9373 79.5023 69.1549 79.6037C69.9094 79.9802 70.693 80.3133 71.491 80.5884C71.9989 80.7622 72.5212 80.9215 73.0436 81.0663C74.4801 80.5595 75.8875 79.9512 77.237 79.2561C85.1014 75.1579 90.8763 67.9028 93.0819 59.3299C93.4736 57.8383 93.7058 56.2019 93.7929 54.3193L96.1144 54.4352C96.0419 55.9412 98.0878 57.6645 99.887 59.1851C100.99 60.1119 102.02 60.9807 102.687 61.8786C104.995 64.9776 106.504 68.6848 107.069 72.5947C107.737 77.2143 106.518 81.9497 103.544 86.2796C101.062 89.8854 97.3478 93.2161 93.0673 95.6635C87.452 98.8783 80.7919 100.645 74.3059 100.645Z" fill="white"/>
<path d="M94.982 54.3773C94.8224 57.5198 100.061 60.2567 101.773 62.5737C103.978 65.5569 105.4 69.1048 105.937 72.7686C107.301 82.2538 100.148 90.291 92.5008 94.6643C87.0161 97.7923 80.6317 99.4866 74.3053 99.4866C72.2594 99.4866 70.2135 99.3128 68.2112 98.9508C65.7735 98.5163 63.3939 97.7778 61.1303 96.8075C59.3891 96.0545 56.2695 95.1422 55.7326 93.0569C55.6601 92.7962 55.9357 92.0287 55.8197 91.8839C55.4714 91.435 55.0361 90.8702 55.0797 90.2765C55.0942 89.9579 55.4714 89.4366 55.7616 89.3207C55.5295 88.6835 54.9346 88.2201 54.7604 87.5105C54.5718 86.6996 55.1377 86.1783 55.7906 86.0914C55.2393 85.4832 54.8185 84.7446 55.5004 84.2088C55.6891 84.064 55.8922 84.0206 56.1099 84.0206C56.371 84.0206 56.6322 84.093 56.8934 84.1798C57.5173 84.3681 58.1413 84.5419 58.7797 84.6722C60.3178 84.9908 61.8413 85.0198 63.3939 85.1211C63.4084 85.1211 63.4374 85.1211 63.4519 85.1067C64.0613 85.0053 64.7723 84.7881 65.1496 84.2957C65.5413 83.8033 65.5704 83.1372 65.4543 82.529C65.3237 81.8918 64.9029 81.385 64.7433 80.7767C64.6127 80.2989 64.8013 79.7631 65.2656 79.5314C65.4253 79.4445 65.6139 79.4155 65.788 79.4155C66.0202 79.4155 66.2523 79.4734 66.4555 79.5314C67.239 79.7775 67.9065 80.2699 68.6465 80.6319C69.4445 81.0374 70.2716 81.385 71.1277 81.6746C71.7661 81.8918 72.4336 82.0945 73.1155 82.2683C74.6971 81.7325 76.2642 81.0809 77.8022 80.2844C85.9133 76.0558 91.9494 68.4676 94.242 59.6196C94.6773 57.8818 94.895 56.1296 94.982 54.3773ZM92.6604 54.2615C92.5734 56.0716 92.3412 57.6356 91.9785 59.0548C90.9338 63.0806 89.0039 66.9616 86.3776 70.2633C83.7513 73.5651 80.414 76.331 76.714 78.2425C75.5242 78.8652 74.2908 79.401 73.014 79.8644C72.6222 79.7486 72.2449 79.6327 71.8822 79.5024C71.1277 79.2417 70.3877 78.9231 69.6767 78.5756C69.488 78.4742 69.2849 78.3584 69.0527 78.2425C68.5159 77.9384 67.9065 77.5909 67.1519 77.3447C66.6586 77.1854 66.2088 77.113 65.7735 77.113C65.2221 77.113 64.6998 77.2288 64.2209 77.475C62.799 78.1846 62.0735 79.821 62.4797 81.385C62.6103 81.9063 62.828 82.3118 62.9876 82.6448C63.0166 82.6883 63.0311 82.7462 63.0601 82.7896C62.9005 82.7752 62.7264 82.7752 62.5668 82.7607C61.3915 82.6883 60.2887 82.6303 59.2295 82.4131C58.6781 82.2973 58.1122 82.1525 57.5609 81.9787C57.1546 81.8484 56.6758 81.718 56.0954 81.718C55.3554 81.718 54.6589 81.9497 54.093 82.3842C53.353 82.9489 52.9032 83.7309 52.8161 84.6143C52.7871 84.9039 52.8016 85.1935 52.8596 85.4832C52.4098 86.2362 52.2647 87.1485 52.4824 88.0608C52.584 88.5242 52.7726 88.9008 52.9467 89.2338C52.8306 89.5379 52.7581 89.842 52.729 90.1461C52.671 91.1164 53.0192 91.9418 53.3965 92.55C53.353 92.8831 53.353 93.2596 53.4545 93.6651C54.2091 96.5903 57.3287 97.8357 59.3891 98.6612C59.6793 98.777 59.9405 98.8784 60.1727 98.9797C62.6248 100.037 65.1786 100.804 67.7614 101.282C69.8798 101.659 72.0708 101.862 74.2618 101.862C77.6136 101.862 80.9799 101.413 84.2737 100.544C87.5674 99.6748 90.7161 98.386 93.6181 96.7351C98.0436 94.2009 101.903 90.7544 104.486 87.0037C107.635 82.4276 108.912 77.4171 108.215 72.5079C107.62 68.3952 106.039 64.5142 103.63 61.2559C102.89 60.2567 101.802 59.3444 100.655 58.3597C99.6978 57.5487 98.7111 56.7233 98.0436 55.9123C97.3471 55.1014 97.2891 54.6814 97.3036 54.5366L92.6604 54.2615Z" fill="#03BFD7"/>
<path d="M61.6967 92.159C61.7548 92.1011 61.7838 92.0287 61.7983 91.9418C61.8128 91.7536 61.6677 91.5798 61.4646 91.5653C58.432 91.3915 55.2543 88.5966 55.2108 88.5676C55.0657 88.4373 54.848 88.4518 54.7174 88.5966C54.5869 88.7414 54.6014 88.9586 54.7465 89.089C54.7755 89.1179 55.6026 89.842 56.8214 90.595C58.49 91.6232 60.0281 92.1735 61.4065 92.2604C61.5371 92.2749 61.6387 92.2315 61.6967 92.159Z" fill="#03BFD7"/>
<path d="M61.6528 89.1035C61.7108 89.0456 61.7398 88.9732 61.7544 88.8863C61.7689 88.6981 61.6238 88.5243 61.4206 88.5098C58.388 88.336 55.2104 85.5412 55.1668 85.5122C55.0217 85.3819 54.8041 85.3963 54.6735 85.5412C54.5429 85.686 54.5574 85.9032 54.7025 86.0335C54.7315 86.0625 55.5586 86.7865 56.7774 87.5396C58.4461 88.5677 59.9841 89.118 61.3626 89.2049C61.4932 89.2194 61.5947 89.1759 61.6528 89.1035Z" fill="#03BFD7"/>
<path d="M61.8999 94.9685C61.9579 94.9106 61.9869 94.8382 62.0014 94.7513C62.0159 94.563 61.8709 94.3893 61.6677 94.3748C58.6351 94.201 55.4574 91.4061 55.4139 91.3772C55.2688 91.2468 55.0512 91.2613 54.9206 91.4061C54.79 91.551 54.8045 91.7682 54.9496 91.8985C54.9786 91.9275 55.8057 92.6515 57.0245 93.4045C58.6932 94.4327 60.2312 94.983 61.6097 95.0699C61.7403 95.0844 61.8418 95.0409 61.8999 94.9685Z" fill="#03BFD7"/>
<path d="M71.7081 32.0039C70.9245 32.0039 70.199 31.6274 69.7492 30.9902L66.2813 26.081C66.2523 26.0376 66.2233 26.0086 66.2088 25.9652C65.7154 25.1832 65.7299 24.1695 66.2378 23.402C66.6876 22.7214 67.4276 22.3304 68.2402 22.3304C68.3998 22.3304 68.5739 22.3449 68.7335 22.3738L71.9837 23.04L71.4324 21.9104C70.852 20.723 71.3453 19.2893 72.5351 18.71C72.8543 18.5508 73.2316 18.4639 73.5798 18.4639C74.494 18.4639 75.3211 18.9852 75.7273 19.8106L78.4262 25.328C78.8325 26.1534 78.7309 27.1092 78.165 27.8477C77.7152 28.427 77.0042 28.7746 76.2787 28.7746C76.1191 28.7746 75.945 28.7601 75.7854 28.7311L73.6959 28.2967C74.4214 29.3828 74.1602 30.8454 73.101 31.5984C72.6802 31.8591 72.2159 32.0039 71.7081 32.0039Z" fill="white"/>
<path d="M73.5651 19.6222C74.0149 19.6222 74.4502 19.8684 74.6679 20.3173L77.3667 25.8346C77.5699 26.2546 77.5264 26.7615 77.2362 27.1235C77.004 27.4276 76.6412 27.6014 76.264 27.6014C76.1769 27.6014 76.0899 27.5869 76.0173 27.5724L71.0549 26.5442L72.7236 28.9192C73.1008 29.4695 72.9847 30.237 72.4189 30.628C72.2012 30.7728 71.9545 30.8452 71.7079 30.8452C71.3161 30.8452 70.9388 30.6569 70.7067 30.3238L67.2388 25.4147C67.2243 25.4002 67.2098 25.3713 67.1953 25.3568C66.9486 24.9513 66.9486 24.43 67.2098 24.039C67.442 23.6914 67.8337 23.4887 68.24 23.4887C68.3271 23.4887 68.4141 23.5032 68.4867 23.5176L74.044 24.6761L72.4479 21.4179C72.1432 20.8096 72.4043 20.0711 73.0138 19.767C73.2024 19.6656 73.391 19.6222 73.5651 19.6222ZM73.5651 17.3052C73.0283 17.3052 72.4914 17.4355 72.0126 17.6672C70.5616 18.3768 69.8071 19.9408 70.0682 21.4613L68.9655 21.2296C68.7333 21.1862 68.4867 21.1572 68.24 21.1572C67.0357 21.1572 65.9329 21.7509 65.2655 22.7646C64.5109 23.9231 64.4964 25.4147 65.2219 26.5877C65.251 26.6456 65.2945 26.689 65.3235 26.747L68.7914 31.6561C69.4588 32.5974 70.5471 33.1622 71.6934 33.1622C72.4334 33.1622 73.1298 32.945 73.7393 32.5105C74.6679 31.8589 75.1903 30.8307 75.2338 29.7736L75.524 29.8315C75.7561 29.8749 76.0028 29.9039 76.2495 29.9039C77.3377 29.9039 78.3824 29.397 79.0499 28.5282C79.877 27.471 80.0221 26.0084 79.4417 24.792L76.7428 19.2746C76.1624 18.0727 74.9436 17.3052 73.5651 17.3052Z" fill="#03BFD7"/>
<path d="M86.5513 18.1887C86.2901 18.1887 86.0144 18.1453 85.7678 18.0729L77.5116 15.669C76.3944 15.3504 75.6108 14.3946 75.5093 13.2361C75.4077 12.0921 76.0026 11.006 77.0328 10.4847L82.3725 7.79113L79.6156 6.48781C78.9336 6.16922 78.4258 5.60445 78.1791 4.89487C77.9324 4.18528 77.9614 3.43226 78.2952 2.75164C78.7595 1.78139 79.7462 1.15869 80.8344 1.15869C81.2552 1.15869 81.6615 1.24558 82.0387 1.43384L89.9611 5.19898C90.9188 5.6479 91.5427 6.63262 91.5572 7.68976C91.5718 8.7469 90.9623 9.74611 90.0192 10.224L85.8984 12.2803L87.3349 12.7003C88.8149 13.1347 89.671 14.6842 89.2357 16.1758C88.9745 17.0736 88.278 17.7832 87.3784 18.0584C87.1172 18.1453 86.8415 18.1887 86.5513 18.1887Z" fill="white"/>
<path d="M80.8196 2.31701C81.0517 2.31701 81.2984 2.37493 81.5306 2.4763L89.453 6.24144C90.0189 6.51659 90.3816 7.08136 90.3961 7.70405C90.4106 8.32675 90.0479 8.906 89.4965 9.18115L82.7784 12.5698L87.0443 13.8152C87.9149 14.0758 88.4083 14.9737 88.1616 15.8425C88.002 16.3928 87.5812 16.7983 87.0734 16.9431C86.9137 16.9866 86.7541 17.0155 86.5945 17.0155C86.4494 17.0155 86.2898 17.0011 86.1302 16.9431L77.8741 14.5392C77.2211 14.351 76.7568 13.7862 76.6988 13.1201C76.6407 12.4539 76.989 11.8167 77.5984 11.5126L85.042 7.76198L80.1521 5.43049C79.3396 5.03949 78.9913 4.06925 79.3686 3.24381C79.6153 2.66456 80.1957 2.31701 80.8196 2.31701ZM80.8196 0C79.2961 0 77.8886 0.88336 77.2356 2.25908C76.7858 3.21485 76.7278 4.28647 77.076 5.28568C77.4243 6.28489 78.1498 7.08136 79.1074 7.53028L79.7313 7.81991L76.5102 9.44181C75.0447 10.1804 74.2031 11.7009 74.3482 13.3373C74.4933 14.9592 75.6105 16.3204 77.1776 16.7694L85.4337 19.1732C85.7965 19.2746 86.1737 19.3325 86.551 19.3325C86.9428 19.3325 87.349 19.2746 87.7263 19.1588C89.0032 18.7678 89.9898 17.7686 90.3526 16.4942C90.8459 14.8144 90.164 13.0621 88.7855 12.1209L90.5122 11.252C91.8471 10.5714 92.7032 9.16667 92.6887 7.67509C92.6742 6.18352 91.7891 4.79331 90.4251 4.15614L82.5027 0.390995C81.9804 0.130332 81.4145 0 80.8196 0Z" fill="#03BFD7"/>
<path d="M89.4397 98.9654C89.3091 98.9654 89.164 98.9654 89.0334 98.9509C87.4809 98.864 86.1314 98.2123 85.2318 97.1118C83.984 95.5623 83.9259 93.448 83.8679 91.7392C83.8679 91.5944 83.8534 91.4641 83.8534 91.3192L83.8389 90.7255C83.7663 88.5678 83.6938 86.5259 83.0843 84.5565C82.7071 83.3545 82.3008 82.5001 81.8075 81.8485C81.4737 81.414 81.0529 81.0375 80.6031 80.6465C80.371 80.4438 80.1243 80.2266 79.8776 79.9949C79.8341 79.9514 79.7761 79.8935 79.7325 79.8356C79.3408 79.4735 79.1521 78.9088 79.2537 78.3729C79.3698 77.7213 79.9067 77.2434 80.5596 77.1855C82.3153 77.0407 84.1291 76.6497 86.1169 75.998C86.6393 75.8242 87.1616 75.7084 87.655 75.5925C88.1338 75.4912 88.5691 75.3898 88.9899 75.245C89.2076 75.1726 89.4687 74.9988 89.7299 74.825C89.9621 74.6657 90.2233 74.5064 90.5135 74.3616C90.7746 74.1154 91.1084 73.9851 91.4711 73.9851C91.6017 73.9851 91.7323 73.9996 91.8484 74.043C93.7347 74.5499 94.5762 76.36 95.2582 77.8082C95.3308 77.953 95.3888 78.0978 95.4614 78.2281C96.3465 80.0673 97.2461 82.0657 97.6379 84.4696C98.0877 87.2355 98.2618 91.2324 96.5061 94.6065C95.1276 97.3 92.4143 98.9654 89.4397 98.9654Z" fill="white"/>
<path d="M91.4858 75.1434C91.5149 75.1434 91.5439 75.1434 91.5729 75.1579C93.0964 75.5634 93.7639 77.3301 94.4314 78.7348C95.36 80.6608 96.1581 82.4999 96.5063 84.6721C97.0141 87.8001 96.9416 91.3046 95.4906 94.0995C94.2718 96.4599 91.8921 97.8356 89.4399 97.8356C89.3239 97.8356 89.2078 97.8356 89.0917 97.8212C88.0034 97.7632 86.8862 97.3433 86.1317 96.4165C85.0434 95.0697 85.0724 92.9989 85.0144 91.3046C84.9273 88.9152 84.8983 86.5402 84.1873 84.2377C83.8536 83.1516 83.4038 82.0655 82.7363 81.1677C82.1414 80.3857 81.3724 79.8354 80.6904 79.1692C80.6469 79.1258 80.6179 79.0968 80.6034 79.0534C80.3277 78.9231 80.2987 78.3872 80.6614 78.3438C82.6493 78.1845 84.5791 77.7356 86.4799 77.0984C87.423 76.7798 88.4242 76.664 89.3674 76.3454C90.0639 76.1137 90.5862 75.5634 91.2537 75.2882C91.2972 75.2014 91.3698 75.1434 91.4858 75.1434ZM91.4858 72.8264C90.8909 72.8264 90.325 73.0292 89.8752 73.3912C89.5705 73.5505 89.3239 73.7243 89.0917 73.8691C88.9321 73.9704 88.7144 74.1153 88.6274 74.1587C88.2646 74.2745 87.8438 74.3759 87.394 74.4773C86.8717 74.5931 86.3203 74.7235 85.7399 74.9117C83.8391 75.5344 82.1124 75.9109 80.4583 76.0413C79.2684 76.1426 78.3253 76.997 78.1076 78.17C77.9335 79.0968 78.2527 80.0381 78.8912 80.6608C78.9492 80.7187 79.0073 80.7911 79.0653 80.8491C79.3265 81.0952 79.5731 81.3269 79.8198 81.5442C80.2406 81.9207 80.6179 82.2393 80.8645 82.5868C81.2708 83.1226 81.6191 83.8901 81.9528 84.9473C82.5187 86.7574 82.5912 88.7269 82.6638 90.8122C82.6638 91.0149 82.6783 91.2032 82.6783 91.4059C82.6783 91.5363 82.6928 91.6811 82.6928 91.8114C82.7508 93.5926 82.8234 96.0255 84.3179 97.8791C85.4207 99.2403 87.0748 100.051 88.9611 100.138C89.1207 100.153 89.2658 100.153 89.4254 100.153C92.8353 100.153 95.9404 98.2411 97.5365 95.1566C98.5812 93.1437 99.6405 89.6247 98.7699 84.2956C98.3491 81.7324 97.3769 79.5747 96.5063 77.7356C96.4483 77.6052 96.3757 77.4604 96.3177 77.3156C95.6212 75.8241 94.562 73.565 92.1533 72.9278C91.9356 72.8554 91.7035 72.8264 91.4858 72.8264Z" fill="#03BFD7"/>
<path d="M86.7405 82.9056C82.8664 82.9056 79.0212 81.805 75.6114 79.7197C72.5063 77.8371 69.938 75.2305 68.1678 72.1749C66.5282 69.3511 65.6141 66.2086 65.5415 63.0952C65.469 59.8658 66.296 56.7379 67.9501 54.0443C68.9949 52.3355 70.3298 50.8585 71.9114 49.6275C71.8098 48.7731 71.8823 47.9187 72.1145 47.0933C72.9126 44.3274 75.4663 42.4014 78.3393 42.4014C78.9342 42.4014 79.5436 42.4883 80.124 42.6476C81.8652 43.1399 83.3162 44.3563 84.1287 45.9493C87.6837 46.1086 91.1806 47.1947 94.3147 49.1062C97.9857 51.3363 100.815 54.4643 102.556 58.186C103.093 58.2005 103.616 58.2874 104.123 58.4322C107.562 59.4169 109.565 63.0083 108.578 66.4259C107.911 68.7429 105.995 70.4951 103.659 70.9875C103.253 72.3197 102.687 73.5941 101.961 74.7816C98.8708 79.8645 93.1684 82.9056 86.7405 82.9056Z" fill="white"/>
<path d="M78.3395 43.5597C78.8183 43.5597 79.3116 43.6321 79.805 43.7624C81.5171 44.2548 82.794 45.5291 83.3454 47.0786C86.8133 47.1076 90.4118 48.0923 93.7055 50.0908C97.5071 52.4078 100.279 55.7095 101.817 59.3588C101.991 59.3443 102.179 59.3298 102.353 59.3298C102.832 59.3298 103.326 59.4022 103.819 59.5326C106.648 60.3435 108.288 63.2832 107.475 66.1071C106.852 68.3082 104.922 69.7853 102.76 69.9446C102.397 71.4072 101.802 72.8264 100.99 74.1732C97.986 79.0968 92.5447 81.7469 86.7407 81.7469C83.2148 81.7469 79.5583 80.7766 76.2065 78.7348C73.1594 76.8812 70.7798 74.3904 69.1691 71.61C66.0785 66.2809 65.7593 59.8512 68.937 54.6668C70.0543 52.8422 71.5053 51.3361 73.1739 50.1487C72.9562 49.2798 72.9563 48.353 73.2319 47.4262C73.8994 45.0802 76.0179 43.5597 78.3395 43.5597ZM78.3395 41.2427C76.7143 41.2427 75.0892 41.7785 73.7833 42.7487C72.4194 43.7624 71.4617 45.1526 70.9974 46.7745C70.7798 47.5276 70.6782 48.324 70.7072 49.106C69.2272 50.3369 67.9648 51.7995 66.9491 53.4504C65.1789 56.3322 64.2938 59.6774 64.3809 63.1384C64.4534 66.4401 65.4256 69.7708 67.1523 72.7685C69.0095 75.9833 71.7229 78.7203 74.9876 80.7187C78.5861 82.9054 82.6489 84.0639 86.7262 84.0639C93.5604 84.0639 99.6401 80.8201 102.963 75.3896C103.63 74.3035 104.167 73.1595 104.573 71.9575C107.011 71.2045 108.97 69.264 109.696 66.7587C110.261 64.8038 110.015 62.7329 109.028 60.9517C108.041 59.1705 106.416 57.8817 104.443 57.3169C104.066 57.2156 103.688 57.1287 103.297 57.0852C102.499 55.5357 101.512 54.0731 100.351 52.7119C98.7985 50.9162 96.9703 49.3667 94.8953 48.1068C91.7757 46.2098 88.3223 45.0802 84.7964 44.8196C83.8097 43.2411 82.2426 42.0536 80.4144 41.5323C79.7614 41.344 79.0504 41.2427 78.3395 41.2427Z" fill="#03BFD7"/>
<path d="M75.5213 65.8388C75.7467 65.4702 75.386 64.8403 74.7157 64.4321C74.0453 64.0238 73.3191 63.9917 73.0937 64.3603C72.8683 64.729 73.229 65.3588 73.8994 65.7671C74.5697 66.1753 75.2959 66.2075 75.5213 65.8388Z" fill="#03BFD7"/>
<path d="M87.5789 74.4099C87.8044 74.0412 87.4436 73.4114 86.7733 73.0031C86.1029 72.5948 85.3767 72.5627 85.1513 72.9314C84.9259 73.3 85.2866 73.9298 85.957 74.3381C86.6274 74.7464 87.3535 74.7785 87.5789 74.4099Z" fill="#03BFD7"/>
<path d="M77.8174 70.5093C78.5284 71.0017 79.3554 71.5954 79.9794 72.0588C80.3566 72.334 80.2115 72.9132 79.7472 72.9856L77.8464 73.2752C77.4256 73.3332 77.0338 73.058 76.9613 72.6381L76.7001 71.2334C76.584 70.5962 77.295 70.1473 77.8174 70.5093Z" fill="#03BFD7"/>
</svg>
