<svg width="114" height="114" viewBox="0 0 114 114" fill="none" xmlns="http://www.w3.org/2000/svg">
<g clip-path="url(#clip0)">
<path d="M91.7199 14.7629C116.033 32.7581 121.222 67.1551 103.323 91.5997C85.4248 116.029 51.2129 121.246 26.9146 103.251C2.60137 85.2556 -2.58724 50.8586 15.3112 26.429C33.2097 1.98428 67.4217 -3.23239 91.7199 14.7629Z" fill="#03BFD7"/>
<path d="M105.298 46.3484C104.596 45.6118 102.682 44.9653 102.128 44.5444C100.543 43.3567 99.1228 41.7631 98.5546 39.8088C97.3285 35.5693 91.6913 12.2672 79.8936 7.32111C79.8936 7.32111 78.3684 6.26875 79.2954 4.08888C80.2225 1.909 77.8749 0.104967 74.7648 2.48028C71.6396 4.85559 71.6396 4.85559 71.6396 4.85559C71.6396 4.85559 26.2729 7.06554 9.6454 34.968C9.6454 34.968 7.7165 37.7792 4.12783 37.5688C0.524209 37.3433 0.95784 40.8461 2.43816 41.688C3.91849 42.5299 5.35396 41.8083 6.53523 45.8373C7.7165 49.8663 13.249 71.1689 28.9046 81.4369C28.9046 81.4369 29.6223 82.8651 29.4578 84.4586C29.2934 86.0522 29.2635 90.7427 33.9138 86.9843C33.9138 86.9843 34.6614 85.06 36.8744 83.7521C36.8744 83.7521 78.6674 86.2326 97.1939 54.1659C97.7023 53.2939 97.7023 52.5122 98.5546 51.7004C99.4817 50.7833 106.973 48.1224 105.298 46.3484Z" fill="white"/>
<path d="M31.0583 89.7504C30.6246 89.7504 30.191 89.6602 29.7723 89.4347C27.978 88.4575 27.963 85.7966 28.1275 84.3082C28.2172 83.5115 27.978 82.7447 27.8285 82.3238C21.4436 78.0392 15.9709 71.4996 11.5898 62.8853C8.04594 55.9247 6.2217 49.5806 5.42921 46.8595C5.35444 46.6039 5.29463 46.3934 5.23482 46.213C4.53204 43.8527 3.99374 43.6723 3.08162 43.3867C2.69285 43.2664 2.24427 43.1161 1.76578 42.8455C0.405073 42.0788 -0.342566 40.1695 0.12097 38.591C0.300404 37.9896 1.12281 36.0202 4.18813 36.2006C6.80486 36.366 8.30014 34.4718 8.50948 34.2162C12.4122 27.6916 18.169 22.0089 25.6155 17.3334C31.5667 13.6201 38.5795 10.5232 46.4895 8.14788C58.6312 4.49471 68.9486 3.66786 71.1467 3.51752L73.9428 1.39778C76.425 -0.481423 78.5184 -0.195784 79.6698 0.706234C80.8062 1.60825 81.1501 3.14168 80.5071 4.63001C80.1333 5.50196 80.3875 5.968 80.5819 6.17847C92.0357 11.1847 97.658 31.5853 99.5121 38.3053C99.6467 38.7714 99.7513 39.1472 99.8261 39.4479C100.349 41.2519 101.8 42.635 102.906 43.4769C103.026 43.5671 103.445 43.7625 103.759 43.9129C104.641 44.3338 105.643 44.7999 106.241 45.4313C106.734 45.9575 106.944 46.6189 106.824 47.2954C106.525 48.9792 104.312 50.212 101.202 51.7454C100.544 52.0761 99.6616 52.5121 99.4373 52.6775C99.1084 52.9932 99.0037 53.2788 98.8243 53.7449C98.7047 54.0606 98.5551 54.4364 98.3308 54.8273C93.9945 62.3291 88.0583 68.5831 80.6567 73.4239C74.7653 77.2875 67.9468 80.2642 60.3956 82.2637C48.882 85.3155 39.3421 85.1802 37.2039 85.09C35.6936 86.1123 35.1404 87.4352 35.1404 87.4503L35.0058 87.781L34.7367 88.0065C34.1685 88.4876 32.6283 89.7504 31.0583 89.7504ZM3.79935 38.9067C3.36572 38.9067 2.82742 38.9818 2.72275 39.3577C2.60313 39.7937 2.85733 40.3649 3.09657 40.4852C3.33582 40.6205 3.60497 40.6957 3.90402 40.8009C5.44416 41.282 6.80486 41.9735 7.82165 45.4313C7.88146 45.6117 7.94127 45.8372 8.01604 46.1078C8.77863 48.7387 10.558 54.9175 13.9822 61.6526C18.2288 69.9962 23.4922 76.2653 29.6378 80.2943L29.9368 80.4897L30.1013 80.8054C30.191 80.9858 30.9985 82.6395 30.8041 84.5788C30.6695 85.8567 30.8639 86.8189 31.0583 87.0293C31.1629 87.0293 31.6863 86.9692 32.8377 86.0822C33.2115 85.3606 34.1984 83.7219 36.1871 82.5493L36.5459 82.3388L36.9497 82.3689C37.0543 82.3689 47.4017 82.9251 59.8125 79.6177C67.0646 77.6784 73.6139 74.822 79.2511 71.1237C86.2639 66.5084 91.9161 60.5701 96.0281 53.4592C96.1627 53.2337 96.2524 53.0082 96.3571 52.7376C96.5814 52.1513 96.8655 51.4297 97.6281 50.693C98.0318 50.3022 98.7346 49.9414 100.05 49.2949C101.037 48.7988 103.19 47.7314 103.983 47.0248C103.594 46.7843 103.041 46.5287 102.652 46.3483C102.099 46.0928 101.65 45.8823 101.321 45.6417C99.243 44.0933 97.8374 42.199 97.2542 40.1996C97.1645 39.8989 97.0599 39.508 96.9253 39.027C96.058 35.8849 94.2487 29.3303 91.303 22.956C87.7293 15.2438 83.722 10.418 79.3558 8.58385L79.2212 8.52372L79.1016 8.44855C78.2642 7.86224 76.9484 6.08827 78.025 3.56262C78.0848 3.44235 78.2343 3.02141 77.995 2.84101C77.696 2.6155 76.7988 2.6155 75.5577 3.56262L72.1037 6.17847L71.685 6.19351C71.5654 6.19351 60.3059 6.79485 47.1774 10.7487C39.5066 13.0639 32.718 16.0556 27.0061 19.6486C19.9185 24.0986 14.4607 29.4806 10.7823 35.6594L10.7374 35.7346C10.6477 35.8699 8.33005 39.1773 4.02365 38.9067C3.96383 38.9067 3.88907 38.9067 3.79935 38.9067Z" fill="#03BFD7"/>
<path d="M48.9705 71.6053C48.2677 71.6053 47.5949 71.2595 47.1911 70.6732C45.666 68.4482 43.423 65.1859 41.3446 62.1341C39.5652 60.285 38.055 58.2103 36.8438 55.9703C34.6158 51.8361 33.4346 47.1606 33.4346 42.425C33.4346 26.76 46.1145 14.0115 61.6954 14.0115C77.2762 14.0115 89.9561 26.76 89.9561 42.425C89.9561 58.0901 77.2762 70.8386 61.6954 70.8386C58.1964 70.8386 54.8021 70.2072 51.5723 68.9594L50.8994 70.3725C50.5555 71.1242 49.8079 71.6053 48.9705 71.6053Z" fill="white"/>
<path d="M61.7099 15.1991C76.6627 15.1991 88.7744 27.3914 88.7744 42.41C88.7744 57.4285 76.6477 69.6208 61.7099 69.6208C57.9119 69.6208 54.2933 68.824 51.0037 67.4109L49.8374 69.8463C49.658 70.2071 49.3141 70.3875 48.9701 70.3875C48.6711 70.3875 48.372 70.2522 48.1776 69.9666C46.8917 68.0874 44.4843 64.5846 42.2862 61.3523C40.5667 59.5784 39.0864 57.5638 37.9051 55.3689C35.8266 51.5203 34.6454 47.1004 34.6454 42.3949C34.6304 27.3763 46.7571 15.1991 61.7099 15.1991ZM61.7099 12.7937C57.7325 12.7937 53.8747 13.5754 50.2411 15.1239C46.7272 16.6122 43.5871 18.747 40.8807 21.4681C38.1742 24.1892 36.0509 27.3613 34.5706 30.8792C33.0305 34.5323 32.2529 38.411 32.2529 42.41C32.2529 47.341 33.4791 52.2269 35.8117 56.5265C37.0528 58.8417 38.6079 60.9765 40.4321 62.8858C42.6302 66.1029 44.9927 69.5607 46.2188 71.3497C46.8468 72.2667 47.8786 72.8079 48.9701 72.8079C50.271 72.8079 51.4373 72.0713 51.9906 70.8987L52.1999 70.4627C55.2503 71.5151 58.4353 72.0412 61.7099 72.0412C65.6873 72.0412 69.5452 71.2595 73.1787 69.711C76.6926 68.2227 79.8327 66.0879 82.5391 63.3668C85.2456 60.6457 87.3689 57.4736 88.8492 53.9558C90.3893 50.3026 91.1669 46.4239 91.1669 42.425C91.1669 38.426 90.3893 34.5474 88.8492 30.8942C87.3689 27.3613 85.2456 24.2042 82.5391 21.4831C79.8327 18.7621 76.6776 16.6273 73.1787 15.1389C69.5452 13.5754 65.6873 12.7937 61.7099 12.7937Z" fill="#03BFD7"/>
<path d="M53.0975 58.1801C52.4396 58.8265 51.6321 59.3377 50.7499 59.6083C49.6285 59.9841 48.4323 59.924 47.3856 59.5632C46.9669 59.4279 46.7576 58.9769 46.8921 58.5559C46.9968 58.2552 47.251 58.0598 47.55 58.0297L47.6248 58.0147C49.1201 57.8493 50.3313 57.233 51.2284 56.2858C52.1704 55.3838 52.7536 54.1661 52.9181 52.6477L52.933 52.5725C52.9629 52.2719 53.1573 52.0163 53.4564 51.9111C53.8601 51.7607 54.3236 51.9862 54.4582 52.3921C54.832 53.4445 54.8918 54.6622 54.533 55.7747C54.2489 56.6917 53.7554 57.5036 53.0975 58.1801Z" fill="#03BFD7"/>
<path d="M60.4545 66.3282C61.0738 66.3282 61.5759 65.8234 61.5759 65.2007C61.5759 64.578 61.0738 64.0732 60.4545 64.0732C59.8351 64.0732 59.333 64.578 59.333 65.2007C59.333 65.8234 59.8351 66.3282 60.4545 66.3282Z" fill="#03BFD7"/>
<path d="M49.0605 62.2543C48.7914 62.2543 48.582 62.0438 48.582 61.7732V59.1573C48.582 58.8867 48.7914 58.6763 49.0605 58.6763C49.3297 58.6763 49.539 58.8867 49.539 59.1573V61.7732C49.539 62.0288 49.3147 62.2543 49.0605 62.2543Z" fill="#03BFD7"/>
<path d="M52.6044 61.0665C52.3801 61.2018 52.081 61.1267 51.9465 60.8861L50.6456 58.616C50.511 58.3905 50.5857 58.0898 50.825 57.9545C51.0493 57.8192 51.3483 57.8944 51.4829 58.1349L52.7838 60.405C52.9184 60.6305 52.8436 60.9312 52.6044 61.0665Z" fill="#03BFD7"/>
<path d="M55.1015 58.9017C54.952 59.1272 54.6529 59.1873 54.4286 59.037L52.2754 57.5637C52.0512 57.4134 51.9913 57.1127 52.1409 56.8872C52.2904 56.6617 52.5895 56.6016 52.8137 56.7519L54.9669 58.2252C55.1912 58.3755 55.251 58.6762 55.1015 58.9017Z" fill="#03BFD7"/>
<path d="M56.7608 55.4439C56.7309 55.7145 56.4916 55.9099 56.2374 55.8798L53.6505 55.6092C53.3814 55.5792 53.187 55.3386 53.2169 55.0831C53.2468 54.8125 53.4861 54.617 53.7403 54.6471L56.3271 54.9177C56.5963 54.9327 56.7907 55.1733 56.7608 55.4439Z" fill="#03BFD7"/>
<path d="M56.6406 52.2117C56.7453 52.4523 56.6107 52.7379 56.3714 52.8432L53.9491 53.8053C53.7098 53.9106 53.4257 53.7753 53.3211 53.5347C53.2164 53.2942 53.351 53.0085 53.5902 52.9033L56.0126 51.9411C56.2668 51.8359 56.5359 51.9562 56.6406 52.2117Z" fill="#03BFD7"/>
<path d="M61.6946 106.649C52.0052 106.649 42.1065 103.507 33.06 97.5833C30.862 96.14 28.8134 94.4412 26.9743 92.5019C26.7799 92.3065 26.5705 92.081 26.3313 91.8555C24.7762 90.322 22.6679 88.2173 23.0267 85.7217C23.0865 85.3309 23.2959 85.0001 23.5052 84.6995C23.3557 84.068 23.251 83.2262 23.6398 82.4294C23.8043 82.0986 24.0884 81.798 24.4323 81.5725C24.3426 81.1365 24.2379 80.6103 24.3426 79.9939C24.4771 79.1671 24.9706 78.5206 25.6584 78.2049C25.6734 77.8291 25.7481 77.4983 25.9126 77.1977C26.107 76.8369 26.4808 76.3708 27.2434 76.1754C27.4228 76.1303 27.6023 76.1002 27.7817 76.1002C28.649 76.1002 29.262 76.6264 29.6359 76.9271C30.1293 77.348 30.6377 77.7239 31.1461 78.0847C32.133 78.7612 33.1946 79.2874 34.3161 79.8586C34.5703 79.9789 34.8245 80.1142 35.0787 80.2345C35.303 80.2796 35.5123 80.3096 35.6917 80.3096C35.931 80.3096 36.0356 80.2645 36.0655 80.2495C36.245 80.1443 36.3945 79.8737 36.4693 79.4828C36.5141 79.2874 36.4842 79.0468 36.4693 78.7612C36.4394 78.4154 36.4244 78.0245 36.4842 77.6036C36.6338 76.5061 37.516 75.6642 38.5776 75.6041C38.6225 75.6041 38.6673 75.6041 38.7122 75.6041C39.3402 75.6041 39.9682 75.8597 40.5663 76.3859C41.0897 76.8369 41.4635 77.333 41.8373 77.8291C42.0018 78.0546 42.1663 78.2651 42.3308 78.4455C42.899 79.1069 43.512 79.7384 44.155 80.3247C44.5587 80.7005 44.9924 81.0613 45.4409 81.4071C46.1288 81.4522 46.8166 81.4672 47.4895 81.4672C48.3717 81.4672 49.2689 81.4372 50.1511 81.362C59.2573 80.6103 67.6458 75.9799 73.1933 68.6736C75.4063 65.742 76.767 62.2994 78.0679 58.9619C80.4005 53.0236 82.8229 46.8748 90.1199 43.8381L91.5852 43.2217L91.7048 43.1916C92.5422 43.0262 93.4992 42.936 94.4562 42.936C95.8617 42.936 99.3756 43.1615 101.633 45.176C102.86 46.048 103.906 47.1304 104.729 48.3632C107.973 53.2341 107.6 59.9391 106.702 66.4787C104.833 80.2044 96.5346 92.8026 84.5126 100.169C77.5296 104.484 69.8439 106.649 61.6946 106.649Z" fill="white"/>
<path d="M94.4864 44.1688C96.7891 44.1688 99.361 44.7251 100.916 46.1382C102.097 46.9651 103.024 47.9573 103.757 49.0547C106.942 53.8354 106.299 60.7359 105.536 66.3434C103.682 79.8887 95.4882 92.0659 83.8998 99.1618C76.8421 103.491 69.261 105.461 61.68 105.461C52.0055 105.461 42.3161 102.244 33.7033 96.5911C31.5651 95.1929 29.5913 93.5392 27.8269 91.6901C26.4811 90.2769 23.8793 88.1422 24.2083 85.9322C24.2532 85.6466 24.8064 85.0302 24.7616 84.8348C24.612 84.2785 24.4326 83.5569 24.7017 83.0007C24.8513 82.715 25.3896 82.3693 25.7185 82.3693H25.7335C25.7783 81.6777 25.3896 80.9862 25.5092 80.2345C25.6288 79.5429 26.1223 79.2423 26.6456 79.2423C26.7802 79.2423 26.9147 79.2573 27.0493 79.3024C26.7652 78.5056 26.6606 77.6186 27.5278 77.3931C27.6175 77.3781 27.6923 77.363 27.7671 77.363C28.1857 77.363 28.5297 77.6487 28.8586 77.9193C29.367 78.3553 29.9053 78.7612 30.4586 79.1521C31.7894 80.0691 33.2248 80.7156 34.6603 81.4372C34.6752 81.4372 34.7051 81.4522 34.7201 81.4522C35.0192 81.5274 35.3631 81.5875 35.692 81.5875C36.0359 81.5875 36.3799 81.5274 36.664 81.362C37.2322 81.0463 37.5312 80.4149 37.6508 79.7985C37.7854 79.137 37.591 78.4906 37.6808 77.8441C37.7555 77.333 38.1443 76.897 38.6676 76.8669C38.6826 76.8669 38.7125 76.8669 38.7274 76.8669C39.1312 76.8669 39.505 77.0924 39.804 77.363C40.447 77.9193 40.8956 78.6559 41.4339 79.3024C42.032 80.009 42.675 80.6704 43.3628 81.3019C43.8862 81.7679 44.4394 82.234 45.0076 82.6699C45.83 82.7301 46.6674 82.7601 47.5047 82.7601C48.4169 82.7601 49.329 82.7301 50.256 82.6399C59.6613 81.8581 68.4386 77.0173 74.1506 69.4704C80.4607 61.1418 79.7878 49.5057 90.5837 45.0257C91.0323 44.8303 91.4958 44.6499 91.9444 44.4545C92.7219 44.244 93.5742 44.1688 94.4864 44.1688ZM94.4864 41.7634C93.4397 41.7634 92.4079 41.8687 91.4958 42.0491L91.2715 42.0942L91.0622 42.1844L89.7015 42.7556C86.1876 44.2139 83.4213 46.484 81.2532 49.7012C79.399 52.4373 78.1878 55.5493 77.0066 58.556C75.7206 61.8183 74.4048 65.1858 72.2815 67.9821C69.6797 71.4248 66.2854 74.3413 62.4725 76.446C58.6595 78.5507 54.383 79.8436 50.0916 80.2044C49.2393 80.2796 48.3869 80.3096 47.5346 80.3096C46.9963 80.3096 46.473 80.2946 45.9347 80.2645C45.6057 80.009 45.3067 79.7384 45.0076 79.4678C44.3946 78.9115 43.8263 78.3252 43.288 77.6938C43.1385 77.5284 42.989 77.333 42.8395 77.1225C42.4507 76.6114 42.0021 76.0251 41.389 75.4989C40.5666 74.7923 39.6844 74.4315 38.7574 74.4315C38.6826 74.4315 38.6228 74.4315 38.548 74.4315C36.9182 74.5367 35.5724 75.8146 35.3332 77.4683C35.2584 78.0245 35.2883 78.4906 35.3182 78.8815C35.3182 78.9266 35.3182 78.9867 35.3332 79.0468C35.1836 78.9716 35.0341 78.8965 34.8696 78.8213C33.7781 78.2801 32.7613 77.784 31.8492 77.1375C31.3707 76.8068 30.8922 76.446 30.4287 76.0551C29.995 75.6943 29.1128 74.9426 27.797 74.9426C27.5129 74.9426 27.2437 74.9727 26.9596 75.0479C26.0325 75.2884 25.2849 75.8597 24.8662 76.6715C24.7316 76.9421 24.627 77.2127 24.5522 77.5134C23.8345 78.0396 23.3261 78.8514 23.1616 79.8286C23.0868 80.3096 23.0868 80.7456 23.1467 81.1365C22.9074 81.377 22.713 81.6476 22.5784 81.9182C22.1299 82.8203 22.1299 83.7523 22.2495 84.489C22.085 84.7897 21.9205 85.1505 21.8607 85.5714C21.3972 88.6683 23.8644 91.1188 25.5092 92.7425C25.7335 92.968 25.9578 93.1784 26.1223 93.3588C28.0213 95.3583 30.1446 97.1172 32.4174 98.6056C41.6582 104.664 51.7812 107.866 61.7099 107.866C70.0685 107.866 77.9635 105.626 85.1708 101.221C97.4919 93.6595 106 80.7456 107.914 66.6591C108.318 63.6825 108.677 60.4803 108.527 57.2781C108.348 53.3694 107.435 50.2424 105.746 47.7167C104.849 46.3788 103.727 45.2061 102.411 44.259C99.8395 42.004 96.0265 41.7634 94.4864 41.7634Z" fill="#03BFD7"/>
<path d="M30.2495 87.4806C30.3243 87.4505 30.3841 87.3904 30.429 87.3152C30.5187 87.1348 30.4439 86.9243 30.2645 86.8341C27.4533 85.4511 25.5543 81.4972 25.5394 81.4521C25.4497 81.2717 25.2403 81.1966 25.0609 81.2868C24.8815 81.377 24.8067 81.5874 24.8964 81.7678C24.9114 81.8129 25.4048 82.8352 26.2721 84.0529C27.4384 85.7066 28.6795 86.8642 29.9654 87.4956C30.0402 87.5257 30.1598 87.5107 30.2495 87.4806Z" fill="#03BFD7"/>
<path d="M31.4302 84.5341C31.5049 84.504 31.5647 84.4439 31.6096 84.3687C31.6993 84.1883 31.6246 83.9779 31.4451 83.8877C28.634 82.5046 26.735 78.5507 26.72 78.5056C26.6303 78.3252 26.421 78.25 26.2416 78.3402C26.0621 78.4304 25.9874 78.6409 26.0771 78.8213C26.092 78.8664 26.5855 79.8887 27.4527 81.1064C28.6191 82.7601 29.8601 83.9177 31.1461 84.5491C31.2358 84.5642 31.3405 84.5642 31.4302 84.5341Z" fill="#03BFD7"/>
<path d="M29.3227 90.247C29.3975 90.2169 29.4573 90.1568 29.5022 90.0816C29.5919 89.9012 29.5171 89.6908 29.3377 89.6006C26.5266 88.2175 24.6276 84.2636 24.6126 84.2185C24.5229 84.0381 24.3136 83.9629 24.1341 84.0531C23.9547 84.1433 23.8799 84.3538 23.9697 84.5342C23.9846 84.5793 24.4781 85.6016 25.3453 86.8193C26.5116 88.473 27.7527 89.6306 29.0386 90.262C29.1134 90.2771 29.233 90.2771 29.3227 90.247Z" fill="#03BFD7"/>
<path d="M59.3026 112.797C48.9254 112.797 38.907 109.806 30.2344 104.123C30.4437 103.927 30.6531 103.732 30.8923 103.522C33.0904 101.582 35.3931 99.9436 37.7407 98.6507C39.7294 97.6885 41.748 96.9519 43.7517 96.4708C46.3535 95.9897 49.045 95.7492 51.6617 95.5237C53.9046 95.3282 56.2373 95.1178 58.525 94.7569C65.0744 93.7196 70.1583 91.6751 74.046 88.518C77.545 85.6766 80.4458 82.0986 82.9429 77.5585C84.7971 74.1759 86.2326 70.5678 87.6082 67.065L88.0717 65.9074C89.4623 62.3745 90.8978 58.7213 92.8865 55.5041C93.9631 53.9557 95.2491 52.4824 96.6845 51.1294C98.5985 49.4907 100.782 48.0024 103.159 46.7095C105.447 45.597 107.914 44.71 110.665 44.0034C112.863 51.5954 113.372 59.6835 112.161 67.4709C110.815 76.025 107.54 83.9177 102.397 90.9234C97.2677 97.914 90.7782 103.401 83.0775 107.235C75.7357 110.873 67.5117 112.797 59.3026 112.797Z" fill="white"/>
<path d="M109.828 45.4766C111.712 52.5725 112.101 60.0592 110.979 67.2904C110.336 71.3495 109.23 75.3484 107.66 79.1369C106.045 83.0456 103.951 86.774 101.439 90.2167C98.9273 93.6443 96.0115 96.7563 92.7967 99.4623C89.6716 102.093 86.2175 104.333 82.569 106.152C75.3917 109.715 67.362 111.594 59.3324 111.594C49.7177 111.594 40.4171 108.964 32.2379 103.957C34.1968 102.289 36.2303 100.86 38.3088 99.733C40.2078 98.8159 42.1217 98.1243 44.0357 97.6583C46.5627 97.1923 49.1047 96.9668 51.8111 96.7262C54.084 96.5308 56.4166 96.3203 58.7492 95.9595C65.5228 94.8921 70.7862 92.7724 74.8384 89.465C78.457 86.5184 81.4625 82.8201 84.0344 78.1447C85.9334 74.702 87.3688 71.0488 88.7594 67.5159L88.909 67.14C89.0136 66.8845 89.1183 66.6139 89.223 66.3583C90.5837 62.8855 92.0042 59.2925 93.9182 56.1655C94.9349 54.7072 96.1461 53.3091 97.5218 52.0162C99.361 50.4377 101.454 49.0095 103.742 47.7767C105.581 46.8597 107.6 46.108 109.828 45.4766ZM111.473 42.5601C108.422 43.2666 105.432 44.2589 102.606 45.6269C100.213 46.9198 97.9405 48.4382 95.877 50.2122C94.3967 51.6103 93.0509 53.1437 91.8846 54.8275C89.6865 58.3905 88.1763 62.3593 86.6511 66.238C85.2156 69.8762 83.7951 73.5444 81.8961 76.972C79.6532 81.0462 76.9019 84.6542 73.2983 87.5858C69.0068 91.0736 63.7135 92.7273 58.3455 93.5692C53.426 94.3509 48.4168 94.381 43.5123 95.298C41.3292 95.8242 39.2209 96.606 37.2023 97.5831C34.6453 98.9813 32.2828 100.695 30.0997 102.619C29.5016 103.161 28.9035 103.717 28.3203 104.273C37.7555 110.828 48.5813 114 59.3174 114C76.0944 114 92.6472 106.258 103.368 91.6298C114.089 76.972 116.512 58.7062 111.473 42.5601Z" fill="#03BFD7"/>
<path d="M90.8236 40.666C89.0293 33.525 85.9191 26.2487 80.3417 21.1373C72.9252 14.3571 65.06 13.0793 55.8342 15.2592C51.9764 16.1762 47.2961 17.875 43.1692 20.2954C42.3916 21.0772 41.644 21.874 40.9263 22.7158C40.4478 23.257 39.9992 23.8283 39.5506 24.3846C39.5207 24.4447 39.1618 24.8957 39.0871 25.0009C38.8777 25.2866 38.6684 25.5722 38.474 25.8729C37.6067 27.1357 36.7993 28.4587 36.0816 29.8267C35.6928 30.5634 35.3489 31.3151 35.005 32.0818C34.99 32.1119 34.9751 32.1419 34.9601 32.187C34.9452 32.2321 34.9302 32.2772 34.9152 32.2923C34.8853 32.3524 34.8554 32.4276 34.8405 32.4877C34.691 32.8635 34.5564 33.2394 34.4218 33.6152C33.9732 34.863 33.5994 36.1258 33.3153 37.4187C33.1807 38.0652 33.0462 38.7116 32.9415 39.3581C32.9116 39.5234 32.8966 39.6738 32.8667 39.8391C32.8667 40.215 32.8518 40.2601 32.8368 40.1849C32.8069 40.4104 32.7621 40.651 32.7471 40.8765C32.6125 42.2445 32.5677 43.6126 32.6125 44.9806C32.6275 45.5219 32.7172 46.0631 32.7621 46.6043C33.3153 48.4835 34.0031 50.3326 34.7807 52.1366C34.9302 52.4824 38.2049 52.302 38.5338 52.302C41.5244 52.302 44.5149 52.0013 47.4307 51.385C50.511 50.7235 53.5015 49.6411 56.2229 48.0475C57.5836 47.2507 58.8845 46.3036 60.0508 45.2512C60.8134 44.5597 61.6956 43.9283 62.2938 43.0563C63.3405 41.553 61.591 39.7189 61.7555 38.0201C61.9199 36.4115 63.0563 35.3291 64.5068 34.7728C69.5907 32.8184 73.9569 37.8998 72.9102 40.651C72.4616 41.8085 70.443 43.3269 71.1607 44.71C71.6093 45.567 72.671 46.2886 73.2392 47.1004C73.9719 48.1377 74.555 49.3103 74.555 50.6032C74.8391 52.5125 75.5868 53.3844 77.5007 52.6328C79.8782 51.7007 82.0763 50.4078 84.2743 49.1149C86.3827 47.8671 88.6106 46.7546 90.4349 45.1009C90.8236 44.7551 91.2124 44.3643 91.4217 43.8832C91.8554 42.891 91.0629 41.6281 90.8236 40.666Z" fill="#03BFD7"/>
<path d="M33.5989 70.2522C33.255 70.4326 32.8363 70.4026 32.5372 70.162C32.2083 69.9215 32.0737 69.4855 32.1784 69.0946L33.4194 64.6747L30.713 65.7722C30.2046 65.9827 29.6214 65.7271 29.427 65.2159C29.2177 64.7048 29.4719 64.1335 29.9803 63.9231L34.5559 62.0739C34.8998 61.9386 35.3035 61.9987 35.5876 62.2543C35.8717 62.5099 35.9764 62.9008 35.8717 63.2616L34.7652 67.2004L36.7689 65.9827C37.2324 65.7121 37.8455 65.8474 38.1296 66.3284C38.4137 66.7945 38.2642 67.4109 37.7857 67.6965L33.6437 70.2221C33.6288 70.2372 33.6138 70.2372 33.5989 70.2522Z" fill="#03BFD7"/>
<path d="M27.9766 53.7753C28.0365 54.0158 28.0215 54.2864 27.9318 54.542L25.5244 61.0515C25.33 61.5627 24.8515 61.9084 24.3132 61.9235C23.7749 61.9385 23.2815 61.6078 23.0721 61.1117L20.4853 54.8727L18.3321 58.6913C17.9732 59.3227 17.1658 59.5482 16.5378 59.1874C15.9097 58.8266 15.6854 58.0147 16.0443 57.3833L19.5134 51.2196C19.7676 50.7836 20.2311 50.513 20.7395 50.543C21.2479 50.5731 21.6815 50.8888 21.8759 51.3549L24.2235 56.9774L25.4646 53.6099C25.7188 52.9184 26.4814 52.5726 27.1692 52.8281C27.5879 52.9935 27.8869 53.3543 27.9766 53.7753Z" fill="#03BFD7"/>
</g>
<defs>
<clipPath id="clip0">
<rect width="114" height="114" fill="white"/>
</clipPath>
</defs>
</svg>
