<svg width="32" height="32" viewBox="0 0 32 32" fill="none" xmlns="http://www.w3.org/2000/svg">
<path d="M16 31C24.2843 31 31 24.2843 31 16C31 7.71573 24.2843 1 16 1C7.71573 1 1 7.71573 1 16C1 24.2843 7.71573 31 16 31Z" fill="#00BED9" stroke="white" stroke-width="1.5"/>
<path d="M11.3243 8.54688V20.3594C10.9189 20.0781 10.3784 19.9375 9.83784 19.9375C8.21622 19.9375 7 21.0625 7 22.4688C7 23.875 8.21622 25 9.83784 25C11.3243 25 12.5405 24.0156 12.6757 22.75V11.9219L20.7838 10.2344V18.8125C20.3784 18.5313 19.8378 18.3906 19.1622 18.3906C17.5405 18.3906 16.3243 19.5156 16.3243 20.9219C16.3243 22.3281 17.5405 23.4531 19.1622 23.4531C20.6486 23.4531 21.8649 22.3281 22 21.0625V7L11.3243 8.54688Z" fill="white"/>
</svg>
