<svg width="39" height="38" viewBox="0 0 39 38" fill="none" xmlns="http://www.w3.org/2000/svg">
<path opacity="0.4" fill-rule="evenodd" clip-rule="evenodd" d="M0.578125 19C0.578125 8.50819 9.08632 0 19.5781 0C30.0699 0 38.5781 8.50819 38.5781 19C38.5781 29.4918 30.0699 38 19.5781 38C9.08632 38 0.578125 29.4918 0.578125 19ZM29.9154 26.1465C30.185 25.4524 30.3697 24.6595 30.4225 23.4981C30.4758 22.3346 30.4883 21.963 30.4883 19C30.4883 16.037 30.4758 15.6654 30.4228 14.5019C30.3697 13.3405 30.1853 12.5476 29.9154 11.8535C29.6417 11.1256 29.2121 10.4663 28.6572 9.92125C28.1121 9.36606 27.4526 8.9364 26.7246 8.66243C26.0305 8.3931 25.2376 8.20871 24.0762 8.15594C22.9128 8.1026 22.5411 8.08984 19.5781 8.08984C16.6152 8.08984 16.2435 8.1026 15.0801 8.15565C13.9187 8.20871 13.1257 8.3931 12.4317 8.66272C11.7037 8.93669 11.0441 9.36606 10.4994 9.92125C9.94418 10.466 9.51453 11.1256 9.24055 11.8535C8.97093 12.5476 8.78654 13.3405 8.73378 14.5019C8.68044 15.6654 8.66797 16.037 8.66797 19C8.66797 21.963 8.68044 22.3346 8.73407 23.4984C8.78683 24.6595 8.97151 25.4527 9.24113 26.1465C9.51511 26.8744 9.94447 27.534 10.4994 28.0788C11.0444 28.6339 11.7037 29.0633 12.432 29.3373C13.1257 29.6069 13.9189 29.7913 15.0801 29.8443C16.2438 29.8974 16.6152 29.9102 19.5784 29.9102C22.5414 29.9102 22.913 29.8974 24.0765 29.8443C25.2376 29.7913 26.0308 29.6069 26.7246 29.3373C28.1901 28.7705 29.3486 27.612 29.9154 26.1465ZM28.0809 12.5656C27.9061 12.0919 27.6272 11.6631 27.2648 11.3111C26.9128 10.9487 26.4843 10.6698 26.0103 10.495C25.6259 10.3457 25.0484 10.168 23.9847 10.1196C22.834 10.0671 22.489 10.0558 19.5759 10.0558C16.6625 10.0558 16.3175 10.0668 15.1671 10.1193C14.1034 10.168 13.5256 10.3457 13.1415 10.495C12.6675 10.6698 12.2387 10.9487 11.887 11.3111C11.5246 11.6631 11.2457 12.0916 11.0706 12.5656C10.9213 12.95 10.7436 13.5278 10.6952 14.5915C10.6427 15.7419 10.6314 16.0869 10.6314 19.0003C10.6314 21.9134 10.6427 22.2584 10.6952 23.4091C10.7436 24.4728 10.9213 25.0503 11.0706 25.4347C11.2457 25.9087 11.5243 26.3372 11.8867 26.6892C12.2387 27.0516 12.6672 27.3305 13.1412 27.5053C13.5256 27.6549 14.1034 27.8326 15.1671 27.8811C16.3175 27.9335 16.6622 27.9445 19.5756 27.9445C22.4893 27.9445 22.8343 27.9335 23.9844 27.8811C25.0481 27.8326 25.6259 27.6549 26.0103 27.5053C26.9618 27.1383 27.7139 26.3862 28.0809 25.4347C28.2302 25.0503 28.4079 24.4728 28.4566 23.4091C28.5091 22.2584 28.5201 21.9134 28.5201 19.0003C28.5201 16.0869 28.5091 15.7419 28.4566 14.5915C28.4082 13.5278 28.2305 12.95 28.0809 12.5656ZM19.5759 24.6024C16.4816 24.6024 13.9733 22.0943 13.9733 19C13.9733 15.9057 16.4816 13.3977 19.5759 13.3977C22.6699 13.3977 25.1783 15.9057 25.1783 19C25.1783 22.0943 22.6699 24.6024 19.5759 24.6024ZM25.3998 14.4854C24.6767 14.4854 24.0905 13.8992 24.0905 13.1762C24.0905 12.4531 24.6767 11.8669 25.3998 11.8669C26.1228 11.8669 26.709 12.4531 26.709 13.1762C26.7087 13.8992 26.1228 14.4854 25.3998 14.4854ZM23.2148 19C23.2148 21.0085 21.5867 22.6367 19.5781 22.6367C17.5696 22.6367 15.9414 21.0085 15.9414 19C15.9414 16.9915 17.5696 15.3633 19.5781 15.3633C21.5867 15.3633 23.2148 16.9915 23.2148 19Z" fill="#313131"/>
</svg>
