<svg width="38" height="38" viewBox="0 0 38 38" fill="none" xmlns="http://www.w3.org/2000/svg">
<circle opacity="0.4" cx="19" cy="19" r="19" fill="#313131"/>
<path d="M21.4772 16.6104C21.2156 16.3472 20.9254 16.1138 20.6122 15.9146C19.7825 15.3834 18.818 15.1011 17.8329 15.1011C16.4655 15.0985 15.1537 15.6418 14.1885 16.6104L9.50598 21.2965C8.54243 22.2619 8.00086 23.57 8 24.9339C7.99819 27.7802 10.3041 30.0891 13.1504 30.0909C14.5156 30.0956 15.8262 29.5549 16.7911 28.589L20.6563 24.7237C20.7266 24.6541 20.7658 24.5591 20.7652 24.4602C20.7641 24.2569 20.5983 24.0931 20.395 24.0942H20.2477C19.4402 24.0971 18.6398 23.942 17.8918 23.6378C17.7539 23.581 17.5955 23.6131 17.4905 23.7187L14.7112 26.5017C13.8482 27.3648 12.4489 27.3648 11.5859 26.5017C10.7228 25.6387 10.7228 24.2394 11.5859 23.3764L16.2868 18.6792C17.1491 17.8179 18.5461 17.8179 19.4085 18.6792C19.9896 19.2262 20.8962 19.2262 21.4773 18.6792C21.7273 18.429 21.8789 18.097 21.9043 17.7442C21.9312 17.3225 21.7757 16.9095 21.4772 16.6104Z" fill="white"/>
<path d="M28.5769 9.50955C26.5642 7.49682 23.3009 7.49682 21.2881 9.50955L17.4265 13.3674C17.3205 13.474 17.2899 13.6342 17.3492 13.7724C17.4079 13.9109 17.5449 13.9998 17.6953 13.9969H17.8315C18.6381 13.9955 19.4371 14.1517 20.1837 14.4571C20.3216 14.5138 20.48 14.4818 20.585 14.3761L23.3569 11.6078C24.22 10.7448 25.6192 10.7448 26.4822 11.6078C27.3453 12.4709 27.3453 13.8701 26.4822 14.7332L23.0293 18.1824L22.9998 18.2156L21.7924 19.4157C20.93 20.2769 19.5331 20.2769 18.6707 19.4157C18.0896 18.8687 17.183 18.8687 16.6019 19.4157C16.3503 19.6678 16.1986 20.0026 16.1749 20.358C16.148 20.7797 16.3035 21.1927 16.6019 21.4918C17.028 21.9197 17.5265 22.2687 18.0744 22.5226C18.1517 22.5594 18.229 22.5888 18.3063 22.622C18.3836 22.6551 18.4646 22.6808 18.5419 22.7103C18.6192 22.7398 18.7001 22.7655 18.7774 22.7876L18.9947 22.8465C19.1419 22.8833 19.2892 22.9128 19.4401 22.9385C19.6218 22.9655 19.8049 22.9827 19.9886 22.9901H20.2462H20.2683L20.4892 22.9643C20.5702 22.9606 20.6549 22.9422 20.7506 22.9422H20.8757L21.1297 22.9054L21.2475 22.8833L21.461 22.8392H21.5015C22.4058 22.612 23.2315 22.1439 23.8906 21.4845L28.5768 16.7983C30.5896 14.7856 30.5896 11.5223 28.5769 9.50955Z" fill="white"/>
</svg>
