<svg width="16" height="14" viewBox="0 0 16 14" fill="none" xmlns="http://www.w3.org/2000/svg">
<path d="M11.2675 14C9.0867 14 6.90589 14 4.71796 14C4.63243 13.7606 4.66807 13.6342 4.97452 13.6276C5.24534 13.6209 5.51616 13.5876 5.78698 13.5477C6.43552 13.4347 6.81324 13.1021 6.86313 12.4836C6.92727 11.6589 6.92727 10.8276 6.94865 9.9962C6.9629 9.47743 6.92727 8.95202 6.95578 8.43325C6.97716 8.11401 6.83462 8.05416 6.5353 8.0209C5.77273 7.93444 5.00303 7.86128 4.26184 7.69501C2.50151 7.29596 1.41111 6.15202 1.19731 4.46936C1.07615 3.50499 1.05477 2.52732 0.983501 1.55629C0.947867 1.01093 0.812458 0.525416 0.121156 0.385748C0.0570146 0.372447 0 0.219477 0 0.133017C0 0.0864608 0.142536 0 0.220931 0C1.84585 0.00665083 2.96476 0.911164 3.17856 2.41425C3.29972 3.25891 3.36386 4.11021 3.46364 4.95487C3.60617 6.10546 4.26897 6.85036 5.46627 7.14299C5.92952 7.25606 6.41414 7.27601 6.87738 7.33587C6.92014 7.2361 6.94152 7.20285 6.94152 7.17625C6.94152 5.51354 6.94152 3.85083 6.92727 2.18812C6.91302 0.984323 6.52817 0.665083 5.08855 0.532067C5.00303 0.525416 4.91038 0.545368 4.84624 0.512114C4.7821 0.47886 4.69658 0.405701 4.69658 0.345843C4.69658 0.285986 4.77497 0.206176 4.83911 0.172922C4.89613 0.146318 4.97452 0.15962 5.04579 0.15962C7.01992 0.15962 8.98692 0.15962 10.9611 0.15962C11.1962 0.15962 11.3815 0.179572 11.2675 0.492162C10.9896 0.525416 10.6831 0.552019 10.3838 0.591924C9.50718 0.711639 9.1152 1.03753 9.10095 1.86223C9.05819 3.65131 9.0867 5.44703 9.0867 7.24276C10.3838 7.45558 12.1013 6.81045 12.3793 5.49359C12.5575 4.64893 12.6145 3.78432 12.7214 2.93302C12.8069 2.29454 12.9423 1.66936 13.32 1.11069C13.7619 0.458907 14.4247 0.166271 15.2086 0.0532067C15.4082 0.0266033 15.6077 0 15.8073 0C15.8786 0 16.0068 0.07981 15.9997 0.119715C15.9926 0.212827 15.9356 0.365796 15.8786 0.379097C15.1017 0.512114 15.0162 1.07743 14.9735 1.6361C14.9093 2.4209 14.9236 3.2057 14.8523 3.9905C14.7525 5.14774 14.4389 6.21853 13.3628 6.95677C12.6002 7.48219 11.7379 7.76817 10.8114 7.90119C10.3196 7.9677 9.82076 8.0076 9.32901 8.04086C9.1152 8.05416 9.01543 8.11401 9.02256 8.33349C9.05106 9.68361 9.05819 11.0337 9.10095 12.3838C9.12233 13.0356 9.50005 13.4147 10.1985 13.5477C10.455 13.5943 10.7187 13.6276 10.9753 13.6276C11.2746 13.6276 11.3602 13.734 11.2675 14Z" fill="black"/>
</svg>
