<svg width="33" height="32" viewBox="0 0 33 32" fill="none" xmlns="http://www.w3.org/2000/svg">
<g opacity="0.4">
<path fill-rule="evenodd" clip-rule="evenodd" d="M32.2636 16C32.2636 24.8365 25.1002 31.9999 16.2636 31.9999C7.4271 31.9999 0.263672 24.8365 0.263672 16C0.263672 7.16343 7.4271 0 16.2636 0C25.1002 0 32.2636 7.16343 32.2636 16ZM23.8648 12.1C24.6383 12.0081 25.3759 11.8025 26.0615 11.4984C25.549 12.2654 24.9007 12.9388 24.1529 13.4778C24.1603 13.6416 24.164 13.8067 24.164 13.9724C24.164 19.0267 20.317 24.8542 13.2825 24.8542C11.1228 24.8542 9.11206 24.2213 7.42045 23.1358C7.71907 23.1714 8.02425 23.1894 8.33228 23.1894C10.1246 23.1894 11.7734 22.5782 13.0825 21.5523C11.4086 21.5212 9.99651 20.4154 9.50994 18.8963C9.74324 18.9408 9.98254 18.9645 10.2295 18.9645C10.5778 18.9645 10.9163 18.918 11.2369 18.8302C9.48769 18.4791 8.16886 16.9335 8.16886 15.0805C8.16886 15.0645 8.16886 15.0482 8.16914 15.032C8.68453 15.3192 9.27463 15.4912 9.90125 15.5108C8.87562 14.8252 8.19995 13.6541 8.19995 12.3276C8.19995 11.6268 8.38876 10.9694 8.7179 10.4047C10.6043 12.7192 13.4225 14.2416 16.6009 14.4011C16.5353 14.121 16.5014 13.8292 16.5014 13.5295C16.5014 11.4177 18.2141 9.70502 20.3258 9.70502C21.4265 9.70502 22.4205 10.1693 23.1181 10.9123C23.9889 10.7409 24.8077 10.4229 25.5467 9.98453C25.2606 10.8781 24.6546 11.6268 23.8648 12.1Z" fill="#313131"/>
</g>
</svg>
