<svg width="38" height="38" viewBox="0 0 38 38" fill="none" xmlns="http://www.w3.org/2000/svg">
<g opacity="0.4">
<path fill-rule="evenodd" clip-rule="evenodd" d="M38 19C38 29.4934 29.4934 38 19 38C8.50659 38 0 29.4934 0 19C0 8.50659 8.50659 0 19 0C29.4934 0 38 8.50659 38 19ZM28.0277 14.3689C28.9462 14.2598 29.8221 14.0157 30.6363 13.6546C30.0277 14.5654 29.2578 15.365 28.3698 16.0051C28.3786 16.1995 28.383 16.3956 28.383 16.5924C28.383 22.5944 23.8147 29.5146 15.4612 29.5146C12.8966 29.5146 10.5088 28.763 8.5 27.474C8.85461 27.5163 9.21701 27.5376 9.5828 27.5376C11.7111 27.5376 13.6691 26.8118 15.2237 25.5935C13.2359 25.5566 11.5591 24.2435 10.9813 22.4396C11.2583 22.4925 11.5425 22.5206 11.8358 22.5206C12.2493 22.5206 12.6514 22.4654 13.0321 22.361C10.9548 21.9441 9.38873 20.1087 9.38873 17.9082C9.38873 17.8893 9.38873 17.87 9.38907 17.8507C10.0011 18.1917 10.7018 18.396 11.446 18.4193C10.228 17.6051 9.42565 16.2144 9.42565 14.6392C9.42565 13.807 9.64986 13.0263 10.0407 12.3557C12.2808 15.1042 15.6275 16.9122 19.4018 17.1015C19.3239 16.7689 19.2836 16.4224 19.2836 16.0664C19.2836 13.5588 21.3175 11.5249 23.8252 11.5249C25.1322 11.5249 26.3125 12.0763 27.141 12.9586C28.175 12.755 29.1474 12.3774 30.025 11.8568C29.6852 12.9179 28.9655 13.807 28.0277 14.3689Z" fill="#313131"/>
</g>
</svg>
