<svg width="40" height="40" viewBox="0 0 40 40" fill="none" xmlns="http://www.w3.org/2000/svg">
<path fill-rule="evenodd" clip-rule="evenodd" d="M20 0C8.95433 0 0 8.95433 0 20C0 31.0457 8.95433 40 20 40C31.0457 40 40 31.0457 40 20C40 8.95433 31.0457 0 20 0Z" fill="#03BFD7"/>
<path fill-rule="evenodd" clip-rule="evenodd" d="M20.8826 24.5791C20.7273 24.7323 20.4241 24.7632 20.4241 24.7632H19.42C19.42 24.7632 17.2047 24.8854 15.2532 23.0205C13.125 20.9857 11.2458 16.9487 11.2458 16.9487C11.2458 16.9487 11.1374 16.6839 11.2549 16.5564C11.3872 16.4123 11.7479 16.4032 11.7479 16.4032L14.148 16.3889C14.148 16.3889 14.374 16.4229 14.5358 16.5322C14.6698 16.6228 14.7446 16.791 14.7446 16.791C14.7446 16.791 15.1324 17.6918 15.646 18.5066C16.6492 20.0977 17.116 20.4455 17.4562 20.275C17.9525 20.0268 17.8037 18.026 17.8037 18.026C17.8037 18.026 17.8128 17.3003 17.5539 16.9766C17.3535 16.7262 16.9755 16.6529 16.8086 16.6326C16.6731 16.616 16.8949 16.3278 17.1825 16.1988C17.6147 16.0049 18.3773 15.9936 19.2786 16.0019C19.9812 16.0086 20.1833 16.0487 20.4578 16.1097C21.0947 16.2509 21.0749 16.7031 21.0319 17.6793C21.0191 17.9712 21.0042 18.3099 21.0042 18.7012C21.0042 18.7892 21.0014 18.8829 20.9985 18.9794C20.9836 19.4794 20.9666 20.0521 21.3255 20.2652C21.5096 20.3738 21.959 20.2811 23.0839 18.5277C23.6172 17.6963 24.0165 16.7193 24.0165 16.7193C24.0165 16.7193 24.1044 16.5451 24.24 16.4704C24.3789 16.3942 24.5662 16.4176 24.5662 16.4176L27.0921 16.4032C27.0921 16.4032 27.8514 16.3195 27.9738 16.6349C28.1028 16.9645 27.6903 17.7356 26.6582 18.9985C25.6792 20.1969 25.2029 20.638 25.2466 21.0282C25.2785 21.3134 25.5882 21.5713 26.1825 22.0774C27.423 23.1349 27.7556 23.6913 27.8355 23.825C27.8421 23.8361 27.847 23.8442 27.8505 23.8496C28.4068 24.6968 27.2334 24.7632 27.2334 24.7632L24.9894 24.7919C24.9894 24.7919 24.5079 24.8794 23.8736 24.4796C23.5412 24.2702 23.2165 23.9285 22.9073 23.6029C22.4349 23.1057 21.9987 22.6464 21.6262 22.7549C21.0009 22.9375 21.0198 24.174 21.0198 24.174C21.0198 24.174 21.0247 24.4388 20.8826 24.5791Z" fill="white"/>
</svg>
