<svg width="203" height="182" viewBox="0 0 203 182" fill="none" xmlns="http://www.w3.org/2000/svg">
<path d="M199.305 85.4026C199.981 93.6477 196.563 100.025 189.53 104.257C189.073 102.827 188.517 101.416 187.782 100.085C185.676 96.2106 182.219 92.8927 177.828 91.4424C175.444 90.6676 172.782 90.4689 170.418 91.2437C168.033 92.0384 166.007 93.8861 165.471 96.1908C164.934 98.4954 166.106 101.158 168.391 102.151C170.676 103.144 173.815 102.072 174.61 99.8265C175.007 98.6742 174.788 97.3629 174.014 96.4093C173.815 97.5616 173.358 98.6941 172.444 99.4888C171.53 100.283 170.1 100.601 169.027 100.045C167.716 99.3894 167.338 97.6411 167.974 96.3696C168.61 95.098 170 94.2835 171.451 93.906C175.265 92.8729 179.477 94.4623 182.219 97.1245C184.961 99.8067 186.431 103.403 187.365 106.999C188.596 111.787 188.974 116.913 187.464 121.621C185.735 127.005 181.543 131.615 176.199 134.178C170.855 136.741 164.457 137.257 158.696 135.688C155.139 134.734 151.861 133.025 148.722 131.217C147.947 132.409 149.239 133.86 150.51 134.595C151.782 135.33 153.351 136.204 153.331 137.595C153.331 138.111 153.093 138.588 152.835 139.065C147.113 149.813 135.59 157.701 122.914 159.549C115.325 160.661 106.841 159.449 101.417 154.343C98.1988 151.323 96.3114 146.635 98.02 142.661C100.126 137.754 106.861 135.866 112.384 137.039C116.278 137.873 120.232 140.416 120.629 144.131C120.907 146.813 119.04 149.555 116.318 150.449C113.596 151.323 110.298 150.251 108.748 147.986C108.172 147.151 107.874 146.158 108.172 145.164C108.609 143.813 109.821 142.621 111.411 142.741C111.868 142.78 113.874 143.535 113.298 142.204C112.801 141.012 110.477 140.813 109.364 140.992C105.073 141.707 104.02 146.555 106.146 149.575C107.497 151.502 109.801 152.714 112.225 153.151C115.345 153.727 118.821 153.012 121.066 150.906C124.166 147.986 124.186 142.959 121.742 139.542C119.298 136.125 114.888 134.257 110.517 133.899C106.523 133.582 102.331 134.476 99.1525 136.78C95.9736 139.085 93.9869 142.9 94.4836 146.635C94.6028 147.469 94.8213 148.323 94.6226 149.158C94.2054 150.807 91.7021 150.906 90.2518 151.105C87.9471 151.443 85.6226 151.542 83.2981 151.482C79.6623 151.403 75.9471 151.244 72.4504 150.27C69.2914 149.416 66.3113 148.085 63.5894 146.337C60.947 144.648 58.5232 142.522 56.7947 139.979C55.8609 138.608 55.0861 137.019 54.7285 135.409C53.9934 132.131 56.1987 129.33 59.6358 130.601C60.3709 130.88 61.1259 131.337 61.3047 132.111C61.5629 133.184 60.5894 134.376 59.6954 134.853C59.0795 135.191 57.3311 135.568 59.0199 136.284C59.6358 136.542 60.4305 136.502 61.0861 136.363C62.3378 136.105 63.3312 135.25 63.7682 134.039C64.5828 131.734 63.2517 129.449 61.1656 128.436C59.596 127.661 57.6888 127.462 56 127.919C54.4901 128.317 53.5563 129.548 52.5232 130.621C51.4702 131.714 50.2583 132.648 48.947 133.403C46.3245 134.913 43.2649 135.688 40.3245 135.966C37.1059 136.264 33.788 136.125 30.6489 135.39C23.7946 133.8 17.5959 129.509 14.437 123.568C11.576 118.184 9.70849 112.105 9.64888 106.065C9.62902 104.615 9.72835 103.184 9.96676 101.754C10.086 100.204 10.4635 98.6543 11.1986 97.3232C11.5562 96.4292 11.9933 95.555 12.5098 94.7205C14.278 91.8397 17.3774 88.8596 21.2516 89.9523C23.3178 90.5483 24.8675 91.8 24.5893 93.9457C24.5099 94.502 24.3708 95.0782 23.9933 95.5153C22.9999 96.7272 20.2582 95.2172 19.9204 95.8729C19.7615 96.2106 19.841 96.608 20.0595 96.9259C20.6754 97.8199 22.3244 98.5351 23.4569 98.4557C25.4635 98.3365 26.7946 96.5682 27.2715 94.8795C27.788 93.0517 27.5893 91.2239 26.2582 89.7338C24.9469 88.2437 22.9006 87.3497 20.8939 87.0318C16.7416 86.396 13.2648 89.1775 10.9204 92.0583C9.82769 93.3894 8.97338 94.8795 8.33762 96.4292C3.96675 92.4755 1.64224 86.7735 2.8939 81.4887C4.54291 74.4953 9.07272 69.7072 15.8674 67.2039C17.0794 66.747 18.0131 66.9258 18.629 68.3761C19.5628 70.5615 21.2516 72.1112 23.5562 72.9059C26.5959 73.9589 29.735 72.6476 31.0463 69.8662C32.298 67.1841 30.0927 64.6609 27.49 64.0648C27.033 63.9655 26.3973 64.2436 26.4569 64.7801C26.5165 65.237 27.0926 65.3562 27.4304 65.4953C28.2847 65.8132 28.9006 66.588 29.1589 67.4622C29.4966 68.5748 28.9999 69.4887 28.2251 70.2039C27.0926 71.2569 25.7615 71.1774 24.4105 70.5814C21.7284 69.4092 19.4436 66.0516 20.4767 62.8926C21.2516 60.5085 22.1257 58.2834 23.7549 56.3761C28.4635 50.8926 34.7218 48.3098 41.5761 46.78C43.543 46.3429 44.7152 46.6211 45.8278 48.6476C50.0596 56.2966 59.3378 59.3363 66.649 55.7403C70.1855 53.992 71.8345 50.3363 70.7616 46.5217C69.808 43.1045 66.3709 40.6807 62.8146 40.9588C61.0662 41.0979 59.4371 41.674 58.5232 43.3032C57.6093 44.9125 58.0464 47.4158 59.4768 48.6078C60.351 49.3429 61.6225 49.6807 62.6755 49.2237C63.4901 48.8661 64.5828 47.8529 63.2119 47.376C62.5166 47.1376 61.6027 47.5747 61.0464 46.939C60.6093 46.4621 60.7484 45.6277 61.0464 45.1111C63.1722 41.5548 67.6027 44.535 68.2782 47.5549C68.8742 50.237 68 52.0648 65.6358 53.3165C63.649 54.3694 61.4636 54.8264 59.2384 54.6277C52.9801 54.1112 48.0728 49.78 46.2848 43.3231C44.5165 36.9654 46.543 30.6078 51.7086 27.0117C58.8212 22.0846 66.5696 21.7468 74.5762 24.3296C76.0862 24.8263 77.8345 25.7005 78.0928 27.4488C78.1921 28.1243 78.1127 28.7998 78.0332 29.4753C77.457 34.9191 77.4968 40.7999 79.6425 45.9257C79.7418 46.184 80.0597 47.5946 80.6557 47.0383C80.8544 46.8595 80.8544 46.5217 80.8544 46.2436C80.7352 43.6409 80.7352 40.9985 80.457 38.4158C80.159 35.6939 80.2981 32.9522 80.5365 30.2502C82.1855 12.0316 95.8346 0.230214 113.457 3.13088C123.292 4.74016 130.563 10.0845 133.941 19.8197C136.563 27.3892 134.239 34.9787 128.298 38.8727C122.119 42.9257 111.629 42.8661 105.49 38.7535C102.252 36.5879 101.179 33.3694 102.033 29.6343C102.748 26.4952 106.364 22.4223 109.702 25.1641C110.934 26.1773 111.232 27.5283 111.788 28.919C111.967 29.3561 113.477 32.1575 113.775 30.5482C114.292 27.7469 113.278 24.7667 110.795 23.217C108.729 21.9455 106.106 21.3693 103.762 22.2435C100.166 23.5945 98.2783 27.8859 98.4968 31.5416C98.7352 35.9124 101.477 39.5283 105.252 41.5946C110.119 44.237 115.345 44.8131 120.808 44.1376C127.98 43.2436 135.51 38.8528 137.02 30.27C137.259 28.9389 137.914 28.3031 139.345 28.0449C145.623 26.9124 151.166 28.6806 156.093 32.4157C157.742 33.6674 159.371 34.9985 160.782 36.5482C161.338 37.1641 164.775 41.0383 163.523 41.9124C163.345 42.0317 163.126 42.0118 162.927 42.0118C157.821 41.6542 152.457 41.2966 147.669 43.5217C143.517 45.4688 140.119 48.29 139.305 53.1178C138.252 59.3165 145.265 64.184 150.709 60.9456C152.596 59.8132 153.252 58.0648 152.954 55.8993C152.696 54.0714 151.106 52.6608 149.358 52.3032C148.543 52.1244 147.649 52.1641 146.894 52.5416C146.318 52.8198 144.908 54.0714 146.417 54.131C147.014 54.1509 147.53 53.7734 148.146 53.833C149.08 53.9324 149.994 54.4489 150.451 55.2834C151.086 56.4357 150.788 57.8065 149.715 58.6012C145.186 61.939 140.338 55.9589 142.563 51.588C144.073 48.6277 146.596 46.7601 149.596 45.588C157.027 42.6873 164 44.1178 170.517 48.2502C178.563 53.3562 181.126 62.0781 181.146 71.1576C181.146 71.8529 180.649 76.4821 181.742 76.2834C182.517 76.1443 183.093 73.6013 183.292 72.9655C183.729 71.6145 184.027 70.2437 184.007 68.8132C183.947 66.3099 184.921 66.3297 186.61 67.1841C194.06 71.0384 198.61 76.9788 199.305 85.4026Z" fill="white"/>
<path d="M198.47 74.2768C200.993 78.31 202.702 83.9126 202.166 88.7206C201.232 96.8862 197.258 102.986 190.225 106.959C190.603 108.827 190.821 110.734 190.921 112.641C191.179 117.886 190.523 123.33 187.742 127.88C182.755 136.065 171.828 139.76 161.755 139.343C160.444 139.284 159.093 139.184 157.861 139.621C156.291 140.178 155.219 141.529 154.225 142.8C150.947 146.953 147.43 150.986 143.139 154.244C135.887 159.747 126.55 162.787 117.212 162.668C113.179 162.628 109.106 161.953 105.41 160.383C103.602 159.608 101.894 158.635 100.384 157.403C98.8144 156.112 97.5826 152.019 95.1389 152.257C93.3111 152.436 91.7018 153.41 89.9534 153.847C84.4104 155.217 78.4302 154.582 72.9269 153.35C65.9732 151.8 59.0196 147.906 54.8871 142.363C54.1719 141.39 53.5162 140.376 52.9798 139.284C52.503 138.33 52.4434 136.999 51.45 136.403C50.8937 136.065 50.1984 136.105 49.5825 136.264C48.1917 136.641 46.9202 137.456 45.5295 137.774C35.8142 139.999 25.8804 138.608 18.1519 132.469C14.9334 129.906 12.6287 126.827 10.94 123.231C7.86049 116.654 5.93333 109.244 6.90684 102.012C7.02605 101.058 7.22473 100.125 7.46314 99.1908C1.82074 94.6809 -1.07993 88.661 0.370402 81.1709C2.01941 72.7868 7.483 67.204 15.7281 64.6609C17.0195 64.2636 17.7148 63.8662 17.9532 62.4556C18.5294 58.8993 20.3969 55.9589 22.94 53.4357C28.2049 48.2105 34.6818 45.3893 41.9136 44.1973C43.3639 43.9589 43.6023 43.6807 43.4036 42.2105C42.1718 33.3098 45.748 26.5151 53.7745 22.8396C62.2381 18.9654 70.6819 19.2436 79.0263 23.4952C79.2249 22.9191 79.4435 22.3628 79.6223 21.8065C79.821 21.2502 79.9799 20.674 80.1786 20.1178C84.0925 9.80646 91.3044 3.21041 102.132 0.726964C113.675 -1.91543 126.013 2.81306 133.165 12.1906C135.172 14.833 137.119 17.7932 137.834 21.0515C138.271 22.9787 138.49 24.6674 140.934 24.4886C147.252 24.0515 152.973 25.78 158.06 29.5946C160.702 31.5814 163.225 34.0251 164.954 36.9257C165.887 38.4754 166.464 40.2238 167.437 41.7337C168.589 43.5019 170.437 44.1973 172.146 45.2304C176.834 48.0317 180.272 52.045 181.702 57.3695C182.397 59.9722 183.391 62.5748 185.755 64.0848C188 65.5152 190.642 66.2305 192.748 67.8993C194.974 69.6874 196.96 71.853 198.47 74.2768ZM189.53 104.257C196.563 100.025 200 93.6478 199.305 85.4027C198.609 76.9788 194.06 71.0186 186.57 67.2636C184.861 66.4093 183.907 66.4093 183.967 68.8927C183.987 70.3033 183.709 71.6941 183.252 73.0451C183.033 73.6808 182.457 76.2239 181.702 76.3629C180.609 76.5616 181.106 71.9325 181.106 71.2371C181.086 62.1576 178.523 53.4357 170.477 48.3298C163.96 44.1973 156.987 42.7668 149.556 45.6675C146.536 46.8397 144.033 48.7072 142.523 51.6675C140.298 56.0185 145.146 61.9987 149.675 58.6808C150.748 57.8861 151.046 56.5152 150.411 55.3629C149.954 54.5284 149.04 54.0119 148.106 53.9125C147.49 53.8529 146.973 54.2304 146.377 54.2106C144.868 54.151 146.278 52.8993 146.854 52.6212C147.629 52.2437 148.503 52.2039 149.318 52.3827C151.066 52.7404 152.656 54.151 152.914 55.9788C153.212 58.1245 152.556 59.8927 150.669 61.0251C145.225 64.2636 138.212 59.4159 139.265 53.1973C140.079 48.3496 143.477 45.5284 147.629 43.6013C152.397 41.3761 157.781 41.7536 162.887 42.0913C163.086 42.1112 163.325 42.1112 163.483 41.992C164.735 41.1178 161.298 37.2436 160.742 36.6277C159.351 35.0781 157.722 33.7469 156.053 32.4953C151.126 28.7602 145.603 26.9919 139.305 28.1244C137.874 28.3827 137.218 29.0184 136.98 30.3496C135.47 38.9324 127.96 43.3231 120.768 44.2172C115.285 44.9125 110.079 44.3165 105.212 41.6741C101.437 39.6277 98.6952 36.0118 98.4568 31.6211C98.2581 27.9655 100.126 23.674 103.722 22.3231C106.066 21.4489 108.689 22.025 110.755 23.2966C113.238 24.8264 114.232 27.8264 113.735 30.6277C113.437 32.237 111.927 29.4357 111.748 28.9986C111.192 27.6078 110.894 26.2568 109.662 25.2436C106.324 22.5217 102.708 26.5747 101.993 29.7138C101.139 33.4489 102.192 36.6675 105.45 38.833C111.589 42.9456 122.079 43.0052 128.258 38.9522C134.199 35.0582 136.523 27.4688 133.901 19.8992C130.523 10.1641 123.252 4.81969 113.417 3.21041C95.8541 0.329611 82.2051 12.131 80.5561 30.3496C80.3176 33.0714 80.1786 35.8132 80.4766 38.5152C80.7547 41.0979 80.7547 43.7403 80.8739 46.343C80.8938 46.6211 80.8739 46.939 80.6753 47.1377C80.0792 47.694 79.7614 46.2834 79.662 46.0251C77.5163 40.8993 77.4766 35.0185 78.0527 29.5747C78.1322 28.8992 78.2117 28.2237 78.1124 27.5482C77.8541 25.7999 76.1057 24.9257 74.5958 24.429C66.5891 21.8462 58.8408 22.184 51.7282 27.1111C46.5427 30.6873 44.5361 37.0648 46.3043 43.4225C48.0924 49.8794 52.9997 54.2106 59.258 54.7271C61.4832 54.9059 63.6487 54.4688 65.6554 53.4159C68.0196 52.1642 68.8739 50.3364 68.2977 47.6543C67.6024 44.6344 63.1719 41.6542 61.0461 45.2105C60.7481 45.7072 60.609 46.5615 61.0461 47.0384C61.6024 47.6741 62.5163 47.237 63.2116 47.4754C64.5825 47.9523 63.4898 48.9655 62.6752 49.3231C61.6024 49.7801 60.3507 49.4423 59.4765 48.7072C58.0461 47.5152 57.609 45.0119 58.5229 43.4026C59.4567 41.7734 61.0659 41.1973 62.8143 41.0582C66.3706 40.7801 69.7878 43.2039 70.7613 46.6211C71.8342 50.4158 70.1852 54.0914 66.6487 55.8397C59.3375 59.4357 50.0593 56.396 45.8275 48.747C44.7149 46.7403 43.5427 46.4423 41.5758 46.8794C34.7215 48.4092 28.4632 50.992 23.7546 56.4755C22.1254 58.3828 21.2513 60.6079 20.4764 62.992C19.4433 66.151 21.7281 69.5086 24.4102 70.6808C25.7612 71.257 27.0725 71.3563 28.2248 70.3033C28.9996 69.5881 29.4963 68.6742 29.1586 67.5616C28.9003 66.6874 28.3043 65.9126 27.4301 65.5947C27.0725 65.4556 26.4963 65.3364 26.4566 64.8795C26.397 64.343 27.0327 64.0649 27.4897 64.1642C30.0923 64.7603 32.2976 67.2834 31.046 69.9656C29.7546 72.747 26.5956 74.0583 23.5559 73.0053C21.2513 72.2106 19.5625 70.6808 18.6287 68.4755C18.0128 67.0252 17.0791 66.8464 15.8671 67.3033C9.07241 69.8066 4.5426 74.5947 2.89359 81.5881C1.64193 86.8729 3.96644 92.5749 8.33731 96.5286C8.97307 94.9789 9.82738 93.5087 10.9201 92.1577C13.2645 89.2769 16.7413 86.5153 20.8936 87.1312C22.9003 87.4292 24.9466 88.3431 26.2579 89.8332C27.5692 91.3232 27.7877 93.1511 27.2711 94.9789C26.7943 96.6676 25.4632 98.4359 23.4566 98.5551C22.344 98.6147 20.6751 97.9193 20.0592 97.0253C19.8407 96.7074 19.7612 96.31 19.9201 95.9723C20.238 95.3166 22.9996 96.8266 23.993 95.6146C24.3506 95.1776 24.5095 94.6014 24.589 94.0451C24.8672 91.8994 23.3175 90.6477 21.2513 90.0517C17.3771 88.959 14.2777 91.9391 12.5095 94.8199C11.9929 95.6544 11.5559 96.5286 11.1982 97.4226C10.4631 98.7537 10.0658 100.303 9.96645 101.853C9.72804 103.264 9.62871 104.714 9.64857 106.164C9.72804 112.204 11.5757 118.284 14.4367 123.668C17.5956 129.608 23.7943 133.9 30.6486 135.489C33.8076 136.224 37.1056 136.363 40.3242 136.065C43.2844 135.787 46.3242 135.012 48.9467 133.502C50.258 132.747 51.4699 131.813 52.5229 130.721C53.556 129.648 54.4898 128.436 55.9997 128.019C57.6884 127.562 59.5957 127.76 61.1653 128.535C63.2315 129.549 64.5626 131.833 63.7679 134.138C63.3308 135.35 62.3375 136.204 61.0858 136.462C60.45 136.602 59.6355 136.641 59.0196 136.383C57.3308 135.668 59.0792 135.29 59.6951 134.953C60.5891 134.476 61.5428 133.284 61.3043 132.211C61.1255 131.456 60.3706 130.979 59.6355 130.701C56.1984 129.449 53.9931 132.231 54.7282 135.509C55.0858 137.118 55.8606 138.727 56.7944 140.078C58.5229 142.621 60.9467 144.747 63.5891 146.436C66.2911 148.184 69.2911 149.515 72.4501 150.37C75.9468 151.323 79.662 151.482 83.2978 151.582C85.6223 151.641 87.9468 151.542 90.2514 151.204C91.7018 150.986 94.2051 150.906 94.6223 149.257C94.821 148.443 94.6025 147.568 94.4833 146.734C93.9866 142.999 95.9733 139.184 99.1521 136.88C102.311 134.575 106.503 133.681 110.516 133.999C114.887 134.337 119.298 136.224 121.742 139.641C124.185 143.059 124.165 148.085 121.066 151.006C118.821 153.112 115.344 153.827 112.225 153.251C109.821 152.813 107.497 151.582 106.146 149.674C104.02 146.635 105.073 141.787 109.364 141.092C110.497 140.913 112.801 141.092 113.298 142.304C113.874 143.655 111.867 142.88 111.41 142.84C109.821 142.721 108.609 143.933 108.172 145.264C107.854 146.237 108.172 147.231 108.748 148.085C110.298 150.35 113.596 151.443 116.318 150.549C119.04 149.674 120.927 146.913 120.629 144.231C120.232 140.515 116.278 137.972 112.384 137.138C106.881 135.966 100.126 137.853 98.0197 142.76C96.3111 146.734 98.1985 151.403 101.417 154.443C106.841 159.549 115.324 160.761 122.914 159.648C135.609 157.78 147.113 149.913 152.834 139.164C153.073 138.707 153.311 138.211 153.331 137.694C153.351 136.284 151.781 135.429 150.51 134.694C149.238 133.959 147.947 132.509 148.722 131.317C151.881 133.125 155.139 134.833 158.695 135.787C164.457 137.337 170.874 136.84 176.199 134.277C181.523 131.714 185.735 127.105 187.464 121.721C188.993 116.992 188.616 111.886 187.364 107.098C186.431 103.482 184.96 99.8862 182.219 97.2239C179.477 94.5418 175.245 92.9723 171.45 94.0054C170.02 94.4027 168.629 95.2173 167.974 96.469C167.338 97.7405 167.715 99.4888 169.027 100.144C170.119 100.701 171.55 100.363 172.444 99.5882C173.358 98.7935 173.815 97.661 174.013 96.5087C174.788 97.4623 175.007 98.7935 174.609 99.9259C173.834 102.171 170.676 103.244 168.391 102.25C166.106 101.257 164.934 98.5948 165.47 96.2901C166.007 93.9855 168.053 92.1378 170.417 91.3431C172.801 90.5683 175.464 90.7471 177.828 91.5418C182.199 92.9723 185.676 96.31 187.782 100.184C188.497 101.416 189.073 102.827 189.53 104.257Z" fill="#00BED9"/>
<path d="M52.622 81.3496H50.8936V77.2966C50.4366 77.6344 49.6022 77.9721 48.5293 77.9721C47.0392 77.9721 45.5293 77.1774 45.5293 74.8132V71.4754H47.2578V74.3165C47.2578 75.9059 48.0127 76.343 48.9863 76.343C49.7412 76.343 50.377 76.045 50.8737 75.7072V71.4556H52.6022V81.3496H52.622Z" fill="#00BED9"/>
<path d="M60.3303 80.7138C59.6946 81.2502 58.8005 81.5085 57.9065 81.5085C55.8601 81.5085 54.4893 80.1774 54.4893 78.1708C54.4893 76.3231 55.7608 74.833 57.8469 74.833C59.476 74.833 60.8469 76.0052 60.8469 77.7734C60.8469 78.1708 60.827 78.4092 60.7476 78.6476H56.1581C56.2972 79.6012 57.0522 80.1377 58.0654 80.1377C58.8403 80.1377 59.4959 79.8595 59.8535 79.5615L60.3303 80.7138ZM56.1184 77.5747H59.2376C59.2575 76.7999 58.7211 76.184 57.7873 76.184C56.8138 76.2039 56.2773 76.7602 56.1184 77.5747Z" fill="#00BED9"/>
<path d="M62.1582 75.0119H63.7873V75.6278C64.1847 75.2105 64.9397 74.8728 65.7542 74.8728C67.5026 74.8728 68.635 76.2238 68.635 78.1112C68.635 80.0384 67.3039 81.5483 65.2774 81.5483C64.7211 81.5483 64.1648 81.449 63.7873 81.2304V84.2106H62.1582V75.0119ZM63.7873 77.0582V79.6212C64.2244 79.8993 64.582 79.9788 65.1185 79.9788C66.2509 79.9788 66.8867 79.1642 66.8867 78.1112C66.8867 77.098 66.2907 76.3629 65.2178 76.3629C64.6814 76.3629 64.1847 76.6212 63.7873 77.0582Z" fill="#00BED9"/>
<path d="M75.4895 80.7138C74.8538 81.2502 73.9597 81.5085 73.0657 81.5085C71.0193 81.5085 69.6484 80.1774 69.6484 78.1708C69.6484 76.3231 70.92 74.833 73.0061 74.833C74.6352 74.833 76.0061 76.0052 76.0061 77.7734C76.0061 78.1708 75.9862 78.4092 75.9067 78.6476H71.3173C71.4564 79.6012 72.2114 80.1377 73.2246 80.1377C73.9994 80.1377 74.6551 79.8595 75.0127 79.5615L75.4895 80.7138ZM71.2577 77.5747H74.3769C74.3968 76.7999 73.8604 76.184 72.9266 76.184C71.9531 76.2039 71.4365 76.7602 71.2577 77.5747Z" fill="#00BED9"/>
<path d="M76.8008 80.4554L77.6352 79.4422C78.0127 79.8594 78.8273 80.217 79.4233 80.217C80.2776 80.217 80.7147 79.8992 80.7147 79.4422C80.7147 79.025 80.377 78.727 79.7611 78.727H78.569V77.6342H79.6816C80.218 77.6342 80.5359 77.2766 80.5359 76.8594C80.5359 76.4223 80.1187 76.164 79.4233 76.164C78.6882 76.164 78.0922 76.5614 77.6948 76.8991L77.0193 75.9256C77.5955 75.2501 78.5491 74.8528 79.7412 74.8528C81.4101 74.8528 82.2842 75.5482 82.2842 76.6607C82.2842 77.2766 81.867 77.8131 81.1121 78.0713V78.0912C82.0061 78.27 82.4432 78.8462 82.4432 79.5813C82.4432 80.7733 81.2909 81.5084 79.5624 81.5084C78.4299 81.5084 77.2577 81.0316 76.8008 80.4554Z" fill="#00BED9"/>
<path d="M86.5762 80.0582C88.1854 78.4688 90.6888 76.184 90.6888 74.2767C90.6888 73.482 90.2517 72.9853 89.4371 72.9853C88.7417 72.9853 88.2252 73.482 88.0066 74.3165L86.6556 73.7006C86.9139 72.2701 88.0464 71.3562 89.6159 71.3562C91.4835 71.3562 92.4173 72.6277 92.4173 73.939C92.4173 76.7006 89.4768 79.2039 88.702 79.8397H92.8146V81.3496H86.6159V80.0582H86.5762Z" fill="#00BED9"/>
<path d="M94.3242 76.7402H97.8805V78.2502H94.3242V76.7402Z" fill="#00BED9"/>
<path d="M99.0723 79.8396L99.9862 78.6476C100.483 79.3827 101.238 79.8793 102.092 79.8793C103.145 79.8793 103.682 79.2635 103.682 78.5085C103.682 77.6144 102.986 77.1177 101.854 77.1177H101.158V75.4886H101.794C102.589 75.4886 103.324 74.972 103.324 74.1376C103.324 73.4422 102.907 72.9456 102.072 72.9456C101.278 72.9456 100.701 73.2833 100.205 73.9985L99.3107 72.8462C99.8471 71.8528 100.88 71.3164 102.231 71.3164C103.92 71.3164 105.072 72.2701 105.072 73.8197C105.072 74.9323 104.556 75.727 103.562 76.1641V76.2038C104.794 76.4224 105.45 77.3959 105.45 78.5681C105.45 80.3959 104.039 81.5085 102.211 81.5085C100.682 81.5085 99.5888 80.833 99.0723 79.8396Z" fill="#00BED9"/>
<path d="M114.53 78.9256H111.748V81.3495H110.119V75.0117H111.748V77.4157H114.53V75.0117H116.159V81.3495H114.53V78.9256Z" fill="#00BED9"/>
<path d="M123.391 80.7138C122.755 81.2502 121.861 81.5085 120.967 81.5085C118.921 81.5085 117.55 80.1774 117.55 78.1708C117.55 76.3231 118.821 74.833 120.907 74.833C122.537 74.833 123.907 76.0052 123.907 77.7734C123.907 78.1708 123.888 78.4092 123.808 78.6476H119.219C119.358 79.6012 120.113 80.1377 121.126 80.1377C121.901 80.1377 122.556 79.8595 122.914 79.5615L123.391 80.7138ZM119.179 77.5747H122.298C122.318 76.7999 121.782 76.184 120.848 76.184C119.874 76.2039 119.358 76.7602 119.179 77.5747Z" fill="#00BED9"/>
<path d="M124.265 79.8396H125.059C125.516 79.2436 125.854 77.9721 125.953 76.5218L126.053 74.9919H130.741V79.8396H131.794V82.8396H130.265V81.3496H125.775V82.8396H124.265V79.8396ZM126.748 79.8396H129.112V76.5218H127.563L127.523 77.1774C127.384 78.5085 127.046 79.4423 126.748 79.8396Z" fill="#00BED9"/>
<path d="M138.311 80.7138C137.675 81.2502 136.781 81.5085 135.887 81.5085C133.841 81.5085 132.47 80.1774 132.47 78.1708C132.47 76.3231 133.741 74.833 135.827 74.833C137.457 74.833 138.827 76.0052 138.827 77.7734C138.827 78.1708 138.807 78.4092 138.728 78.6476H134.139C134.278 79.6012 135.033 80.1377 136.046 80.1377C136.821 80.1377 137.476 79.8595 137.834 79.5615L138.311 80.7138ZM134.099 77.5747H137.218C137.238 76.7999 136.702 76.184 135.768 76.184C134.774 76.2039 134.258 76.7602 134.099 77.5747Z" fill="#00BED9"/>
<path d="M144.113 76.6211H142.444L142.404 77.2966C142.086 80.7536 141.252 81.4688 139.543 81.4688L139.404 79.8794C139.961 79.939 140.696 79.4224 140.835 76.9588L140.934 74.9919H145.742V81.3297H144.113V76.6211Z" fill="#00BED9"/>
<path d="M147.529 81.3495V75.0117H149.158V79.025L152.119 75.0117H153.748V81.3495H152.119V77.3362L149.158 81.3495H147.529Z" fill="#00BED9"/>
<path d="M58.9007 97.6411C58.2649 98.1775 57.3708 98.4358 56.4768 98.4358C54.4304 98.4358 53.0596 97.1046 53.0596 95.098C53.0596 93.2503 54.3311 91.7603 56.4172 91.7603C58.0463 91.7603 59.4172 92.9324 59.4172 94.7007C59.4172 95.098 59.3973 95.3364 59.3179 95.5748H54.7285C54.8675 96.5285 55.6225 97.0649 56.6357 97.0649C57.4106 97.0649 58.0662 96.7868 58.4238 96.4887L58.9007 97.6411ZM54.6887 94.502H57.8079C57.8278 93.7271 57.2914 93.1112 56.3576 93.1112C55.3841 93.1311 54.8675 93.6874 54.6887 94.502Z" fill="#00BED9"/>
<path d="M60.748 91.939H62.3772V96.7867H64.1653V91.939H65.7944V96.7867H67.6024V91.939H69.2315V96.7867H70.2845V99.7867H68.7547V98.2767H60.748V91.939Z" fill="#00BED9"/>
<path d="M76.7815 97.6411C76.1457 98.1775 75.2517 98.4358 74.3577 98.4358C72.3113 98.4358 70.9404 97.1046 70.9404 95.098C70.9404 93.2503 72.212 91.7603 74.2981 91.7603C75.9272 91.7603 77.2981 92.9324 77.2981 94.7007C77.2981 95.098 77.2782 95.3364 77.1987 95.5748H72.6093C72.7484 96.5285 73.5034 97.0649 74.5166 97.0649C75.2914 97.0649 75.9471 96.7868 76.3047 96.4887L76.7815 97.6411ZM72.8875 88.9192C73.3047 88.9192 73.7418 89.2569 73.7418 89.8132C73.7418 90.4291 73.3245 90.7669 72.8875 90.7669C72.3908 90.7669 71.9735 90.4291 71.9735 89.8132C71.9735 89.2569 72.3908 88.9192 72.8875 88.9192ZM72.5696 94.502H75.6888C75.7087 93.7271 75.1722 93.1112 74.2385 93.1112C73.2451 93.1311 72.7285 93.6874 72.5696 94.502ZM75.6689 88.9192C76.106 88.9192 76.5232 89.2569 76.5232 89.8132C76.5232 90.4291 76.106 90.7669 75.6689 90.7669C75.1921 90.7669 74.7749 90.4291 74.7749 89.8132C74.7749 89.2569 75.1921 88.9192 75.6689 88.9192Z" fill="#00BED9"/>
<path d="M84.6689 91.78C86.7748 91.78 88.1258 93.2105 88.1258 95.1178C88.1258 97.0251 86.7748 98.4556 84.6689 98.4556C82.5629 98.4556 81.2119 97.0251 81.2119 95.1178C81.2119 93.1906 82.5629 91.78 84.6689 91.78ZM84.6689 96.9257C85.6623 96.9257 86.3974 96.2105 86.3974 95.0979C86.3974 94.0251 85.6424 93.29 84.6689 93.29C83.7152 93.29 82.9404 93.9853 82.9404 95.0979C82.9404 96.1708 83.6755 96.9257 84.6689 96.9257Z" fill="#00BED9"/>
<path d="M88.5625 96.7669H89.3572C89.8142 96.1709 90.1519 94.8993 90.2512 93.449L90.3506 91.9192H95.0393V96.7669H96.0923V99.7669H94.5625V98.2768H90.0724V99.7669H88.5625V96.7669ZM91.046 96.7669H93.4102V93.449H91.8605L91.8208 94.1046C91.6817 95.4358 91.344 96.3695 91.046 96.7669Z" fill="#00BED9"/>
<path d="M101.556 95.853H98.7747V98.2768H97.1455V91.9192H98.7747V94.3232H101.556V91.9192H103.185V98.2768H101.556V95.853Z" fill="#00BED9"/>
<path d="M105.073 92.3761C105.629 92.0583 106.483 91.7603 107.318 91.7603C109.185 91.7603 109.861 92.7139 109.861 94.4026V98.2768H108.45V97.5417C108.112 98.0185 107.437 98.3563 106.582 98.3563C105.43 98.3563 104.596 97.6411 104.596 96.4093C104.596 95.0185 105.629 94.343 106.9 94.343C107.457 94.343 108.033 94.5218 108.331 94.7603C108.371 93.7073 108.092 93.1311 107.139 93.1311C106.404 93.1311 105.947 93.3497 105.47 93.5682L105.073 92.3761ZM108.331 96.4093V95.7536C108.053 95.5351 107.675 95.4358 107.218 95.4358C106.682 95.4358 106.205 95.694 106.205 96.2305C106.205 96.7073 106.602 96.9854 107.099 96.9854C107.775 96.9854 108.132 96.7073 108.331 96.4093Z" fill="#00BED9"/>
<path d="M120.092 97.323C119.556 98.0383 118.602 98.4158 117.569 98.4158C115.503 98.4158 114.132 97.0846 114.132 95.078C114.132 93.2303 115.483 91.7402 117.41 91.7402C118.463 91.7402 119.377 91.9985 119.973 92.5946L119.218 93.8859C118.741 93.429 118.225 93.27 117.629 93.27C116.734 93.27 115.86 93.9654 115.86 95.078C115.86 96.2105 116.734 96.9058 117.688 96.9058C118.383 96.9058 118.92 96.5879 119.317 96.131L120.092 97.323Z" fill="#00BED9"/>
<path d="M126.49 97.6411C125.854 98.1775 124.96 98.4358 124.066 98.4358C122.019 98.4358 120.648 97.1046 120.648 95.098C120.648 93.2503 121.92 91.7603 124.006 91.7603C125.635 91.7603 127.006 92.9324 127.006 94.7007C127.006 95.098 126.986 95.3364 126.907 95.5748H122.317C122.456 96.5285 123.211 97.0649 124.225 97.0649C124.999 97.0649 125.655 96.7868 126.013 96.4887L126.49 97.6411ZM122.278 94.502H125.397C125.417 93.7271 124.88 93.1112 123.946 93.1112C122.953 93.1311 122.437 93.6874 122.278 94.502Z" fill="#00BED9"/>
<path d="M128.317 91.939H129.788L131.953 94.5814L134 91.939H135.43V98.2966H133.801V94.4224L131.933 96.7867H131.894L129.966 94.4224V98.2767H128.337V91.939H128.317Z" fill="#00BED9"/>
<path d="M137.219 91.939H138.848V93.6674H139.722C141.888 93.6674 142.523 94.7403 142.523 95.8728C142.523 97.0847 141.768 98.2767 139.603 98.2767H137.239V91.939H137.219ZM138.848 94.9588V96.8661H139.563C140.437 96.8661 140.795 96.5085 140.795 95.9125C140.795 95.3165 140.457 94.9588 139.583 94.9588H138.848Z" fill="#00BED9"/>
<path d="M148.742 91.939V98.2966H147.113V96.3893H146.219L144.908 98.2966H143.04L144.729 96.0317C144.172 95.833 143.497 95.237 143.497 94.2039C143.497 92.9721 144.371 91.939 146.656 91.939H148.742ZM146.278 95.1774H147.133V93.3496H146.418C145.623 93.3496 145.265 93.8264 145.265 94.3032C145.245 94.8198 145.762 95.1774 146.278 95.1774Z" fill="#00BED9"/>
<path d="M50.1586 106.502C49.3242 107.495 48.3109 107.177 47.0791 107.793C46.1652 108.211 45.8076 109.164 45.7082 110.158H45.7281C46.1255 109.462 47.0195 108.966 47.9533 108.966C49.7016 108.966 50.854 110.177 50.854 112.085C50.854 113.853 49.5228 115.363 47.5162 115.363C45.3904 115.363 44.0791 113.813 44.0791 111.35C44.0791 109.283 44.5361 107.078 46.4831 106.244C47.8738 105.648 48.6486 105.946 49.3043 105.191L50.1586 106.502ZM47.4963 113.853C48.5294 113.853 49.1255 113.078 49.1255 112.164C49.1255 111.211 48.589 110.495 47.5559 110.495C46.6619 110.495 46.0261 111.052 45.8274 111.687C45.8473 112.899 46.4632 113.853 47.4963 113.853Z" fill="#00BED9"/>
<path d="M55.662 115.204C54.7282 117.469 54.1322 118.025 53.1984 118.025C52.6222 118.025 52.205 117.806 51.8275 117.528L52.3441 116.297C52.5229 116.396 52.7613 116.515 52.9997 116.515C53.4169 116.515 53.6951 116.197 53.9732 115.522L54.1123 115.184L51.1719 108.846H53.1189L54.609 112.323C54.7282 112.641 54.8275 112.939 54.9269 113.237C54.9865 112.939 55.0461 112.621 55.1454 112.303L56.2977 108.846H58.1454L55.662 115.204Z" fill="#00BED9"/>
<path d="M57.8271 113.694H58.6219C59.0788 113.098 59.4166 111.826 59.5159 110.376L59.6152 108.846H64.304V113.694H65.357V116.694H63.8272V115.204H59.3371V116.694H57.8271V113.694ZM60.3305 113.694H62.6947V110.376H61.145L61.1053 111.032C60.9662 112.363 60.6086 113.297 60.3305 113.694Z" fill="#00BED9"/>
<path d="M71.8743 114.568C71.2385 115.105 70.3445 115.363 69.4504 115.363C67.4041 115.363 66.0332 114.032 66.0332 112.025C66.0332 110.178 67.3047 108.688 69.3908 108.688C71.02 108.688 72.3908 109.86 72.3908 111.628C72.3908 112.025 72.371 112.264 72.2915 112.502H67.7021C67.8412 113.456 68.5961 113.992 69.6094 113.992C70.3842 113.992 71.0398 113.714 71.3975 113.416L71.8743 114.568ZM67.6623 111.429H70.7816C70.8014 110.654 70.265 110.038 69.3312 110.038C68.3577 110.058 67.8213 110.615 67.6623 111.429Z" fill="#00BED9"/>
<path d="M72.9863 108.866H78.7678V110.495H76.7016V115.224H75.0724V110.495H72.9863V108.866Z" fill="#00BED9"/>
<path d="M82.9004 108.866C83.4567 108.846 84.4103 108.787 85.4037 108.787C87.2514 108.787 88.2845 109.303 88.2845 110.455C88.2845 111.21 87.7282 111.767 87.0925 111.866V111.886C87.9865 112.105 88.4435 112.621 88.4435 113.356C88.4435 114.608 87.4699 115.283 85.4236 115.283C84.6289 115.283 83.4766 115.204 82.9004 115.204V108.866ZM84.5295 110.118V111.508H85.5825C86.1189 111.508 86.556 111.27 86.556 110.773C86.556 110.316 86.1388 110.078 85.5428 110.078C85.1653 110.098 84.7083 110.118 84.5295 110.118ZM84.5295 112.502V113.912C84.7679 113.932 85.205 113.972 85.6024 113.972C86.3176 113.972 86.7547 113.674 86.7547 113.237C86.7547 112.76 86.3176 112.502 85.5627 112.502H84.5295Z" fill="#00BED9"/>
<path d="M89.9932 108.866H91.6223V110.595H92.417C94.5826 110.595 95.2183 111.668 95.2183 112.8C95.2183 114.012 94.4634 115.204 92.2978 115.204H90.013V108.866H89.9932ZM91.6024 111.886V113.793H92.2382C93.1124 113.793 93.47 113.436 93.47 112.84C93.47 112.244 93.1322 111.886 92.2581 111.886H91.6024ZM96.0925 108.866H97.7217V115.204H96.0925V108.866Z" fill="#00BED9"/>
<path d="M105.092 114.25C104.556 114.966 103.602 115.343 102.569 115.343C100.503 115.343 99.1318 114.012 99.1318 112.005C99.1318 110.158 100.483 108.667 102.41 108.667C103.463 108.667 104.377 108.926 104.953 109.522L104.198 110.813C103.721 110.356 103.205 110.197 102.609 110.197C101.715 110.197 100.84 110.893 100.84 112.005C100.84 113.138 101.715 113.833 102.668 113.833C103.364 113.833 103.9 113.515 104.297 113.058L105.092 114.25Z" fill="#00BED9"/>
<path d="M106.384 108.866H108.013V110.595H108.808C110.973 110.595 111.609 111.668 111.609 112.8C111.609 114.012 110.854 115.204 108.688 115.204H106.404V108.866H106.384ZM108.013 111.886V113.793H108.649C109.523 113.793 109.88 113.436 109.88 112.84C109.88 112.244 109.543 111.886 108.669 111.886H108.013ZM112.503 108.866H114.132V115.204H112.503V108.866Z" fill="#00BED9"/>
<path d="M120.251 110.376H117.549V115.204H115.92V108.866H121.88V115.204H120.251V110.376Z" fill="#00BED9"/>
<path d="M123.768 109.303C124.324 108.986 125.178 108.688 126.013 108.688C127.88 108.688 128.556 109.641 128.556 111.33V115.204H127.145V114.469C126.808 114.946 126.132 115.284 125.278 115.284C124.125 115.284 123.291 114.568 123.291 113.337C123.291 111.946 124.324 111.27 125.596 111.27C126.152 111.27 126.728 111.449 127.026 111.688C127.066 110.635 126.788 110.058 125.834 110.058C125.099 110.058 124.642 110.277 124.165 110.495L123.768 109.303ZM127.026 113.337V112.681C126.748 112.462 126.37 112.363 125.914 112.363C125.377 112.363 124.9 112.621 124.9 113.158C124.9 113.635 125.298 113.913 125.794 113.913C126.47 113.913 126.827 113.615 127.026 113.337Z" fill="#00BED9"/>
<path d="M129.55 108.866H135.331V110.495H133.265V115.224H131.636V110.495H129.55V108.866Z" fill="#00BED9"/>
<path d="M136.503 108.866H138.132V110.595H139.006C141.172 110.595 141.808 111.668 141.808 112.8C141.808 114.012 141.053 115.204 138.887 115.204H136.523V108.866H136.503ZM138.112 111.886V113.793H138.827C139.702 113.793 140.059 113.436 140.059 112.84C140.059 112.244 139.721 111.886 138.847 111.886H138.112Z" fill="#00BED9"/>
<path d="M148.622 114.25C148.086 114.966 147.132 115.343 146.099 115.343C144.033 115.343 142.662 114.012 142.662 112.005C142.662 110.158 144.013 108.667 145.94 108.667C146.993 108.667 147.907 108.926 148.483 109.522L147.728 110.813C147.252 110.356 146.735 110.197 146.139 110.197C145.245 110.197 144.371 110.893 144.371 112.005C144.371 113.138 145.245 113.833 146.199 113.833C146.894 113.833 147.43 113.515 147.828 113.058L148.622 114.25Z" fill="#00BED9"/>
<path d="M154.802 108.866V115.204H153.172V113.297H152.278L150.967 115.204H149.1L150.788 112.939C150.232 112.74 149.557 112.144 149.557 111.111C149.557 109.879 150.431 108.846 152.716 108.846H154.802V108.866ZM152.338 112.104H153.192V110.277H152.477C151.682 110.277 151.325 110.753 151.325 111.23C151.305 111.747 151.821 112.104 152.338 112.104Z" fill="#00BED9"/>
<path d="M157.464 113.098C158.079 113.098 158.497 113.654 158.497 114.151C158.497 114.727 158.079 115.283 157.464 115.283C156.748 115.283 156.331 114.727 156.331 114.151C156.351 113.654 156.768 113.098 157.464 113.098Z" fill="#00BED9"/>
<path d="M65.2185 173.297C71.9008 173.297 77.3179 169.917 77.3179 165.747C77.3179 161.578 71.9008 158.198 65.2185 158.198C58.5362 158.198 53.1191 161.578 53.1191 165.747C53.1191 169.917 58.5362 173.297 65.2185 173.297Z" fill="white"/>
<path d="M53.2381 165.747C53.2381 166.383 53.3772 167.019 53.6553 167.575C53.9335 168.131 54.3308 168.648 54.7878 169.065C55.2447 169.502 55.7812 169.84 56.3176 170.118C56.8739 170.416 57.45 170.635 58.0262 170.833C59.1984 171.231 60.3905 171.469 61.5825 171.688C62.7746 171.906 63.9865 172.045 65.2183 172.125C66.4501 172.204 67.7017 172.264 68.9534 172.125C70.205 172.006 71.4567 171.727 72.609 171.211C73.7613 170.694 74.8143 169.939 75.5693 168.966C75.9468 168.489 76.2448 167.953 76.4236 167.396C76.6024 166.84 76.6421 166.264 76.6024 165.708C76.5428 165.151 76.364 164.635 76.1057 164.178C75.8474 163.701 75.4898 163.284 75.0925 162.886C74.2978 162.112 73.3243 161.476 72.2514 160.999C71.1786 160.522 70.0262 160.204 68.854 159.986C67.6819 159.767 66.4699 159.668 65.2779 159.648C64.6818 159.628 64.066 159.668 63.4699 159.688C62.8739 159.727 62.2779 159.787 61.6818 159.886C60.4898 160.065 59.2977 160.284 58.1255 160.661C57.5494 160.84 56.9732 161.078 56.4169 161.357C55.8606 161.635 55.3441 161.972 54.8871 162.41C54.4302 162.827 54.0328 163.323 53.7547 163.9C53.6156 164.178 53.5163 164.476 53.4368 164.794C53.2778 165.112 53.258 165.429 53.2381 165.747ZM52.96 165.747C52.96 165.41 52.9798 165.072 53.0394 164.754C53.0792 164.416 53.1984 164.098 53.2977 163.78C53.5163 163.145 53.854 162.529 54.2315 161.972C55.0063 160.84 56.0394 159.847 57.2116 159.052C58.3838 158.257 59.6752 157.661 61.0461 157.304C62.3971 156.926 63.8077 156.767 65.2183 156.727C66.6289 156.708 68.0395 156.847 69.4103 157.184C70.7812 157.502 72.1322 157.999 73.3839 158.694C74.6355 159.39 75.8474 160.264 76.7613 161.476C77.2183 162.072 77.5759 162.767 77.8342 163.482C78.0726 164.218 78.172 164.992 78.1124 165.747C78.0528 166.502 77.8342 167.237 77.4965 167.873C77.1587 168.529 76.7415 169.085 76.2845 169.602C75.3309 170.615 74.1984 171.39 73.0262 172.025C71.8342 172.681 70.6024 173.218 69.2911 173.635C67.9997 174.052 66.6289 174.35 65.2381 174.449C63.8673 174.529 62.4567 174.429 61.1057 174.092C59.7547 173.774 58.4434 173.198 57.2712 172.423C56.099 171.648 55.0659 170.655 54.2911 169.522C53.9136 168.946 53.5759 168.35 53.3573 167.714C53.099 167.098 52.9798 166.423 52.96 165.747Z" fill="#00BED9"/>
<path d="M44.9536 180.271C48.6952 180.271 51.7284 178.376 51.7284 176.039C51.7284 173.702 48.6952 171.807 44.9536 171.807C41.2119 171.807 38.1787 173.702 38.1787 176.039C38.1787 178.376 41.2119 180.271 44.9536 180.271Z" fill="white"/>
<path d="M38.3176 176.039C38.2978 176.734 38.5958 177.43 39.0726 177.926C39.5494 178.443 40.1852 178.8 40.8408 179.039C41.4965 179.277 42.1918 179.416 42.8872 179.476C43.5826 179.536 44.2581 179.536 44.9534 179.496C45.6289 179.456 46.3044 179.337 46.9402 179.158C47.5759 178.979 48.1918 178.741 48.7481 178.423C49.2846 178.105 49.7812 177.728 50.0991 177.291C50.417 176.853 50.5561 176.416 50.5362 176.019C50.4965 175.622 50.2779 175.244 49.9203 174.887C49.5627 174.549 49.066 174.251 48.5296 174.032C47.9932 173.814 47.3971 173.655 46.8011 173.536C46.2051 173.416 45.5892 173.337 44.9534 173.277C44.3177 173.238 43.6819 173.218 43.0263 173.218C42.3706 173.238 41.715 173.277 41.0594 173.416C40.4037 173.575 39.768 173.814 39.2315 174.251C38.7349 174.708 38.3574 175.324 38.3176 176.039ZM38.0196 176.039C37.9998 175.264 38.258 174.489 38.6951 173.814C38.8143 173.655 38.9137 173.476 39.0527 173.317C39.1918 173.178 39.311 172.999 39.4501 172.86C39.5892 172.721 39.7282 172.562 39.8872 172.423C40.0461 172.284 40.2051 172.145 40.364 172.026C41.6753 170.992 43.3044 170.416 44.9534 170.317C46.6024 170.238 48.3309 170.536 49.8607 171.43C50.6157 171.867 51.3508 172.423 51.9468 173.198C52.225 173.595 52.5031 174.012 52.662 174.509C52.8607 174.986 52.9203 175.522 52.9203 176.059C52.8806 176.575 52.7813 177.112 52.5627 177.569C52.364 178.026 52.066 178.423 51.768 178.761C51.1322 179.436 50.3971 179.893 49.6422 180.251C48.8872 180.589 48.0925 180.807 47.3177 180.926C46.523 181.046 45.7481 181.085 44.9534 181.045C43.4037 180.946 41.8541 180.489 40.5627 179.655C40.4037 179.555 40.2448 179.436 40.0859 179.337C39.9269 179.238 39.7878 179.098 39.6488 178.979C39.5097 178.86 39.3706 178.721 39.2315 178.582C39.1123 178.443 38.9733 178.304 38.8541 178.165C38.3971 177.529 38.0594 176.814 38.0196 176.039Z" fill="#00BED9"/>
</svg>
