<svg width="170" height="36" viewBox="0 0 170 36" fill="none" xmlns="http://www.w3.org/2000/svg">
<path d="M20.359 27.3245C20.7276 27.5498 21.1373 27.7136 21.5469 27.816C21.9566 27.898 22.3867 27.9389 22.8168 27.8775C23.2469 27.816 23.6566 27.6931 24.0252 27.4064C24.1072 27.3449 24.1481 27.263 24.1481 27.1606C24.1277 26.9967 24.0048 26.8943 23.8409 26.8943H23.7795C23.4722 26.9148 23.1035 26.9148 22.7758 26.8943C22.4481 26.8739 22.0999 26.8124 21.7722 26.751C21.4445 26.6895 21.1168 26.5871 20.8096 26.4642C20.5023 26.3413 20.1746 26.1979 19.8879 26.0341L19.8264 25.9931C19.7445 25.9522 19.6421 25.9522 19.5397 25.9931C19.3963 26.0751 19.3553 26.2389 19.4373 26.3823C19.7035 26.8124 20.0108 27.0992 20.359 27.3245Z" fill="#03BFD7"/>
<path d="M29.5141 21.3439L29.4731 21.3644C28.7972 21.7126 28.1008 21.774 27.4659 21.6102C26.831 21.4873 26.237 21.1391 25.7659 20.5246L25.7454 20.5042C25.643 20.3813 25.4996 20.3198 25.3358 20.3608C25.1309 20.4017 24.9876 20.627 25.049 20.8319C25.1719 21.3849 25.4791 21.9174 25.9502 22.2861C26.2984 22.5933 26.7285 22.7981 27.1996 22.9006C27.6707 23.003 28.1418 22.9825 28.5924 22.8596C29.1659 22.7162 29.678 22.368 30.0057 21.9174C30.149 21.7536 30.1081 21.4873 29.9442 21.3644C29.8213 21.303 29.6575 21.2825 29.5141 21.3439Z" fill="#03BFD7"/>
<path d="M21.5886 23.8805C21.691 23.9624 21.8139 23.9624 21.9368 23.901C22.1007 23.8191 22.285 23.7986 22.4284 23.8396C22.5717 23.86 22.7356 23.9624 22.8585 24.1058C22.8995 24.1673 22.9609 24.2082 23.0428 24.2287C23.0838 24.2287 23.1452 24.2492 23.1862 24.2287C23.2681 24.2082 23.3501 24.1673 23.391 24.0853C23.432 24.0034 23.4525 23.9215 23.432 23.8396C23.3705 23.6143 23.2477 23.4094 23.0838 23.2865C22.9609 23.1841 22.797 23.1022 22.6127 23.0408C22.4284 22.9998 22.244 22.9998 22.1007 23.0612C21.8958 23.1227 21.691 23.2456 21.5476 23.4299C21.4862 23.4914 21.4657 23.5733 21.4862 23.6757C21.4657 23.7371 21.5067 23.8191 21.5886 23.8805Z" fill="#03BFD7"/>
<path d="M21.2816 20.0941C21.4249 19.9303 21.384 19.664 21.2201 19.5411C21.0972 19.4387 20.9334 19.4387 20.79 19.5002L20.749 19.5207C20.0731 19.8688 19.3767 19.9303 18.7418 19.7664C18.1068 19.6435 17.5129 19.2953 17.0418 18.6809L17.0213 18.6604C16.9189 18.5375 16.7755 18.4761 16.6116 18.517C16.4068 18.558 16.2635 18.7833 16.3249 18.9881C16.4478 19.5411 16.755 20.0737 17.2261 20.4423C17.5743 20.7496 18.0044 20.9544 18.4755 21.0568C18.9466 21.1592 19.4177 21.1387 19.8683 21.0158C20.4213 20.8929 20.9334 20.5448 21.2816 20.0941Z" fill="#03BFD7"/>
<path d="M33.7741 23.1865C33.5693 23.125 33.4259 22.9612 33.4054 22.7563C33.3849 22.531 33.4873 22.3262 33.6717 22.2238L35.8018 21.0154L34.3681 20.4009C34.1018 20.278 33.9789 19.9708 34.0813 19.7045C34.2042 19.4383 34.5114 19.3154 34.7777 19.4178L37.2151 20.4419C37.3994 20.5238 37.5223 20.7081 37.5428 20.8925C37.5633 21.0768 37.4404 21.2816 37.2765 21.3841L35.3717 22.4491L36.5801 22.7359C36.8669 22.7973 37.0307 23.0841 36.9693 23.3708C36.9078 23.6576 36.6211 23.8214 36.3343 23.76L33.8151 23.1455C33.7946 23.207 33.7946 23.1865 33.7741 23.1865Z" fill="#30BBD3"/>
<path d="M37.8304 14.8294C37.769 14.9523 37.6666 15.0342 37.5232 15.0956L34.1642 16.6523C33.8979 16.7752 33.5907 16.7137 33.3858 16.5294C33.181 16.3245 33.0991 16.0173 33.222 15.7511L34.5738 12.4125L32.3208 13.0474C31.9521 13.1498 31.5629 12.9245 31.44 12.5559C31.3376 12.1872 31.5629 11.798 31.9316 11.6751L35.5774 10.651C35.8437 10.5691 36.1099 10.651 36.2943 10.8558C36.4786 11.0607 36.5196 11.3474 36.4172 11.5932L35.2087 14.6041L36.9497 13.8053C37.2979 13.6414 37.728 13.8053 37.8919 14.1535C37.9738 14.3788 37.9533 14.6245 37.8304 14.8294Z" fill="#30BBD3"/>
<path d="M32.1568 27.5074C31.952 27.405 31.7062 27.405 31.4809 27.6303C28.6339 30.4568 25.1929 32.2797 20.6049 31.911C14.8904 31.4604 10.4663 27.6712 9.11451 20.8507C7.68076 20.7278 6.55425 19.2531 6.55425 17.4302C6.55425 15.7097 7.57835 14.2965 8.8892 14.0507C9.40125 10.9374 12.2687 4.38316 19.8266 4.38316C23.1447 4.38316 24.8447 6.02172 25.1315 7.57835C25.4592 9.38077 24.1893 10.3025 23.329 10.3025C22.7965 10.3025 21.8134 10.1591 21.4037 8.97113C21.3218 8.70487 20.9326 8.80728 20.8507 9.29885C20.6459 10.6711 21.6085 12.023 23.6363 12.023C25.8483 12.023 28.2652 10.2205 27.8351 6.36991C27.5893 4.11689 25.0495 0 17.8399 0C7.98799 0 0 7.96751 0 17.8194C0 27.6712 7.98799 35.6387 17.8399 35.6387C26.9544 35.6387 31.6652 29.1459 32.2797 28.2857C32.505 27.9785 32.3821 27.6098 32.1568 27.5074Z" fill="#03BFD7"/>
<path d="M52.2704 13.275C51.021 13.275 49.6078 13.7256 48.5427 14.4629V8.31831C48.5427 8.093 48.3584 7.88818 48.1126 7.88818H46.6379C46.4126 7.88818 46.2078 8.07252 46.2078 8.31831V24.8473C46.2078 24.9907 46.2692 25.1136 46.3716 25.175C46.8632 25.5232 48.6656 26.6907 51.4102 26.6907C55.609 26.6907 58.4151 23.9256 58.4151 19.7882C58.4355 15.8352 56.0187 13.275 52.2704 13.275ZM56.0391 19.9316C56.0391 22.6353 54.2162 24.4582 51.5126 24.4582C50.3042 24.4582 49.4234 24.2124 48.5427 23.6389V17.0641C49.1981 16.3063 50.5295 15.528 51.9837 15.528C54.4825 15.5075 56.0391 17.2075 56.0391 19.9316ZM73.244 14.6677C72.732 14.34 70.8681 13.275 68.2055 13.275C64.15 13.275 61.0982 16.1629 61.0982 19.9931C61.0982 24.0075 63.6789 26.7112 67.55 26.7112C68.779 26.7112 70.0898 26.2606 71.1344 25.4823V26.0353C71.1344 26.2606 71.3187 26.4654 71.5645 26.4654H73.0392C73.2645 26.4654 73.4694 26.2811 73.4694 26.0353V15.0159C73.4489 14.8726 73.3669 14.7497 73.244 14.6677ZM71.1344 16.2039V22.9015C70.4585 23.6594 69.1272 24.4582 67.7549 24.4582C65.1332 24.4582 63.4946 22.7581 63.4946 20.034C63.4946 17.4533 65.5018 15.5075 68.185 15.5075C69.25 15.5075 70.2332 15.7533 71.1344 16.2039ZM104.192 13.9304V25.9124C104.192 29.7835 102.083 32.016 98.396 32.016C95.8972 32.016 94.2996 31.0329 93.7261 30.6028C93.5417 30.4799 93.5008 30.2341 93.6237 30.0497L94.3405 28.8413C94.402 28.7389 94.5044 28.6775 94.6068 28.6365C94.7297 28.616 94.8321 28.6365 94.9345 28.6979C95.3851 29.0257 96.5936 29.763 98.3141 29.763C101.263 29.763 101.878 27.7353 101.878 26.0353V25.1955C101.202 25.7485 99.7478 26.6907 97.7815 26.6907C95.4671 26.6907 92.7225 25.6871 92.7225 20.9352V13.9304C92.7225 13.7051 92.9068 13.5003 93.1526 13.5003H94.6273C94.8526 13.5003 95.0574 13.6846 95.0574 13.9304V20.6485C95.0574 23.2907 96.061 24.4582 98.2936 24.4582C99.7683 24.4582 101.141 23.5774 101.878 22.6762V13.9304C101.878 13.7051 102.062 13.5003 102.308 13.5003H103.783C104.008 13.5207 104.192 13.7051 104.192 13.9304ZM83.3212 13.275C82.0718 13.275 80.6585 13.7256 79.5935 14.4629V8.31831C79.5935 8.093 79.4091 7.88818 79.1634 7.88818H77.6886C77.4633 7.88818 77.2585 8.07252 77.2585 8.31831V24.8473C77.2585 24.9907 77.32 25.1136 77.4224 25.175C77.914 25.5232 79.7164 26.6907 82.461 26.6907C86.6598 26.6907 89.4658 23.9256 89.4658 19.7882C89.5068 15.8352 87.0694 13.275 83.3212 13.275ZM87.1104 19.9316C87.1104 22.6353 85.2875 24.4582 82.5839 24.4582C81.3754 24.4582 80.4947 24.2124 79.614 23.6389V17.0641C80.2694 16.3063 81.6007 15.528 83.0549 15.528C85.5538 15.5075 87.1104 17.2075 87.1104 19.9316Z" fill="#70BF54"/>
<path d="M122.994 8.31831V26.0557C122.994 26.2811 122.809 26.4859 122.564 26.4859H121.089C120.864 26.4859 120.659 26.3015 120.659 26.0557V8.31831C120.659 8.093 120.843 7.88818 121.089 7.88818H122.564C122.809 7.88818 122.994 8.07252 122.994 8.31831ZM113.429 18.887C111.77 18.3545 110.786 17.9449 110.786 16.8798C110.786 16.04 111.606 15.4256 112.753 15.4256C114.227 15.4256 115.19 16.081 115.641 16.4906C115.743 16.5726 115.866 16.6135 115.989 16.5931C116.112 16.5726 116.214 16.4906 116.276 16.3882L116.89 15.2822C116.992 15.1183 116.952 14.893 116.808 14.7701C116.317 14.3195 114.944 13.275 112.712 13.275C110.111 13.275 108.37 14.7292 108.37 16.9208C108.37 19.6654 110.643 20.4027 112.486 20.9967C114.064 21.5087 115.026 21.8569 115.026 22.8401C115.026 24.0895 113.818 24.5401 112.794 24.5401C111.053 24.5401 110.049 23.7208 109.619 23.2292C109.537 23.1473 109.414 23.0859 109.312 23.0859C109.189 23.0859 109.086 23.1473 109.004 23.2292L108.185 24.1919C108.062 24.3557 108.042 24.581 108.185 24.7244C108.656 25.3184 110.049 26.6702 112.671 26.6702C115.579 26.6702 117.464 25.1341 117.464 22.7581C117.423 20.1979 115.211 19.481 113.429 18.887ZM170 19.9931C170 24.069 167.419 26.7112 163.425 26.7112C162.258 26.7112 160.988 26.322 159.964 25.6461V31.3811C159.964 31.6064 159.779 31.8112 159.534 31.8112H158.059C157.834 31.8112 157.629 31.6269 157.629 31.3811V15.0364C157.629 14.893 157.711 14.7497 157.834 14.6882C158.366 14.3605 160.271 13.2954 162.872 13.2954C166.948 13.275 170 16.1629 170 19.9931ZM167.604 20.034C167.604 17.4533 165.596 15.5075 162.913 15.5075C161.848 15.5075 160.845 15.7328 159.964 16.2039V23.0039C160.599 23.7208 161.951 24.4786 163.261 24.4786C165.904 24.4582 167.604 22.7377 167.604 20.034ZM154.208 19.1533C154.208 19.6654 154.167 20.0955 154.126 20.3822C154.106 20.587 153.922 20.7304 153.717 20.7304H144.275C144.561 23.0654 146.2 24.4377 148.678 24.4377C150.604 24.4377 151.791 23.5774 152.304 23.0654C152.406 22.963 152.549 22.922 152.672 22.963C152.816 22.9834 152.918 23.0859 152.979 23.2087L153.471 24.3557C153.532 24.5196 153.512 24.6835 153.389 24.8063C152.959 25.2365 151.361 26.6702 148.596 26.6702C144.5 26.6702 141.755 23.9666 141.755 19.9521C141.755 15.9376 144.397 13.234 148.31 13.234C151.771 13.275 154.208 15.6918 154.208 19.1533ZM151.832 18.6617C151.607 16.6545 150.276 15.5075 148.166 15.5075C146.077 15.5075 144.623 16.675 144.213 18.6617H151.832ZM138.888 19.1533C138.888 19.6654 138.847 20.0955 138.806 20.3822C138.785 20.587 138.601 20.7304 138.396 20.7304H128.954C129.241 23.0654 130.879 24.4377 133.358 24.4377C135.283 24.4377 136.471 23.5774 136.983 23.0654C137.085 22.963 137.208 22.922 137.352 22.963C137.495 22.9834 137.597 23.0859 137.659 23.2087L138.15 24.3557C138.212 24.5196 138.191 24.6835 138.068 24.8063C137.638 25.2365 136.041 26.6702 133.276 26.6702C129.179 26.6702 126.435 23.9666 126.435 19.9521C126.435 15.9376 129.077 13.234 132.989 13.234C136.45 13.275 138.888 15.6918 138.888 19.1533ZM136.512 18.6617C136.287 16.6545 134.955 15.5075 132.846 15.5075C130.756 15.5075 129.302 16.675 128.893 18.6617H136.512Z" fill="#03BFD7"/>
</svg>
