<svg width="115" height="110" viewBox="0 0 115 110" fill="none" xmlns="http://www.w3.org/2000/svg">
<path d="M59.2603 110C89.6373 110 114.263 85.3757 114.263 55C114.263 24.6243 89.6373 0 59.2603 0C28.8833 0 4.25781 24.6243 4.25781 55C4.25781 85.3757 28.8833 110 59.2603 110Z" fill="#03BFD7"/>
<path d="M1.50172 37.1837C2.05849 38.0414 3.83416 39.0195 4.31569 39.5462C5.67001 41.0059 6.78356 42.8417 6.99423 44.8582C7.43063 49.2522 8.75485 73.2238 19.5292 80.2662C19.5292 80.2662 20.8534 81.5905 19.5292 83.5618C18.205 85.5331 20.1913 87.7451 23.7126 85.9845C27.2338 84.2239 27.2338 84.2239 27.2338 84.2239C27.2338 84.2239 72.5283 90.3785 94.077 65.9706C94.077 65.9706 96.4997 63.5479 100.021 64.4357C103.542 65.3085 103.753 61.8023 102.444 60.7038C101.119 59.6053 99.5845 60.0417 99.1482 55.8733C98.7118 51.69 97.1317 29.7048 83.5133 16.7334C83.5133 16.7334 83.0618 15.1985 83.5133 13.6485C83.9647 12.1136 84.8526 7.49385 79.5707 10.353C79.5707 10.353 78.4722 12.1136 76.0495 12.9864C76.0495 12.9864 35.149 2.8741 10.9669 31.014C10.3048 31.7814 10.1543 32.5338 9.17619 33.1959C8.07769 33.8881 0.162445 35.1221 1.50172 37.1837Z" fill="white"/>
<path d="M21.3203 87.9699C20.0412 87.9699 19.0932 87.4733 18.5064 86.8112C17.5433 85.7127 17.4981 84.1478 18.386 82.7934C18.9127 81.9959 18.7471 81.4993 18.5966 81.2586C8.18347 74.2312 6.34761 53.119 5.7457 46.1519C5.70055 45.6703 5.67046 45.2791 5.64036 44.9781C5.45979 43.0971 4.271 41.472 3.32298 40.4487C3.21764 40.3434 2.84144 40.0725 2.55553 39.8618C1.75799 39.29 0.855113 38.643 0.373579 37.9056C-0.0176677 37.3037 -0.107955 36.6115 0.132812 35.9644C0.73473 34.3543 3.15745 33.5568 6.51314 32.6088C7.2204 32.4131 8.18347 32.1423 8.42423 32.0068C8.80043 31.751 8.96596 31.4952 9.23682 31.0739C9.4174 30.7729 9.62807 30.4419 9.92903 30.0958C15.5871 23.5198 22.6144 18.4487 30.8156 15.0328C37.3313 12.3393 44.6296 10.669 52.4545 10.0821C64.4026 9.19426 73.8076 11.0903 75.9293 11.5568C77.5997 10.8345 78.3972 9.6156 78.4122 9.60056L78.6079 9.2996L78.9088 9.13407C79.7666 8.66759 82.3699 7.25309 84.1004 8.66759C85.6955 9.96171 85.2139 12.58 84.7926 14.0096C84.5669 14.777 84.6571 15.5746 84.7324 16.011C90.27 21.4131 94.4835 28.8468 97.2523 38.1313C99.4944 45.6402 100.141 52.2162 100.412 55.0301C100.442 55.2859 100.457 55.5116 100.488 55.7073C100.743 58.1601 101.255 58.4309 102.098 58.8824C102.459 59.078 102.88 59.3037 103.302 59.6498C104.52 60.658 104.897 62.6744 104.144 64.1491C103.858 64.7209 102.685 66.4966 99.69 65.7442C97.1319 65.0971 95.3111 66.6772 95.0553 66.9029C89.9992 72.606 83.2727 77.1505 75.0415 80.3707C68.4957 82.9439 60.9867 84.6895 52.7254 85.5923C40.04 86.9617 29.687 85.8783 27.4749 85.6074L24.3299 87.1874C23.1863 87.7442 22.1781 87.9699 21.3203 87.9699ZM2.94678 36.762C3.27783 37.0629 3.78946 37.4241 4.13557 37.6799C4.6472 38.041 5.03844 38.327 5.32435 38.6279C7.10001 40.539 8.13832 42.6457 8.34899 44.7223C8.37909 45.0383 8.40918 45.4446 8.45433 45.9412C8.74024 49.2066 9.32711 55.9781 11.0877 62.7948C13.2095 71.041 16.3094 76.5335 20.282 79.1218L20.4024 79.197L20.5077 79.3023C21.23 80.0246 22.2082 82.0109 20.6733 84.3133C20.598 84.4186 20.3723 84.8099 20.5679 85.0356C20.8237 85.3215 21.6965 85.487 23.111 84.7798L27.0084 82.8386L27.4298 82.8988C27.5351 82.9138 38.806 84.4036 52.4997 82.9138C60.5052 82.041 67.7733 80.3406 74.0935 77.8577C81.9184 74.7729 88.3138 70.4843 93.084 65.0821L93.1442 65.0219C93.2646 64.9015 96.1538 62.0725 100.367 63.1259C100.789 63.2312 101.541 63.3516 101.752 62.9302C101.947 62.5239 101.797 61.922 101.586 61.7415C101.375 61.5609 101.135 61.4405 100.849 61.29C99.4192 60.5226 98.1853 59.6047 97.8091 56.0082C97.794 55.8126 97.7639 55.5869 97.7338 55.316C97.463 52.5773 96.8309 46.182 94.6791 38.9289C92.0005 29.9453 87.9376 22.7975 82.5956 17.7114L82.3398 17.4556L82.2344 17.1094C82.1742 16.9138 81.6777 15.1382 82.2344 13.2572C82.5956 12.0233 82.5805 11.0452 82.43 10.7893C82.3247 10.7743 81.798 10.7291 80.5039 11.3913C80.0073 12.0383 78.7132 13.4528 76.5313 14.2504L76.14 14.3858L75.7337 14.2804C75.6284 14.2504 65.5011 11.8126 52.605 12.7757C45.066 13.3475 38.0837 14.9576 31.8238 17.5609C24.044 20.8112 17.3627 25.6266 12.0056 31.8714C11.8401 32.067 11.7047 32.2777 11.5542 32.5185C11.2232 33.0452 10.8018 33.7073 9.92903 34.2941C9.46254 34.5951 8.6951 34.8208 7.28059 35.2271C6.16704 35.5431 3.84966 36.2052 2.94678 36.762Z" fill="#03BFD7"/>
<path d="M58.9247 75.2226C55.3884 75.2226 51.8672 74.5154 48.1354 73.0558L48.0902 73.0407C47.6538 72.8602 43.9069 71.1598 40.3255 67.4732C40.2954 67.4732 40.2653 67.4732 40.2202 67.4732C38.911 67.4732 35.6456 67.0519 33.4035 63.2148C30.8905 58.8811 32.0492 56.1876 32.9069 55.0139C32.3802 53.5242 31.2366 49.8376 30.9657 45.4287C30.4993 37.8448 32.8768 31.7958 37.8276 27.9286L39.3775 26.153L39.9192 28.4703C41.0177 33.0447 43.8919 35.7833 47.6237 35.7833C48.4514 35.7833 49.2489 35.6479 50.0163 35.362C51.5362 34.8203 52.5594 33.9476 52.9808 32.819C53.1012 32.5181 53.1614 32.2171 53.1764 31.9011C52.6046 32.9394 51.6265 33.7369 50.2872 34.2184C49.8508 34.3839 49.3542 34.4592 48.8426 34.4592C46.5854 34.4592 44.0423 32.8942 43.4705 29.4032C42.8686 25.7467 45.2913 20.9616 52.0478 18.539C54.6962 17.591 57.3447 17.1095 59.9329 17.1095C70.0451 17.1095 77.1326 24.3774 80.0519 29.1324C80.082 29.1324 80.0971 29.1324 80.1272 29.1324C83.1367 29.1324 85.9808 31.3895 87.1846 34.7451C88.4787 38.3414 87.4404 42.1634 84.8522 43.9089C85.6949 50.4997 84.807 56.3682 82.2339 61.379C79.6757 66.3597 75.4172 70.3021 69.9548 72.7699C66.3884 74.395 62.6566 75.2226 58.9247 75.2226ZM44.9753 58.204C45.0355 58.204 45.0957 58.204 45.1559 58.204H45.186C45.8782 58.1889 46.6005 57.9783 47.2927 57.6171C47.9548 57.2259 48.4965 56.6992 48.8727 56.1124L48.8878 56.0823C48.9329 56.0221 48.963 55.9619 49.0081 55.9017C48.4815 56.5036 47.8645 57.0002 47.1723 57.3914C46.4801 57.7977 45.7428 58.0686 44.9753 58.204ZM60.5047 49.5517C60.5649 49.5517 60.6251 49.5517 60.6853 49.5517H60.7154C61.4076 49.5367 62.1299 49.326 62.8221 48.9649C63.4842 48.5736 64.0259 48.047 64.4021 47.4601L64.4172 47.43C64.4623 47.3699 64.4924 47.3097 64.5225 47.2495C63.9958 47.8514 63.3789 48.3479 62.6867 48.7241C62.0095 49.1454 61.2722 49.4163 60.5047 49.5517C60.4897 49.5517 60.4897 49.5517 60.5047 49.5517Z" fill="white"/>
<path d="M59.9771 18.2984C70.0435 18.2984 76.9651 25.9429 79.4479 30.3822C79.6886 30.337 79.9294 30.322 80.1701 30.322C82.5927 30.322 85.0453 32.2181 86.0986 35.1374C87.3174 38.5384 86.1889 42.0597 83.6008 43.2485C85.6171 56.9124 79.9143 66.9646 69.5169 71.6597C65.8755 73.3 62.3545 74.0223 58.9389 74.0223C55.3727 74.0223 51.927 73.2398 48.5865 71.9306C48.1502 71.735 44.3433 70.0195 40.8373 66.2273C40.8373 66.2273 40.6267 66.2724 40.2505 66.2724C39.0769 66.2724 36.3834 65.8812 34.4875 62.6006C31.5383 57.5143 34.3371 55.257 34.3371 55.257C34.3371 55.257 27.2349 37.6355 38.7157 28.787L38.806 28.6817C38.806 28.6968 38.806 28.7118 38.8211 28.7118C40.2355 34.6107 44.0875 36.9583 47.6988 36.9583C48.6618 36.9583 49.6248 36.7927 50.4975 36.4767C54.3194 35.1073 55.2072 31.9171 53.8981 29.5094C53.6574 29.0579 53.3113 28.8623 53.0555 28.8623C52.8298 28.8623 52.6492 29.0128 52.6492 29.2836C52.6944 31.7817 50.9489 32.7147 49.9558 33.0758C49.6549 33.1812 49.2937 33.2413 48.9176 33.2413C47.2775 33.2413 45.216 32.1127 44.7345 29.1933C44.2229 26.1084 46.3295 21.8799 52.5288 19.6527C55.147 18.7047 57.6448 18.2984 59.9771 18.2984ZM59.2247 48.4702C58.8787 48.4702 58.5175 48.4402 58.1414 48.38L58.0661 48.3649C58.021 48.3649 57.9758 48.3499 57.9458 48.3499C57.69 48.3499 57.4492 48.4702 57.2837 48.696C57.0429 49.0571 57.1332 49.5537 57.4943 49.7945C58.352 50.3814 59.4053 50.7576 60.5037 50.7576C60.594 50.7576 60.6693 50.7576 60.7595 50.7576C61.6924 50.7275 62.6103 50.4566 63.4229 50.0052C64.2354 49.5236 64.9275 48.8766 65.4241 48.094C66.0862 47.1159 66.342 45.9271 66.2667 44.8135C66.2366 44.3921 65.8906 44.0761 65.4692 44.0761C65.4542 44.0761 65.4391 44.0761 65.4091 44.0761C65.0931 44.0912 64.8373 44.3019 64.7169 44.5727L64.6868 44.6329C64.1301 46.0475 63.2272 47.0708 62.0686 47.6727C61.2561 48.1994 60.2931 48.4702 59.2247 48.4702ZM43.6963 57.123C43.3502 57.123 42.9891 57.0929 42.6129 57.0327L42.5377 57.0177C42.4925 57.0177 42.4474 57.0026 42.4173 57.0026C42.1615 57.0026 41.9207 57.123 41.7552 57.3488C41.5145 57.7099 41.6047 58.2065 41.9659 58.4473C42.8235 59.0342 43.8768 59.4104 44.9753 59.4104C45.0655 59.4104 45.1408 59.4104 45.2311 59.4104C46.164 59.3803 47.0818 59.1094 47.8944 58.658C48.7069 58.1764 49.3991 57.5293 49.8956 56.7468C50.5577 55.7687 50.8135 54.5799 50.7383 53.4663C50.7082 53.0449 50.3621 52.7289 49.9408 52.7289C49.9257 52.7289 49.9107 52.7289 49.8806 52.7289C49.5646 52.744 49.3088 52.9547 49.1884 53.2255L49.1583 53.2857C48.6016 54.7003 47.6988 55.7235 46.5401 56.3255C45.7276 56.8522 44.7646 57.123 43.6963 57.123ZM55.2072 59.4405C55.2373 59.4405 55.2523 59.4405 55.2824 59.4405C55.3727 59.4254 55.463 59.3953 55.5533 59.3502C55.6737 59.2749 55.7639 59.1546 55.8241 59.0191C55.9445 58.6429 56.1702 58.372 56.426 58.2216C56.6517 58.0711 56.9226 57.9958 57.2085 57.9958C57.2686 57.9958 57.3288 57.9958 57.389 58.0109C57.4191 58.0109 57.4492 58.0109 57.4793 58.0109C57.705 58.0109 57.9157 57.8905 58.036 57.7099C58.1263 57.5594 58.1564 57.3939 58.1113 57.2284C58.0661 57.0628 57.9758 56.9274 57.8254 56.8371C57.4943 56.6264 57.1182 56.5211 56.742 56.5211C56.6818 56.5211 56.6216 56.5211 56.5614 56.5362C56.2304 56.5662 55.8843 56.6716 55.5683 56.8672C55.2523 57.0779 54.9965 57.3337 54.831 57.6347C54.6053 57.9958 54.515 58.4473 54.5602 58.9138C54.5752 59.0793 54.6655 59.2298 54.8009 59.3351C54.9213 59.3953 55.0567 59.4405 55.2072 59.4405ZM59.9771 15.8906C57.2536 15.8906 54.4549 16.4023 51.6862 17.3955C48.3909 18.5843 45.7878 20.4202 44.1326 22.7075C42.5978 24.8444 41.9508 27.2973 42.327 29.5846C42.5527 30.9239 43.0342 32.0977 43.7715 33.0608C42.5377 31.9622 41.6499 30.322 41.1383 28.1851C41.1383 28.1701 41.1383 28.155 41.1232 28.14L40.0549 23.5653L37.0305 27.0414C31.8092 31.1797 29.3114 37.5452 29.7929 45.5057C30.0487 49.5688 31.0117 53.0449 31.6136 54.8507C31.3728 55.2721 31.1321 55.7837 30.9665 56.4007C30.1991 59.1847 31.3126 61.9686 32.396 63.8195C34.7283 67.8525 38.1289 68.5748 39.8292 68.6801C43.3652 72.2015 46.9013 73.8568 47.6235 74.1577L47.6687 74.1728L47.7138 74.1878C51.5809 75.7077 55.2523 76.4451 58.9389 76.4451C62.836 76.4451 66.7332 75.5873 70.51 73.8718C76.2278 71.2835 80.6667 67.1603 83.3601 61.9385C84.7294 59.2599 85.6623 56.3104 86.0986 53.1503C86.4899 50.4115 86.52 47.4921 86.1739 44.4674C87.2723 43.5494 88.0999 42.2703 88.5663 40.7655C89.1983 38.749 89.1231 36.4767 88.3557 34.3549C87.0616 30.7433 84.0673 28.2453 80.772 27.9744C79.5833 26.1536 77.4015 23.3245 74.0009 20.7813C72.0297 19.3066 69.9382 18.1479 67.7564 17.3353C65.2586 16.3571 62.6254 15.8906 59.9771 15.8906Z" fill="#03BFD7"/>
<path d="M64.7774 55.7674C64.943 55.7825 65.0784 55.8878 65.1386 56.0232C65.4696 56.7004 65.575 57.3625 65.5449 58.0698C65.5298 58.762 65.3643 59.4241 65.1085 60.0561C64.8376 60.673 64.4915 61.275 64.025 61.7866C63.5586 62.2982 63.0168 62.7045 62.3096 62.9603C62.0688 63.0506 61.813 62.9152 61.7227 62.6895C61.6625 62.539 61.7077 62.3735 61.798 62.2531L61.8581 62.1778C62.1742 61.7866 62.5052 61.29 62.7761 60.8536C63.0469 60.3871 63.2877 59.9056 63.4833 59.409C63.694 58.9124 63.8445 58.4008 63.9949 57.8892C64.1153 57.3776 64.2207 56.8057 64.2658 56.2941L64.2809 56.1888C64.311 55.9179 64.5367 55.7373 64.7774 55.7674Z" fill="#03BFD7"/>
<path d="M62.2031 99.1956C54.0624 99.1956 46.4634 96.8632 39.6167 92.2736C33.2516 88.015 27.7743 81.8454 23.7716 74.4419C22.628 72.3201 21.7101 70.0479 21.0631 67.6854C21.0029 67.4446 20.9126 67.1737 20.8223 66.8878C20.2355 64.9617 19.4229 62.3133 20.8524 60.4323C21.0781 60.1313 21.3791 59.9658 21.68 59.8003C21.8456 59.2134 22.1315 58.4911 22.8086 58.0246C23.1246 57.7989 23.5008 57.7086 23.8017 57.6785C23.9221 57.2873 24.0726 56.8358 24.4036 56.3994C24.8551 55.8126 25.4871 55.4966 26.1792 55.4966C26.2093 55.4966 26.2394 55.4966 26.2695 55.4966C26.7962 54.6238 27.5787 54.5034 27.9699 54.5034C28.1505 54.5034 28.331 54.5335 28.5116 54.5787C29.6101 54.8646 30.0013 55.8427 30.1819 56.3092C30.3926 56.8509 30.6333 57.3776 30.8891 57.8892C31.3857 58.8673 32.0177 59.7551 32.6798 60.6881C32.8303 60.8988 32.9807 61.1094 33.1162 61.3201C33.4924 61.6361 33.7331 61.7264 33.8234 61.7264C33.9889 61.7264 34.1996 61.5759 34.4103 61.3352C34.5156 61.2148 34.6059 61.0041 34.7112 60.7784C34.8466 60.4925 34.9971 60.1614 35.2379 59.8304C35.6592 59.2585 36.3363 58.9124 37.0436 58.9124C37.3596 58.9124 37.6605 58.9726 37.9464 59.1081C38.5333 59.3789 38.9847 59.9056 39.2706 60.658C39.4963 61.2599 39.5866 61.8618 39.6769 62.3885C39.722 62.6443 39.7521 62.87 39.7973 63.0958C39.9628 63.8632 40.1735 64.6457 40.4443 65.3981C40.6099 65.8646 40.7904 66.331 41.0011 66.7975C42.2199 67.5499 43.4839 68.2271 44.778 68.7989C48.4797 70.4241 52.5877 71.2969 56.6806 71.2969C60.8639 71.2969 65.0471 70.394 68.824 68.7086C71.8787 67.3393 74.4669 65.1573 76.9647 63.0657C81.0577 59.6347 85.3011 56.0834 91.5458 56.0834C92.1327 56.0834 92.7496 56.1135 93.3666 56.1737L94.8262 56.3242L94.9315 56.3543C97.7605 57.2271 101.131 59.5595 102.154 62.3584C102.771 63.6074 103.147 64.9316 103.268 66.301C103.764 71.658 100.529 76.9097 96.9479 81.7852C89.4241 92.0178 77.2206 98.5034 64.2646 99.1505C63.6025 99.1806 62.8953 99.1956 62.2031 99.1956Z" fill="white"/>
<path d="M27.9851 55.7073C28.0604 55.7073 28.1507 55.7223 28.2409 55.7374C28.7375 55.8578 28.9181 56.3092 29.0836 56.7305C29.3094 57.3024 29.5652 57.8742 29.8361 58.4159C30.5132 59.7401 31.386 60.8838 32.2287 62.1026C32.2438 62.1177 32.2588 62.1327 32.2739 62.1327C32.6952 62.5089 33.267 62.9152 33.8539 62.9152C33.869 62.9152 33.869 62.9152 33.884 62.9152C34.4859 62.9002 34.9976 62.539 35.3587 62.0876C35.765 61.6061 35.8704 61.0041 36.2315 60.5226C36.4272 60.2517 36.7432 60.0862 37.0742 60.0862C37.2097 60.0862 37.3301 60.1163 37.4655 60.1765C37.8266 60.342 38.0373 60.7032 38.1728 61.0643C38.4436 61.7866 38.4888 62.5691 38.6543 63.3366C38.8349 64.1642 39.0606 64.9918 39.3465 65.7894C39.5572 66.3913 39.813 67.0082 40.0839 67.6102C41.4232 68.4679 42.8377 69.2353 44.3275 69.8974C48.255 71.6279 52.4836 72.4857 56.7272 72.4857C61.046 72.4857 65.3648 71.5828 69.3526 69.7921C77.599 66.0753 82.0984 57.2723 91.5788 57.2723C92.1205 57.2723 92.6924 57.3024 93.2642 57.3625C93.7156 57.4077 94.1671 57.4528 94.6035 57.498C96.9811 58.2203 100.186 60.2818 101.074 62.8099C101.661 63.9987 101.992 65.2025 102.097 66.3913C102.594 71.6279 99.0577 76.8947 96.003 81.0479C88.5993 91.1149 76.6811 97.2996 64.2362 97.9166C63.544 97.9467 62.8668 97.9617 62.1897 97.9617C45.8624 97.9617 32.5297 88.0903 24.825 73.84C23.7114 71.7784 22.8386 69.5965 22.2217 67.3393C21.7401 65.6088 20.5814 62.7497 21.8154 61.1245C21.9658 60.9138 22.7032 60.658 22.7333 60.4925C22.8537 59.9658 23.0192 59.3188 23.4857 58.9877C23.6212 58.8824 23.892 58.8372 24.1328 58.8372C24.3134 58.8372 24.4939 58.8673 24.5993 58.9275C24.9303 58.3858 24.9153 57.6635 25.3517 57.1218C25.5925 56.8208 25.8934 56.6854 26.1793 56.6854C26.4803 56.6854 26.7813 56.8208 27.007 57.0465C27.1123 56.3844 27.3681 55.7073 27.9851 55.7073ZM27.9851 53.2996C27.1876 53.2996 26.3298 53.6006 25.6527 54.3379C24.7949 54.4734 24.0274 54.9398 23.4556 55.6471C23.1848 55.9781 23.0042 56.3242 22.8838 56.6402C22.628 56.7305 22.3721 56.8509 22.1163 57.0315C21.3338 57.5732 20.9275 58.3256 20.6717 58.9877C20.4008 59.1532 20.13 59.379 19.8892 59.695C18.0985 62.0575 19.0465 65.1724 19.6785 67.234C19.7688 67.5199 19.8441 67.7757 19.9042 68.0014C20.5814 70.4542 21.5144 72.8167 22.7183 75.0137C26.8114 82.5828 32.4243 88.9029 38.9402 93.2668C42.3561 95.5541 46.0129 97.3147 49.8351 98.5185C53.8078 99.7675 57.9611 100.399 62.2047 100.399C62.912 100.399 63.6493 100.384 64.3717 100.339C77.6743 99.6772 90.2244 92.9959 97.9592 82.4925C99.5995 80.2654 101.285 77.8427 102.564 75.1943C104.129 71.9439 104.776 68.9946 104.505 66.1806C104.37 64.6909 103.963 63.2463 103.301 61.8769C102.067 58.5965 98.3204 56.1136 95.3258 55.1957L95.1001 55.1204L94.8744 55.0903L94.6938 55.0753L93.5351 54.9549C92.888 54.8796 92.2259 54.8496 91.5938 54.8496C84.9124 54.8496 80.5033 58.5513 76.2447 62.1177C73.6865 64.2545 71.2788 66.2859 68.3745 67.5801C64.7629 69.2052 60.73 70.063 56.7272 70.063C52.7996 70.063 48.857 69.2353 45.3056 67.6703C44.177 67.1738 43.0634 66.5869 41.995 65.9398C41.8596 65.6088 41.7392 65.2928 41.6188 64.9617C41.363 64.2545 41.1673 63.5322 41.0169 62.8099C40.9717 62.6143 40.9416 62.4036 40.9115 62.1628C40.8212 61.576 40.7159 60.8988 40.445 60.1915C40.0387 59.1382 39.3917 58.3858 38.5038 57.9795C38.0524 57.7688 37.5859 57.6635 37.1043 57.6635C36.0209 57.6635 34.9976 58.1902 34.3355 59.063C34.0796 59.4091 33.8991 59.7552 33.7636 60.0411C33.7486 60.011 33.7185 59.9809 33.7034 59.9508C33.0714 59.0479 32.4695 58.2052 32.003 57.3024C31.7622 56.8359 31.5365 56.3393 31.3409 55.8277C31.1302 55.2709 30.5433 53.8112 28.8429 53.3749C28.5419 53.3448 28.256 53.2996 27.9851 53.2996Z" fill="#03BFD7"/>
<path d="M25.9977 65.0521C26.073 65.0521 26.1482 65.037 26.2234 64.9919C26.3739 64.8865 26.404 64.6759 26.2987 64.5254C24.6434 62.1779 24.824 58.1752 24.824 58.13C24.839 57.9495 24.6885 57.799 24.508 57.7839C24.3274 57.7689 24.1769 57.9194 24.1619 58.0999C24.1619 58.1451 24.1167 59.1834 24.2823 60.5377C24.508 62.3735 25.0046 63.8482 25.7569 64.9166C25.8171 64.9919 25.9074 65.037 25.9977 65.0521Z" fill="#03BFD7"/>
<path d="M28.2419 63.201C28.3171 63.201 28.3923 63.186 28.4676 63.1409C28.6181 63.0355 28.6481 62.8249 28.5428 62.6744C26.8875 60.3269 27.0681 56.3242 27.0681 56.279C27.0832 56.0984 26.9327 55.948 26.7521 55.9329C26.5715 55.9179 26.4211 56.0684 26.406 56.2489C26.406 56.2941 26.3609 57.3324 26.5264 58.6867C26.7521 60.5225 27.2487 61.9972 28.0011 63.0656C28.0613 63.1409 28.1516 63.186 28.2419 63.201Z" fill="#03BFD7"/>
<path d="M24.0426 66.8578C24.1179 66.8578 24.1931 66.8427 24.2684 66.7976C24.4188 66.6923 24.4489 66.4816 24.3436 66.3311C22.6883 63.9836 22.8689 59.9809 22.8689 59.9358C22.8839 59.7552 22.7335 59.5897 22.5529 59.5897C22.3723 59.5746 22.2218 59.7251 22.2068 59.9057C22.2068 59.9508 22.1617 60.9891 22.3272 62.3434C22.5529 64.1793 23.0495 65.654 23.8019 66.7224C23.8621 66.7976 23.9523 66.8578 24.0426 66.8578Z" fill="#03BFD7"/>
<path d="M59.2552 108.8C45.9378 108.8 33.2224 103.924 23.3359 95.0603C28.1964 87.6713 36.7586 79.0033 50.5575 77.6639C51.5206 77.5736 52.5288 77.4833 53.5069 77.393C59.0295 76.9115 64.7477 76.4149 70.0446 74.4736C76.154 72.2464 79.6902 68.1531 83.4372 63.8341C84.2949 62.8409 85.1978 61.8025 86.1307 60.7943C91.1567 55.3015 96.4084 51.3136 101.72 48.9359C106.25 46.9043 109.997 46.4378 112.389 46.4227C112.841 49.2368 113.066 52.1262 113.066 54.9855C113.066 69.357 107.469 82.8708 97.3113 93.0287C87.1239 103.202 73.6259 108.8 59.2552 108.8Z" fill="white"/>
<path d="M111.34 47.6716C111.671 50.0943 111.852 52.5472 111.852 55C111.852 62.1026 110.467 68.9945 107.713 75.4651C105.065 81.725 101.273 87.3529 96.442 92.1833C91.6114 97.0136 85.9833 100.806 79.7231 103.454C73.2372 106.193 66.3601 107.592 59.2572 107.592C46.5864 107.592 34.4724 103.078 24.9317 94.8467C27.2792 91.461 29.9578 88.5266 32.9224 86.134C38.1292 81.9357 44.1034 79.4829 50.6796 78.8508C51.6427 78.7606 52.6058 78.6703 53.614 78.58C59.2271 78.0834 65.0208 77.5868 70.4533 75.6005C76.8639 73.2681 80.5056 69.0697 84.343 64.6155C85.2008 63.6224 86.0886 62.5991 87.0066 61.5909C91.9274 56.2339 97.0288 52.3365 102.19 50.0191C105.922 48.3789 109.083 47.8071 111.34 47.6716ZM112.544 45.2339C107.111 45.2339 96.8784 47.3105 85.2309 59.9959C80.295 65.383 76.8188 70.74 69.6256 73.3584C63.531 75.5704 56.6839 75.8714 50.4388 76.4733C34.2467 78.0383 25.4433 89.4445 21.7715 95.253C31.5981 104.402 44.7655 110 59.2422 110C89.625 110 114.244 85.3816 114.244 55C114.244 51.6744 113.943 48.409 113.387 45.2489C113.131 45.2339 112.845 45.2339 112.544 45.2339Z" fill="#03BFD7"/>
<path d="M50.7246 100.174L51.9585 98.9698C52.41 99.8878 53.1925 100.565 54.1856 100.7C55.3895 100.866 56.0967 100.234 56.2171 99.3912C56.3525 98.3679 55.6453 97.6908 54.3361 97.5102L53.5386 97.4049L53.7944 95.554L54.5167 95.6593C55.4346 95.7797 56.3375 95.3132 56.4579 94.3501C56.5632 93.5526 56.1719 92.9206 55.2089 92.7852C54.306 92.6648 53.5988 92.9657 52.9216 93.7031L52.0639 92.2434C52.8313 91.1901 54.0803 90.7387 55.6302 90.9493C57.5563 91.2051 58.715 92.4842 58.4743 94.2448C58.3087 95.5088 57.6015 96.3365 56.3977 96.6826V96.7277C57.767 97.1641 58.3689 98.3679 58.1884 99.7072C57.9024 101.784 56.1268 102.837 54.0502 102.551C52.3197 102.326 51.161 101.393 50.7246 100.174Z" fill="#03BFD7"/>
<path d="M60.7461 97.5855L64.8241 97.3447L64.9294 99.0752L60.8514 99.316L60.7461 97.5855Z" fill="#03BFD7"/>
<path d="M65.127 91.3557L72.049 89.6252L72.3499 90.8441L70.9053 101.633L68.919 102.13L70.3185 91.9877L65.5633 93.1765L65.127 91.3557Z" fill="#03BFD7"/>
<path d="M82.6575 90.6033L81.0173 91.6265L81.3935 92.3187C83.1992 95.87 82.823 97.0889 81.1527 98.1423L80.0542 96.6826C80.626 96.3967 81.0323 95.4337 79.678 92.9508L78.5645 90.9644L83.2594 88.0301L87.1417 94.2148L85.5617 95.2079L82.6575 90.6033Z" fill="#03BFD7"/>
<path d="M93.928 86.9617C93.8527 87.9097 93.311 88.8577 92.5887 89.58C90.9184 91.2353 88.7364 91.2654 87.1113 89.6402C85.6065 88.1354 85.4409 85.8933 87.1414 84.2079C88.4806 82.8837 90.5422 82.7182 91.9868 84.1778C92.3028 84.4938 92.4834 84.7196 92.6188 84.9754L88.8869 88.6922C89.7747 89.3543 90.8281 89.1737 91.6407 88.3611C92.2727 87.7291 92.5736 86.9767 92.6338 86.435L93.928 86.9617ZM87.9539 87.8345L90.497 85.3064C89.8801 84.6594 88.9471 84.5992 88.1947 85.3516C87.3821 86.1491 87.4122 87.0219 87.9539 87.8345Z" fill="#03BFD7"/>
<path d="M90.0918 81.3639L93.7484 75.8112L95.3134 76.8345L94.0042 78.8208L98.5487 81.8153L97.5104 83.3653L92.9659 80.3707L91.6417 82.3721L90.0918 81.3639Z" fill="#03BFD7"/>
<path d="M56.924 16.5225C54.9226 17.2599 52.6203 17.0943 50.5437 17.6662C44.0881 19.4268 38.2797 24.212 34.5327 29.6593C34.4124 29.8248 34.3823 30.0054 34.4123 30.1709C34.0362 30.9083 35.2249 31.45 35.6613 30.7127C36.5792 29.1477 37.7229 27.7783 39.002 26.5294C39.0321 26.5444 39.0772 26.5444 39.1073 26.5595C39.1223 26.7551 39.2126 26.9056 39.3631 27.0259C39.3481 27.0711 39.3481 27.1012 39.333 27.1463C39.2126 27.7181 39.7543 28.0041 40.1907 27.8987C40.2058 28.0492 40.281 28.1846 40.3864 28.29C40.4165 28.5458 40.4616 28.8016 40.5368 29.0574C40.6572 29.4336 41.1688 29.6142 41.5149 29.4487C41.5149 29.4637 41.5149 29.4637 41.53 29.4787C41.5149 29.5088 41.5149 29.5389 41.53 29.569C41.5601 29.6593 41.5902 29.7346 41.6353 29.8248C41.9664 30.8932 42.2824 32.0068 43.0649 32.8043C43.11 32.8495 43.1401 32.8495 43.1853 32.8495C43.2756 32.9398 43.3658 33.03 43.4561 33.1203C43.5464 33.2708 43.7721 33.1956 43.727 33.015C43.5163 32.0218 43.1552 31.0588 42.8542 30.0957C42.5533 29.1176 42.3275 28.1244 42.3426 27.1012C42.8994 26.5143 43.4411 25.8974 44.0279 25.3406C44.2085 25.1751 44.2386 24.9343 44.1634 24.7236C44.3289 24.6032 44.5095 24.4979 44.675 24.3775C44.9308 24.1969 45.0061 23.9411 44.9459 23.7154C44.976 23.6101 44.976 23.4897 44.9459 23.3693C45.1264 23.3091 45.3221 23.264 45.5026 23.2339C46.1647 23.1135 46.255 22.2558 45.8487 21.9699C48.0758 21.0068 50.333 20.1039 52.4548 18.9151C52.6203 18.8248 52.7106 18.7045 52.7557 18.569C53.1771 18.4938 53.6134 18.4487 54.0498 18.4035C55.1634 18.3132 56.292 18.2229 57.3604 17.8317C58.173 17.5006 57.7366 16.2216 56.924 16.5225ZM42.478 29.8098C42.6134 30.2612 42.7489 30.6976 42.8994 31.1491C42.779 30.818 42.5984 30.502 42.4329 30.201C42.4479 30.0656 42.478 29.9452 42.478 29.8098Z" fill="#03BFD7"/>
</svg>
