<svg width="110" height="110" viewBox="0 0 110 110" fill="none" xmlns="http://www.w3.org/2000/svg">
<path d="M80.2043 76.1422C76.5176 81.0929 72.2289 83.621 71.7324 83.9069C64.2987 87.7892 56.1127 89.294 46.8582 86.2544C33.9171 82.0109 25.8514 70.8153 26.5135 54.3529C23.2782 53.2845 21.5026 49.2366 22.5108 45.0533C23.4738 41.0957 26.6038 38.3871 29.794 38.5526C32.7132 31.6757 43.006 18.1628 60.4013 22.3762C68.0456 24.2271 71.0703 28.9671 70.8596 32.699C70.6188 37.0478 67.1879 38.4623 65.1715 37.9808C63.9376 37.6798 61.7556 36.792 61.4848 33.8276C61.4246 33.1805 60.4916 33.1805 60.0402 34.264C58.7912 37.3036 60.2659 40.9603 64.9608 42.0889C70.0771 43.3228 76.653 40.5088 77.8267 31.3898C77.8267 31.3748 77.8267 31.3597 77.8267 31.3447L77.9471 31.45C92.694 40.4787 86.5244 62.2982 86.5244 62.2982C86.5244 62.2982 90.1209 64.6155 87.2768 71.0259C84.8691 76.4432 80.2043 76.1422 80.2043 76.1422Z" fill="#03BFD7"/>
<path d="M55 110C85.3757 110 110 85.3757 110 55C110 24.6243 85.3757 0 55 0C24.6243 0 0 24.6243 0 55C0 85.3757 24.6243 110 55 110Z" fill="#03BFD7"/>
<path d="M54.6966 107.577C40.7472 107.577 27.6405 102.145 17.7691 92.2888C7.91275 82.4173 2.48047 69.3106 2.48047 55.3612C2.48047 49.5828 3.42849 43.8797 5.29442 38.4324C7.14531 33.0302 9.85393 28.0042 13.345 23.4748L13.7363 22.9631L14.3081 23.2791C14.3683 23.3092 14.4285 23.3393 14.4887 23.3694C17.5133 24.5432 20.252 26.3188 22.9004 28.0343C23.6528 28.5309 24.4504 29.0274 25.2178 29.509C26.3464 30.2162 27.5201 30.8934 28.6638 31.5555C28.9948 31.7511 29.3108 31.9317 29.6419 32.1273L30.1987 32.4584L29.9579 33.0603C29.6569 33.7976 29.4011 34.5199 29.1754 35.182C28.7541 36.431 28.408 37.695 28.1371 38.9139C27.8512 40.208 27.6556 41.4871 27.5502 42.721C27.49 43.4584 27.46 44.1957 27.46 44.903C27.46 53.7662 30.8156 62.1027 36.895 68.3777C42.9743 74.6376 51.055 78.0836 59.6624 78.0836C66.6296 78.0836 73.2507 75.8264 78.8334 71.5678C80.0824 70.6198 81.2712 69.5664 82.3697 68.4529C84.7472 66.0302 86.7336 63.2614 88.2684 60.2067C88.9456 58.8674 89.4271 57.7689 89.8184 56.7155L90.0441 56.0835L90.7062 56.2491C90.7965 56.2792 90.9018 56.2792 90.9921 56.2792C91.0673 56.2792 91.1426 56.2792 91.2178 56.2641C95.7021 55.5268 99.3286 55.0904 102.624 54.9098C103.211 54.8797 103.813 54.8496 104.4 54.8346C104.972 54.8045 105.558 54.7894 106.13 54.7593L106.928 54.7142V55.5117C106.898 69.416 101.465 82.4775 91.6392 92.3038C81.7527 102.145 68.646 107.577 54.6966 107.577Z" fill="white"/>
<path d="M13.9493 23.9262C14.0396 23.9713 14.1299 24.0164 14.2353 24.0616C18.0424 25.5363 21.383 27.9891 24.829 30.1409C26.2886 31.0438 27.7783 31.9015 29.2681 32.7743C28.9822 33.4966 28.7113 34.2189 28.4706 34.9262C28.0342 36.2052 27.6881 37.4843 27.4172 38.7333C27.1313 40.0575 26.9206 41.3666 26.8153 42.6307C26.7551 43.3831 26.7099 44.1505 26.7099 44.8878C26.7099 53.9467 30.1409 62.4788 36.3707 68.8892C42.6005 75.2996 50.8768 78.8208 59.6648 78.8208C66.7975 78.8208 73.5841 76.5185 79.2872 72.1546C80.5663 71.1765 81.7701 70.1081 82.8987 68.9644C85.3365 66.4815 87.368 63.6224 88.9329 60.5226C89.5048 59.3789 90.0615 58.1751 90.513 56.9412C90.6634 56.9713 90.829 57.0014 90.9794 57.0014C91.0998 57.0014 91.2202 56.9863 91.3406 56.9713C95.0875 56.3543 98.8796 55.8427 102.672 55.632C103.83 55.5718 105.004 55.5267 106.178 55.4665C106.148 69.1601 100.791 82.041 91.0998 91.7319C81.3789 101.453 68.4528 106.81 54.7141 106.81C40.9603 106.81 28.0492 101.453 18.3283 91.7319C8.5923 82.026 3.23526 69.0999 3.23526 55.3612C3.23526 43.8495 7.05742 32.8495 13.9493 23.9262ZM13.5581 21.985L12.7606 23.0082C9.20927 27.5978 6.47055 32.6991 4.58957 38.1915C2.69353 43.7141 1.73047 49.4925 1.73047 55.3612C1.73047 69.5062 7.23799 82.8085 17.2448 92.8153C27.2517 102.822 40.554 108.33 54.699 108.33C68.844 108.33 82.1463 102.822 92.1532 92.8153C102.13 82.8536 107.637 69.5964 107.668 55.4966V53.9015L106.072 53.9918C105.501 54.0219 104.914 54.052 104.357 54.067C103.77 54.0971 103.168 54.1122 102.581 54.1423C99.2558 54.3229 95.5991 54.7592 91.0848 55.4966C91.0547 55.4966 91.0095 55.5116 90.9794 55.5116C90.9343 55.5116 90.9042 55.5116 90.8591 55.4966L89.5499 55.1806L89.0834 56.4446C88.7072 57.4679 88.2257 58.5513 87.5786 59.8605C86.0738 62.8399 84.1477 65.5486 81.8153 67.9261C80.7469 69.0096 79.5882 70.0479 78.3693 70.9808C72.922 75.1491 66.4514 77.3461 59.6648 77.3461C51.2681 77.3461 43.383 73.9754 37.4391 67.8659C31.4801 61.7415 28.2147 53.5855 28.2147 44.9179C28.2147 44.2257 28.2448 43.5034 28.305 42.7962C28.4104 41.5924 28.606 40.3434 28.8768 39.0794C29.1327 37.8755 29.4788 36.6567 29.8851 35.4227C30.1108 34.7757 30.3666 34.0684 30.6525 33.3461L31.134 32.1423L30.0205 31.4952C29.6894 31.2996 29.3734 31.119 29.0424 30.9234C27.9138 30.2613 26.74 29.5842 25.6115 28.8769C24.844 28.3954 24.0615 27.8988 23.3091 27.4022C20.6306 25.6717 17.8618 23.866 14.7619 22.6772C14.7318 22.6621 14.7017 22.6471 14.6716 22.632L13.5581 21.985Z" fill="#03BFD7"/>
<path d="M57.2881 88.1053C53.9475 88.1053 50.5166 87.5335 47.1158 86.4199C40.3292 84.1929 34.8066 80.0848 31.1349 74.5171C27.4332 68.9042 25.6425 62.0424 25.808 54.1121C22.5125 52.4117 20.797 48.0178 21.8654 43.6087C22.8586 39.4706 26.0487 36.4158 29.57 36.0998C31.3155 32.368 34.2498 28.5308 37.5303 25.6867C42.4961 21.383 48.3948 19.1108 54.6096 19.1108C56.8066 19.1108 59.0788 19.3967 61.3812 19.9384C69.6575 21.9398 73.1185 27.2667 72.8777 31.6457C72.637 36.0095 69.5522 38.2968 66.6479 38.2968C66.2567 38.2968 65.8805 38.2517 65.5193 38.1614C63.7587 37.7401 62.4496 36.8221 61.652 35.528C61.6972 36.0246 61.8326 36.5212 62.0583 36.9726C62.7204 38.2667 64.0597 39.1847 65.9557 39.6511C66.6028 39.8016 67.2799 39.8919 67.9571 39.8919C71.7943 39.8919 76.2334 37.3187 77.1513 30.0957L77.4824 27.4323L79.4537 29.253C85.8189 33.1956 89.3853 40.0574 89.8066 49.0862C90.0474 54.383 89.1445 58.9275 88.7232 60.7332C89.8668 61.9822 91.6274 64.9918 89.2047 70.4692C87.0378 75.3597 83.1705 76.2175 81.5905 76.368C77.8285 81.2134 73.585 83.6963 73.1035 83.9822L73.0583 84.0123C67.7314 86.766 62.57 88.1053 57.2881 88.1053ZM68.3634 66.9028C69.1459 67.264 69.9735 67.4596 70.771 67.4596C70.8312 67.4596 70.8914 67.4596 70.9516 67.4596H70.9968C71.3278 67.4596 71.6589 67.4145 71.9899 67.3392C70.7861 67.3091 69.6425 67.0232 68.5891 66.4815C67.5207 65.9849 66.5877 65.2476 65.8203 64.3146C65.9557 64.6156 66.1363 64.9165 66.3319 65.1723L66.347 65.2024C66.8435 65.8946 67.5358 66.4815 68.3634 66.9028ZM49.2375 57.7537C50.02 58.1149 50.8477 58.3105 51.6452 58.3105C51.7054 58.3105 51.7656 58.3105 51.8258 58.3105H51.8559C52.1869 58.3105 52.518 58.2654 52.849 58.1901C51.6452 58.16 50.5016 57.8741 49.4482 57.3324C48.3798 56.8358 47.4468 56.0985 46.6794 55.1655C46.8148 55.4665 46.9954 55.7674 47.191 56.0232L47.2061 56.0533C47.7177 56.7305 48.4099 57.3173 49.2375 57.7537Z" fill="white"/>
<path d="M54.6233 20.4651C56.6548 20.4651 58.8066 20.7059 61.0638 21.2626C68.7081 23.1135 71.7328 27.8536 71.5221 31.5855C71.3114 35.3926 68.6479 36.9576 66.6315 36.9576C66.3456 36.9576 66.0748 36.9275 65.8189 36.8673C64.585 36.5663 62.4031 35.6785 62.1322 32.7141C62.1021 32.4282 61.9215 32.2777 61.6657 32.2777C61.3497 32.2777 60.9434 32.5485 60.6876 33.1505C59.4386 36.1901 60.9133 39.8468 65.6083 40.9753C66.3607 41.1559 67.1432 41.2462 67.9256 41.2462C72.5303 41.2462 77.466 38.0561 78.4592 30.2763C78.4592 30.2613 78.4592 30.2462 78.4592 30.2312L78.5796 30.3365C93.3265 39.3652 87.1569 61.1847 87.1569 61.1847C87.1569 61.1847 90.7533 63.502 87.9092 69.9124C85.7423 74.7879 81.7396 75.0287 80.9722 75.0287C80.8819 75.0287 80.8367 75.0287 80.8367 75.0287C77.15 79.9795 72.8614 82.5075 72.3648 82.7934C67.6548 85.2462 62.6438 86.766 57.2416 86.766C54.1267 86.766 50.8764 86.2695 47.4906 85.1559C34.5494 80.9124 26.4838 69.7168 27.1459 53.2544C23.9106 52.186 22.1349 48.1381 23.1431 43.9548C24.0761 40.1026 27.0556 37.4541 30.1404 37.4541C30.2307 37.4541 30.336 37.4541 30.4263 37.4692C32.9995 31.45 41.1103 20.4651 54.6233 20.4651ZM51.6438 59.6648C51.7191 59.6648 51.7943 59.6648 51.8696 59.6648C53.284 59.6498 54.6233 59.108 55.6767 58.2804C56.083 57.9644 56.1582 57.3625 55.8422 56.9562C55.6616 56.7154 55.3757 56.5951 55.0898 56.5951C55.0146 56.5951 54.9544 56.6101 54.8791 56.6251L54.7888 56.6402C54.1869 56.7756 53.6151 56.8358 53.0583 56.8358C51.9598 56.8358 50.9516 56.58 50.0337 56.1135C48.6192 55.4665 47.4605 54.3228 46.6931 52.6826L46.663 52.6074C46.5125 52.2914 46.1814 52.0656 45.8052 52.0656C45.2786 52.0656 44.8572 52.487 44.8572 53.0137C44.8572 54.3379 45.2485 55.7373 46.1062 56.8659C46.7533 57.7688 47.6411 58.4911 48.6343 58.9877C49.5823 59.409 50.6055 59.6648 51.6438 59.6648ZM70.7697 68.8139C70.8449 68.8139 70.9202 68.8139 70.9954 68.8139C72.4099 68.7989 73.7492 68.2572 74.8025 67.4446C75.2088 67.1286 75.2841 66.5266 74.9681 66.1204C74.7875 65.8796 74.5016 65.7592 74.2157 65.7592C74.1404 65.7592 74.0802 65.7743 74.005 65.7893L73.9147 65.8044C73.3128 65.9398 72.741 66 72.1842 66C71.0857 66 70.0775 65.7442 69.1596 65.2777C67.7451 64.6306 66.5864 63.487 65.8189 61.8468L65.7888 61.7715C65.6384 61.4555 65.3073 61.2298 64.9311 61.2298C64.4044 61.2298 63.9831 61.6511 63.9831 62.1778C63.9831 63.502 64.3743 64.9015 65.2321 66.0301C65.8791 66.9329 66.767 67.6552 67.7601 68.1518C68.7081 68.5581 69.7314 68.8139 70.7697 68.8139ZM54.9092 67.4446C54.9694 67.4446 55.0296 67.4446 55.1048 67.4295C55.2403 67.3994 55.3908 67.3844 55.5262 67.3844C55.797 67.3844 56.0679 67.4446 56.2936 67.565C56.6247 67.7004 56.9256 68.0164 57.1213 68.4377C57.1965 68.6033 57.3169 68.7236 57.4824 68.7989C57.5877 68.844 57.6931 68.8741 57.8135 68.8741C58.0241 68.8741 58.2047 68.7989 58.3552 68.6484C58.5057 68.4979 58.5809 68.3174 58.5809 68.1067C58.5809 67.565 58.4154 67.0383 58.0994 66.632C57.8586 66.3009 57.5276 66.015 57.1363 65.8194C56.7752 65.6539 56.3839 65.5636 56.0077 65.5636C55.9776 65.5636 55.9475 65.5636 55.9174 65.5636C55.4058 65.5636 54.8791 65.7592 54.4427 66.0903C54.2772 66.2106 54.1869 66.3912 54.1568 66.6019C54.1267 66.7975 54.1869 67.0082 54.3073 67.1587C54.4427 67.3392 54.6685 67.4446 54.9092 67.4446ZM55.7218 77.1053C56.4742 77.1053 57.2266 76.9849 58.0091 76.6689C58.2198 76.5786 58.3853 76.3981 58.4154 76.1573C58.4756 75.7811 58.2348 75.435 57.8586 75.3748L57.7081 75.3447C56.9708 75.2243 56.1281 74.9986 55.3757 74.7729C54.6233 74.5171 53.8709 74.2312 53.1637 73.87C52.4414 73.5239 51.7642 73.1176 51.0871 72.6812C50.455 72.2298 49.7628 71.7031 49.2061 71.1915L49.1007 71.0862C48.9804 70.9808 48.8148 70.9056 48.6493 70.9056C48.5891 70.9056 48.5289 70.9206 48.4687 70.9357C48.1076 71.041 47.8969 71.4172 48.0022 71.7633C48.3032 72.8468 48.86 73.6894 49.5672 74.4268C50.2745 75.1641 51.1172 75.751 52.02 76.2024C52.938 76.6388 53.9161 76.9398 54.9393 77.0451C55.1951 77.0903 55.4509 77.1053 55.7218 77.1053ZM54.6233 17.7565C51.1021 17.7565 47.6862 18.4336 44.466 19.7729C41.6972 20.9316 39.0638 22.5718 36.6561 24.6634C33.4208 27.4624 30.5316 31.1792 28.6808 34.8659C27.0104 35.1819 25.4154 35.9945 24.046 37.2435C22.3606 38.7934 21.1267 40.9302 20.5549 43.2927C19.9229 45.881 20.1335 48.5595 21.1117 50.8317C21.8641 52.5622 23.0227 53.9617 24.4523 54.8946C24.4372 58.5513 24.8435 62.0123 25.6561 65.2325C26.5891 68.9042 28.0487 72.29 30.02 75.2544C31.9612 78.1888 34.3689 80.7469 37.2129 82.8536C40.0118 84.9302 43.202 86.5554 46.7081 87.7141C50.2444 88.8728 53.8107 89.4596 57.3018 89.4596C62.8094 89.4596 68.1664 88.0602 73.6739 85.186L73.7191 85.171L73.7642 85.1409C74.5768 84.6744 78.5796 82.2667 82.3114 77.632C84.4031 77.3009 88.2253 76.0068 90.4523 71.0109C91.4756 68.7086 92.4387 65.3078 91.1897 62.1477C90.9038 61.4254 90.5577 60.8386 90.1965 60.3721C90.663 58.1751 91.3853 53.9015 91.1596 49.0109C90.7232 39.5609 86.9763 32.368 80.28 28.1546L76.4729 24.6334L75.8258 29.87C75.8258 29.8851 75.8258 29.9001 75.8258 29.9152C75.4496 32.8344 74.3962 35.1669 72.7711 36.6416C72.5453 36.8522 72.3046 37.0479 72.0488 37.2134C73.057 36.1299 74.0953 34.3693 74.2458 31.6908C74.5166 26.7401 70.7547 20.7811 61.7109 18.5992C59.3032 18.0424 56.9256 17.7565 54.6233 17.7565Z" fill="#03BFD7"/>
<path d="M23.6993 72.9371C24.858 75.2545 23.308 77.3762 20.2082 78.9261C17.1083 80.476 14.49 80.476 13.3313 78.1587C12.1576 75.8263 13.6924 73.6744 16.8074 72.1245C19.9072 70.5746 22.5256 70.6047 23.6993 72.9371ZM14.8812 77.3912C15.4681 78.5499 16.8074 78.4145 19.3204 77.1655C21.8334 75.9166 22.7212 74.8783 22.1343 73.7196C21.5625 72.576 20.148 72.6813 17.6952 73.9152C15.2123 75.1491 14.3395 76.2927 14.8812 77.3912Z" fill="#03BFD7"/>
<path d="M21.1233 80.762L23.6363 83.9823L22.2669 85.0507L19.7539 81.8304L21.1233 80.762Z" fill="#03BFD7"/>
<path d="M22.3596 88.0752L24.0449 87.7291C23.9245 88.7374 24.2104 89.7456 24.9628 90.3926C25.8808 91.1902 26.8137 91.0547 27.3856 90.4077C28.0627 89.6252 27.837 88.6772 26.8438 87.8194L26.2269 87.2928L27.4457 85.8782L28.0025 86.3598C28.6947 86.9617 29.7029 87.067 30.35 86.3297C30.8767 85.7127 30.8917 84.9754 30.1544 84.3434C29.4622 83.7414 28.7098 83.606 27.7317 83.8618L27.8069 82.1915C29.0258 81.725 30.3199 82.041 31.5087 83.0492C32.9834 84.3283 33.2542 86.0137 32.0805 87.368C31.2378 88.3311 30.1995 88.6471 29.0107 88.2709L28.9806 88.301C29.8835 89.4145 29.733 90.7538 28.8452 91.7771C27.4758 93.3571 25.4143 93.2668 23.8192 91.8974C22.5251 90.7387 22.0586 89.3393 22.3596 88.0752Z" fill="#03BFD7"/>
<path d="M36.082 91.5362L37.647 92.1532L38.8508 95.9001L42.1613 93.9138L43.6812 94.5157L41.0177 101.317L39.2872 100.64L40.9124 96.4869L37.9028 98.2325L37.8577 98.2175L36.7742 94.8618L35.1641 99.015L33.4336 98.3378L36.082 91.5362Z" fill="#03BFD7"/>
<path d="M51.0734 102.235C50.2759 102.747 49.2075 102.912 48.1842 102.777C45.8518 102.476 44.4824 100.761 44.7834 98.4733C45.0543 96.3666 46.7246 94.8618 49.1021 95.1778C50.9681 95.4186 52.3525 96.9535 52.0967 98.985C52.0365 99.4364 51.9763 99.7073 51.8559 99.9631L46.6192 99.2859C46.6343 100.399 47.4318 101.107 48.5755 101.257C49.4633 101.378 50.2458 101.152 50.7123 100.866L51.0734 102.235ZM46.7246 98.0369L50.2759 98.5034C50.4113 97.6156 49.8846 96.8482 48.8313 96.7127C47.7177 96.5622 47.0406 97.119 46.7246 98.0369Z" fill="#03BFD7"/>
<path d="M60.8817 101.393C60.34 102.265 59.2716 102.807 58.0978 102.897C55.7353 103.108 54.0198 101.724 53.8242 99.4213C53.6436 97.2996 55.0431 95.4788 57.2551 95.2831C58.459 95.1778 59.5274 95.4035 60.2647 96.0205L59.5123 97.5704C58.9104 97.0889 58.3085 96.9535 57.6464 97.0136C56.6081 97.1039 55.6902 97.9767 55.8105 99.2558C55.9159 100.55 56.9993 101.257 58.0978 101.167C58.8954 101.092 59.4672 100.67 59.9036 100.113L60.8817 101.393Z" fill="#03BFD7"/>
<path d="M34.672 29.4638C34.7773 28.5759 33.6788 28.5158 33.0317 28.5308C32.2944 28.5609 31.5721 28.7264 30.8347 28.7264C30.5338 28.7264 30.2328 28.7114 29.9319 28.6512C29.7362 28.606 29.3902 28.5308 29.33 28.3051C29.2999 28.2148 29.345 28.1095 29.4052 28.0342C29.4654 27.959 29.5406 27.8988 29.6309 27.8537C30.3382 27.3721 31.0454 26.8755 31.7527 26.379C32.3847 25.9426 33.0618 25.5664 33.6487 25.0547C34.1754 24.6033 34.7472 24.2121 35.1836 23.6854C35.4996 23.3092 35.7855 22.7976 35.8005 22.2859C35.8156 22.0301 35.7253 21.7894 35.5146 21.6389C35.319 21.5034 35.1083 21.5034 34.8826 21.5185C34.4613 21.5486 34.0399 21.6991 33.6487 21.8345C32.7759 22.1204 31.9182 22.5117 31.1207 22.9781C30.6542 23.249 30.2178 23.55 29.6911 23.6854C29.4654 23.7456 29.2096 23.7907 28.9839 23.7456C28.8635 23.7155 28.7732 23.6553 28.713 23.55C28.6077 23.3393 28.6378 23.1437 28.7431 22.948C29.2397 22.0452 29.8416 21.1874 30.3382 20.2846C30.6542 19.7127 30.8949 19.0958 31.1959 18.5089C31.4668 17.9973 31.7376 17.4857 31.7527 16.8837C31.7677 16.2668 31.3163 15.6348 30.6391 15.71C30.0372 15.7853 29.5707 16.2969 29.1795 16.7182C28.5926 17.3502 28.1261 18.0575 27.6446 18.7647C27.2534 19.3215 26.8471 19.8632 26.3655 20.3598C26.2602 20.4651 26.0796 20.7511 25.9291 20.5705C25.7787 20.405 25.9592 20.2244 26.0345 20.0739C26.1248 19.9234 26.2 19.7729 26.2903 19.6375C26.6665 19.0205 27.0577 18.4337 27.4189 17.8167C27.765 17.2298 28.081 16.6129 28.412 16.011C28.6227 15.6197 28.8033 15.1532 28.8183 14.7018C28.8334 14.3256 28.5475 14.0096 28.1863 13.9344C27.7349 13.8441 27.2834 14.0247 26.9073 14.2654C26.3354 14.5965 25.8689 15.063 25.4175 15.5445C24.8758 16.1314 24.3642 16.7182 23.8977 17.3803C23.4763 17.9822 23.0399 18.539 22.5584 19.0807C22.3327 19.3215 22.0919 19.5773 21.7759 19.6977C21.6254 19.7579 21.4298 19.803 21.2793 19.7428C21.2192 19.7278 21.159 19.6827 21.1138 19.6526C21.0988 19.5924 21.1138 19.5171 21.1289 19.4569C21.3395 18.524 21.49 17.576 21.6555 16.6279C21.7609 16.026 21.9866 15.4241 22.0016 14.8071C22.0167 14.461 21.9264 13.8441 21.5201 13.7387C20.9784 13.6033 20.3163 14.2353 20.0003 14.5965C19.6241 15.0329 19.3231 15.5144 18.977 15.9658C18.2096 16.9891 17.4722 18.0123 16.765 19.0657C16.0728 20.0889 15.4257 21.1273 14.8389 22.2107C14.2821 23.249 13.7103 24.3324 13.4845 25.4911C13.3642 26.093 13.3341 26.7251 13.4394 27.327C13.5146 27.7182 13.6501 28.0794 13.7554 28.4405C13.8758 28.8167 14.0413 29.1779 14.3573 29.4487C14.5981 29.6594 14.884 29.7948 15.1549 29.9604C15.6063 30.2463 16.0126 30.5623 16.4941 30.788C16.8252 30.9385 17.1562 31.0739 17.4873 31.2093C18.1193 31.4501 18.6761 31.8564 19.2178 32.2627C19.7595 32.684 20.2862 33.0753 20.9182 33.3762C21.2793 33.5568 21.6555 33.7223 22.0167 33.8728C22.5434 34.0985 23.1001 34.1888 23.672 34.2189C24.2287 34.249 24.7855 34.249 25.3272 34.1437C26.4558 33.9179 27.5393 33.5568 28.6378 33.2107C29.1945 33.0452 29.7363 32.8195 30.2629 32.5787C31.1959 32.1423 32.0988 31.6758 33.0167 31.2244C33.754 30.8482 34.5817 30.3365 34.672 29.4638Z" fill="white"/>
<path d="M15.2744 28.7565C14.4468 27.5527 14.2512 25.9877 14.2361 24.5281C14.2361 24.0766 14.2813 23.5199 14.4016 23.1136C14.4317 22.9932 14.6725 22.0753 14.7327 21.985L12.9721 24.7086C12.9721 24.7237 12.9721 24.7387 12.9721 24.7538C12.957 24.7688 12.942 24.7839 12.927 24.814C12.927 24.829 12.9119 24.829 12.9119 24.8441V24.8591C12.8818 24.8892 12.8668 24.9193 12.8668 24.9795C12.8668 24.9946 12.8668 25.0096 12.8668 25.0247C12.8367 25.0096 12.8216 25.0096 12.7915 25.0096C12.7163 25.0247 12.6862 25.0547 12.6561 25.1149C12.626 24.9494 12.6109 24.7989 12.5658 24.6334C12.5207 24.4378 12.2348 24.5431 12.2799 24.7237C12.3551 25.0698 12.3852 25.4159 12.4755 25.747C12.2949 25.3407 12.1896 24.9193 12.0993 24.4829C12.0542 24.2873 11.7683 24.3926 11.8134 24.5732C11.9338 25.0848 12.0542 25.5814 12.2949 26.063C12.5508 26.5746 12.927 27.011 13.258 27.4775C13.5891 27.9439 13.9051 28.4255 14.2662 28.8769C14.522 29.1779 14.8832 29.6443 15.3196 29.7045C15.9817 29.7647 15.3948 28.9521 15.2744 28.7565Z" fill="#03BFD7"/>
<path d="M30.4262 34.8359C30.7873 34.2339 31.1184 33.617 31.4645 33.0151C31.6902 32.6088 31.9309 32.2175 32.1868 31.8263C29.7941 32.8947 27.1006 33.9932 24.5424 33.5718C24.1662 33.5117 23.4439 33.2859 23.0828 33.5116C22.7216 33.7374 22.7818 34.1136 23.0828 34.3393C24.2565 35.197 27.1307 35.9043 28.5903 35.8742C29.3427 35.8591 29.3427 35.3174 30.1101 35.3625C30.2155 35.182 30.3208 35.0164 30.4262 34.8359Z" fill="#03BFD7"/>
<path d="M28.1404 24.9794C28.0802 24.8892 22.8887 21.4582 19.3374 22.0451C19.3374 22.0451 18.8408 22.2859 19.3525 22.4363C19.849 22.5868 25.3415 23.264 27.8545 25.2954C27.8395 25.3105 28.5016 25.5212 28.1404 24.9794Z" fill="#03BFD7"/>
<path d="M89.4001 53.1191C89.8966 52.4419 90.6942 53.104 91.1306 53.5254C91.6271 54.0069 92.0184 54.5938 92.53 55.0753C92.7407 55.2709 92.9514 55.4515 93.1921 55.602C93.3577 55.6923 93.6436 55.8728 93.8241 55.7524C93.8994 55.7073 93.9445 55.617 93.9445 55.5117C93.9445 55.4063 93.9295 55.3311 93.9144 55.2408C93.7339 54.4433 93.5683 53.6608 93.3878 52.8633C93.2222 52.156 93.0116 51.4638 92.9213 50.7415C92.846 50.0945 92.7106 49.4624 92.7407 48.8003C92.7557 48.3338 92.8912 47.7921 93.2072 47.431C93.3577 47.2504 93.5683 47.1451 93.8091 47.1601C94.0348 47.1902 94.1853 47.3256 94.3358 47.4761C94.6066 47.762 94.8023 48.1382 94.9979 48.4843C95.4192 49.2367 95.7503 50.0644 96.0211 50.892C96.1716 51.3886 96.277 51.8551 96.5629 52.2914C96.6832 52.472 96.8187 52.6676 97.0143 52.773C97.1046 52.8332 97.225 52.8482 97.3303 52.8031C97.541 52.7278 97.6463 52.5773 97.6915 52.3667C97.9322 51.4187 98.0526 50.4556 98.2934 49.5076C98.4439 48.9057 98.6696 48.3339 98.8351 47.7319C98.9856 47.2053 99.121 46.6786 99.4822 46.2572C99.8734 45.8209 100.581 45.6704 101.002 46.167C101.363 46.6033 101.363 47.2655 101.363 47.7921C101.363 48.6047 101.228 49.4022 101.107 50.1998C101.017 50.8318 100.957 51.4789 100.972 52.1109C100.972 52.2463 100.912 52.5623 101.137 52.5473C101.348 52.5322 101.348 52.2914 101.378 52.141C101.408 51.9905 101.453 51.825 101.484 51.6745C101.619 51.0124 101.724 50.3503 101.875 49.6882C102.01 49.0561 102.176 48.4392 102.341 47.8072C102.447 47.4009 102.612 46.9645 102.898 46.6334C103.124 46.3626 103.515 46.3325 103.816 46.5131C104.192 46.7388 104.373 47.1601 104.493 47.5664C104.674 48.1683 104.704 48.7853 104.704 49.4022C104.704 50.1546 104.689 50.892 104.583 51.6444C104.493 52.3215 104.433 52.9987 104.418 53.6909C104.418 54.0069 104.418 54.3229 104.553 54.6088C104.613 54.7442 104.719 54.9098 104.869 54.97C104.914 54.985 104.99 55.0001 105.05 55.0001C105.095 54.9549 105.14 54.9098 105.17 54.8496C105.622 54.0671 106.118 53.3147 106.615 52.5623C106.931 52.0808 107.157 51.524 107.533 51.0876C107.743 50.8468 108.195 50.4556 108.556 50.6512C109.023 50.907 109.083 51.7648 109.068 52.2162C109.053 52.7579 108.962 53.2846 108.902 53.8113C108.782 55.0001 108.631 56.1888 108.451 57.3776C108.27 58.5213 108.059 59.6649 107.774 60.7784C107.503 61.8468 107.202 62.9604 106.615 63.9084C106.314 64.405 105.938 64.8564 105.471 65.2025C105.17 65.4282 104.854 65.5937 104.538 65.7743C104.222 65.9699 103.861 66.1054 103.485 66.0903C103.184 66.0753 102.898 65.985 102.597 65.9398C102.1 65.8496 101.619 65.8044 101.137 65.6539C100.806 65.5486 100.49 65.4282 100.174 65.3078C99.5875 65.0671 98.9404 64.9918 98.3084 64.9316C97.6614 64.8715 97.0444 64.8113 96.4274 64.6156C96.0663 64.5103 95.7051 64.3899 95.344 64.2545C94.8324 64.0739 94.396 63.773 93.9897 63.4269C93.5834 63.0958 93.2072 62.7497 92.8912 62.3133C92.2592 61.4405 91.7325 60.4925 91.1908 59.5445C90.9199 59.063 90.6791 58.5814 90.4685 58.0698C90.1073 57.182 89.7763 56.2791 89.4302 55.3763C89.1442 54.654 88.9035 53.7812 89.4001 53.1191Z" fill="white"/>
<path d="M103.26 65.037C104.6 64.736 105.728 63.7729 106.676 62.7798C106.977 62.4637 107.293 62.0574 107.474 61.6963C107.519 61.591 107.955 60.8085 107.97 60.7031L107.444 63.7127C107.429 63.7278 107.429 63.7278 107.414 63.7428C107.414 63.7579 107.414 63.788 107.414 63.803C107.414 63.8181 107.414 63.8181 107.414 63.8331V63.8482C107.414 63.8783 107.398 63.9234 107.368 63.9535C107.353 63.9685 107.353 63.9685 107.338 63.9836C107.368 63.9836 107.383 63.9986 107.398 64.0137C107.444 64.0588 107.444 64.119 107.414 64.1792C107.534 64.0889 107.654 63.9836 107.775 63.8933C107.925 63.788 108.061 64.0438 107.91 64.1491C107.639 64.3447 107.398 64.5554 107.128 64.736C107.504 64.5705 107.85 64.3447 108.196 64.104C108.347 63.9986 108.482 64.2545 108.331 64.3598C107.925 64.6307 107.519 64.9015 107.052 65.067C106.541 65.2476 106.014 65.3078 105.487 65.4282C104.961 65.5486 104.434 65.669 103.892 65.7442C103.516 65.7894 102.974 65.8796 102.643 65.6539C102.117 65.2777 103.05 65.0821 103.26 65.037Z" fill="#03BFD7"/>
<path d="M88.9028 59.5445C89.0382 58.8974 89.2037 58.2654 89.3542 57.6184C89.4596 57.197 89.5348 56.7606 89.6251 56.3393C90.5882 58.6115 91.7619 61.0944 93.7934 62.4186C94.0943 62.6142 94.7414 62.9152 94.8467 63.3064C94.9521 63.6977 94.6812 63.9084 94.3201 63.8632C92.9657 63.7127 90.528 62.3584 89.5348 61.4104C89.0232 60.9138 89.3693 60.5376 88.8125 60.0862C88.8275 59.9207 88.8576 59.7401 88.9028 59.5445Z" fill="#03BFD7"/>
<path d="M95.8543 53.8714C95.9597 53.8262 102.144 53.6306 104.853 55.9931C104.853 55.9931 105.139 56.4445 104.642 56.3242C104.131 56.1887 99.1348 53.8864 95.9446 54.3078C95.9296 54.3078 95.2524 54.1423 95.8543 53.8714Z" fill="#03BFD7"/>
</svg>
