<svg width="110" height="110" viewBox="0 0 110 110" fill="none" xmlns="http://www.w3.org/2000/svg">
<path d="M90.7823 13.2289C113.85 33.001 116.528 67.7149 96.7711 90.7823C76.999 113.85 42.2851 116.528 19.2177 96.7711C-3.84966 76.999 -6.52806 42.2851 13.2289 19.2177C33.001 -3.84966 67.7149 -6.52806 90.7823 13.2289Z" fill="#03BFD7"/>
<path d="M54.9847 107.68C48.7853 107.68 42.7213 106.597 36.9582 104.46C31.1801 102.323 25.8383 99.1786 21.0984 95.1158C16.7046 91.354 13.003 86.9302 10.0688 81.9646C7.17975 77.0441 5.11828 71.7174 3.95964 66.1199L3.82422 65.4879L4.44115 65.2622C4.50134 65.2321 4.56153 65.217 4.62172 65.1719C7.48069 63.6371 10.6105 62.7192 13.635 61.8164C14.5077 61.5606 15.3955 61.2897 16.2683 61.0189C17.5322 60.6126 18.8112 60.1762 20.0602 59.7399C20.4213 59.6195 20.7824 59.4841 21.1436 59.3637L21.7605 59.153L22.0614 59.7248C22.4376 60.432 22.7988 61.0941 23.1599 61.696C23.837 62.8245 24.5593 63.9079 25.3267 64.9161C26.1242 65.9694 26.9668 66.9625 27.8396 67.8353C28.3512 68.3619 28.8929 68.8585 29.4346 69.3249C35.5738 74.5914 43.3533 77.4956 51.3132 77.4956C52.0054 77.4956 52.7126 77.4805 53.4048 77.4354C62.1171 76.8937 69.9868 72.9964 75.5844 66.466C78.7293 62.8095 79.933 58.6565 81.212 54.2777C81.6334 52.8182 82.0848 51.2984 82.5964 49.7786C84.3268 44.7528 88.5099 41.5177 93.2799 41.5177C93.7313 41.5177 94.2128 41.5478 94.6642 41.608C100.277 42.3152 105.182 46.1372 106.597 50.9222C108.177 56.264 107.018 62.7643 106.01 67.1732C104.144 75.3137 100.262 83.0179 94.7545 89.443C85.6811 100.036 73.0264 106.461 59.1227 107.53C57.7233 107.62 56.354 107.68 54.9847 107.68Z" fill="white"/>
<path d="M93.2507 42.2701C93.672 42.2701 94.1083 42.3002 94.5447 42.3453C99.42 42.9623 104.416 46.2576 105.845 51.1179C107.335 56.1436 106.312 62.2829 105.243 66.9927C103.392 75.088 99.5404 82.6417 94.1535 88.9465C85.2154 99.3893 72.7413 105.724 59.0333 106.777C57.679 106.883 56.3248 106.928 54.9856 106.928C42.7221 106.928 31.0003 102.609 21.5958 94.5441C12.8534 87.0506 6.98498 76.999 4.6978 65.9694C4.78809 65.9393 4.89342 65.8942 4.9837 65.8491C8.57999 63.923 12.6277 62.975 16.4948 61.7562C18.135 61.2446 19.7601 60.6578 21.3852 60.101C21.7463 60.7932 22.1225 61.4553 22.5137 62.1023C23.2059 63.2609 23.9432 64.3594 24.7106 65.3826C25.5231 66.466 26.3959 67.4742 27.2837 68.377C27.8103 68.9187 28.3671 69.4453 28.9238 69.9118C35.2587 75.3288 43.1284 78.263 51.284 78.263C51.9912 78.263 52.7135 78.248 53.4207 78.2028C62.3286 77.6461 70.3939 73.6586 76.1269 66.9776C80.4455 61.9368 81.2129 56.0684 83.2894 50.0345C84.8242 45.5504 88.5559 42.2701 93.2507 42.2701ZM93.2507 40.7654C90.6475 40.7654 88.1948 41.6381 86.1333 43.3084C84.2073 44.8582 82.7327 47.025 81.8599 49.5529C81.3333 51.0878 80.8819 52.6075 80.4605 54.0822C79.2116 58.3857 78.0229 62.4484 74.9833 65.9995C69.5212 72.3645 61.8321 76.1714 53.3304 76.7131C52.6533 76.7583 51.9611 76.7733 51.284 76.7733C47.4018 76.7733 43.5798 76.0812 39.9384 74.7269C36.2819 73.3727 32.9113 71.3714 29.9019 68.7833C29.3752 68.3319 28.8486 67.8353 28.352 67.3387C27.5094 66.481 26.6818 65.518 25.9144 64.4948C25.1771 63.5167 24.4698 62.4484 23.8078 61.35C23.4466 60.7631 23.0855 60.101 22.7244 59.4089L22.1225 58.2653L20.9037 58.6866C20.5425 58.807 20.1814 58.9274 19.8353 59.0628C18.6014 59.4991 17.3224 59.9355 16.0584 60.3418C15.2008 60.6126 14.2979 60.8835 13.4402 61.1393C10.3857 62.0421 7.21069 62.9901 4.29153 64.555C4.26144 64.5701 4.23134 64.5851 4.20125 64.6001L2.98242 65.0516L3.25327 66.3306C4.42695 72.0034 6.51852 77.4204 9.46777 82.416C12.4321 87.4418 16.1939 91.9409 20.6479 95.7478C25.463 99.8708 30.8649 103.061 36.7333 105.228C42.5867 107.394 48.741 108.493 55.0157 108.493C56.4 108.493 57.7994 108.433 59.1838 108.327C73.283 107.244 86.1333 100.728 95.3272 89.9697C100.91 83.4543 104.852 75.6448 106.748 67.3839C107.455 64.2842 107.862 61.7261 108.042 59.3336C108.283 56.0533 108.042 53.1643 107.32 50.7417C106.552 48.1235 104.852 45.7761 102.414 43.9704C100.202 42.3303 97.4789 41.2318 94.7704 40.9008C94.2438 40.7955 93.7472 40.7654 93.2507 40.7654Z" fill="#03BFD7"/>
<path d="M54.4849 85.7715C50.4372 85.7715 46.4045 84.9589 42.1311 83.2887L42.086 83.2737C41.5894 83.063 37.2859 81.1219 33.2081 76.8936C33.163 76.8936 33.1329 76.8936 33.0878 76.8936C31.5981 76.8936 27.8664 76.4121 25.3083 72.0183C22.4343 67.0528 23.7735 63.9831 24.7516 62.6439C24.1497 60.9436 22.8406 56.7153 22.5246 51.6595C21.9829 42.9923 24.7065 36.0555 30.3793 31.6316L32.1247 29.6304L32.7417 32.2335C34.0056 37.485 37.316 40.6299 41.5894 40.6299C42.5374 40.6299 43.4553 40.4644 44.3431 40.1484C46.0886 39.5164 47.2622 38.5082 47.7588 37.2292C47.9093 36.853 47.9845 36.4618 47.9995 36.0706C47.3525 37.3044 46.224 38.2524 44.6591 38.8092C44.1475 38.9897 43.6058 39.08 43.0189 39.08C40.4458 39.08 37.5417 37.2894 36.8947 33.3019C36.2176 29.1188 38.9712 23.6566 46.6904 20.8879C49.7149 19.8045 52.7545 19.2478 55.7188 19.2478C67.2901 19.2478 75.4156 27.5689 78.7561 33.031C78.7862 33.031 78.8163 33.031 78.8463 33.031C82.2922 33.031 85.5273 35.6041 86.9117 39.4411C88.3863 43.549 87.2126 47.9278 84.2332 49.914C85.1963 57.4526 84.1881 64.1938 81.2389 69.9268C78.3046 75.6297 73.4444 80.1288 67.1848 82.9577C63.0167 84.8235 58.7583 85.7715 54.4849 85.7715ZM37.632 59.4088C36.8947 59.8903 36.2928 60.5223 35.9016 61.2144L35.8865 61.2445C35.7963 61.38 35.721 61.5304 35.6608 61.6809C36.2627 60.8834 36.985 60.2063 37.8276 59.6947C38.6552 59.153 39.5581 58.7768 40.5361 58.5812C40.506 58.5812 40.491 58.5812 40.4609 58.5812C40.3255 58.5812 40.19 58.5812 40.0546 58.5962H40.0245C39.227 58.6715 38.3994 58.9423 37.632 59.4088ZM54.9514 48.6952C54.2141 49.1767 53.6122 49.8087 53.2209 50.5008L53.2059 50.5309C53.1156 50.6664 53.0404 50.8168 52.9802 50.9673C53.5821 50.1698 54.3043 49.4927 55.162 48.9811C55.9896 48.4394 56.8925 48.0632 57.8705 47.8676C57.8404 47.8676 57.8254 47.8676 57.7953 47.8676C57.6599 47.8676 57.5244 47.8676 57.389 47.8826H57.3439C56.5313 47.9729 55.7037 48.2438 54.9514 48.6952Z" fill="white"/>
<path d="M55.7051 20.6021C67.2463 20.6021 75.1611 29.3595 78.0051 34.4455C78.2759 34.4003 78.5618 34.3853 78.8327 34.3853C81.6014 34.3853 84.4152 36.5521 85.619 39.9076C87.0183 43.7898 85.7243 47.8375 82.76 49.1917C85.0773 64.8408 78.5317 76.3519 66.6294 81.7238C62.4613 83.6047 58.4136 84.4323 54.5013 84.4323C50.4235 84.4323 46.4661 83.5445 42.6441 82.0398C42.1476 81.8291 37.7839 79.8579 33.7663 75.5093C33.7663 75.5093 33.5105 75.5544 33.1042 75.5544C31.765 75.5544 28.6803 75.103 26.4985 71.3563C23.1279 65.533 26.3179 62.9449 26.3179 62.9449C26.3179 62.9449 18.1924 42.7666 31.3286 32.6248L31.4339 32.5044C31.4339 32.5194 31.4339 32.5345 31.449 32.5495C33.059 39.3057 37.4829 41.9992 41.6059 41.9992C42.7194 41.9992 43.8028 41.8036 44.8109 41.4424C49.1746 39.8775 50.2129 36.221 48.7081 33.4674C48.4223 32.9408 48.0461 32.7301 47.7451 32.7301C47.4743 32.7301 47.2787 32.9107 47.2937 33.2116C47.3539 36.0706 45.3526 37.1389 44.209 37.5603C43.8629 37.6806 43.4567 37.7559 43.0203 37.7559C41.1394 37.7559 38.777 36.4618 38.2353 33.1213C37.6635 29.5852 40.056 24.7551 47.1583 22.1971C50.1677 21.0685 53.0267 20.6021 55.7051 20.6021ZM52.1389 54.4583C52.169 54.4583 52.2141 54.4583 52.2442 54.4583C52.6054 54.4131 52.8913 54.1724 52.9966 53.8564L53.0267 53.7811C53.5834 52.141 54.5766 50.9222 55.8556 50.1548C56.8788 49.4776 58.0826 49.1015 59.4368 49.1015C59.7378 49.1015 60.0387 49.1165 60.3547 49.1616L60.4299 49.1767C60.46 49.1767 60.5052 49.1767 60.5353 49.1767C60.8362 49.1767 61.1371 49.0262 61.3027 48.7554C61.5735 48.334 61.4381 47.7623 61.0168 47.5065C60.0838 46.9196 58.9403 46.5585 57.7816 46.5585C57.601 46.5585 57.4205 46.5735 57.2399 46.5886C56.1866 46.6638 55.1484 47.0249 54.2305 47.5817C53.3276 48.1685 52.5602 48.951 52.0336 49.8689C51.3264 51.0275 51.1007 52.3968 51.2361 53.6758C51.2812 54.1122 51.6875 54.4583 52.1389 54.4583ZM34.8346 65.1568C34.8647 65.1568 34.8948 65.1568 34.9399 65.1568C35.3011 65.1117 35.587 64.8709 35.6923 64.5549L35.7224 64.4797C36.2791 62.8396 37.2723 61.6207 38.5513 60.8533C39.5745 60.1762 40.7783 59.8 42.1325 59.8C42.4335 59.8 42.7344 59.8151 43.0504 59.8602L43.1256 59.8753C43.1557 59.8753 43.2009 59.8753 43.231 59.8753C43.5319 59.8753 43.8328 59.7248 43.9984 59.4539C44.2692 59.0326 44.1338 58.4608 43.7125 58.205C42.7795 57.6182 41.636 57.257 40.4773 57.257C40.2968 57.257 40.1162 57.2721 39.9356 57.2871C38.8823 57.3624 37.8441 57.7235 36.9262 58.2802C36.0233 58.8671 35.2559 59.6495 34.7293 60.5674C34.0221 61.7261 33.7964 63.0954 33.9318 64.3744C33.9769 64.8258 34.3682 65.1568 34.8346 65.1568ZM50.5289 63.5167C50.559 63.5167 50.589 63.5167 50.6041 63.5167C50.7094 63.5016 50.8148 63.4715 50.905 63.4113C51.0405 63.3211 51.1458 63.1856 51.206 63.0352C51.3565 62.6138 51.5972 62.2979 51.8982 62.1173C52.154 61.9518 52.4699 61.8615 52.801 61.8615C52.8762 61.8615 52.9364 61.8615 53.0116 61.8765C53.0417 61.8765 53.0718 61.8765 53.1019 61.8765C53.3728 61.8765 53.5985 61.7411 53.7339 61.5304C53.8392 61.3649 53.8693 61.1693 53.8242 60.9737C53.7791 60.7781 53.6587 60.6276 53.4932 60.5223C53.117 60.2815 52.6806 60.1611 52.2442 60.1611C52.169 60.1611 52.1088 60.1611 52.0336 60.1762C51.6574 60.2063 51.2662 60.3267 50.905 60.5524C50.5439 60.7931 50.258 61.0941 50.0624 61.4251C49.8066 61.8464 49.7013 62.358 49.7615 62.8847C49.7765 63.0803 49.8818 63.2458 50.0323 63.3813C50.2129 63.4565 50.3633 63.5167 50.5289 63.5167ZM52.7859 71.2058C53.2524 71.2058 53.7189 71.1456 54.1853 71.0553C55.1484 70.8597 56.0512 70.4534 56.8788 69.9418C57.6913 69.4152 58.4437 68.7681 59.0305 67.9857C59.6324 67.2032 60.0688 66.3455 60.2494 65.2772C60.3095 64.9311 60.0688 64.585 59.7227 64.5248C59.6926 64.5248 59.6475 64.5098 59.6174 64.5098C59.4218 64.5098 59.2562 64.6001 59.1359 64.7355L59.0456 64.8408C58.5641 65.3825 57.9622 65.9543 57.4054 66.4509C56.8186 66.9324 56.2017 67.3989 55.5546 67.8051C54.9076 68.2265 54.2305 68.5725 53.5383 68.8885C52.8461 69.1895 52.0787 69.4754 51.3715 69.671L51.2361 69.7161C50.89 69.8064 50.6944 70.1675 50.7847 70.5136C50.8449 70.7393 51.0254 70.9049 51.2361 70.965C51.7477 71.1306 52.2743 71.2058 52.7859 71.2058ZM55.7051 17.8936V20.6021V17.8936C52.5903 17.8936 49.4003 18.4653 46.2254 19.6089C42.4636 20.9632 39.4842 23.0547 37.6033 25.673C35.8428 28.1106 35.1205 30.8943 35.5418 33.5276C35.8277 35.243 36.4898 36.7176 37.498 37.8762C37.4378 37.8311 37.3776 37.7709 37.3024 37.7258C35.7675 36.4618 34.6841 34.5057 34.0672 31.9326C34.0672 31.9175 34.0672 31.9025 34.0522 31.8875L32.8484 26.7413L29.4327 30.6536C23.474 35.3634 20.615 42.6462 21.1717 51.7347C21.4576 56.3993 22.5711 60.3869 23.2483 62.4483C22.9624 62.9298 22.6915 63.5167 22.511 64.2239C21.6382 67.3989 22.9172 70.5738 24.136 72.6804C26.8145 77.2999 30.6966 78.1125 32.6377 78.2178C36.6854 82.2504 40.7482 84.1464 41.5607 84.4925L41.6059 84.5075L41.651 84.5226C46.0749 86.253 50.2731 87.0956 54.4863 87.0956C58.9403 87.0956 63.3942 86.1025 67.7278 84.1614C70.978 82.7019 73.8671 80.8059 76.3198 78.5338C78.8176 76.2316 80.8791 73.5231 82.4139 70.5136C83.9939 67.459 85.0472 64.0734 85.5588 60.4621C85.9951 57.3172 86.0252 53.9767 85.6491 50.5008C86.913 49.4475 87.861 48.003 88.4027 46.2726C89.1099 43.9854 89.0347 41.3822 88.1619 38.9596C87.4096 36.8681 86.1456 35.0624 84.5055 33.7533C83.0007 32.5495 81.2553 31.8273 79.4947 31.6768C78.1405 29.6003 75.6427 26.3501 71.7304 23.4309C69.4733 21.7456 67.0808 20.4215 64.598 19.4886C61.724 18.4353 58.7296 17.8936 55.7051 17.8936Z" fill="#03BFD7"/>
<path d="M22.3766 53.8264C21.7597 53.1643 21.0073 53.9618 20.6011 54.4583C20.1346 55.0301 19.8035 55.6922 19.322 56.264C19.1264 56.4897 18.9158 56.7154 18.675 56.896C18.5095 57.0164 18.2386 57.227 18.028 57.1217C17.9377 57.0766 17.8926 56.9863 17.8625 56.896C17.8474 56.8057 17.8474 56.7004 17.8625 56.6101C17.9527 55.7524 18.043 54.8947 18.1333 54.037C18.2236 53.2696 18.359 52.5172 18.359 51.7348C18.359 51.0426 18.4192 50.3504 18.3139 49.6733C18.2386 49.1918 18.028 48.6351 17.6518 48.289C17.4712 48.1235 17.2305 48.0332 16.9747 48.0783C16.749 48.1385 16.5985 48.304 16.4631 48.4695C16.2073 48.8006 16.0568 49.2219 15.8913 49.6131C15.5452 50.4708 15.2894 51.3737 15.1088 52.2765C15.0035 52.8182 14.9583 53.3298 14.7176 53.8264C14.6123 54.037 14.4919 54.2627 14.2963 54.3982C14.206 54.4734 14.0856 54.5035 13.9803 54.4734C13.7546 54.4282 13.6191 54.2627 13.5439 54.0521C13.1828 53.089 12.927 52.0658 12.5658 51.1028C12.3251 50.4859 12.0241 49.9141 11.7834 49.2971C11.5727 48.7554 11.3621 48.2137 10.9106 47.8225C10.4442 47.4162 9.67677 47.341 9.30059 47.9128C8.96956 48.4094 9.05984 49.1166 9.12003 49.6733C9.21031 50.531 9.45107 51.3436 9.67677 52.1712C9.85734 52.8332 9.99277 53.4953 10.053 54.1724C10.068 54.3079 10.1733 54.6389 9.93258 54.654C9.70687 54.669 9.67677 54.3982 9.61659 54.2477C9.5564 54.0822 9.49621 53.9317 9.45107 53.7662C9.22536 53.089 9.02974 52.3969 8.80404 51.7197C8.57833 51.0727 8.32253 50.4407 8.08177 49.7937C7.9313 49.3724 7.69054 48.936 7.34446 48.6351C7.05856 48.3793 6.65229 48.3943 6.35134 48.62C5.97516 48.9059 5.83974 49.3724 5.7645 49.8087C5.64412 50.4558 5.68926 51.1179 5.7645 51.7799C5.85478 52.5774 5.97516 53.3599 6.17077 54.1273C6.35134 54.8345 6.50181 55.5417 6.5921 56.264C6.63724 56.595 6.66733 56.9411 6.562 57.2571C6.51686 57.4076 6.41153 57.5882 6.2761 57.6784C6.23096 57.7085 6.15573 57.7236 6.09554 57.7386C6.0504 57.7085 5.99021 57.6634 5.94507 57.6032C5.37327 56.8358 4.75634 56.0985 4.1394 55.3612C3.74817 54.8797 3.44723 54.338 2.98076 53.9166C2.72496 53.6759 2.19831 53.3448 1.85222 53.5856C1.40081 53.9016 1.44595 54.8195 1.50614 55.2859C1.59642 55.8427 1.76194 56.3994 1.88232 56.9562C2.15317 58.1901 2.46916 59.4239 2.8002 60.6578C3.13124 61.8465 3.49237 63.0202 3.92874 64.1638C4.35006 65.2623 4.80148 66.3908 5.53879 67.3237C5.91497 67.8052 6.36639 68.2416 6.90809 68.5426C7.23913 68.7382 7.60026 68.8736 7.96139 69.0241C8.32253 69.1896 8.71375 69.2799 9.12003 69.2197C9.43602 69.1745 9.73696 69.0391 10.0379 68.9488C10.5495 68.7984 11.0461 68.693 11.5426 68.4673C11.8737 68.3168 12.1897 68.1513 12.5057 67.9858C13.1075 67.6548 13.7696 67.5043 14.4317 67.3689C15.1088 67.2334 15.7558 67.083 16.3878 66.8121C16.764 66.6466 17.1251 66.4811 17.4863 66.3005C17.9979 66.0447 18.4343 65.6836 18.8255 65.2623C19.2017 64.856 19.5628 64.4497 19.8336 63.9531C20.3904 62.945 20.8268 61.8917 21.2782 60.8384C21.5039 60.2967 21.6995 59.755 21.85 59.1982C22.1208 58.2201 22.3616 57.212 22.6023 56.2189C22.8431 55.4214 22.9785 54.4583 22.3766 53.8264Z" fill="white"/>
<path d="M9.2271 68.1061C7.78256 67.9556 6.45841 67.0828 5.34491 66.1499C4.99883 65.864 4.6076 65.4578 4.36684 65.0966C4.30665 64.9913 3.74991 64.2239 3.71981 64.1035L4.63769 67.2032C4.65274 67.2183 4.65274 67.2183 4.66779 67.2333C4.66779 67.2634 4.66779 67.2785 4.68284 67.3085C4.68284 67.3236 4.68284 67.3236 4.69788 67.3386V67.3537C4.69788 67.3988 4.71293 67.4289 4.75807 67.459C4.77312 67.4741 4.77312 67.4741 4.78817 67.4891C4.75807 67.5042 4.74302 67.5192 4.72798 67.5343C4.68284 67.5944 4.69788 67.6546 4.72798 67.6998C4.59255 67.6095 4.44208 67.5343 4.30665 67.444C4.14114 67.3537 4.02076 67.6245 4.20132 67.7299C4.50227 67.8954 4.78817 68.091 5.10416 68.2415C4.68284 68.1211 4.29161 67.9104 3.90038 67.7148C3.73486 67.6245 3.61448 67.9104 3.79505 68.0007C4.26151 68.2415 4.72798 68.4672 5.23958 68.6026C5.79633 68.738 6.36812 68.738 6.93992 68.7982C7.51171 68.8584 8.08351 68.9186 8.6553 68.9336C9.04653 68.9487 9.64842 68.9637 9.96441 68.6778C10.461 68.2114 9.4528 68.1211 9.2271 68.1061Z" fill="#03BFD7"/>
<path d="M23.7035 60.5525C23.4778 59.8904 23.237 59.2434 22.9963 58.5813C22.8458 58.1449 22.6953 57.7086 22.5599 57.2571C21.8226 59.77 20.8897 62.5387 18.9185 64.1939C18.6326 64.4347 17.9856 64.841 17.9254 65.2623C17.8652 65.6836 18.1812 65.8792 18.5573 65.7889C19.9718 65.4579 22.3793 63.7425 23.3123 62.614C23.7938 62.0271 23.3875 61.681 23.9142 61.1393C23.8239 60.9287 23.7637 60.7331 23.7035 60.5525Z" fill="#03BFD7"/>
<path d="M14.7337 55.8728C14.6134 55.8577 8.63962 57.5731 6.77377 60.6427C6.77377 60.6427 6.63834 61.1694 7.07471 60.8985C7.52613 60.6277 11.6039 56.8809 14.7789 56.3091C14.7789 56.3091 15.3808 55.948 14.7337 55.8728Z" fill="#03BFD7"/>
<path d="M53.4189 100.247C52.9224 100.247 52.471 100.051 52.1399 99.675C51.6584 99.1333 51.4778 98.3358 51.4778 97.2976C50.8759 98.3208 49.928 99.4343 48.5286 99.4794C48.5135 99.4794 48.4834 99.4794 48.4684 99.4794C47.8665 99.4794 47.3399 99.2387 46.9787 98.8173C46.738 98.5465 46.6025 98.2155 46.5273 97.8844C46.1963 98.0499 45.8351 98.1402 45.474 98.1402C44.9925 98.1402 44.526 97.9747 44.1649 97.6587C43.247 96.8913 43.3222 95.6574 43.3523 95.1308C43.3824 94.6944 43.4426 94.2881 43.5179 93.8819C43.1417 94.1979 42.7053 94.4537 42.1787 94.5439C42.0282 94.574 41.8777 94.5891 41.7272 94.5891C41.0802 94.5891 40.5235 94.2881 40.2075 93.7765C39.4551 92.5878 40.2827 90.5715 40.6739 89.774C41.336 88.4047 42.2238 87.0956 43.3222 85.8768C43.4878 85.6962 43.7135 85.5006 44.0445 85.2147C44.1799 85.0943 44.3906 84.9288 44.6013 84.7332C43.7586 84.5977 42.4345 84.056 41.968 83.0178C41.6671 82.3557 41.7573 81.6184 42.2088 80.9864C42.8859 80.0535 44.1047 79.8428 44.9022 79.7074C44.9925 79.6924 45.0677 79.6773 45.143 79.6623C46.2113 79.4666 47.2496 79.3011 48.2577 79.1507C59.6184 77.5556 73.5371 71.5067 79.0293 61.5906C80.4738 58.9874 81.2864 56.1736 82.1591 53.1942C82.5503 51.8249 82.9717 50.4255 83.4381 49.0412C85.1385 44.0907 89.2915 40.8856 94.0163 40.8856C94.4677 40.8856 94.9342 40.9157 95.4007 40.9759C100.908 41.6681 105.723 45.4299 107.107 50.1396C108.281 54.1272 108.236 59.0175 106.957 65.0966C105.828 70.4835 103.797 75.103 100.908 78.7895C99.8396 80.1739 98.6057 81.3927 97.2665 82.4309C85.4845 91.5646 75.8995 93.7765 69.9408 94.0323L69.7151 94.0474C68.4962 94.0925 67.2473 94.1527 65.9834 94.1527C64.6141 94.1527 63.4554 94.0925 62.4172 93.9571C62.041 93.912 61.6648 93.8819 61.3037 93.8819C60.2504 93.8819 59.3325 94.0925 58.5801 94.5289C57.6472 95.0555 56.8497 95.9584 56.2027 97.2223C56.1425 97.3427 56.0672 97.5383 55.977 97.7339C55.6309 98.5615 55.1795 99.7051 54.066 100.111C53.8703 100.217 53.6446 100.247 53.4189 100.247Z" fill="white"/>
<path d="M94.0466 42.1195C94.4529 42.1195 94.8591 42.1496 95.2805 42.1948C99.8849 42.7666 104.625 45.8964 105.979 50.5008C107.318 55.0601 106.777 60.2815 105.814 64.8709C104.82 69.5958 102.985 74.2454 99.9902 78.0824C99.0122 79.3464 97.8836 80.49 96.5745 81.5132C89.1111 87.2913 79.5561 92.4525 69.941 92.8588C68.677 92.919 67.3528 92.9792 66.0287 92.9792C64.8701 92.9792 63.7114 92.934 62.613 92.7986C62.1916 92.7535 61.7703 92.7234 61.349 92.7234C60.1904 92.7234 59.0468 92.9491 58.0236 93.5359C56.7596 94.2582 55.8417 95.4319 55.1796 96.7259C54.8185 97.4181 54.5176 98.7422 53.705 99.0281C53.5997 99.0733 53.5094 99.0883 53.4191 99.0883C52.0047 99.0883 53.0429 94.2883 52.8925 93.4456C52.8473 93.235 52.8473 93.2049 52.7721 93.1898H52.757C52.5163 93.1898 52.11 93.7165 51.9896 93.8669C51.5533 94.4237 51.2674 95.0858 50.9664 95.7178C50.515 96.6356 49.7025 98.2908 48.4987 98.3209C48.4836 98.3209 48.4836 98.3209 48.4686 98.3209C47.4604 98.3209 47.6259 96.9817 47.7463 96.3196C47.9419 95.0858 48.5739 93.7917 48.6642 92.5127C48.2128 93.0544 48.0021 93.882 47.7162 94.4839C47.3852 95.2062 47.009 96.0337 46.3921 96.5905C46.1513 96.8162 45.8203 96.9817 45.4892 96.9817C45.3087 96.9817 45.1131 96.9215 44.9475 96.7861C44.5262 96.425 44.5413 95.7478 44.5714 95.2513C44.6316 94.2582 44.9174 93.3403 45.2334 92.4074C45.4441 91.8205 45.8203 90.9779 45.7149 90.3459C45.6849 90.1653 45.6096 90.1051 45.5043 90.1051C45.2033 90.1051 44.6616 90.692 44.4961 90.8575C43.819 91.5798 43.0516 93.2049 41.9832 93.4005C41.893 93.4155 41.8177 93.4306 41.7575 93.4306C40.4635 93.4306 41.5168 90.8876 41.7876 90.3459C42.4196 89.0217 43.2623 87.818 44.2554 86.7346C44.6917 86.238 47.0993 84.5076 46.6479 83.8906C46.4673 83.6499 46.046 83.6198 45.6397 83.6198C45.4591 83.6198 45.2936 83.6198 45.1432 83.6198C45.0679 83.6198 45.0077 83.6198 44.9626 83.6198C44.1801 83.5445 42.4798 82.8072 43.2322 81.769C43.6836 81.152 44.7218 81.0467 45.414 80.9263C46.4372 80.7458 47.4604 80.5802 48.4836 80.4298C59.8142 78.8348 74.3347 72.7557 80.143 62.2678C82.3399 58.2953 83.1675 53.7811 84.6421 49.5228C86.0565 45.2193 89.5776 42.1195 94.0466 42.1195ZM94.0466 39.712C91.3531 39.712 88.8102 40.6148 86.6885 42.3302C84.7173 43.9252 83.2126 46.1221 82.3248 48.6801C81.8433 50.0795 81.422 51.509 81.0308 52.8783C80.1881 55.7975 79.3756 58.5511 78.0063 61.0339C75.5837 65.4126 71.1598 69.3701 65.2312 72.4848C60.0549 75.2084 53.9759 77.1495 48.1225 77.9771C47.0993 78.1275 46.0309 78.2931 44.9626 78.4887C44.8874 78.5037 44.8121 78.5188 44.7369 78.5338C43.804 78.6993 42.239 78.9551 41.261 80.2943C40.5538 81.2724 40.4183 82.4762 40.8998 83.5145C41.2309 84.2367 41.7876 84.7634 42.3895 85.1396C41.2459 86.4186 40.313 87.8029 39.6208 89.2474C39.5606 89.3829 39.2146 90.1202 38.9738 90.9929C38.5826 92.4074 38.6729 93.5209 39.2296 94.4086C39.7713 95.2814 40.7042 95.7779 41.7726 95.7779C41.908 95.7779 42.0284 95.7779 42.1638 95.7629C42.1939 96.5755 42.4046 97.719 43.4127 98.5767C43.9996 99.0733 44.7218 99.3441 45.5043 99.3441C45.6247 99.3441 45.7601 99.3441 45.8805 99.3291C45.9407 99.4194 46.0159 99.5097 46.0911 99.5999C46.693 100.292 47.5357 100.683 48.4987 100.683C48.5288 100.683 48.5589 100.683 48.589 100.683C49.4918 100.668 50.2291 100.337 50.846 99.8858C50.9664 100.096 51.1018 100.307 51.2824 100.488C51.8542 101.105 52.6216 101.451 53.4643 101.451C53.8254 101.451 54.2016 101.391 54.5627 101.255C56.1728 100.668 56.8047 99.1335 57.1809 98.2005C57.2411 98.0501 57.3164 97.8695 57.3615 97.7943C57.9032 96.741 58.5502 96.0037 59.2725 95.5974C59.8443 95.2663 60.5515 95.1159 61.3941 95.1159C61.6951 95.1159 62.0261 95.1309 62.3572 95.1761C63.4406 95.3115 64.6594 95.3717 66.0738 95.3717C67.3679 95.3717 68.6319 95.3115 69.8657 95.2663L70.0914 95.2513C74.8764 95.0557 79.9323 93.7466 85.1236 91.3842C89.4572 89.3979 93.8359 86.7195 98.1093 83.4091C99.5238 82.3107 100.818 81.0166 101.961 79.557C104.956 75.7049 107.062 70.935 108.236 65.3675C109.545 59.0778 109.59 53.9918 108.356 49.8237C107.559 47.1303 105.829 44.7378 103.346 42.902C101.119 41.2468 98.3802 40.1483 95.6416 39.8023C95.0548 39.7421 94.5432 39.712 94.0466 39.712Z" fill="#03BFD7"/>
<path d="M65.0063 93.3252C63.6069 92.7383 62.5386 92.0763 62.0872 90.5565C61.8013 89.5784 61.5605 88.3747 60.6276 87.833C60.6125 87.8179 60.6125 87.8029 60.5975 87.7728C60.432 87.5019 60.1009 87.5471 59.9354 87.7427C59.8602 87.8029 59.7849 87.8932 59.7548 88.0135C59.499 88.9766 59.7097 89.9847 59.3636 90.9327C59.0326 91.8355 58.4909 92.633 57.7987 93.2951C57.2119 93.8518 56.5347 94.3032 56.0833 94.9954C55.6169 95.7026 55.2407 96.5603 55.1805 97.418C55.1504 97.9597 55.978 98.1252 56.0231 97.5685C56.0683 96.8312 56.3843 96.0336 56.8357 95.4017C56.9561 95.507 57.1366 95.5371 57.3021 95.3866C57.7536 95.0104 58.2351 94.6644 58.6564 94.2581C58.8219 94.3484 59.0326 94.3484 59.183 94.1829C59.499 93.8518 59.7548 93.5057 59.9655 93.1296C60.0257 93.4004 60.3116 93.4756 60.5222 93.3854C60.7179 93.5659 61.0639 93.596 61.1994 93.3402C61.2596 93.3854 61.3197 93.4305 61.395 93.4756C61.4853 93.5358 61.5755 93.5358 61.6809 93.5057C61.7411 93.5509 61.8013 93.581 61.8614 93.6261C61.9367 93.6713 62.027 93.6863 62.0872 93.6863C62.1624 93.8217 62.2828 93.8669 62.4031 93.8819C62.4182 93.897 62.4182 93.897 62.4332 93.912C62.5687 94.0324 62.7191 94.0324 62.8395 93.9872C63.005 93.9421 63.1555 93.8067 63.1254 93.581C63.1254 93.5358 63.1254 93.4907 63.0953 93.4455C63.0803 93.4004 63.0652 93.3553 63.0502 93.3101C63.5317 93.6261 64.0583 93.8819 64.6301 94.1227C65.1417 94.3032 65.5179 93.5358 65.0063 93.3252Z" fill="#03BFD7"/>
<path d="M28.5621 25.974L28.5772 24.2436C29.5402 24.5746 30.5784 24.4994 31.3759 23.8975C32.339 23.1602 32.3991 22.2273 31.8875 21.5351C31.2556 20.7075 30.2775 20.7376 29.2392 21.5351L28.5922 22.0316L27.4637 20.542L28.0505 20.1056C28.7878 19.5489 29.0888 18.5858 28.5019 17.8034C28.0054 17.1564 27.2981 16.9908 26.5157 17.5777C25.7934 18.1344 25.4925 18.8416 25.5527 19.8348L23.9276 19.4134C23.7169 18.1194 24.2887 16.9156 25.5376 15.9676C27.0875 14.7939 28.8029 14.8692 29.8863 16.2987C30.6687 17.3219 30.7439 18.3902 30.127 19.4887L30.1571 19.5338C31.4361 18.8717 32.7151 19.3081 33.5277 20.3765C34.7917 22.0467 34.28 24.048 32.6098 25.3119C31.1954 26.3652 29.7358 26.5308 28.5621 25.974Z" fill="white"/>
<path d="M34.3105 17.5324L37.952 15.6666L38.7494 17.2164L35.108 19.0823L34.3105 17.5324Z" fill="white"/>
<path d="M43.488 7.11975L44.6316 8.24829C43.0215 9.31665 41.8027 11.1524 41.8629 13.4245C42.1338 12.6722 42.7055 12.0703 43.7889 11.7393C45.4441 11.2427 47.2348 12.1606 47.8367 14.1468C48.5288 16.434 47.1445 18.2547 45.399 18.7814C42.9764 19.5187 40.9601 18.1193 40.298 15.9224C39.0942 11.9198 41.2761 8.41381 43.488 7.11975ZM44.8723 16.9757C45.8655 16.6747 46.2266 15.6967 45.9708 14.8239C45.6698 13.8308 44.8272 13.2139 43.6836 13.56C42.7055 13.8609 42.2993 14.6735 42.209 15.3506C42.5852 16.5995 43.5783 17.3669 44.8723 16.9757Z" fill="white"/>
<path d="M53.2534 9.64777L54.9387 9.69291L57.3463 12.8077L59.7689 9.81329L61.409 9.85843L61.2435 17.1563L59.3776 17.1112L59.483 12.6572L57.256 15.3356H57.2108L55.0591 12.5519L54.9537 17.0059L53.0879 16.9607L53.2534 9.64777Z" fill="white"/>
<path d="M68.9651 18.2547C68.1074 18.676 67.024 18.7061 66.0309 18.4503C63.7437 17.8785 62.6001 16.0127 63.1568 13.7857C63.6685 11.7242 65.5042 10.4302 67.8366 11.017C69.6573 11.4684 70.8611 13.1687 70.3645 15.155C70.2592 15.5913 70.1539 15.8622 70.0034 16.1029L64.8873 14.8239C64.782 15.9374 65.4741 16.7349 66.6027 17.0058C67.4754 17.2164 68.2729 17.0961 68.7695 16.8553L68.9651 18.2547ZM65.128 13.575L68.604 14.4478C68.8447 13.5901 68.4084 12.7625 67.3701 12.4916C66.2867 12.2358 65.5494 12.7023 65.128 13.575Z" fill="white"/>
<path d="M76.4887 21.249C75.5858 21.7305 74.3971 21.6553 73.3288 21.1587C71.1921 20.1506 70.3946 18.0891 71.3727 16.0126C72.2755 14.0865 74.4122 13.2138 76.4285 14.1618C77.5119 14.6734 78.3394 15.3956 78.6705 16.3135L77.2561 17.2765C76.9852 16.5543 76.5188 16.133 75.9169 15.8621C74.984 15.4257 73.7501 15.7116 73.1934 16.8853C72.6366 18.059 73.2084 19.2026 74.2166 19.6841C74.9388 20.0151 75.646 19.9399 76.293 19.6841L76.4887 21.249Z" fill="white"/>
</svg>
