<svg width="115" height="121" viewBox="0 0 115 121" fill="none" xmlns="http://www.w3.org/2000/svg">
<path d="M72.9612 63.3893C73.3224 62.8475 73.503 62.3057 73.8641 61.5833L68.4462 61.4027C67.3627 61.4027 66.4597 60.6803 66.0985 59.7774C65.7373 58.6938 65.9179 57.6102 66.8209 56.8878L76.9343 47.3162C76.7537 45.3296 76.3925 42.8012 75.6701 40.0923C75.6701 40.0923 78.9209 36.2997 75.8507 30.8818C73.3223 26.5475 70.6134 25.8251 68.988 25.8251C68.2656 25.8251 67.7238 26.0057 67.7238 26.0057C67.7238 26.0057 56.888 12.4609 42.9821 12.4609C40.4537 12.4609 37.9253 12.8221 35.2164 13.9057H35.0358C42.2597 20.5878 40.4537 27.9923 36.1194 31.6042C34.3134 33.049 32.688 33.5908 31.0627 33.5908C28.8955 33.5908 27.0895 32.5072 26.1865 30.8818C25.103 29.9788 25.2836 29.2565 25.8253 29.2565C26.0059 29.2565 26.0059 29.2565 26.1865 29.2565C27.0895 29.7982 27.9925 29.9788 28.8955 29.9788C30.3403 29.9788 31.6044 29.2565 32.3268 28.7147C34.1328 27.2699 35.0358 23.4773 31.4239 20.5878C29.9791 19.5042 28.1731 18.7818 25.8253 18.7818C22.9358 18.7818 19.3239 20.046 15.5313 22.9356C0.541765 35.0356 5.77908 52.3729 9.75221 59.055C7.58505 61.5833 7.94624 66.0982 10.6552 69.349C12.6418 71.6968 15.3507 72.7803 17.6985 72.7803C18.9627 72.7803 20.2268 72.4191 21.3104 71.6968C28.8955 77.6565 36.6612 80.3654 44.2462 80.3654C48.5806 80.3654 52.9149 79.4624 56.888 77.6565L72.9612 63.3893ZM38.4671 58.3326C38.2865 58.5132 37.9253 58.5132 37.5642 58.5132C36.8418 58.5132 35.9388 57.9714 35.2164 57.0684C34.494 55.8042 34.494 54.3594 35.5776 53.8176C35.7582 53.6371 36.1194 53.6371 36.4806 53.6371C37.203 53.6371 38.1059 54.1789 38.8283 55.0818C39.5507 56.346 39.3701 57.7908 38.4671 58.3326ZM55.8044 42.6206C55.985 42.44 56.3462 42.44 56.7074 42.44C57.4298 42.44 58.3328 42.9818 58.8746 43.7042C59.597 44.7878 59.4164 46.2326 58.5134 46.7744C58.3328 46.955 57.9716 46.955 57.6104 46.955C56.888 46.955 55.9851 46.4132 55.4433 45.6908C54.9015 44.4266 54.9015 43.1624 55.8044 42.6206ZM52.7343 56.346C52.3731 56.5266 52.0119 56.8878 51.8313 57.249C51.6507 57.6102 51.4701 57.7908 51.1089 57.7908C50.9283 57.7908 50.7477 57.7908 50.5671 57.6102C50.3865 57.4296 50.3865 57.249 50.3865 56.8878C50.3865 56.346 50.5671 55.8042 50.9283 55.2624C51.1089 54.9012 51.4701 54.54 52.0119 54.3594C52.3731 54.1788 52.9149 53.9982 53.2761 53.9982C53.8179 53.9982 54.3597 54.1788 54.9015 54.54C55.0821 54.7206 55.2627 54.9012 55.2627 55.0818C55.2627 55.2624 55.2627 55.443 55.0821 55.6236C55.0821 55.8042 54.9015 55.8042 54.7209 55.8042C54.5403 55.8042 54.5403 55.9848 54.3597 55.9848H54.1791C53.9985 55.9848 53.8179 55.9848 53.6373 55.9848C53.2761 56.1654 53.0955 56.1654 52.7343 56.346ZM55.6239 69.1684C54.7209 69.1684 53.9985 68.0848 53.9985 66.64C53.9985 65.3759 54.7209 64.1117 55.6239 64.1117C56.5268 64.1117 57.2492 65.1953 57.2492 66.64C57.2492 68.0848 56.5268 69.1684 55.6239 69.1684Z" fill="white"/>
<path d="M91.9244 52.012L103.121 32.5076L111.609 18.0598L100.954 27.9927L79.4632 48.4001L78.0184 49.6643L76.5736 50.9285L68.4468 58.8747L74.7677 59.0553H76.393H77.8378H81.4497L75.3095 64.6538L71.3363 68.2658L62.3065 76.5732L57.9721 80.5464L57.0691 81.2688L70.2527 81.63L53.096 107.817L46.0527 118.472L58.6945 107.636L95.7169 75.8509L83.0751 75.6702L104.927 52.3732L91.9244 52.012Z" fill="white"/>
<path d="M57.611 46.9551C57.9721 46.9551 58.1527 46.9551 58.5139 46.7745C59.4169 46.2327 59.5975 44.7879 58.8751 43.7044C58.3333 42.8014 57.4304 42.4402 56.708 42.4402C56.3468 42.4402 56.1662 42.4402 55.805 42.6208C54.902 43.1626 54.7214 44.6073 55.4438 45.6909C56.1662 46.4133 56.8886 46.9551 57.611 46.9551Z" fill="#00BED9"/>
<path d="M55.6234 64.2927C54.7204 64.2927 53.998 65.3763 53.998 66.8211C53.998 68.0853 54.7204 69.3494 55.6234 69.3494C56.5264 69.3494 57.2488 68.2659 57.2488 66.8211C57.2488 65.3763 56.5264 64.2927 55.6234 64.2927Z" fill="#00BED9"/>
<path d="M37.565 58.6942C37.9262 58.6942 38.1068 58.6942 38.468 58.5136C39.371 57.9718 39.5516 56.5271 38.8292 55.2629C38.2874 54.3599 37.3844 53.8181 36.4814 53.8181C36.1202 53.8181 35.9396 53.8181 35.5784 53.9987C34.6754 54.5405 34.4948 55.9853 35.2172 57.2495C35.9396 58.1524 36.8426 58.6942 37.565 58.6942Z" fill="#00BED9"/>
<path d="M51.1085 57.7911C51.4697 57.7911 51.6503 57.6105 51.8309 57.2493C52.0115 56.8881 52.3727 56.527 52.7338 56.3464C52.9144 56.1658 53.2756 56.1658 53.6368 56.1658C53.8174 56.1658 53.998 56.1658 54.1786 56.1658H54.3592C54.5398 56.1658 54.5398 56.1658 54.7204 55.9852C54.901 55.9852 54.901 55.8046 55.0816 55.8046C55.2622 55.624 55.2622 55.4434 55.2622 55.2628C55.2622 55.0822 55.0816 54.9016 54.901 54.721C54.3592 54.3598 53.8174 54.1792 53.2756 54.1792C52.9144 54.1792 52.3727 54.3598 52.0115 54.5404C51.6503 54.721 51.2891 55.0822 50.9279 55.4434C50.3861 55.8046 50.2055 56.3464 50.3861 56.8882C50.3861 57.0688 50.5667 57.2493 50.5667 57.4299C50.7473 57.6105 50.9279 57.7911 51.1085 57.7911Z" fill="#00BED9"/>
<path d="M114.137 18.0597C114.137 16.6149 113.054 15.3507 111.609 15.3507C111.067 15.3507 110.525 15.5313 110.164 15.7119C109.984 15.7119 109.984 15.8925 109.803 15.8925L99.6896 25.4642C90.1179 10.1134 73.3224 0 53.8179 0C24.0194 0 0 24.2 0 53.8179C0 82.3522 22.0328 105.649 50.0254 107.455L43.8851 116.846C43.1627 117.93 43.3433 119.375 44.4269 120.278C44.9687 120.639 45.5104 121 46.2328 121C46.7746 121 47.497 120.819 48.0388 120.278L63.7508 106.733C88.8537 102.218 107.816 80.1851 107.816 53.8179C107.816 53.2761 107.816 52.9149 107.816 52.3731C107.816 52.1925 107.816 52.0119 107.816 51.8313C107.636 46.0522 106.552 40.6343 104.566 35.5776L113.957 19.3239C114.137 18.9627 114.137 18.4209 114.137 18.0597ZM91.9239 52.0119L105.107 52.1925L83.0746 75.6701L95.5358 75.8508L58.5134 107.636L45.8716 118.472L52.9149 107.816L70.2522 81.6299L57.0687 81.4493L57.9716 80.5463L62.306 76.5731L71.3358 68.2657L75.309 64.6537L81.4492 59.0552H77.6567H76.212H74.7672L68.4463 58.8746L76.7537 51.109L78.1985 49.6642L79.6433 48.4L100.954 27.9925L111.609 17.8791L103.302 32.3269L91.9239 52.0119ZM15.3507 23.1164C19.1433 20.0463 22.5746 18.9627 25.6448 18.9627C27.9925 18.9627 29.7985 19.6851 31.2433 20.7687C34.8552 23.6582 33.9522 27.4508 32.1463 28.8955C31.4239 29.4373 30.3403 30.1597 28.7149 30.1597C27.9925 30.1597 27.0896 29.9791 26.006 29.4373C25.8254 29.4373 25.8254 29.4373 25.6448 29.4373C25.103 29.4373 24.9224 30.1597 25.4642 31.0627C26.5478 32.6881 28.3537 33.7716 30.3403 33.7716C31.9657 33.7716 33.7716 33.2299 35.397 31.7851C39.7313 28.1731 41.5373 20.9493 34.3134 14.0866H34.494C37.203 13.003 39.7313 12.6418 42.2597 12.6418C56.1657 12.6418 67.0015 26.1866 67.0015 26.1866C67.0015 26.1866 67.5433 26.006 68.2657 26.006C69.8911 26.006 72.6 26.7284 75.1284 31.0627C78.3791 36.4806 74.9478 40.2731 74.9478 40.2731C75.8507 42.9821 76.212 45.5104 76.212 47.497L66.6403 56.8881C65.9179 57.6105 65.5567 58.694 65.9179 59.7776C66.2791 60.8612 67.1821 61.403 68.2657 61.403L73.6836 61.5836C73.503 62.1254 73.1418 62.8478 72.7806 63.3896L56.8881 78.0179C52.9149 79.8239 48.5806 80.7269 44.2463 80.7269C36.6612 80.7269 28.8955 78.0179 21.3105 72.0582C20.2269 72.7806 18.9627 73.1418 17.6985 73.1418C15.1702 73.1418 12.4612 71.8776 10.6552 69.7105C7.76567 66.4597 7.40448 62.1254 9.75224 59.4164C5.59851 52.5537 0.541791 35.2164 15.3507 23.1164Z" fill="#00BED9"/>
</svg>
