<svg width="20" height="20" viewBox="0 0 20 20" fill="none" xmlns="http://www.w3.org/2000/svg">
<path d="M17.5 19.623C16.46 19.623 15.4705 19.169 14.8008 18.3963C14.3611 18.5127 13.9072 18.5716 13.448 18.5716C12.6405 18.5716 11.8436 18.3864 11.1264 18.034C10.4414 18.5564 9.59891 18.8413 8.72539 18.8413C6.99414 18.8413 5.48664 17.7284 4.98551 16.1393C4.63906 16.2359 4.28098 16.2847 3.91609 16.2847C3.34687 16.2847 2.79777 16.1674 2.28406 15.936C2.08797 15.8477 2.00199 15.6202 2.09199 15.4278C2.18199 15.2354 2.41383 15.151 2.60996 15.2394C3.0207 15.4243 3.46016 15.5181 3.91609 15.5181C4.32953 15.5181 4.73195 15.4399 5.11215 15.2858C5.2209 15.2417 5.34414 15.2481 5.44754 15.3031C5.55098 15.3581 5.62363 15.4559 5.64527 15.5694C5.92262 17.0211 7.21801 18.0748 8.72539 18.0748C9.49879 18.0748 10.2418 17.7958 10.8175 17.289C10.9427 17.1789 11.1257 17.1597 11.2718 17.2413C11.9316 17.6102 12.6841 17.8051 13.448 17.8051C13.9171 17.8051 14.3795 17.7328 14.822 17.5903C14.9836 17.5383 15.1611 17.5949 15.2606 17.7303C15.779 18.4355 16.6162 18.8565 17.5 18.8565C17.6904 18.8565 17.8774 18.8379 18.06 18.8009C17.3523 18.2109 16.8932 17.3587 16.8157 16.438C16.8075 16.3409 16.8373 16.2444 16.899 16.1682C17.5221 15.3979 17.8514 14.47 17.8514 13.4846C17.8514 13.1203 17.8051 12.7584 17.7138 12.4088C17.6729 12.2519 17.7368 12.0866 17.8737 11.996C18.7159 11.4382 19.2188 10.5109 19.2188 9.51538C19.2188 7.95178 17.9745 6.64183 16.386 6.53317C16.2463 6.52363 16.1224 6.44138 16.0614 6.31766C16.0005 6.19391 16.0117 6.04762 16.0909 5.93425C16.4033 5.48675 16.5684 4.96271 16.5684 4.41875C16.5684 2.93775 15.3404 1.73288 13.831 1.73288C13.2809 1.73288 12.7505 1.89228 12.2972 2.19383C12.125 2.30835 11.8916 2.27041 11.7663 2.10756C11.1104 1.2553 10.1109 0.766525 9.02426 0.766525C7.16105 0.766525 5.65375 2.19686 5.59266 4.02284C5.58883 4.13724 5.53309 4.24398 5.44066 4.31385C5.34824 4.38372 5.22887 4.40932 5.11516 4.38391C4.8834 4.3319 4.64727 4.30553 4.41336 4.30553C2.6848 4.30553 1.27852 5.68528 1.27852 7.38126C1.27852 8.13866 1.56207 8.86667 2.07687 9.43114C2.14961 9.51085 2.18504 9.61679 2.17465 9.7233C2.16422 9.82981 2.10891 9.92719 2.02207 9.99189C1.23352 10.5797 0.78125 11.4728 0.78125 12.4424C0.78125 12.5794 0.790508 12.7172 0.80875 12.8519C0.837188 13.0617 0.686875 13.2544 0.473008 13.2823C0.258984 13.3103 0.0627344 13.1627 0.0342969 12.9529C0.0115234 12.7849 0 12.6131 0 12.4424C0 11.3634 0.448242 10.3602 1.24223 9.63515C0.759414 8.98214 0.497266 8.1953 0.497266 7.38122C0.497266 5.26258 2.25402 3.53897 4.41336 3.53897C4.55852 3.53897 4.70422 3.54706 4.84949 3.56315C4.97754 2.65333 5.40922 1.81452 6.09055 1.16627C6.88105 0.414192 7.92293 0 9.02426 0C10.2395 0 11.3657 0.49782 12.1651 1.37718C12.6751 1.10755 13.2445 0.966397 13.831 0.966397C15.7712 0.966397 17.3497 2.51512 17.3497 4.41879C17.3497 4.91944 17.2407 5.40715 17.0314 5.85506C18.7366 6.2412 20 7.74957 20 9.51538C20 10.6769 19.4554 11.7643 18.5304 12.4746C18.5983 12.8058 18.6327 13.1444 18.6327 13.4846C18.6327 14.5912 18.2798 15.6365 17.6104 16.5179C17.7327 17.3886 18.2929 18.164 19.0988 18.5649C19.2301 18.6302 19.3128 18.7623 19.3128 18.9067C19.3128 19.0511 19.2301 19.1833 19.0988 19.2485C18.5991 19.497 18.0613 19.623 17.5 19.623Z" fill="#03BFD7"/>
<path d="M10 12.707C9.31075 12.707 8.75001 12.1568 8.75001 11.4805V10.3333C8.75001 9.37227 9.40145 8.51031 10.3343 8.23717C10.8355 8.09041 11.177 7.62823 11.1646 7.11327C11.1502 6.51287 10.6407 6.01294 10.0288 5.9988C9.71282 5.99144 9.4127 6.10658 9.18618 6.32368C8.95977 6.54066 8.83508 6.83113 8.83508 7.14152C8.83508 7.81785 8.27434 8.36807 7.58508 8.36807C6.89583 8.36807 6.33508 7.81785 6.33508 7.14152C6.33508 6.16492 6.72727 5.25121 7.43934 4.56879C8.15047 3.88721 9.09094 3.52446 10.0874 3.54635C11.03 3.56812 11.9184 3.94264 12.5893 4.60087C13.2601 5.25911 13.6418 6.13088 13.664 7.05551C13.7011 8.60353 12.718 10.0004 11.25 10.5227V11.4804C11.25 12.1568 10.6893 12.707 10 12.707ZM9.99864 5.23186C10.0149 5.23186 10.0312 5.23205 10.0475 5.23243C11.0699 5.25604 11.9216 6.09167 11.9456 7.09526C11.9663 7.9548 11.3955 8.72649 10.5577 8.9718C9.95333 9.14873 9.53126 9.70861 9.53126 10.3333V11.4805C9.53126 11.7341 9.74153 11.9404 10 11.9404C10.2585 11.9404 10.4688 11.7341 10.4688 11.4805V10.3333C10.4688 10.1122 10.6156 9.91483 10.8257 9.85331C12.0675 9.48971 12.9134 8.34664 12.8829 7.0736C12.8654 6.34687 12.565 5.66123 12.0368 5.14297C11.5086 4.62471 10.8099 4.32988 10.0693 4.31275C9.28497 4.29542 8.54473 4.58094 7.9852 5.11721C7.42489 5.65421 7.11633 6.37312 7.11633 7.14156C7.11633 7.39519 7.32661 7.60151 7.58508 7.60151C7.84356 7.60151 8.05383 7.39519 8.05383 7.14156C8.05383 6.62296 8.26211 6.13774 8.64028 5.7753C9.00704 5.42377 9.48774 5.23186 9.99864 5.23186Z" fill="#03BFD7"/>
<path d="M10 16.0796C9.31074 16.0796 8.75 15.5293 8.75 14.8528C8.75 14.1763 9.31074 13.626 10 13.626C10.6893 13.626 11.25 14.1763 11.25 14.8528C11.25 15.5293 10.6893 16.0796 10 16.0796ZM10 14.3927C9.74152 14.3927 9.53125 14.5991 9.53125 14.8528C9.53125 15.1065 9.74152 15.3128 10 15.3128C10.2585 15.3128 10.4688 15.1065 10.4688 14.8528C10.4688 14.5991 10.2585 14.3927 10 14.3927Z" fill="#03BFD7"/>
<path d="M1.08252 14.8848C0.979785 14.8848 0.879004 14.8438 0.806348 14.7725C0.733691 14.7008 0.691895 14.6023 0.691895 14.5015C0.691895 14.4003 0.733691 14.3017 0.806348 14.2301C0.879004 14.1588 0.979824 14.1182 1.08252 14.1182C1.18525 14.1182 1.28604 14.1588 1.35869 14.2301C1.43135 14.3014 1.47314 14.4003 1.47314 14.5015C1.47314 14.6023 1.43135 14.7012 1.35869 14.7725C1.28604 14.8438 1.18525 14.8848 1.08252 14.8848Z" fill="#03BFD7"/>
</svg>
