<svg width="20" height="20" viewBox="0 0 20 20" fill="none" xmlns="http://www.w3.org/2000/svg">
<g clip-path="url(#clip0)">
<path d="M18.0065 0.110619L1.31672 12.2846C0.896131 12.5914 1.07101 13.2578 1.58852 13.318L7.92632 14.056V19.0667C7.92632 19.5862 8.56056 19.8341 8.91498 19.463L11.6616 16.5874L16.1406 19.8878C16.4973 20.1505 17.008 19.9263 17.0519 19.4823L18.9156 0.630577C18.9664 0.137699 18.4036 -0.179233 18.0065 0.110619ZM8.24103 12.9375L3.17731 12.3478L15.5235 3.34213L8.24103 12.9375ZM9.07379 17.6354V14.6806L10.7302 15.9012L9.07379 17.6354ZM16.0093 18.3656C14.9966 17.6195 10.3381 14.1869 9.30887 13.4285L17.5739 2.53875L16.0093 18.3656Z" fill="#03BFD7"/>
<path d="M14.9075 14.3925C14.9267 14.3944 14.9457 14.3953 14.9646 14.3953C15.2561 14.3953 15.5056 14.1741 15.5349 13.878L15.9127 10.0564C15.944 9.74112 15.7136 9.46022 15.3983 9.42908C15.0834 9.39779 14.8021 9.62828 14.7709 9.94361L14.393 13.7652C14.3618 14.0805 14.5922 14.3614 14.9075 14.3925Z" fill="#03BFD7"/>
</g>
<defs>
<clipPath id="clip0">
<rect width="20" height="20" fill="white"/>
</clipPath>
</defs>
</svg>
